<?xml version="1.0" encoding="utf-8"?>
<!-- Generator: Adobe Illustrator 23.0.1, SVG Export Plug-In . SVG Version: 6.00 Build 0)  -->
<svg version="1.1" id="Layer_1" xmlns="http://www.w3.org/2000/svg" xmlns:xlink="http://www.w3.org/1999/xlink" x="0px" y="0px"
	 viewBox="0 0 94.2 54.3" style="enable-background:new 0 0 94.2 54.3;" xml:space="preserve">
<style type="text/css">
	.st0{fill:#101B51;}
</style>
<g>
	<g id="Layer_1-2">
		<path class="st0" d="M91.5,15.4c-0.5-1-1.7-1.4-2.7-0.9c-1,0.5-1.4,1.7-0.9,2.7l0,0c1.5,3.1,2.3,6.6,2.3,10
			C90.2,40,79.8,50.4,67,50.4S43.8,40,43.8,27.2S54.2,4,67,4c5.9,0,11.7,2.3,16,6.4L66.8,33l-8.9-10.7c-0.7-0.8-2-1-2.8-0.3
			s-1,2-0.3,2.8l10,12c0.5,0.6,1.2,1,2,1H67c0.8,0,1.5-0.4,2-1.1L91.8,5c0.6-0.9,0.4-2.2-0.4-2.8c-0.9-0.6-2.2-0.4-2.8,0.5l-3.2,4.4
			C75-2.3,59.4-2.3,49,6.9H20.3C9.1,7.2,0.2,16.4,0.4,27.6c0.2,10.8,9,19.6,19.8,19.8H49c11.2,10,28.4,9,38.4-2.2
			C94.6,37,96.3,25.3,91.5,15.4L91.5,15.4z M4,27.2c0-9,7.3-16.3,16.3-16.3h25c-7.2,9.6-7.2,22.9,0,32.5h-25
			C11.3,43.4,4,36.2,4,27.2z"/>
	</g>
</g>
</svg>
