<svg xmlns="http://www.w3.org/2000/svg" width="8" height="15" viewBox="0 0 8 15">
  <metadata><?xpacket begin="﻿" id="W5M0MpCehiHzreSzNTczkc9d"?>
<x:xmpmeta xmlns:x="adobe:ns:meta/" x:xmptk="Adobe XMP Core 5.6-c142 79.160924, 2017/07/13-01:06:39        ">
   <rdf:RDF xmlns:rdf="http://www.w3.org/1999/02/22-rdf-syntax-ns#">
      <rdf:Description rdf:about=""/>
   </rdf:RDF>
</x:xmpmeta>
                                                                                                    
                                                                                                    
                                                                                                    
                                                                                                    
                                                                                                    
                                                                                                    
                                                                                                    
                                                                                                    
                                                                                                    
                                                                                                    
                                                                                                    
                                                                                                    
                                                                                                    
                                                                                                    
                                                                                                    
                                                                                                    
                                                                                                    
                                                                                                    
                                                                                                    
                                                                                                    
                           
<?xpacket end="w"?></metadata>
<defs>
    <style>
      .cls-1 {
        fill: #101b51;
        stroke: #101b51;
        stroke-width: 1px;
        fill-rule: evenodd;
      }
    </style>
  </defs>
  <path id="Data" class="cls-1" d="M348.843,14.633a1.393,1.393,0,0,1,0-1.753L354.2,6.616a0.954,0.954,0,0,1,1.5,0,1.394,1.394,0,0,1,0,1.752l-5.353,6.265A0.954,0.954,0,0,1,348.843,14.633ZM354.2,8.368L348.843,2.1a1.391,1.391,0,0,1,0-1.752,0.954,0.954,0,0,1,1.5,0l5.353,6.263a1.394,1.394,0,0,1,0,1.752A0.953,0.953,0,0,1,354.2,8.368ZM7.151,0.353a1.392,1.392,0,0,1,0,1.752L1.8,8.368a0.954,0.954,0,0,1-1.5,0,1.4,1.4,0,0,1,0-1.752L5.654,0.353A0.954,0.954,0,0,1,7.151.353ZM1.8,6.616L7.151,12.88a1.394,1.394,0,0,1,0,1.753,0.954,0.954,0,0,1-1.5,0L0.3,8.368a1.4,1.4,0,0,1,0-1.752A0.955,0.955,0,0,1,1.8,6.616Z"/>
</svg>
