<?xml version="1.0" encoding="utf-8"?>
<!-- Generator: Adobe Illustrator 23.0.1, SVG Export Plug-In . SVG Version: 6.00 Build 0)  -->
<svg version="1.1" id="Layer_1" xmlns="http://www.w3.org/2000/svg" xmlns:xlink="http://www.w3.org/1999/xlink" x="0px" y="0px"
	 viewBox="0 0 92.5 101.84" style="enable-background:new 0 0 92.5 101.84;" xml:space="preserve">
<style type="text/css">
	.st0{fill:#231F20;}
	.st1{fill:#EBEBEC;}
	.st2{fill:#FFFFFF;}
	.st3{fill:none;stroke:#000000;stroke-width:4;stroke-linecap:round;stroke-miterlimit:10;}
	.st4{fill:#F37A7B;}
	.st5{fill:none;stroke:#000000;stroke-width:5;stroke-linecap:round;stroke-miterlimit:10;}
	.st6{fill:none;}
</style>
<g>
	<path d="M53.08,50.93c0,1.06-0.42,2.08-1.17,2.83L6.84,98.83c-1.56,1.56-4.1,1.56-5.66,0s-1.56-4.1,0-5.66l42.24-42.24L1.18,8.69
		c-1.57-1.56-1.58-4.1-0.02-5.67C2.73,1.45,5.27,1.44,6.84,3l45.07,45.1C52.66,48.85,53.08,49.87,53.08,50.93"/>
	<path d="M92.5,50.92c0,1.59-0.63,3.12-1.76,4.24l-45.07,45.07c-2.42,2.26-6.22,2.13-8.48-0.3c-2.15-2.3-2.15-5.88,0-8.18
		l40.82-40.83L37.19,10.09c-2.26-2.42-2.13-6.22,0.3-8.48c2.3-2.15,5.88-2.15,8.18,0l45.07,45.07C91.87,47.81,92.5,49.33,92.5,50.92
		"/>
</g>
<rect x="-1609.88" y="-1016.97" class="st6" width="3000" height="3000"/>
</svg>
