<?xml version="1.0" encoding="utf-8"?>
<!-- Generator: Adobe Illustrator 23.0.1, SVG Export Plug-In . SVG Version: 6.00 Build 0)  -->
<svg version="1.1" id="Layer_1" xmlns="http://www.w3.org/2000/svg" xmlns:xlink="http://www.w3.org/1999/xlink" x="0px" y="0px"
	 viewBox="0 0 44.72 92.33" style="enable-background:new 0 0 44.72 92.33;" xml:space="preserve">
<style type="text/css">
	.st0{fill:#231F20;}
	.st1{fill:#EBEBEC;}
	.st2{fill:#FFFFFF;}
	.st3{fill:none;stroke:#000000;stroke-width:4;stroke-linecap:round;stroke-miterlimit:10;}
	.st4{fill:#F37A7B;}
	.st5{fill:none;stroke:#000000;stroke-width:5;stroke-linecap:round;stroke-miterlimit:10;}
	.st6{fill:none;}
</style>
<path class="st2" d="M25.97,88.73V12.34L38.56,25c1.41,1.41,3.69,1.42,5.1,0.01c1.41-1.4,1.42-3.69,0.01-5.1L24.92,1.06c0,0,0,0,0,0
	c-1.41-1.41-3.7-1.41-5.1,0c0,0,0,0,0,0L1.05,19.91c-1.41,1.41-1.4,3.69,0.01,5.1c1.41,1.41,3.69,1.4,5.1-0.01l12.59-12.65v76.38
	c0,1.99,1.61,3.61,3.61,3.61C24.35,92.33,25.97,90.72,25.97,88.73"/>
<rect x="-2732.03" y="-1414" class="st6" width="3000" height="3000"/>
</svg>
