<svg xmlns="http://www.w3.org/2000/svg" width="13" height="14" viewBox="0 0 13 14">
  <metadata><?xpacket begin="﻿" id="W5M0MpCehiHzreSzNTczkc9d"?>
<x:xmpmeta xmlns:x="adobe:ns:meta/" x:xmptk="Adobe XMP Core 5.6-c142 79.160924, 2017/07/13-01:06:39        ">
   <rdf:RDF xmlns:rdf="http://www.w3.org/1999/02/22-rdf-syntax-ns#">
      <rdf:Description rdf:about=""/>
   </rdf:RDF>
</x:xmpmeta>
                                                                                                    
                                                                                                    
                                                                                                    
                                                                                                    
                                                                                                    
                                                                                                    
                                                                                                    
                                                                                                    
                                                                                                    
                                                                                                    
                                                                                                    
                                                                                                    
                                                                                                    
                                                                                                    
                                                                                                    
                                                                                                    
                                                                                                    
                                                                                                    
                                                                                                    
                                                                                                    
                           
<?xpacket end="w"?></metadata>
<defs>
    <style>
      .cls-1 {
        fill: #fff;
        fill-rule: evenodd;
      }
    </style>
  </defs>
  <path id="Menu_Icon" data-name="Menu Icon" class="cls-1" d="M29.625,103.281h11.75a0.625,0.625,0,0,1,.625.625v0.188a0.625,0.625,0,0,1-.625.625H29.625A0.625,0.625,0,0,1,29,104.094v-0.188A0.625,0.625,0,0,1,29.625,103.281Zm-0.082-.326,4.642-5.682a0.709,0.709,0,0,1,1.018-.091,0.755,0.755,0,0,1,.089,1.045l-4.642,5.682a0.709,0.709,0,0,1-1.017.091A0.756,0.756,0,0,1,29.543,102.955Zm1.106,1.136,4.642,5.682a0.756,0.756,0,0,1-.089,1.045,0.708,0.708,0,0,1-1.018-.091l-4.642-5.682A0.756,0.756,0,0,1,29.632,104,0.71,0.71,0,0,1,30.649,104.091Z" transform="translate(-29 -97)"/>
</svg>
