<?xml version="1.0" encoding="utf-8"?>
<!-- Generator: Adobe Illustrator 25.2.3, SVG Export Plug-In . SVG Version: 6.00 Build 0)  -->
<svg version="1.1" id="Layer_1" xmlns="http://www.w3.org/2000/svg" xmlns:xlink="http://www.w3.org/1999/xlink" x="0px" y="0px"
	 viewBox="0 0 44.7 92.3" style="enable-background:new 0 0 44.7 92.3;" xml:space="preserve">
<style type="text/css">
	.st0{fill:#E90081;}
	.st1{fill:none;}
</style>
<path class="st0" d="M26,88.7V12.3L38.6,25c1.4,1.4,3.7,1.4,5.1,0c1.4-1.4,1.4-3.7,0-5.1L24.9,1.1l0,0c-1.4-1.4-3.7-1.4-5.1,0l0,0
	L1,19.9c-1.4,1.4-1.4,3.7,0,5.1s3.7,1.4,5.1,0l12.6-12.6v76.4c0,2,1.6,3.6,3.6,3.6C24.4,92.3,26,90.7,26,88.7"/>
<rect x="-2732" y="-1414" class="st1" width="3000" height="3000"/>
</svg>
