<?xml version="1.0" encoding="utf-8"?>
<!-- Generator: Adobe Illustrator 23.0.1, SVG Export Plug-In . SVG Version: 6.00 Build 0)  -->
<svg version="1.1" id="Layer_1" xmlns="http://www.w3.org/2000/svg" xmlns:xlink="http://www.w3.org/1999/xlink" x="0px" y="0px"
	 viewBox="0 0 80.3 60.5" style="enable-background:new 0 0 80.3 60.5;" xml:space="preserve">
<style type="text/css">
	.st0{fill:#FFFFFF;}
</style>
<g>
	<g id="Layer_1-2">
		<path class="st0" d="M64.2,28.2H6.8L31.6,3.4c0.7-0.8,0.7-2.1-0.1-2.8c-0.8-0.7-1.9-0.7-2.7,0L0.6,28.8c-0.1,0.1-0.2,0.2-0.3,0.3
			c0,0-0.1,0.1-0.1,0.1l-0.1,0.2c0,0.1,0,0.1-0.1,0.2c0,0.1,0,0.1,0,0.2C0,30,0,30.3,0.1,30.6c0,0.1,0,0.1,0,0.2
			c0,0.1,0,0.1,0.1,0.2l0.1,0.2c0,0.1,0.1,0.1,0.1,0.1c0.1,0.1,0.2,0.2,0.3,0.3l28.2,28.2c0.4,0.4,0.9,0.6,1.4,0.6
			c0.5,0,1-0.2,1.4-0.6c0.8-0.8,0.8-2,0-2.8L6.8,32.2h57.4c8.2,0,12,6.3,12.2,12S73,56.1,65.1,56.4c-0.4,0-0.8,0-1.2,0
			c-1.1,0-2,0.9-2,2s0.9,2,2,2c0.5,0,0.9,0,1.4,0c10.6-0.5,15.3-8.8,15.1-16.3C80.2,36.2,74.6,28.2,64.2,28.2z"/>
	</g>
</g>
</svg>
