<?xml version="1.0" encoding="utf-8"?>
<svg version="1.1" id="Layer_1" x="0px" y="0px" viewBox="0 0 107.14 142.85" style="enable-background:new 0 0 107.14 142.85;" xmlns="http://www.w3.org/2000/svg">
  <style type="text/css">
	.st0{fill:#101b51;}
	.st1{fill:#101b51;}
	.st2{fill:#FFFFFF;}
	.st3{fill:#101b51;}
	.st4{fill:none;}
</style>
  <g>
    <g>
      <path d="M82.78,116.23c-7.32,0-13.28-5.96-13.28-13.28c0-7.32,5.96-13.28,13.28-13.28c7.32,0,13.28,5.96,13.28,13.28 C96.06,110.27,90.11,116.23,82.78,116.23z M82.78,94.67c-4.57,0-8.28,3.71-8.28,8.28c0,4.57,3.71,8.28,8.28,8.28 c4.57,0,8.28-3.71,8.28-8.28C91.06,98.38,87.35,94.67,82.78,94.67z" style="fill: rgb(16, 27, 81);"/>
    </g>
    <g>
      <path d="M82.77,127.3c-2.75,0-5.47-0.46-8.07-1.38c-12.66-4.46-19.33-18.38-14.88-31.04c1.45-4.01,1.06-8.4-1.06-12.07l-3.99-6.73 c-0.7-1.19-0.31-2.72,0.88-3.43c1.19-0.7,2.72-0.31,3.43,0.88l4,6.75c2.87,4.98,3.4,10.9,1.45,16.27 c-3.53,10.04,1.77,21.1,11.83,24.64c2.26,0.79,4.61,1.16,7,1.09c1.37-0.03,2.53,1.04,2.57,2.42c0.04,1.38-1.04,2.53-2.42,2.57 C83.26,127.29,83.01,127.3,82.77,127.3z" style="fill: rgb(16, 27, 81);"/>
    </g>
    <g>
      <path d="M92.12,125.21c-0.94,0-1.84-0.53-2.27-1.44c-0.59-1.25-0.05-2.74,1.2-3.32c0.83-0.39,1.65-0.85,2.42-1.36 c4.48-2.97,7.54-7.71,8.4-13.02c0.83-5.1-0.37-10.23-3.39-14.42c-3.02-4.2-7.5-6.97-12.6-7.8c-5.64-0.96-10.51-4.35-13.36-9.29 l-8.17-13.9c-0.7-1.19-0.3-2.72,0.89-3.42c1.19-0.7,2.72-0.3,3.42,0.89l8.18,13.92c2.12,3.66,5.71,6.16,9.87,6.87 c6.4,1.04,12.03,4.53,15.83,9.81s5.32,11.73,4.27,18.15c-1.09,6.67-4.94,12.64-10.57,16.38c-0.98,0.65-2.01,1.23-3.06,1.72 C92.84,125.13,92.48,125.21,92.12,125.21z" style="fill: rgb(16, 27, 81);"/>
    </g>
    <g>
      <path d="M39.75,48.03c-0.86,0-1.69-0.44-2.16-1.23L12.23,3.68l2.33-1.16c4.26-2.48,9.23-3.16,14-1.91 c4.8,1.25,8.83,4.29,11.34,8.57l12.53,21.32c0.7,1.19,0.3,2.72-0.89,3.42s-2.72,0.3-3.42-0.89L35.59,11.7 c-1.84-3.13-4.78-5.35-8.29-6.26c-2.69-0.7-5.46-0.57-8.02,0.36L41.9,44.26c0.7,1.19,0.3,2.72-0.89,3.42 C40.61,47.92,40.18,48.03,39.75,48.03z" style="fill: rgb(16, 27, 81);"/>
    </g>
    <g>
      <path d="M24.34,116.23c-7.32,0-13.28-5.96-13.28-13.28c0-7.32,5.96-13.28,13.28-13.28s13.28,5.96,13.28,13.28 C37.62,110.27,31.66,116.23,24.34,116.23z M24.34,94.67c-4.57,0-8.28,3.71-8.28,8.28c0,4.57,3.71,8.28,8.28,8.28 s8.28-3.71,8.28-8.28C32.62,98.38,28.91,94.67,24.34,94.67z" style="fill: rgb(16, 27, 81);"/>
    </g>
    <g>
      <path d="M24.31,127.29c-4.2,0-8.44-1.08-12.31-3.36c-11.57-6.81-15.44-21.77-8.63-33.34c3.68-6.25,9.9-10.51,17.06-11.68 c4.14-0.7,7.73-3.2,9.84-6.85L67.23,9.17c5.19-8.83,16.59-11.79,25.42-6.61l2.16,1.27l-46.42,79c-2.12,3.66-2.51,8.05-1.07,12.04 c2.4,6.8,1.67,14.24-1.98,20.44l0,0C40.8,123,32.66,127.29,24.31,127.29z M83.27,5.01c-4.66,0-9.2,2.4-11.73,6.69L34.59,74.57 c-2.84,4.93-7.71,8.31-13.34,9.27c-5.71,0.93-10.65,4.31-13.57,9.28c-5.41,9.19-2.34,21.08,6.86,26.49 c9.19,5.41,21.08,2.33,26.49-6.86l0,0c2.9-4.92,3.48-10.83,1.58-16.22c-1.93-5.36-1.4-11.29,1.46-16.23l43.77-74.5 C86.35,5.27,84.8,5.01,83.27,5.01z" style="fill: rgb(16, 27, 81);"/>
    </g>
    <g>
      <path d="M94.87,142.85c-2.35,0-4.64-1.22-5.9-3.4l-7.71-13.38c-0.69-1.2-0.28-2.72,0.92-3.41s2.72-0.28,3.41,0.92l7.71,13.38 c0.49,0.86,1.59,1.15,2.45,0.66c0.86-0.49,1.15-1.59,0.66-2.45l-6.46-11.2c-0.69-1.2-0.28-2.72,0.92-3.41 c1.2-0.69,2.73-0.28,3.41,0.92l6.46,11.2c1.87,3.24,0.75,7.41-2.49,9.28C97.19,142.55,96.03,142.85,94.87,142.85z" style="fill: rgb(16, 27, 81);"/>
    </g>
  </g>
</svg>