<?xml version="1.0" encoding="utf-8"?>
<!-- Generator: Adobe Illustrator 25.3.1, SVG Export Plug-In . SVG Version: 6.00 Build 0)  -->
<svg version="1.1" id="Layer_1" xmlns="http://www.w3.org/2000/svg" xmlns:xlink="http://www.w3.org/1999/xlink" x="0px" y="0px"
	 viewBox="0 0 220.3 312.3" style="enable-background:new 0 0 220.3 312.3;" xml:space="preserve">
<style type="text/css">
	.st0{fill:#0F1D5B;}
</style>
<g id="Layer_2_1_">
	<g id="Layer_1-2">
		<path class="st0" d="M173.4,174.4c-6.4-0.5-12.1-4.2-15.3-9.7l-13.9-24.8c-1.7-2.9-5.3-3.9-8.2-2.2c-2.8,1.6-3.8,5.2-2.3,8.1
			l13.9,24.8c5.1,9,14.3,14.9,24.6,15.8c22,2.2,38,21.7,35.9,43.7c-0.8,8.4-4.3,16.2-9.8,22.5c-3,3.3-6.5,6.2-10.4,8.3
			c-0.7,0.4-1.4,0.8-2.2,1.1c-0.2,0.1-0.4,0.2-0.6,0.4c-0.4,0.1-0.8,0.3-1.2,0.5c-2.9,1.6-3.9,5.3-2.3,8.2c0,0,0,0,0,0l12.8,22.7
			c1.2,2.1,0.4,4.8-1.7,6c-2.1,1.2-4.8,0.4-5.9-1.7L171,270c-0.8-2.3-2.9-3.8-5.3-4c-22-1.5-38.7-20.6-37.2-42.6
			c0.3-5.1,1.7-10.1,3.9-14.7c4.6-9.3,4.3-20.2-0.7-29.2l-6.6-11.8c-1.5-2.9-5.2-4.1-8.1-2.5c-2.9,1.5-4.1,5.2-2.5,8.1
			c0.1,0.1,0.1,0.2,0.2,0.3l6.6,11.8c3.1,5.6,3.2,12.4,0.3,18.1c-12.5,25.8-1.8,56.9,24,69.4c5,2.4,10.3,4,15.8,4.8l14.8,26.4
			c4.6,7.8,14.7,10.3,22.4,5.7c7.5-4.5,10.1-14,6.1-21.7l-9.7-17.3c24.6-14.8,32.6-46.7,17.8-71.3
			C204.4,185.3,189.8,176,173.4,174.4L173.4,174.4z"/>
		<path class="st0" d="M161.8,253.5c2.2,0.5,4.4,0.8,6.6,0.8c15.6,0,28.3-12.6,28.3-28.3c0-15.6-12.6-28.3-28.3-28.3
			c-15.6,0-28.3,12.6-28.3,28.3C140.1,239.1,149.1,250.5,161.8,253.5z M153,221.1c2.8-8.5,11.9-13.2,20.4-10.4
			c8.5,2.8,13.2,11.9,10.4,20.4c-2.6,8-11,12.7-19.2,10.8l0,0c-8.7-2.1-14.1-10.8-12-19.5C152.7,222,152.9,221.5,153,221.1z"/>
		<path class="st0" d="M76.3,105.1c1.6,2.9,5.3,3.9,8.2,2.3c2.9-1.6,3.9-5.3,2.3-8.2l0,0L38.3,12.8c10.6-2.8,21.9,1.9,27.3,11.5
			l28.8,51.4c1.5,2.9,5.2,4.1,8.1,2.5c2.9-1.5,4.1-5.2,2.5-8.1c-0.1-0.1-0.1-0.2-0.2-0.3L76,18.4C66.2,1.1,44.2-5.1,26.8,4.6
			c-2.9,1.6-3.9,5.3-2.3,8.2c0,0,0,0,0,0L76.3,105.1z"/>
		<path class="st0" d="M65.8,201.5c-13.6-7.6-30.8-2.8-38.4,10.8s-2.8,30.8,10.8,38.4c4.2,2.3,8.9,3.6,13.7,3.6
			c2.2,0,4.4-0.3,6.6-0.8c15.1-3.6,24.5-18.9,20.8-34C77.5,211.9,72.6,205.4,65.8,201.5L65.8,201.5z M66.1,234
			c-2.2,4-6,6.8-10.4,7.8l0,0c-8.7,2.1-17.4-3.3-19.5-12c-2.1-8.7,3.3-17.4,12-19.5s17.4,3.3,19.5,12
			C68.7,226.3,68.1,230.5,66.1,234z"/>
		<path class="st0" d="M99,185.3l96.8-172.5c1.6-2.9,0.6-6.5-2.3-8.2c-17.4-9.7-39.4-3.6-49.2,13.8L62.3,164.7
			c-3.2,5.5-8.9,9.2-15.3,9.7c-28.6,2.9-49.3,28.5-46.4,57C3,254.4,20.1,273,42.8,277.2c3,0.5,6.1,0.8,9.1,0.8
			c28.7,0,52-23.3,51.9-52.1c0-7.8-1.8-15.5-5.2-22.6C95.8,197.7,95.9,190.9,99,185.3z M86.8,245.6C76,264.9,51.6,271.8,32.4,261
			c-19.2-10.8-26.1-35.1-15.3-54.4c6.4-11.4,18-19,31.1-20.2c10.3-0.9,19.5-6.8,24.6-15.8l82.1-146.2c5.4-9.6,16.6-14.3,27.3-11.5
			L88.6,179.4c-5,9-5.2,20-0.7,29.2C93.6,220.4,93.2,234.2,86.8,245.6z"/>
	</g>
</g>
</svg>
