<?xml version="1.0" encoding="utf-8"?>
<!-- Generator: Adobe Illustrator 23.0.1, SVG Export Plug-In . SVG Version: 6.00 Build 0)  -->
<svg version="1.1" id="Layer_1" xmlns="http://www.w3.org/2000/svg" xmlns:xlink="http://www.w3.org/1999/xlink" x="0px" y="0px"
	 viewBox="0 0 107.14 142.85" style="enable-background:new 0 0 107.14 142.85;" xml:space="preserve">
<style type="text/css">
	.st0{fill:#101b51;}
	.st1{fill:##101b51;}
	.st2{fill:#FFFFFF;}
	.st3{fill:none;stroke:#101b51;stroke-width:4;stroke-linecap:round;stroke-miterlimit:10;}
	.st4{fill:#101b51;}
	.st5{fill:none;stroke:#101b51;stroke-width:5;stroke-linecap:round;stroke-miterlimit:10;}
	.st6{fill:none;}
</style>
<g>
	
		<ellipse transform="matrix(0.1602 -0.9871 0.9871 0.1602 -32.0959 168.1709)" class="st5" cx="82.78" cy="102.95" rx="10.78" ry="10.78"/>
	<path class="st5" d="M56.92,74.81l4,6.75c2.48,4.3,2.94,9.48,1.25,14.15c-4,11.38,1.97,23.85,13.35,27.85
		c2.54,0.89,5.22,1.31,7.91,1.23"/>
	<path class="st5" d="M66.51,59.39l8.18,13.92c2.47,4.28,6.73,7.24,11.6,8.07c11.92,1.94,20,13.18,18.06,25.09
		c-0.98,6.01-4.42,11.33-9.49,14.7c-0.87,0.58-1.79,1.09-2.74,1.54"/>
	<path class="st5" d="M50.27,31.76L37.74,10.44C33.25,2.78,23.4,0.22,15.75,4.71c0,0,0,0-0.01,0l24,40.81"/>
	
		<ellipse transform="matrix(0.1602 -0.9871 0.9871 0.1602 -81.1748 110.4856)" class="st5" cx="24.34" cy="102.95" rx="10.78" ry="10.78"/>
	<path class="st5" d="M43.18,114.03c-6.12,10.4-19.52,13.87-29.92,7.74c-10.4-6.12-13.87-19.52-7.74-29.92
		c3.29-5.59,8.9-9.43,15.31-10.48c4.88-0.83,9.13-3.79,11.6-8.07l36.95-62.87c4.5-7.65,14.34-10.21,22-5.72L46.23,81.56
		c-2.49,4.3-2.95,9.48-1.27,14.15C47.1,101.78,46.45,108.48,43.18,114.03z"/>
	<path class="st5" d="M92.12,122.71l6.46,11.2c1.18,2.05,0.48,4.68-1.58,5.86c-2.05,1.18-4.68,0.48-5.86-1.57l-7.71-13.38"/>
</g>
<rect x="-1004.72" y="-2211.3" class="st6" width="3000" height="3000"/>
</svg>
