<svg xmlns="http://www.w3.org/2000/svg" width="23" height="22" viewBox="0 0 23 22">
  <metadata><?xpacket begin="﻿" id="W5M0MpCehiHzreSzNTczkc9d"?>
<x:xmpmeta xmlns:x="adobe:ns:meta/" x:xmptk="Adobe XMP Core 5.6-c142 79.160924, 2017/07/13-01:06:39        ">
   <rdf:RDF xmlns:rdf="http://www.w3.org/1999/02/22-rdf-syntax-ns#">
      <rdf:Description rdf:about=""/>
   </rdf:RDF>
</x:xmpmeta>
                                                                                                    
                                                                                                    
                                                                                                    
                                                                                                    
                                                                                                    
                                                                                                    
                                                                                                    
                                                                                                    
                                                                                                    
                                                                                                    
                                                                                                    
                                                                                                    
                                                                                                    
                                                                                                    
                                                                                                    
                                                                                                    
                                                                                                    
                                                                                                    
                                                                                                    
                                                                                                    
                           
<?xpacket end="w"?></metadata>
<defs>
    <style>
      .cls-1 {
        fill: #101b51;
        fill-rule: evenodd;
      }
    </style>
  </defs>
  <path id="Фигура_18" data-name="Фигура 18" class="cls-1" d="M430.778,343.139h-4.655v-4.166a0.976,0.976,0,0,0-.977-0.974h-9.293a0.977,0.977,0,0,0-.977.974v4.166h-4.655A1.222,1.222,0,0,0,409,344.357v14.425A1.221,1.221,0,0,0,410.221,360h20.557A1.221,1.221,0,0,0,432,358.782V344.357A1.222,1.222,0,0,0,430.778,343.139Zm-14.925-4.166h9.293v4.166H423.7v-2.1a0.976,0.976,0,0,0-.977-0.974h-4.451a0.977,0.977,0,0,0-.977.974v2.1h-1.444v-4.166Zm6.872,4.166h-4.451v-2.1h4.451v2.1Zm8.3,15.643a0.245,0.245,0,0,1-.245.244H410.221a0.244,0.244,0,0,1-.244-0.244V344.357a0.243,0.243,0,0,1,.244-0.243h20.557a0.244,0.244,0,0,1,.245.243v14.425Z" transform="translate(-409 -338)"/>
</svg>
