<svg xmlns="http://www.w3.org/2000/svg" width="19" height="21" viewBox="0 0 19 21">
  <defs>
    <style>
      .cls-1 {
        fill: #282e4b;
        fill-rule: evenodd;
      }
    </style>
  </defs>
  <path id="Фигура_10" data-name="Фигура 10" class="cls-1" d="M52.1,120.182H47.279v-10.29a0.9,0.9,0,0,0-.9-0.892H34.9a0.9,0.9,0,0,0-.9.892V130H53v-8.926A0.9,0.9,0,0,0,52.1,120.182Zm-5.722,8.926H34.9V109.892h11.48v19.216Zm5.722,0H47.279v-8.034H52.1v8.034ZM36.425,111.447V116h8.429v-4.551H36.425Zm0.9,0.893h2.864v2.765H37.325V112.34Zm6.628,2.765H41.089V112.34h2.864v2.765Zm-7.529,1.767v4.551h8.429v-4.551H36.425Zm0.9,0.893h2.864v2.765H37.325v-2.765Zm6.628,2.765H41.089v-2.765h2.864v2.765ZM36.425,122.3v4.551h8.429V122.3H36.425Zm0.9,0.893h2.864v2.765H37.325V123.19Zm6.628,2.765H41.089V123.19h2.864v2.765Z" transform="translate(-34 -109)"/>
</svg>
