<?xml version="1.0" encoding="utf-8"?>
<!-- Generator: Adobe Illustrator 23.0.1, SVG Export Plug-In . SVG Version: 6.00 Build 0)  -->
<svg version="1.1" id="Layer_1" xmlns="http://www.w3.org/2000/svg" xmlns:xlink="http://www.w3.org/1999/xlink" x="0px" y="0px"
	 viewBox="0 0 75.13 94.36" style="enable-background:new 0 0 75.13 94.36;" xml:space="preserve">
<style type="text/css">
	.st0{fill:#231F20;}
	.st1{fill:#0F1D5B;}
	.st2{fill:#EBEBEC;}
	.st3{fill:#FFFFFF;}
	.st4{fill:#F37A7B;}
	.st5{fill:none;}
</style>
<g>
	<path class="st3" d="M57,58.12c-10.01,0.01-18.12,8.12-18.11,18.13c0.01,10.01,8.12,18.12,18.13,18.11
		c10-0.01,18.11-8.12,18.11-18.12C75.12,66.23,67.01,58.13,57,58.12 M57,90.36c-7.8-0.01-14.12-6.33-14.11-14.13
		c0.01-7.8,6.33-14.11,14.13-14.11c7.79,0.01,14.11,6.33,14.11,14.12C71.13,84.04,64.8,90.36,57,90.36 M66.1,76.24c0,1.1-0.89,2-2,2
		H59v5.1c0,1.1-0.9,2-2,2c-1.1,0-2-0.9-2-2v-5.1h-5.1c-1.11,0-2-0.9-2-2s0.89-2,2-2H55v-5.1c0-1.1,0.9-2,2-2c1.1,0,2,0.9,2,2v5.1
		h5.1c1.11-0.01,2.01,0.89,2.01,1.99c0,0,0,0.01,0,0.01H66.1z M38.73,92.1c0,1.11-0.89,2-2,2H0V4c0-2.21,1.79-4,4-4h51
		c2.21,0,4,1.79,4,4v48c0,1.1-0.9,2-2,2c-1.1,0-2-0.9-2-2V4H4v86.1h32.73C37.83,90.1,38.73,91,38.73,92.1 M48.23,11H10.78v20.4
		h37.45V11z M14.78,15H27.5v12.4H14.78V15z M44.23,27.4H31.5V15h12.73V27.4z M48.23,35.31H10.78v20.35h37.45V35.31z M14.78,39.31
		H27.5v12.35H14.78V39.31z M44.23,51.66H31.5V39.27h12.73V51.66z M38.64,63.58c1.11,0,2-0.9,2-2c0-1.11-0.89-2-2-2H10.78V80h23.78
		c1.1,0,2-0.9,2-2c0-1.1-0.9-2-2-2H31.5V63.58H38.64z M27.5,76H14.78V63.58H27.5V76z"/>
</g>
<rect x="-279.85" y="-2203.43" class="st5" width="3000" height="3000"/>
</svg>
