<?xml version="1.0" encoding="utf-8"?>
<!-- Generator: Adobe Illustrator 24.1.0, SVG Export Plug-In . SVG Version: 6.00 Build 0)  -->
<svg version="1.1" id="Layer_1" xmlns="http://www.w3.org/2000/svg" xmlns:xlink="http://www.w3.org/1999/xlink" x="0px" y="0px"
	 viewBox="0 0 93.6 95.7" style="enable-background:new 0 0 93.6 95.7;" xml:space="preserve">
<path id="Layer_2_1_" d="M90.6,62.6h-6.5V44.1c0-1.6-1.3-2.8-2.8-2.8l0,0h-26v-12c0-1.7-1.3-3-3-3h-3.5v-4c3.5-0.9,6-4.1,6-7.7
	c0-3.8-5.3-11-6.4-12.4L46.8,0l-1.6,2.1c-1.1,1.4-6.4,8.7-6.4,12.4c0,3.6,2.5,6.8,6,7.7v4h-3.5c-1.7,0-3,1.3-3,3v12h-26
	c-1.6,0-2.8,1.2-2.8,2.8l0,0v18.5H3c-1.7,0-3,1.3-3,3l0,0v27c0,1.7,1.3,3,3,3h87.6c1.7,0,3-1.3,3-3v-27C93.6,64,92.3,62.6,90.6,62.6
	L90.6,62.6z M42.8,14.6c0-1.3,1.9-4.7,4-7.8c2.1,3.1,4,6.5,4,7.8c0,2.2-1.8,4-4,4S42.8,16.8,42.8,14.6z M42.3,30.3h9v11h-9V30.3z
	 M13.6,45.3h66.5v17.3H13.6V45.3z M89.6,91.6H4v-25h85.6V91.6z"/>
</svg>
