<svg xmlns="http://www.w3.org/2000/svg" width="55" height="55" viewBox="0 0 55 55"><g transform="translate(0 0)"><g transform="translate(0 0)"><g transform="translate(55 21)"><g transform="translate(-55 -21)"><path d="M48.554,4.3h-2.58V0H41.683V4.3H13.322V0h-4.3V4.3H6.446A6.454,6.454,0,0,0,0,10.742V48.554A6.451,6.451,0,0,0,6.446,55H48.554A6.451,6.451,0,0,0,55,48.554V10.742A6.454,6.454,0,0,0,48.554,4.3ZM50.7,48.554a2.149,2.149,0,0,1-2.147,2.152H6.446A2.155,2.155,0,0,1,4.3,48.554V20.209h46.41Zm0-32.657H4.3V10.742a2.155,2.155,0,0,1,2.15-2.15H9.023v4.3h4.3v-4.3H41.683v4.3h4.3v-4.3h2.575a2.152,2.152,0,0,1,2.147,2.15Z" fill="#0f1d5b"/><rect width="4.296" height="4.296" transform="translate(8.165 24.707)" fill="#0f1d5b"/><rect width="4.296" height="4.296" transform="translate(16.76 24.707)" fill="#0f1d5b"/><rect width="4.296" height="4.296" transform="translate(25.353 24.707)" fill="#0f1d5b"/><rect width="4.296" height="4.296" transform="translate(33.949 24.707)" fill="#0f1d5b"/><rect width="4.296" height="4.296" transform="translate(42.541 24.707)" fill="#0f1d5b"/><rect width="4.296" height="4.296" transform="translate(8.165 33.303)" fill="#0f1d5b"/><rect width="4.296" height="4.296" transform="translate(16.76 33.303)" fill="#0f1d5b"/><rect width="4.296" height="4.296" transform="translate(25.353 33.303)" fill="#0f1d5b"/><rect width="4.296" height="4.296" transform="translate(33.949 33.303)" fill="#0f1d5b"/><rect width="4.296" height="4.296" transform="translate(8.165 41.898)" fill="#0f1d5b"/><rect width="4.296" height="4.296" transform="translate(16.76 41.898)" fill="#0f1d5b"/><rect width="4.296" height="4.296" transform="translate(25.353 41.898)" fill="#0f1d5b"/><rect width="4.296" height="4.296" transform="translate(33.949 41.898)" fill="#0f1d5b"/><rect width="4.296" height="4.296" transform="translate(42.541 33.303)" fill="#0f1d5b"/></g></g></g></g></svg>