<svg xmlns="http://www.w3.org/2000/svg" width="24" height="22" viewBox="0 0 24 22">
  <metadata><?xpacket begin="﻿" id="W5M0MpCehiHzreSzNTczkc9d"?>
<x:xmpmeta xmlns:x="adobe:ns:meta/" x:xmptk="Adobe XMP Core 5.6-c142 79.160924, 2017/07/13-01:06:39        ">
   <rdf:RDF xmlns:rdf="http://www.w3.org/1999/02/22-rdf-syntax-ns#">
      <rdf:Description rdf:about=""/>
   </rdf:RDF>
</x:xmpmeta>
                                                                                                    
                                                                                                    
                                                                                                    
                                                                                                    
                                                                                                    
                                                                                                    
                                                                                                    
                                                                                                    
                                                                                                    
                                                                                                    
                                                                                                    
                                                                                                    
                                                                                                    
                                                                                                    
                                                                                                    
                                                                                                    
                                                                                                    
                                                                                                    
                                                                                                    
                                                                                                    
                           
<?xpacket end="w"?></metadata>
<defs>
    <style>
      .cls-1 {
        fill: #101b51;
        fill-rule: evenodd;
      }
    </style>
  </defs>
  <path id="Фигура_4" data-name="Фигура 4" class="cls-1" d="M937.968,245.708v-3.223a0.511,0.511,0,0,0-1.02,0v3.223H927.13v-3.223a0.511,0.511,0,0,0-1.02,0v3.223H920V264h24V245.708h-6.032Zm5.013,0.973v2.049H921.019v-2.049h21.962Zm-21.962,16.347V249.7h21.962v13.326H921.019Zm7.4-10.952H924.6a0.487,0.487,0,1,0,0,.973h3.82A0.487,0.487,0,1,0,928.423,252.076Zm5.487,0h-3.82a0.487,0.487,0,1,0,0,.973h3.82A0.487,0.487,0,1,0,933.91,252.076Zm5.487,0h-3.82a0.487,0.487,0,1,0,0,.973h3.82A0.487,0.487,0,1,0,939.4,252.076Zm-10.974,3.2H924.6a0.487,0.487,0,1,0,0,.972h3.82A0.487,0.487,0,1,0,928.423,255.275Zm5.487,0h-3.82a0.487,0.487,0,1,0,0,.972h3.82A0.487,0.487,0,1,0,933.91,255.275Zm5.487,0h-3.82a0.487,0.487,0,1,0,0,.972h3.82A0.487,0.487,0,1,0,939.4,255.275Zm-10.974,3.2H924.6a0.487,0.487,0,1,0,0,.972h3.82A0.487,0.487,0,1,0,928.423,258.473Zm5.487,0h-3.82a0.487,0.487,0,1,0,0,.972h3.82A0.487,0.487,0,1,0,933.91,258.473Zm5.487,0h-3.82a0.487,0.487,0,1,0,0,.972h3.82A0.487,0.487,0,1,0,939.4,258.473Z" transform="translate(-920 -242)"/>
</svg>
