<?xml version="1.0" encoding="utf-8"?>
<!-- Generator: Adobe Illustrator 23.0.1, SVG Export Plug-In . SVG Version: 6.00 Build 0)  -->
<svg version="1.1" id="Layer_1" xmlns="http://www.w3.org/2000/svg" xmlns:xlink="http://www.w3.org/1999/xlink" x="0px" y="0px"
	 viewBox="0 0 94.13 83.16" style="enable-background:new 0 0 94.13 83.16;" xml:space="preserve">
<style type="text/css">
	.st0{fill:#231F20;}
	.st1{fill:#EBEBEC;}
	.st2{fill:#FFFFFF;}
	.st3{fill:#F37A7B;}
	.st4{fill:none;stroke:#000000;stroke-width:5;stroke-linecap:round;stroke-miterlimit:10;}
	.st5{fill:#0F1D5B;}
	.st6{fill:#FFA35F;}
	.st7{fill:none;}
	.st8{fill:none;stroke:#231F20;stroke-width:3;stroke-miterlimit:10;}
	.st9{fill:#101B51;}
</style>
<path class="st2" d="M91.13,15.16H70.44L66.31,2.84C65.74,1.14,64.16,0,62.37,0h-30.6c-1.79,0-3.38,1.14-3.94,2.84L23.7,15.16H3
	c-1.66,0-3,1.34-3,3v62c0,1.66,1.34,3,3,3h88.13c1.66,0,3-1.34,3-3v-62C94.13,16.5,92.79,15.16,91.13,15.16 M31.62,4.16
	c0-0.08,0.07-0.15,0.15-0.16h30.6c0.07,0,0.13,0.05,0.15,0.11l3.7,11.05h-38.3L31.62,4.16z M90.14,79.2H4v-60h86.14V79.2z"/>
<path class="st2" d="M47.07,28.91c-11.2,0-20.27,9.07-20.27,20.27c0,11.2,9.07,20.27,20.27,20.27c11.19,0,20.27-9.07,20.27-20.27
	C67.33,37.99,58.26,28.92,47.07,28.91 M47.07,65.45c-8.99,0-16.27-7.28-16.27-16.27c0-8.98,7.28-16.27,16.27-16.27
	c8.98,0,16.27,7.28,16.27,16.27C63.33,58.16,56.05,65.44,47.07,65.45"/>
<path class="st2" d="M52.68,40.49c-0.78,0.78-0.78,2.05,0,2.83c0,0,0,0,0,0c3.24,3.13,3.33,8.29,0.2,11.52
	c-0.72,0.75-1.58,1.35-2.53,1.78c-1.01,0.46-1.45,1.64-0.99,2.65c0.32,0.71,1.03,1.17,1.81,1.17c0.28,0,0.56-0.06,0.82-0.18
	c4.36-1.96,7.17-6.3,7.18-11.08c0.01-3.3-1.33-6.45-3.71-8.73C54.67,39.71,53.44,39.73,52.68,40.49"/>
<rect x="-1109.36" y="-2431.79" class="st7" width="3792.92" height="5746.56"/>
<rect x="-1109.36" y="-2431.79" class="st7" width="3792.92" height="5746.56"/>
</svg>
