<svg xmlns="http://www.w3.org/2000/svg" viewBox="0 0 89 89"><defs><style>.cls-1{fill:#1c1f50;}</style></defs><g id="Layer_2" data-name="Layer 2"><g id="Layer_1-2" data-name="Layer 1"><path class="cls-1" d="M44.5,0A44.5,44.5,0,1,0,89,44.5,44.5,44.5,0,0,0,44.5,0Zm0,81A36.5,36.5,0,1,1,81,44.5,36.54,36.54,0,0,1,44.5,81Z"/><path class="cls-1" d="M67.38,21.62a3.51,3.51,0,0,0-4.95,0L44.5,39.55,26.57,21.62a3.5,3.5,0,1,0-4.95,4.95L39.55,44.5,21.62,62.43a3.5,3.5,0,0,0,2.48,6,3.47,3.47,0,0,0,2.47-1L44.5,49.45,62.43,67.38a3.47,3.47,0,0,0,2.47,1,3.5,3.5,0,0,0,2.48-6L49.45,44.5,67.38,26.57A3.51,3.51,0,0,0,67.38,21.62Z"/></g></g></svg>