<?xml version="1.0" encoding="utf-8"?>
<!-- Generator: Adobe Illustrator 25.2.1, SVG Export Plug-In . SVG Version: 6.00 Build 0)  -->
<svg version="1.1" id="Layer_1" xmlns="http://www.w3.org/2000/svg" xmlns:xlink="http://www.w3.org/1999/xlink" x="0px" y="0px"
	 viewBox="0 0 94.1 57.3" style="enable-background:new 0 0 94.1 57.3;" xml:space="preserve">
<style type="text/css">
	.st0{fill:#101B51;}
</style>
<g id="Layer_2_1_">
	<g id="Layer_1-2">
		<path class="st0" d="M84,0H10.1C4.5,0,0,4.5,0,10.1v37.1c0,5.6,4.5,10.1,10.1,10.1H84c5.6,0,10.1-4.5,10.1-10.1V10.1
			C94.1,4.5,89.6,0,84,0z M4,15.5h86.1v3.9H4V15.5z M10.1,4H84c3.4,0,6.1,2.7,6.1,6.1v1.3H4v-1.3C4,6.7,6.7,4,10.1,4z M84,53.3H10.1
			c-3.4,0-6.1-2.7-6.1-6.1V23.4h86.1v23.8C90.1,50.6,87.4,53.3,84,53.3z"/>
		<path class="st0" d="M80.7,37.2H66.1c-3.5,0.1-6.3,3.1-6.2,6.7c0.1,3.3,2.8,6,6.2,6.2h14.6c3.5-0.1,6.3-3.1,6.2-6.7
			C86.7,40,84,37.3,80.7,37.2z M80.7,46H66.1c-1.3-0.1-2.3-1.2-2.3-2.6c0.1-1.2,1-2.2,2.3-2.3h14.6c1.3,0.1,2.3,1.2,2.3,2.6
			C82.9,45,81.9,46,80.7,46z"/>
		<path class="st0" d="M40.3,37.2h-30c-1.1,0-2,0.9-2,2s0.9,2,2,2h30c1.1,0,2-0.9,2-2S41.4,37.2,40.3,37.2z"/>
		<path class="st0" d="M25.3,43.3h-15c-1.1,0-2,0.9-2,2s0.9,2,2,2h15c1.1,0,2-0.9,2-2S26.4,43.3,25.3,43.3z"/>
	</g>
</g>
</svg>
