<?xml version="1.0" encoding="utf-8"?>
<!-- Generator: Adobe Illustrator 25.3.1, SVG Export Plug-In . SVG Version: 6.00 Build 0)  -->
<svg version="1.1" id="Layer_1" xmlns="http://www.w3.org/2000/svg" xmlns:xlink="http://www.w3.org/1999/xlink" x="0px" y="0px"
	 viewBox="0 0 286.5 311.2" style="enable-background:new 0 0 286.5 311.2;" xml:space="preserve">
<style type="text/css">
	.st0{fill:#0F1D5B;}
</style>
<g id="Layer_2_1_">
	<g id="Layer_1-2">
		<path class="st0" d="M48.7,205.7c0,16.9,13.8,30.6,30.7,30.6c16.9,0,30.6-13.8,30.6-30.7c0-16.9-13.7-30.6-30.6-30.6
			C62.4,175,48.7,188.7,48.7,205.7z M97.9,205.7c0,10.3-8.4,18.6-18.7,18.6c-10.3,0-18.6-8.4-18.6-18.7c0-10.3,8.4-18.6,18.6-18.6
			C89.6,187,98,195.3,97.9,205.7C98,205.7,98,205.7,97.9,205.7L97.9,205.7z"/>
		<path class="st0" d="M185.4,205.7c0,16.9,13.8,30.6,30.7,30.6c16.9,0,30.6-13.8,30.6-30.7c0-16.9-13.7-30.6-30.6-30.6
			C199.2,175,185.5,188.7,185.4,205.7z M234.8,205.7c0,10.3-8.4,18.6-18.7,18.6c-10.3,0-18.6-8.4-18.6-18.7
			c0-10.3,8.4-18.6,18.6-18.6C226.4,187,234.8,195.4,234.8,205.7z"/>
		<path class="st0" d="M169.3,229.4c-3.3,9.8-13.9,15-23.7,11.6c-5.5-1.9-9.8-6.2-11.6-11.6c-1.1-3.1-4.6-4.7-7.7-3.6
			c-3,1.1-4.7,4.4-3.7,7.5c5.5,16,22.9,24.6,38.9,19.1c9-3.1,16-10.1,19.1-19.1c1-3.2-0.7-6.5-3.9-7.5
			C173.7,224.7,170.4,226.4,169.3,229.4L169.3,229.4z"/>
		<path class="st0" d="M267.4,157.2c-1.3-3.1-4.8-4.5-7.8-3.2c-3.1,1.3-4.5,4.8-3.2,7.8c0,0.1,0.1,0.2,0.1,0.3l11.5,25.4
			c5.6,12.4,7.7,26.2,5.9,39.8l-3.1,24c-0.9,6.6-6.5,11.5-13.1,11.5H36.1c-6.6,0-12.2-4.9-13.1-11.5l-3.1-24
			c-1.8-13.5,0.3-27.3,5.9-39.8l34.6-76.5C66.1,98.3,77.4,89,91.1,85.8c3.3-0.6,5.4-3.8,4.8-7s-3.8-5.4-7-4.8
			c-0.2,0-0.3,0.1-0.5,0.1c-17.3,4.1-31.7,15.9-39,32L42.6,121c-8.9-10.1-24.3-11-34.4-2.1c-8.6,7.7-10.7,20.3-5,30.3
			c1.1,1.9,3.1,3,5.2,3c1.1,0,2.1-0.3,3-0.8c2.9-1.7,3.9-5.3,2.2-8.2c-3.4-5.9-1.4-13.5,4.5-16.9s13.5-1.4,16.9,4.5
			c0.7,1.2,1.1,2.4,1.4,3.7l-21.7,48c-6.6,14.5-8.9,30.5-6.9,46.3l3.1,24c1.2,9.1,7.2,16.8,15.7,20.2v32.1c0,3.3,2.7,6,6,6h45.7
			c3.3,0,6-2.7,6-6v-30.2h124.8v30.3c0,3.3,2.7,6,6,6H261c3.3,0,6-2.7,6-6V273c8.5-3.4,14.5-11.1,15.7-20.1l3.1-24
			c2.1-15.8-0.3-31.8-6.9-46.2L267.4,157.2z M72.4,299.2H38.7v-24.3h33.7L72.4,299.2z M255,299.2h-33.7v-24.3H255L255,299.2z"/>
		<path class="st0" d="M191.6,160.7c13.6,0,27.1-3.5,39-10.1l0.3-0.2l0.2-0.1c0.3-0.2,0.6-0.4,0.8-0.7h0.1l0.1-0.1
			c0.2-0.3,0.5-0.5,0.7-0.8l0.1-0.1c0.2-0.3,0.3-0.6,0.4-0.9l0.1-0.1c0.1-0.3,0.2-0.7,0.3-1c0-0.1,0-0.1,0-0.2s0-0.1,0-0.2
			c0-0.3,0-0.5,0-0.8v-0.1c0-0.3,0-0.6-0.1-0.9c0-0.1,0-0.1,0-0.1c-0.1-0.3-0.2-0.6-0.3-0.9c0-0.1,0-0.1-0.1-0.2
			c-0.1-0.3-0.3-0.6-0.5-0.9c0-0.1-0.1-0.1-0.1-0.2c-0.2-0.3-0.4-0.6-0.7-0.9l-25.4-25.4c-1.5-1.5-3.7-2.1-5.8-1.6
			c-18.7,5-38-6.1-43-24.8c-1.7-6.5-1.6-13.3,0.4-19.6l17.7,17.7c2.3,2.3,6.1,2.3,8.5,0l14.4-14.4c2.3-2.3,2.3-6.1,0-8.5l-17.7-17.7
			c18.5-5.8,38.2,4.4,44,22.9c2,6.4,2.2,13.3,0.4,19.8c-0.6,2.1,0,4.3,1.6,5.8l25.4,25.4c0.3,0.3,0.6,0.5,0.9,0.7l0.1,0.1
			c0.3,0.2,0.6,0.3,0.9,0.5l0.2,0.1c0.3,0.1,0.7,0.2,1,0.3h0.1c0.3,0.1,0.7,0.1,1,0.1h0.1c0.3,0,0.5,0,0.8-0.1h0.2h0.2
			c0.3-0.1,0.7-0.2,1-0.3l0.1-0.1c0.3-0.1,0.6-0.3,0.9-0.4l0.1-0.1c0.3-0.2,0.6-0.4,0.8-0.7l0.1-0.1l0-0.1c0.2-0.3,0.5-0.5,0.7-0.8
			l0.1-0.2c0-0.1,0.1-0.2,0.2-0.3c21.7-38.8,7.8-87.8-31-109.5c-27.9-15.6-62.5-13.2-87.9,6.2c-2.9,2.2-5.7,4.6-8.3,7.3
			c-31.4,31.4-31.4,82.3-0.1,113.7C149.6,152.3,170.2,160.8,191.6,160.7L191.6,160.7z M136.9,39C159.7,8.9,202.7,3,232.8,25.8
			c24.8,18.7,33.8,51.8,22,80.5l-17.1-17.1c0.4-1.9,0.6-3.8,0.7-5.7c0.1-1,0.1-1.9,0.1-2.9c0.2-26-20.8-47.2-46.8-47.4
			c-8.6-0.1-17,2.2-24.3,6.6c-2.8,1.7-3.8,5.4-2.1,8.2c0.3,0.4,0.6,0.8,0.9,1.2l19.6,19.6l-5.9,5.9l-19.7-19.6
			c-0.3-0.3-0.7-0.6-1.1-0.8c-2.8-1.8-6.5-0.9-8.3,1.9c0,0,0,0.1-0.1,0.1c-13.3,22.4-5.9,51.2,16.5,64.5c5.7,3.4,12,5.5,18.6,6.3
			c0.5,0.1,1,0.1,1.6,0.1s0.9,0.1,1.3,0.1c3.8,0.2,7.7,0,11.5-0.8l17.1,17.1c-35,14.3-74.9-2.4-89.3-37.4
			C119,83.9,122.3,58.3,136.9,39z"/>
	</g>
</g>
</svg>
