<svg xmlns="http://www.w3.org/2000/svg" width="55.242" height="60" viewBox="0 0 55.242 60"><path d="M987.855,1910.286a5.91,5.91,0,1,0,5.909-5.909A5.917,5.917,0,0,0,987.855,1910.286Zm9.505,0a3.6,3.6,0,1,1-3.6-3.6A3.6,3.6,0,0,1,997.36,1910.286Z" transform="translate(-978.474 -1870.626)" fill="#0f1d5b"/><path d="M1124.656,1910.286a5.909,5.909,0,1,0,5.909-5.909A5.916,5.916,0,0,0,1124.656,1910.286Zm9.505,0a3.6,3.6,0,1,1-3.6-3.6A3.6,3.6,0,0,1,1134.161,1910.286Z" transform="translate(-1088.896 -1870.626)" fill="#0f1d5b"/><path d="M1070.573,1955.444a3.6,3.6,0,0,1-6.811,0,1.157,1.157,0,1,0-2.191.744,5.911,5.911,0,0,0,11.193,0,1.157,1.157,0,1,0-2.191-.745Z" transform="translate(-1037.926 -1911.212)" fill="#0f1d5b"/><path d="M990.771,1819.37a1.157,1.157,0,0,0-2.108.953l2.212,4.894a14.147,14.147,0,0,1,1.138,7.664l-.605,4.635a2.559,2.559,0,0,1-2.531,2.222H946.157a2.559,2.559,0,0,1-2.531-2.222l-.605-4.635a14.144,14.144,0,0,1,1.138-7.664l6.668-14.75a8.713,8.713,0,0,1,5.934-4.87,1.157,1.157,0,1,0-.523-2.254,11.04,11.04,0,0,0-7.519,6.17l-1.295,2.864a4.7,4.7,0,0,0-7.593,5.451,1.157,1.157,0,0,0,2-1.155,2.385,2.385,0,1,1,4.4-1.672l-4.187,9.262a16.456,16.456,0,0,0-1.323,8.917l.605,4.635a4.879,4.879,0,0,0,3.021,3.885v6.193a1.157,1.157,0,0,0,1.157,1.157h8.818a1.157,1.157,0,0,0,1.157-1.157v-5.841h24.065v5.841a1.157,1.157,0,0,0,1.157,1.157h8.817a1.157,1.157,0,0,0,1.157-1.157V1841.7a4.879,4.879,0,0,0,3.021-3.885l.605-4.635a16.456,16.456,0,0,0-1.324-8.917Zm-37.6,27.367h-6.5v-4.685h6.5Zm35.2,0h-6.5v-4.685h6.5Z" transform="translate(-939.204 -1789.051)" fill="#0f1d5b"/><path d="M1065.821,1760.339a15.419,15.419,0,0,0,7.518-1.947c.018-.01.034-.021.051-.032l.037-.023a1.134,1.134,0,0,0,.154-.126l.013-.01c.005-.005.008-.012.014-.017a1.163,1.163,0,0,0,.129-.158c.006-.009.01-.018.016-.026a1.132,1.132,0,0,0,.086-.163c0-.009.008-.018.012-.027a1.144,1.144,0,0,0,.055-.185c0-.014.006-.028.008-.042s.006-.027.008-.041a1.167,1.167,0,0,0,.01-.151c0-.009,0-.019,0-.028a1.123,1.123,0,0,0-.018-.182c0-.009,0-.018,0-.027a1.171,1.171,0,0,0-.054-.184c-.005-.014-.011-.028-.017-.042a1.146,1.146,0,0,0-.09-.17c-.006-.01-.014-.02-.021-.03a1.142,1.142,0,0,0-.134-.164l-4.9-4.9a1.156,1.156,0,0,0-1.121-.3,6.771,6.771,0,0,1-8.238-8.567l3.419,3.419a1.156,1.156,0,0,0,1.636,0l2.78-2.78a1.157,1.157,0,0,0,0-1.636l-3.418-3.418a6.771,6.771,0,0,1,8.567,8.238,1.157,1.157,0,0,0,.3,1.121l4.9,4.9a1.17,1.17,0,0,0,.166.135l.027.019a1.146,1.146,0,0,0,.175.092l.035.014a1.171,1.171,0,0,0,.191.057l.017,0a1.143,1.143,0,0,0,.194.019h.022a1.11,1.11,0,0,0,.153-.01l.041-.008.042-.008a1.161,1.161,0,0,0,.185-.055l.026-.012a1.164,1.164,0,0,0,.164-.086l.026-.016a1.154,1.154,0,0,0,.158-.129l.017-.013.01-.013a1.152,1.152,0,0,0,.127-.155l.023-.036c.011-.017.023-.033.033-.051a15.529,15.529,0,1,0-13.523,7.953Zm-10.551-23.466a13.2,13.2,0,0,1,22.73,12.98l-3.294-3.294a9,9,0,0,0,.142-1.107q.018-.277.02-.554a9.079,9.079,0,0,0-13.706-7.874,1.157,1.157,0,0,0-.228,1.813l3.781,3.782-1.144,1.144-3.781-3.781a1.167,1.167,0,0,0-.207-.165,1.158,1.158,0,0,0-1.606.392,9.077,9.077,0,0,0,6.772,13.646c.1.012.2.018.3.026.083.007.165.017.248.021a9.085,9.085,0,0,0,2.213-.148l3.294,3.294a13.2,13.2,0,0,1-15.536-20.176Z" transform="translate(-1028.874 -1729.343)" fill="#0f1d5b"/></svg>