<svg xmlns="http://www.w3.org/2000/svg" xmlns:xlink="http://www.w3.org/1999/xlink" width="22" height="22" viewBox="0 0 22 22">
  <metadata><?xpacket begin="﻿" id="W5M0MpCehiHzreSzNTczkc9d"?>
<x:xmpmeta xmlns:x="adobe:ns:meta/" x:xmptk="Adobe XMP Core 5.6-c142 79.160924, 2017/07/13-01:06:39        ">
   <rdf:RDF xmlns:rdf="http://www.w3.org/1999/02/22-rdf-syntax-ns#">
      <rdf:Description rdf:about=""/>
   </rdf:RDF>
</x:xmpmeta>
                                                                                                    
                                                                                                    
                                                                                                    
                                                                                                    
                                                                                                    
                                                                                                    
                                                                                                    
                                                                                                    
                                                                                                    
                                                                                                    
                                                                                                    
                                                                                                    
                                                                                                    
                                                                                                    
                                                                                                    
                                                                                                    
                                                                                                    
                                                                                                    
                                                                                                    
                                                                                                    
                           
<?xpacket end="w"?></metadata>
<defs>
    <style>
      .cls-1 {
        fill: #101b51;
        fill-rule: evenodd;
        filter: url(#filter);
      }
    </style>
    <filter id="filter" x="1604" y="94" width="22" height="22" filterUnits="userSpaceOnUse">
      <feFlood result="flood" flood-color="#fff"/>
      <feComposite result="composite" operator="in" in2="SourceGraphic"/>
      <feBlend result="blend" in2="SourceGraphic"/>
    </filter>
  </defs>
  <path id="Фигура_7" data-name="Фигура 7" class="cls-1" d="M1625.99,113.429l-0.98-9.742a2.343,2.343,0,0,0-2.35-2.105h-2.1V99.561a5.615,5.615,0,0,0-11.23,0v2.021h-1.99a2.343,2.343,0,0,0-2.35,2.105l-0.98,9.742a2.3,2.3,0,0,0,.6,1.8,2.359,2.359,0,0,0,1.75.769,0.469,0.469,0,1,0,0-.937,1.408,1.408,0,0,1-1.41-1.541l0.98-9.741a1.412,1.412,0,0,1,1.41-1.262h1.99v2.5a0.478,0.478,0,0,0,.48.468,0.469,0.469,0,0,0,.47-0.468v-2.5h9.34v2.5a0.47,0.47,0,0,0,.94,0v-2.5h2.1a1.412,1.412,0,0,1,1.41,1.262l0.98,9.741a1.408,1.408,0,0,1-1.41,1.541,0.469,0.469,0,1,0,0,.937,2.359,2.359,0,0,0,1.75-.769A2.3,2.3,0,0,0,1625.99,113.429Zm-15.71-11.847V99.561a4.67,4.67,0,0,1,9.34,0v2.021h-9.34Z" transform="translate(-1604 -94)"/>
</svg>
