<?xml version="1.0" encoding="utf-8"?>
<!-- Generator: Adobe Illustrator 25.3.1, SVG Export Plug-In . SVG Version: 6.00 Build 0)  -->
<svg version="1.1" id="Layer_1" xmlns="http://www.w3.org/2000/svg" xmlns:xlink="http://www.w3.org/1999/xlink" x="0px" y="0px"
	 viewBox="0 0 22 22" style="enable-background:new 0 0 22 22;" xml:space="preserve">
<style type="text/css">
	.st0{fill-rule:evenodd;clip-rule:evenodd;fill:#0F1D5B;}
</style>
<path id="Фигура_7" class="st0" d="M22,19.4l-1-9.7c-0.1-1.2-1.1-2.1-2.3-2.1h-2.1v-2C16.6,2.5,14,0,10.9,0
	C7.8,0,5.3,2.5,5.3,5.6v2h-2C2.1,7.6,1.1,8.5,1,9.7l-1,9.7c-0.1,0.7,0.2,1.3,0.6,1.8C1.1,21.7,1.7,22,2.4,22c0.3,0,0.5-0.2,0.5-0.4
	c0-0.3-0.2-0.5-0.4-0.5c0,0,0,0,0,0c-0.8,0-1.4-0.6-1.4-1.4c0,0,0-0.1,0-0.1l1-9.7C2,9.1,2.6,8.5,3.3,8.5h2V11
	c0,0.3,0.2,0.5,0.5,0.5c0.3,0,0.5-0.2,0.5-0.5V8.5h9.3V11c0,0.3,0.2,0.5,0.5,0.5c0.3,0,0.5-0.2,0.5-0.5V8.5h2.1
	c0.7,0,1.3,0.5,1.4,1.3l1,9.7c0.1,0.8-0.5,1.5-1.3,1.5c0,0-0.1,0-0.1,0c-0.3,0-0.5,0.2-0.5,0.4c0,0.3,0.2,0.5,0.4,0.5c0,0,0,0,0,0
	c0.7,0,1.3-0.3,1.8-0.8C21.8,20.7,22.1,20.1,22,19.4z M6.3,7.6v-2C6.3,3,8.4,0.9,11,0.9c2.6,0,4.7,2.1,4.7,4.7v2H6.3z"/>
</svg>
