<?xml version="1.0" encoding="utf-8"?>
<!-- Generator: Adobe Illustrator 25.2.1, SVG Export Plug-In . SVG Version: 6.00 Build 0)  -->
<svg version="1.1" id="Layer_1" xmlns="http://www.w3.org/2000/svg" xmlns:xlink="http://www.w3.org/1999/xlink" x="0px" y="0px"
	 viewBox="0 0 94.1 83.8" style="enable-background:new 0 0 94.1 83.8;" xml:space="preserve">
<style type="text/css">
	.st0{fill:#0F1D5B;}
</style>
<g id="Layer_2_1_">
	<g id="Layer_1-2">
		<path class="st0" d="M43.4,30.1c2.5,0,4.9,0.9,6.8,2.5c0.9,0.7,2.1,0.6,2.8-0.3c0.7-0.9,0.6-2.1-0.3-2.8c0,0,0,0,0,0
			c-2.6-2.2-5.9-3.4-9.3-3.4c-7.8,0-14.4,6.6-15.9,15.4h-2c-1.1,0-2,0.9-2,2s0.9,2,2,2h1.7c0,0.5,0,1.1,0.1,1.6h-1.7
			c-1.1,0-2,0.9-2,2s0.9,2,2,2H28c2,7.7,8.2,13.4,15.4,13.4c3.4,0,6.6-1.2,9.2-3.4c0.9-0.7,1-2,0.3-2.8c-0.7-0.9-2-1-2.8-0.3
			c-1.9,1.6-4.2,2.4-6.7,2.5c-5.1,0-9.5-3.9-11.3-9.4h10.8c1.1,0,2-0.9,2-2s-0.9-2-2-2H31.3c-0.1-0.5-0.1-1.1-0.1-1.6H47
			c1.1,0,2-0.9,2-2s-0.9-2-2-2H31.6C33,35,37.8,30.1,43.4,30.1z"/>
		<path class="st0" d="M40.5,17.4c0-1.1-0.9-2-2-2C22,15.5,8.6,28.8,8.6,45.3c0,1.1,0.9,2,2,2s2-0.9,2-2c0-14.3,11.6-25.9,25.9-25.9
			C39.6,19.4,40.5,18.5,40.5,17.4z"/>
		<path class="st0" d="M94.1,38.5C94.1,17.2,76.9,0,55.7,0c-8,0-15.9,2.5-22.4,7.2C12.2,10.1-2.6,29.5,0.3,50.5s22.3,35.8,43.3,32.9
			c6.2-0.8,12.1-3.2,17.2-6.8C79.9,74,94.1,57.7,94.1,38.5z M4,45.3c0-19,15.4-34.5,34.5-34.5S73,26.3,73,45.3S57.5,79.8,38.5,79.8
			l0,0C19.5,79.8,4,64.4,4,45.3z M67.1,71C81.3,55.2,80,30.9,64.2,16.7C57.9,11.1,50,7.7,41.7,7C59-0.9,79.4,6.7,87.4,24
			s0.3,37.8-17,45.7C69.3,70.2,68.2,70.6,67.1,71z"/>
	</g>
</g>
</svg>
