<?xml version="1.0" encoding="utf-8"?>
<!-- Generator: Adobe Illustrator 23.0.1, SVG Export Plug-In . SVG Version: 6.00 Build 0)  -->
<svg version="1.1" id="Layer_1" xmlns="http://www.w3.org/2000/svg" xmlns:xlink="http://www.w3.org/1999/xlink" x="0px" y="0px"
	 viewBox="0 0 94.14 94.14" style="enable-background:new 0 0 94.14 94.14;" xml:space="preserve">
<style type="text/css">
	.st0{fill:#231F20;}
	.st1{fill:#FFFFFF;}
	.st2{fill:#EBEBEC;}
	.st3{fill:#F37A7B;}
	.st4{fill:#FF9954;}
	.st5{fill:none;}
</style>
<path class="st1" d="M82.46,16.09c-0.08-0.13-0.18-0.24-0.3-0.35C73.54,6.09,61.01,0,47.07,0C21.11,0,0,21.12,0,47.07
	c0,25.95,21.11,47.07,47.07,47.07c25.95,0,47.07-21.12,47.07-47.07C94.14,35.22,89.73,24.38,82.46,16.09 M47.07,90.14
	C23.32,90.14,4,70.82,4,47.07C4,23.32,23.32,4,47.07,4C59.3,4,70.36,9.14,78.2,17.36L46.84,59.13L27.14,39.78
	c-0.79-0.77-2.05-0.76-2.83,0.03c-0.77,0.79-0.76,2.06,0.03,2.83L47.3,65.18l33.59-44.73c5.79,7.33,9.25,16.58,9.25,26.63
	C90.14,70.82,70.82,90.14,47.07,90.14"/>
<rect x="-312.61" y="-2016.76" class="st5" width="3000" height="3000"/>
</svg>
