<?xml version="1.0" encoding="utf-8"?>
<!-- Generator: Adobe Illustrator 23.0.1, SVG Export Plug-In . SVG Version: 6.00 Build 0)  -->
<svg version="1.1" id="Layer_1" xmlns="http://www.w3.org/2000/svg" xmlns:xlink="http://www.w3.org/1999/xlink" x="0px" y="0px"
	 viewBox="0 0 94.1 94.2" style="enable-background:new 0 0 94.1 94.2;" xml:space="preserve">
<style type="text/css">
	.st0{fill:#0F1D5B;}
</style>
<g>
	<g id="Layer_1-2">
		<path class="st0" d="M47.5,65.2c-1.1,0-2,0.9-2,2v23H4V19.7h29.6c1.1,0,2-0.9,2-2s-0.9-2-2-2H3.7c-2,0-3.7,1.6-3.7,3.7v74.9h49.5
			V67.2C49.5,66.1,48.6,65.2,47.5,65.2z"/>
		<path class="st0" d="M28.9,28.7c1.1,0,2-0.9,2-2s-0.9-2-2-2h-20v17.6h22.9c1.1,0,2-0.9,2-2s-0.9-2-2-2h-5.1v-9.6H28.9z M22.8,38.3
			h-9.8v-9.6h9.8V38.3z"/>
		<path class="st0" d="M34.4,48.8c1.1,0,2-0.9,2-2s-0.9-2-2-2H8.9v17.6h31.7v-9.8c0-1.1-0.9-2-2-2s-2,0.9-2,2v5.8h-9.8v-9.6H34.4z
			 M22.8,58.4h-9.8v-9.6h9.8V58.4z"/>
		<path class="st0" d="M8.9,65v17.5h31.7V65H8.9z M12.9,69h9.8v9.6h-9.8V69z M36.6,78.6h-9.8V69h9.8V78.6z"/>
		<path class="st0" d="M64.5,0C48.1,0,34.8,13.3,34.8,29.7c0,14.1,21,43.7,27.4,52.4c0.9,1.2,2.7,1.5,3.9,0.6
			c0.2-0.2,0.4-0.4,0.6-0.6c6.4-8.7,27.4-38.3,27.4-52.4C94.1,13.3,80.8,0,64.5,0z M64.5,78.4C52.4,61.8,38.8,39.6,38.8,29.7
			C39.1,15.5,50.8,4.2,65,4.5c13.8,0.3,24.9,11.4,25.2,25.2C90.1,39.6,76.5,61.8,64.5,78.4z"/>
		<path class="st0" d="M64.5,15.7c-7.7,0-14,6.3-14,14s6.3,14,14,14s14-6.3,14-14S72.2,15.7,64.5,15.7z M64.5,39.7
			c-5.5,0-10-4.5-10-10s4.5-10,10-10s10,4.5,10,10C74.5,35.2,70,39.7,64.5,39.7C64.5,39.7,64.5,39.7,64.5,39.7L64.5,39.7z"/>
	</g>
</g>
</svg>
