<svg xmlns="http://www.w3.org/2000/svg" viewBox="0 0 94.14 94.2"><g id="Layer_2" data-name="Layer 2"><g id="Layer_1-2" data-name="Layer 1"><path d="M47.5,65.25a2,2,0,0,0-2,2v23H4V19.67H33.6a2,2,0,0,0,0-4H3.65A3.66,3.66,0,0,0,0,19.33V94.2H49.5V67.25A2,2,0,0,0,47.5,65.25Z"/><path d="M28.94,28.74a2,2,0,0,0,0-4h-20V42.3H31.81a2,2,0,1,0,0-4H26.75V28.74ZM22.75,38.3H12.92V28.74h9.83Z"/><path d="M34.43,48.85a2,2,0,0,0,0-4H8.92V62.41H40.59v-9.8a2,2,0,0,0-4,0v5.8H26.75V48.85ZM22.75,58.41H12.92V48.85h9.83Z"/><path d="M8.92,65V82.52H40.59V65Zm4,4h9.83v9.56H12.92Zm23.67,9.56H26.75V69h9.84Z"/><path d="M64.47,0A29.71,29.71,0,0,0,34.79,29.67c0,14.1,21,43.69,27.44,52.43a2.78,2.78,0,0,0,4.47,0c6.44-8.74,27.44-38.33,27.44-52.43A29.7,29.7,0,0,0,64.47,0Zm0,78.38C52.4,61.81,38.79,39.64,38.79,29.67a25.68,25.68,0,0,1,51.35,0C90.14,39.64,76.53,61.81,64.47,78.38Z"/><path d="M64.47,15.67a14,14,0,1,0,14,14A14,14,0,0,0,64.47,15.67Zm0,24a10,10,0,1,1,10-10A10,10,0,0,1,64.47,39.68Z"/></g></g></svg>