<?xml version="1.0" encoding="utf-8"?>
<!-- Generator: Adobe Illustrator 25.3.1, SVG Export Plug-In . SVG Version: 6.00 Build 0)  -->
<svg version="1.1" id="Layer_1" xmlns="http://www.w3.org/2000/svg" xmlns:xlink="http://www.w3.org/1999/xlink" x="0px" y="0px"
	 viewBox="0 0 311.9 312.3" style="enable-background:new 0 0 311.9 312.3;" xml:space="preserve">
<style type="text/css">
	.st0{fill:#101B51;}
</style>
<g id="Layer_2_1_">
	<g id="Layer_1-2">
		<path class="st0" d="M309.2,185.2c-4.2-7.2-12.4-11.1-20.7-9.7l10.2-38.8c2.9-10.8-3.6-21.8-14.3-24.7c-2.8-0.7-5.6-0.9-8.5-0.4
			l0.1-0.5c2.8-10.8-3.6-21.8-14.4-24.7c-6.7-1.7-13.7,0-18.8,4.7c-7.3-8.4-20.1-9.4-28.5-2.1c-3.1,2.7-5.3,6.2-6.3,10.1l-3.5,13.2
			c-8.7-7-21.4-5.6-28.4,3.1c-1.8,2.2-3.1,4.8-3.8,7.5l-16.6,62.9l-7.8,29.8c-10.8,41.1,13.7,83.3,54.9,94.1s83.3-13.7,94.1-54.9
			l7.8-29.8l6.5-24.6C312.7,195.4,311.9,189.8,309.2,185.2z M222.4,300.3c-35.9,0-65-29.2-65-65.1c0-5.6,0.7-11.1,2.1-16.5l7.8-29.7
			l16.6-62.9c1.2-4.4,5.6-7,10-5.8c4.4,1.2,7,5.6,5.9,10l-0.9,3.4l-15.6,59.5c-0.8,3.2,1.1,6.5,4.3,7.3c0.5,0.1,1,0.2,1.5,0.2
			c2.7,0,5.1-1.8,5.8-4.5l8.2-31.1l0,0l7.5-28.4l0.9-3.4l0,0l8.2-31.1c1.3-4.3,5.9-6.8,10.2-5.5c4.1,1.2,6.6,5.5,5.7,9.7l-16.6,62.9
			c-0.8,3.2,1.1,6.5,4.3,7.3c0.5,0.1,1,0.2,1.5,0.2c2.7,0,5.1-1.8,5.8-4.5l1.5-5.6l0,0l16.6-62.9c1-4.4,5.4-7.2,9.8-6.2
			c4.4,1,7.2,5.4,6.2,9.8c0,0.2-0.1,0.3-0.1,0.5L247.9,171l0,0l-4.9,18.3c-0.8,3.2,1.1,6.5,4.3,7.3s6.5-1.1,7.3-4.3l0,0l16.6-62.9
			c1-4.4,5.4-7.2,9.8-6.2c4.4,1,7.2,5.4,6.2,9.8c0,0.2-0.1,0.3-0.1,0.5l-14.9,56.6l0,0l-15.3,58c-0.8,3.2,1.1,6.5,4.3,7.3
			c0,0,0,0,0,0c0.5,0.1,1,0.2,1.5,0.2c2.7,0,5.1-1.8,5.8-4.5l13.6-51.7l0,0l1.6-6.3c1.2-4.4,5.7-6.9,10.1-5.7
			c4.3,1.2,6.9,5.6,5.8,9.9l-6.5,24.6l-7.8,29.8C277.7,280.4,251.9,300.3,222.4,300.3z M150.1,54c15.1,0,36,20.9,36,36
			c0,3.3,2.7,6,6,6s6-2.7,6-6c0-15.2,20.9-36,36-36c3.3,0,6-2.7,6-6s-2.7-6-6-6c-15.1,0-36-20.9-36-36c0-3.3-2.7-6-6-6s-6,2.7-6,6
			c0,15.1-20.9,36-36,36c-3.3,0-6,2.7-6,6S146.8,54,150.1,54z M192.1,25.4c5.6,9.3,13.4,17.1,22.7,22.6
			c-9.3,5.6-17.1,13.4-22.6,22.7c-5.6-9.3-13.4-17.1-22.7-22.7C178.7,42.4,186.5,34.7,192.1,25.4L192.1,25.4z M85.7,157.2
			c0,3.3,2.7,6,6,6c8.4,0,21,12.5,21,21c0,3.3,2.7,6,6,6s6-2.7,6-6c0-8.4,12.5-21,21-21c3.3,0,6-2.7,6-6s-2.7-6-6-6
			c-8.4,0-21-12.5-21-21c0-3.3-2.7-6-6-6s-6,2.7-6,6c0,8.4-12.5,21-21,21C88.4,151.2,85.7,153.9,85.7,157.2z M118.7,146.7
			c2.9,4.1,6.5,7.6,10.5,10.5c-4.1,2.9-7.6,6.5-10.5,10.5c-2.9-4.1-6.4-7.6-10.5-10.5C112.2,154.3,115.8,150.8,118.7,146.7
			L118.7,146.7z M87.7,176.9c1.3,3.1-0.2,6.6-3.2,7.9c-3,1.3-6,2.6-8.8,4c-0.8,0.4-1.7,0.6-2.6,0.6c-3.3,0-6-2.7-6-6
			c0-2.3,1.3-4.4,3.4-5.4c3.1-1.5,6.2-2.9,9.4-4.2C82.9,172.4,86.4,173.8,87.7,176.9z M0.8,242.7c11.2-19.7,26.5-36.9,44.9-50.2
			c1.9-1.4,3.8-2.7,5.8-4c2.8-1.8,6.5-1,8.3,1.8c1.8,2.8,1,6.5-1.8,8.3c-1.8,1.2-3.6,2.4-5.3,3.6c-17,12.3-31.1,28.1-41.5,46.4
			c-1.6,2.9-5.2,4-8.1,2.5c-2.9-1.6-4-5.2-2.5-8.1C0.7,242.9,0.7,242.8,0.8,242.7z M137.2,220c0.4,3.3-1.9,6.3-5.2,6.7c0,0,0,0,0,0
			c-50.5,6.4-95.1,35.8-120.8,79.7c-1.1,1.9-3,3-5.2,3c-1.1,0-2.1-0.3-3-0.8c-2.9-1.7-3.8-5.4-2.1-8.2
			c27.6-47.1,75.5-78.7,129.7-85.5C133.8,214.4,136.8,216.7,137.2,220z M26.7,155.2c-2.3-2.4-2.2-6.2,0.2-8.5c0,0,0,0,0,0
			c16-15.2,33.2-28.9,51.5-41.2c2.8-1.8,6.5-1.1,8.3,1.7s1.1,6.5-1.7,8.3c-17.7,11.8-34.4,25.2-49.9,39.9
			C32.8,157.8,29,157.7,26.7,155.2L26.7,155.2z M1.5,173.4c2.7-3.1,5.5-6.2,8.4-9.3c2.3-2.4,6.1-2.4,8.5,0c2.2,2.2,2.4,5.8,0.3,8.2
			c-2.7,3-5.5,6-8.1,9c-2.2,2.5-6,2.8-8.5,0.6C-0.4,179.7-0.7,175.9,1.5,173.4L1.5,173.4z M97,100.9c-1.7-2.9-0.7-6.5,2.2-8.2
			c0,0,0,0,0,0c19.1-11,39.1-20.4,59.7-27.9c3.2-0.9,6.5,0.9,7.5,4.1c0.9,2.9-0.6,6-3.3,7.2c-20,7.3-39.4,16.4-57.9,27.1
			C102.3,104.7,98.7,103.8,97,100.9C97,100.9,97,100.9,97,100.9L97,100.9z"/>
	</g>
</g>
</svg>
