<svg xmlns="http://www.w3.org/2000/svg" width="59.923" height="60" viewBox="0 0 59.923 60"><g transform="translate(-3038.808 -1743.331)"><path d="M3215.649,1846.854a3.868,3.868,0,0,0-3.976-1.873l1.962-7.454a3.875,3.875,0,0,0-4.377-4.816l.024-.092a303.845,303.845,0,0,1-8.327-5.063,3.882,3.882,0,0,0-4.742,2.766l-.669,2.543a3.879,3.879,0,0,0-6.181,2.038l-3.18,12.083-1.5,5.717a14.8,14.8,0,1,0,28.625,7.534l1.5-5.717,1.243-4.722A3.855,3.855,0,0,0,3215.649,1846.854Zm-16.661,22.111a12.5,12.5,0,0,1-12.081-15.676l1.5-5.717,3.18-12.083a1.577,1.577,0,0,1,3.05.8l-.172.655-3.008,11.428a1.153,1.153,0,1,0,2.23.587l1.571-5.97h0l1.437-5.457.172-.655h0l1.571-5.971a1.577,1.577,0,1,1,3.049.8l-3.18,12.083a1.153,1.153,0,1,0,2.229.587l.281-1.068h0l3.18-12.083a1.577,1.577,0,1,1,3.05.8l-3.18,12.083h0l-.926,3.517a1.153,1.153,0,1,0,2.229.587l3.18-12.083a1.577,1.577,0,1,1,3.049.8l-2.863,10.879v0l-2.931,11.136a1.153,1.153,0,1,0,2.229.587l2.614-9.932v0l.318-1.206a1.577,1.577,0,0,1,3.048.807l-1.243,4.722-1.5,5.717A12.516,12.516,0,0,1,3198.988,1868.965Z" transform="translate(-117.448 -67.94)" fill="#0f1d5b"/><path d="M3184.048,1753.709c2.91,0,6.92,4.01,6.92,6.92a1.153,1.153,0,1,0,2.305,0c0-2.91,4.01-6.92,6.92-6.92a1.153,1.153,0,1,0,0-2.305c-2.91,0-6.92-4.01-6.92-6.92a1.153,1.153,0,1,0-2.305,0c0,2.91-4.01,6.92-6.92,6.92a1.153,1.153,0,1,0,0,2.305Zm8.072-5.5a12.688,12.688,0,0,0,4.352,4.352,4.352,4.352,0,1,1-8.7,0A12.687,12.687,0,0,0,3192.12,1748.2Z" transform="translate(-116.407)" fill="#0f1d5b"/><path d="M3124.5,1873.951a1.153,1.153,0,0,0,1.153,1.153c1.617,0,4.025,2.407,4.025,4.025a1.153,1.153,0,1,0,2.305,0c0-1.618,2.408-4.025,4.025-4.025a1.153,1.153,0,1,0,0-2.305c-1.617,0-4.025-2.407-4.025-4.025a1.153,1.153,0,0,0-2.305,0c0,1.618-2.407,4.025-4.025,4.025A1.153,1.153,0,0,0,3124.5,1873.951Zm6.33-2.02a2.02,2.02,0,1,1,0,4.04,2.02,2.02,0,1,1,0-4.04Z" transform="translate(-69.228 -100.413)" fill="#0f1d5b"/><path d="M3108.328,1916.631c-.612.257-1.22.531-1.806.813a1.153,1.153,0,1,0,1,2.077c.55-.265,1.122-.522,1.7-.764a1.153,1.153,0,1,0-.893-2.125Z" transform="translate(-54.179 -139.936)" fill="#0f1d5b"/><path d="M3039.394,1943.052a1.151,1.151,0,0,0,1.57-.436,28.141,28.141,0,0,1,7.963-8.906c.328-.236.672-.472,1.024-.7a1.153,1.153,0,0,0-1.255-1.934c-.384.249-.76.507-1.118.765a30.45,30.45,0,0,0-8.621,9.64A1.153,1.153,0,0,0,3039.394,1943.052Z" transform="translate(0 -151.528)" fill="#0f1d5b"/><path d="M3063.883,1958.081a33.777,33.777,0,0,0-24.917,16.433,1.153,1.153,0,1,0,1.989,1.166,31.468,31.468,0,0,1,23.216-15.312,1.153,1.153,0,1,0-.289-2.287Z" transform="translate(0 -173.488)" fill="#0f1d5b"/><path d="M3065.05,1857.991a1.148,1.148,0,0,0,.794-.317,71.623,71.623,0,0,1,9.588-7.663,1.153,1.153,0,0,0-1.279-1.918,73.928,73.928,0,0,0-9.9,7.911,1.152,1.152,0,0,0,.794,1.988Z" transform="translate(-20.269 -84.479)" fill="#0f1d5b"/><path d="M3039.2,1909.285a1.153,1.153,0,0,0,1.626-.113c.5-.58,1.028-1.162,1.555-1.73a1.153,1.153,0,0,0-1.69-1.568c-.544.586-1.084,1.187-1.6,1.785A1.152,1.152,0,0,0,3039.2,1909.285Z" transform="translate(-0.001 -131.02)" fill="#0f1d5b"/><path d="M3136.145,1815.313a1.148,1.148,0,0,0,.576-.155,71.436,71.436,0,0,1,11.117-5.2,1.153,1.153,0,1,0-.794-2.164,73.726,73.726,0,0,0-11.476,5.369,1.153,1.153,0,0,0,.578,2.151Z" transform="translate(-77.706 -52.022)" fill="#0f1d5b"/></g></svg>