<?xml version="1.0" encoding="utf-8"?>
<svg version="1.1" id="Layer_1" x="0px" y="0px" viewBox="0 0 130.8 129.05" style="enable-background:new 0 0 130.8 129.05;" xmlns="http://www.w3.org/2000/svg">
  <style type="text/css">
	.st0{fill:#101b51;}
	.st1{fill:#101b51}
	.st2{fill:#FFFFFF;}
	.st3{fill:none;stroke:#101b51;stroke-width:4;stroke-linecap:round;stroke-miterlimit:10;}
	.st4{fill:#101b51;}
	.st5{fill:none;stroke:#101b51;stroke-width:5;stroke-linecap:round;stroke-miterlimit:10;}
	.st6{fill:none;}
</style>
  <g>
    <path d="M39.07,129.05c-2.55,0.03-4.99-1.02-6.72-2.9c-7.21-7.6-6.07-29.21-4.74-54.23c0.5-9.44,1-19.2,1-28 c0.01-32.51-25.6-38.7-26.6-38.95c-1.36-0.28-2.24-1.6-1.96-2.96c0.28-1.36,1.6-2.24,2.96-1.96c0.31,0.07,30.57,7.22,30.57,43.77 c0,9-0.52,18.8-1,28.3c-1.14,21.93-2.33,44.53,3.43,50.57c0.78,0.89,1.92,1.39,3.1,1.36c1.38,0,2.5,1.12,2.5,2.5 c0,1.38-1.12,2.5-2.5,2.5H39.07z" style="fill: rgb(16, 27, 81);"/>
    <path d="M76.43,128.24c-26.35,0-26.35-46.47-26.35-77.22c0-28.66-17.48-42-29.29-42c-1.38,0-2.5-1.12-2.5-2.5s1.12-2.5,2.5-2.5 c16.49,0,34.29,18,34.29,47c0,14.59,0,32.74,2.94,47.6c3.27,16.56,9.29,24.62,18.41,24.62c19.72,0,36.32-12.69,43.41-18.11 c1.22-0.93,2.17-1.66,2.9-2.14c1.76-1.18,3-3.8,3.07-6.52c0.14-2.68-1.05-5.26-3.19-6.89l-0.27-0.23c-2.34-2.34-3.21-5.7-3.92-8.4 l-0.32-1.2c-0.59,0.62-1.26,1.36-1.78,2c-1.76,2-3.59,4-5.4,4.94c-1.18,0.72-2.72,0.35-3.44-0.83c-0.72-1.18-0.35-2.72,0.83-3.44 c0.06-0.04,0.13-0.07,0.19-0.11l0.19-0.1c1-0.48,2.65-2.39,3.89-3.79c2.37-2.66,4.07-4.57,6.16-4.63c0.89-0.03,1.75,0.31,2.37,0.94 c1.14,1.13,1.61,2.92,2.15,5c0.54,2.08,1.2,4.61,2.52,6c3.33,2.61,5.19,6.67,5,10.9c-0.12,4.4-2.15,8.44-5.3,10.54 c-0.59,0.39-1.49,1.08-2.63,2C115.39,114.83,97.84,128.24,76.43,128.24" style="fill: rgb(16, 27, 81);"/>
    <path d="M115.92,80.93c-1.38,0.01-2.49-1.1-2.5-2.48v-0.01c-0.01-0.69,0.27-1.35,0.77-1.82c1.35-1.26,1.52-3.35,0.39-4.82 c-0.48-0.48-2-0.38-3-0.32h-1.22c-0.93,0.02-1.8-0.42-2.35-1.17c-1.06-1.53-0.4-3.25,0.59-5.86c0.6-1.41,1.02-2.89,1.24-4.4 c0-2.54-0.44-3.33-3.2-3.33c-0.16,0-16.54-1.19-20.85-5.5c-1.88-1.88-3.16-4.44-4.64-7.41c-1.44-3.07-3.16-6-5.14-8.76 c-3.48-4.67-16.28-9-20.91-10.24c-1.38-0.19-2.34-1.47-2.15-2.85c0.19-1.38,1.47-2.34,2.85-2.15c0.21,0.03,0.42,0.09,0.62,0.17 c1.88,0.51,18.46,5.19,23.6,12c2.16,2.99,4.04,6.18,5.6,9.52c1.29,2.58,2.4,4.81,3.71,6.11c2.16,2.16,14.78,4,17.31,4 c3.74,0,8.2,1.44,8.2,8.33c-0.18,2.14-0.73,4.23-1.61,6.19c-0.02,0.07-0.05,0.14-0.08,0.21c1.84-0.07,3.64,0.59,5,1.83 c1.47,1.6,2.27,3.71,2.22,5.88c-0.03,2.32-1,4.52-2.69,6.11C117.22,80.64,116.59,80.92,115.92,80.93" style="fill: rgb(16, 27, 81);"/>
    <path d="M63.71,67.83c-1.38,0-2.5-1.12-2.5-2.5c0-6.25,5.93-18.4,16.81-18.4c1.38,0,2.5,1.12,2.5,2.5c0,1.38-1.12,2.5-2.5,2.5 c-7.67,0-11.81,9.51-11.81,13.4C66.21,66.71,65.09,67.83,63.71,67.83" style="fill: rgb(16, 27, 81);"/>
    <path d="M71.66,72.6c-1.38,0.01-2.51-1.1-2.52-2.48c-0.01-1.08,0.68-2.04,1.7-2.39c0.11,0,4.21-1.57,8.35-7.08 c0.83-1.11,2.4-1.33,3.5-0.5c1.1,0.83,1.33,2.39,0.5,3.5c-5.19,6.9-10.52,8.74-10.75,8.82C72.2,72.55,71.93,72.6,71.66,72.6" style="fill: rgb(16, 27, 81);"/>
    <path d="M67.7,84.05h-0.32c-1.22-0.16-2.44-0.25-3.67-0.26c-1.38,0-2.5-1.12-2.5-2.5c0-1.38,1.12-2.5,2.5-2.5 c1.44,0,2.87,0.08,4.3,0.26c1.39,0,2.51,1.13,2.51,2.51c0,1.39-1.13,2.51-2.51,2.51c-0.1,0-0.21-0.01-0.31-0.02H67.7z" style="fill: rgb(16, 27, 81);"/>
    <path d="M98.21,103.27c-0.93,0-1.78-0.52-2.2-1.35c-1.18-2.27-2.66-4.37-4.4-6.24c-0.94-1.01-0.88-2.6,0.14-3.53 c1.01-0.94,2.6-0.88,3.54,0.13c2.04,2.2,3.78,4.67,5.17,7.33c0.66,1.21,0.21,2.73-1,3.39H99.4 C99.03,103.19,98.62,103.28,98.21,103.27 M85.32,90.05c-0.47,0-0.92-0.14-1.31-0.39c-2.26-1.32-4.64-2.44-7.11-3.33 c-1.31-0.43-2.02-1.85-1.59-3.16c0.43-1.31,1.85-2.02,3.16-1.59h0.13c2.78,0.99,5.46,2.24,8,3.73c1.24,0.61,1.76,2.1,1.15,3.34 C87.3,89.57,86.34,90.13,85.32,90.05" style="fill: rgb(16, 27, 81);"/>
    <path d="M101.86,117.11c-1.32-0.01-2.41-1.04-2.49-2.36c-0.05-1.24-0.17-2.48-0.36-3.7c-0.22-1.36,0.71-2.65,2.07-2.87 c1.36-0.22,2.65,0.71,2.87,2.07c0.23,1.4,0.38,2.81,0.46,4.23c0.08,1.38-0.97,2.56-2.35,2.64L101.86,117.11z" style="fill: rgb(16, 27, 81);"/>
  </g>
  <rect x="-1582.77" y="-2208.15" class="st6" width="3000" height="3000"/>
</svg>