<?xml version="1.0" encoding="utf-8"?>
<!-- Generator: Adobe Illustrator 25.4.1, SVG Export Plug-In . SVG Version: 6.00 Build 0)  -->
<svg version="1.1" id="Layer_1" xmlns="http://www.w3.org/2000/svg" xmlns:xlink="http://www.w3.org/1999/xlink" x="0px" y="0px"
	 viewBox="0 0 312 310" style="enable-background:new 0 0 312 310;" xml:space="preserve">
<style type="text/css">
	.st0{fill:#E0607D;}
</style>
<g id="Layer_2_1_">
	<g id="Layer_1-2">
		<path class="st0" d="M302.8,205.8c-1.3-1.1-2.5-2.3-3.7-3.5c-5.7-6.2-9.2-15.2-10.2-26.7c0.1-4.5-2.4-10.9-7.7-15.2
			c-3-2.4-6.6-3.8-10.4-4.2c3.9-13.5,3-23-2.8-28.3c-3.1-2.9-6-3.2-14.3-4.3l-0.6-0.1c-24.9-3-27.4-3.7-29.6-4.5
			c-6.1-2.5-11.4-6.5-15.5-11.7c-2.9-3.6-3.8-6.4-4.9-10c-1.4-5.1-3.7-9.9-6.8-14.2c-5.1-7-11.2-13.3-18.1-18.5
			c-16-12-33.2-15.7-44.7-16.8c-3.3-0.3-6.2,2.1-6.5,5.5s2.1,6.2,5.5,6.5c13.9,1.2,27.3,6.1,38.6,14.4c6,4.5,11.2,9.8,15.6,15.9
			c2.3,3.3,4.1,6.9,5.1,10.8c1.4,5,3.8,9.7,7,13.8c5.4,6.8,12.5,12.1,20.5,15.3c3.3,1.3,5.9,2,32.5,5.3l0.6,0.1
			c3.8,0.5,7,0.9,7.7,1.2c1.7,1.6,2.9,8.6-3.6,24.7c-1.2,3.1,0.3,6.6,3.3,7.8c1.6,0.6,3.3,0.6,4.8-0.2c3-1.6,6.5-1.3,9.2,0.7
			c1.5,1.2,2.6,2.8,3.1,4.7c-3.9,6.7-8.9,12.6-14.7,17.8c-1.8,1.5-3.6,3-5.5,4.4c-2.7,1.9-3.3,5.7-1.4,8.4c1.9,2.7,5.7,3.3,8.4,1.4
			c2.2-1.6,4.4-3.3,6.4-5.1c3.5-3.1,6.7-6.4,9.7-10c2,7.2,5.7,13.8,10.7,19.3c1.4,1.5,3,3,4.5,4.4c2.3,2,3.4,3,4.2,5
			c3.1,7.5-2.6,17.7-4.8,21.5c-13.4,23.7-43.6,34.4-56.5,38.9l-2.6,0.9c-18,6.6-51.5,18.8-73.4,3.8c-13.7-9.4-16.9-26.6-22.7-57.9
			c-0.6-3.3-1.3-6.8-2-10.4c-2.8-14.6-3-24.3-3.4-38.8c-0.3-11.9-0.6-26.8-2.5-50c-4.8-61.2-12.4-73.4-17.4-81.5l-0.1-0.1
			C98.1,21,71.3,19.6,53.5,18.7c-4-0.2-7.4-0.4-10.2-0.8C32.7,9.6,20.6,3.6,7.6,0.2c-3.2-0.9-6.5,1-7.3,4.3s1,6.5,4.2,7.3
			c11.9,3.1,23,8.7,32.5,16.4l0,0c24.5,20,30.4,49.1,33.5,64.7c5.7,28.1,2.6,51.5-3.6,98.1c-4.9,37.2-7.4,55.9-0.2,82
			c4.3,15.8,17,25.2,25.4,31.5c2,1.5,3.8,2.9,5.1,4c2.5,2.2,6.3,2,8.5-0.5s2-6.3-0.5-8.5c-1.7-1.5-3.7-3-5.8-4.6
			c-7.5-5.6-17.7-13.3-21-25.1c-6.5-23.8-4.3-40.5,0.6-77.2c6.3-47.9,9.5-72,3.5-102.1C79.7,76.2,74.7,51.7,57,30.8
			c16.3,0.9,35.4,3.3,46.9,21.9l0.1,0.1c4.4,7.1,11,17.8,15.6,76c1.8,22.9,2.2,37.6,2.4,49.4c0.3,15.1,0.6,25.1,3.6,40.8
			c0.7,3.6,1.3,7.1,2,10.4c6.2,33.3,10,53.4,27.7,65.6c9.9,6.8,21.3,9.3,32.7,9.3c19.4,0,38.9-7.1,51.6-11.7l2.5-0.9
			c14.1-5,47.3-16.7,62.9-44.3c3-5.2,10.9-19.2,5.4-32.1C308.2,210.6,305.5,208.2,302.8,205.8z"/>
		<path class="st0" d="M188.6,111.5c-9.3,0.5-18.2,3.9-25.4,9.8c-14.5,12.1-15.4,29.4-15.3,34.4c0.1,3.3,2.7,5.9,6,5.9h0.1
			c3.3-0.1,6-2.8,5.9-6.1l0,0c0-2.6,0.3-16,11-25c5.2-4.2,11.6-6.7,18.3-7c3.3-0.2,5.9-3,5.7-6.3S191.9,111.3,188.6,111.5
			L188.6,111.5z"/>
		<path class="st0" d="M197.6,142.7c-2.9-1.6-6.5-0.6-8.2,2.3l0,0c-2.2,3.9-5.1,7.3-8.5,10.1c-3.8,3-8.1,5.2-12.8,6.5
			c-3.2,0.9-5.1,4.2-4.2,7.4s4.2,5.1,7.4,4.2c6.3-1.7,12.1-4.7,17.2-8.8c4.7-3.7,8.5-8.3,11.4-13.6
			C201.5,148,200.5,144.4,197.6,142.7L197.6,142.7z"/>
		<path class="st0" d="M145.8,192.9c0.2,3.3,3,5.8,6.4,5.6l0,0c3.9-0.2,7.7-0.1,11.6,0.2c0.2,0,0.4,0,0.6,0c3.3,0.2,6.1-2.4,6.3-5.7
			s-2.4-6.1-5.7-6.3c-4.5-0.4-8.9-0.5-13.4-0.2C148.1,186.7,145.6,189.5,145.8,192.9C145.8,192.8,145.8,192.9,145.8,192.9z"/>
		<path class="st0" d="M224.9,216.5c-2-2.6-5.8-3.1-8.4-1c-2.6,2-3.1,5.8-1,8.4c0.2,0.2,0.3,0.4,0.5,0.6c4.4,4.9,8.2,10.4,11.3,16.3
			c1.5,2.9,5.2,4.1,8.1,2.5s4.1-5.2,2.5-8.1C234.4,228.4,230,222.1,224.9,216.5z"/>
		<path class="st0" d="M179.5,195.2c-1.1,3.1,0.6,6.5,3.7,7.6l0,0c6.3,2.1,12.3,5.1,17.8,8.7c2.7,1.9,6.4,1.3,8.4-1.4
			c1.9-2.7,1.3-6.4-1.4-8.4c-0.1-0.1-0.2-0.2-0.3-0.2c-6.4-4.2-13.3-7.6-20.5-10.1C184,190.4,180.6,192.1,179.5,195.2L179.5,195.2z"
			/>
		<path class="st0" d="M234.3,259.4c0.9,3.7,1.6,7.6,1.9,11.4c0.3,3.1,2.9,5.5,6,5.5h0.5c3.3-0.3,5.7-3.2,5.4-6.5
			c-0.4-4.5-1.2-8.9-2.2-13.2c-0.8-3.2-4.1-5.1-7.3-4.3C235.5,253.1,233.6,256.3,234.3,259.4L234.3,259.4z"/>
	</g>
</g>
</svg>
