<?xml version="1.0" encoding="utf-8"?>
<!-- Generator: Adobe Illustrator 25.2.1, SVG Export Plug-In . SVG Version: 6.00 Build 0)  -->
<svg version="1.1" id="Layer_1" xmlns="http://www.w3.org/2000/svg" xmlns:xlink="http://www.w3.org/1999/xlink" x="0px" y="0px"
	 viewBox="0 0 13 13" style="enable-background:new 0 0 13 13;" xml:space="preserve">
<style type="text/css">
	.st0{fill-rule:evenodd;clip-rule:evenodd;fill:#FFFFFF;}
</style>
<path id="Фигура_8" class="st0" d="M6.5,0C2.9,0,0,2.9,0,6.5S2.9,13,6.5,13S13,10.1,13,6.5l0,0C13,2.9,10.1,0,6.5,0z
	 M6.5,12.4c-3.3,0-5.9-2.7-5.9-5.9s2.7-5.9,5.9-5.9c3.3,0,5.9,2.7,5.9,5.9l0,0C12.4,9.8,9.8,12.4,6.5,12.4z M10,6.2H6.8V1.4
	c0-0.2-0.1-0.3-0.3-0.3S6.2,1.3,6.2,1.4l0,0v5.4H10c0.2,0,0.3-0.1,0.3-0.3C10.3,6.3,10.1,6.2,10,6.2L10,6.2z"/>
</svg>
