<?xml version="1.0" encoding="utf-8"?>
<!-- Generator: Adobe Illustrator 23.0.1, SVG Export Plug-In . SVG Version: 6.00 Build 0)  -->
<svg version="1.1" id="Layer_1" xmlns="http://www.w3.org/2000/svg" xmlns:xlink="http://www.w3.org/1999/xlink" x="0px" y="0px"
	 viewBox="0 0 94.18 58.76" style="enable-background:new 0 0 94.18 58.76;" xml:space="preserve">
<style type="text/css">
	.st0{fill:#231F20;}
	.st1{fill:#EBEBEC;}
	.st2{fill:#FFFFFF;}
	.st3{fill:#FF9954;}
	.st4{fill:#F37A7B;}
	.st5{fill:none;stroke:#000000;stroke-width:5;stroke-linecap:round;stroke-miterlimit:10;}
	.st6{fill:#0F1D5B;}
	.st7{fill:#FFA35F;}
	.st8{fill:none;}
	.st9{fill:none;stroke:#231F20;stroke-width:3;stroke-miterlimit:10;}
	.st10{fill:#101B51;}
</style>
<path class="st3" d="M74.62,58.76H19.56C8.77,58.77,0.01,50.03,0,39.24C-0.01,30.8,5.41,23.3,13.43,20.66
	C13.46,9.22,22.77-0.03,34.21,0c7.41,0.02,14.25,4,17.93,10.44c6.2-5.66,15.82-5.23,21.49,0.98c2.15,2.35,3.5,5.31,3.87,8.47
	c10.68,1.58,18.05,11.51,16.47,22.19C92.55,51.67,84.32,58.77,74.62,58.76 M34.15,3.99C24.92,4,17.44,11.48,17.43,20.71
	c0,0.43,0,0.86,0.05,1.29l0.14,1.7l-1.67,0.4C7.6,26.08,2.44,34.46,4.42,42.81c1.66,7.01,7.93,11.96,15.14,11.95h55.06
	c8.58,0.05,15.58-6.86,15.64-15.44C90.31,31,83.8,24.12,75.5,23.7l-1.89-0.11v-2c-0.04-6.19-5.09-11.18-11.28-11.14
	c-3.61,0.02-6.98,1.78-9.07,4.72l-2.16,3l-1.34-3.48C47.25,8.26,41.05,4.01,34.15,3.99"/>
<rect x="-2198.65" y="-2443.99" class="st8" width="3792.92" height="5746.56"/>
<rect x="-2198.65" y="-2443.99" class="st8" width="3792.92" height="5746.56"/>
</svg>
