<svg xmlns="http://www.w3.org/2000/svg" viewBox="0 0 403.9 430.07"><defs><style>.cls-1{fill:#dee7f4;}.cls-2{fill:none;}.cls-3{fill:#c7cfdb;}.cls-4{fill:#ffea99;}</style></defs><g id="Layer_2" data-name="Layer 2"><g id="Layer_1-2" data-name="Layer 1"><path class="cls-1" d="M294.15,279.55c-2.85,8.26-5.81,16.81-8.56,25.31-1.63,5-3.23,10.07-4.84,15.18-10.12,32.1-20.6,65.29-39.66,91.79-3.48,4.84-7.82,10-13.64,11.77-11.78,3.53-20.22-13.9-25.23-29.13-3.07-9.37-4.58-19.58-6-29.45-2.33-15.86-4.74-32.25-13.71-46.07-4.42-6.83-9.89-10.53-15.48-10.53-.3,0-.6,0-.89,0-3.5.25-7,2-10.42,5.15-5.11,4.75-9,11.29-11.94,20-3.69,10.94-5,22.48-6.3,33.65-.34,3-.7,6-1.09,9a147.31,147.31,0,0,1-3,16.66c-1.95,7.82-4.87,15.56-9.6,22.27-2.65,3.74-6.9,8.31-12.17,8.77-.28,0-.57,0-.86,0a13.54,13.54,0,0,1-7.23-2.31c-4.9-3.15-8.13-8.61-11-13.93a295.53,295.53,0,0,1-22-52.12c-4.69-14.9-10.5-29.7-16.12-44C50.53,302,46.6,292,43.08,282.05c-10.54-29.59-17.51-53.83-21.95-76.27a211.83,211.83,0,0,1-4-30.72c-.11-2.25-.17-4.45-.17-6.62,0-.72,0-1.43,0-2.14h0c0-.71,0-1.41,0-2.11h0c0-.7.06-1.4.1-2.09h0c0-.69.08-1.38.13-2.06h0c.05-.68.1-1.36.17-2h0c.06-.67.13-1.34.2-2h0l.24-2h0c.09-.65.18-1.31.28-2h0q.45-2.93,1.07-5.76h0a82.38,82.38,0,0,1,3.15-10.88h0a76.53,76.53,0,0,1,6.33-13.22h0l.37-.59c.51-.84,1-1.67,1.6-2.49a78,78,0,0,1,5.58-7.34c15.47-18,35.29-28.94,54.39-29.94,1,0,2-.08,3-.08a63.51,63.51,0,0,1,8.63.6c.81.11,1.61.24,2.42.37a95.51,95.51,0,0,1,11.13,2.63l2.09.63c3.2,1,6.4,2.09,9.62,3.25l2.43.87,1.22.45,1.22.44a204.25,204.25,0,0,0,23.36,7.45,84.57,84.57,0,0,0,17.73,2.27h.75c.85,0,1.7,0,2.54,0a48.69,48.69,0,0,1-9,4.26c-.83.28-1.66.53-2.48.74a39.84,39.84,0,0,1-9.87,1.13c-2.09,0-4.32-.12-6.74-.36-3.22-.32-6.5-.81-9.67-1.28-3.32-.49-6.74-1-10.17-1.33h-.29a3,3,0,0,0-2,.8l-.18.18a2.88,2.88,0,0,0-.3.39,2.64,2.64,0,0,0-.23.44,3.24,3.24,0,0,0-.23.89,3,3,0,0,0,2.7,3.28c3.28.32,6.63.81,9.87,1.3s6.6,1,10,1.31c2.62.26,5.06.39,7.35.39a45.37,45.37,0,0,0,11.34-1.32c1-.25,1.95-.54,2.93-.87a60.88,60.88,0,0,0,13.22-6.7c.89-.56,1.78-1.17,2.68-1.78a37.09,37.09,0,0,1,7.26-4.21l.07,0,.89-.3h0c.28-.1.57-.19.85-.3h0a137,137,0,0,0,13.69-6c5.58-2.7,10.85-5.25,16.5-6.87,9.63-2.76,20.79-2.77,32.26,0,29.54,7.09,51.77,30.78,58,61.83a130.37,130.37,0,0,1,2,14.44C320.78,202.53,307.84,239.94,294.15,279.55Z"/><path d="M192,94.91l-.2.08q-.6.2-1.2.36l1.4-.44"/><path d="M194.68,97.16a2.8,2.8,0,0,1-.57.22l-.28.08C194.11,97.36,194.4,97.27,194.68,97.16Z"/><path d="M296,207.82a2.62,2.62,0,0,1-.55,0,3,3,0,0,1-2.4-3.5,116.4,116.4,0,0,0,1.48-33.57,3,3,0,1,1,6-.63,122.66,122.66,0,0,1-1.54,35.3A3,3,0,0,1,296,207.82Z"/><path d="M291.69,148.75a3,3,0,0,1-2.8-1.91c-6.2-16-16.6-27.77-29.29-33.22-7-3-18.64-5.65-34.82-1.38a3,3,0,0,1-1.52-5.81c17.82-4.69,30.89-1.68,38.71,1.68,14.18,6.08,25.73,19.06,32.52,36.55a3,3,0,0,1-2.8,4.09Z"/><path d="M39.81,326.88a3.1,3.1,0,0,1-1.41.35,3,3,0,0,1-2.65-1.59c-1.6-3-3.17-6.05-4.66-9.06a3,3,0,1,1,5.37-2.67c1.47,3,3,5.95,4.59,8.91A3,3,0,0,1,39.81,326.88Z"/><path d="M28.47,304.1a3,3,0,0,1-1.21.25,3,3,0,0,1-2.74-1.78c-4-8.95-7.57-18.17-10.75-27.41A346.76,346.76,0,0,1,0,221.59a3,3,0,1,1,5.91-1,340.75,340.75,0,0,0,13.5,52.64c3.12,9.08,6.67,18.14,10.55,26.93A3,3,0,0,1,28.47,304.1Z"/><path class="cls-2" d="M96.48,419.42c.52.61,1.07,1.21,1.64,1.76-.57-.56-1.11-1.15-1.64-1.76M190.57,95.35q.6-.16,1.2-.36l.2-.08-1.4.44m-118,284v0c.23,0,.47,0,.7,0-.24,0-.47,0-.71,0"/><path d="M323.16,160A135.36,135.36,0,0,0,321,144.9c-6.7-33.37-30.64-58.85-62.48-66.48-12.48-3-24.69-3-35.32.08-6.14,1.77-11.9,4.55-17.46,7.24a126.2,126.2,0,0,1-13.72,6l-.2.06c-.3.11-.59.2-.89.29l-.08,0c-.82.27-1.65.52-2.49.74a54.32,54.32,0,0,1-14.87,1.73,78.07,78.07,0,0,1-16.46-2.12,198.78,198.78,0,0,1-22.66-7.24c-14-5.07-28.41-10.32-44.1-9.51-20.73,1.08-42.11,12.76-58.63,32C16.45,125.48,9.72,147.6,11.09,175.36a219.35,219.35,0,0,0,4.15,31.58c4.5,22.74,11.55,47.25,22.18,77.12,3.56,10,7.5,20,11.32,29.76,5.58,14.22,11.35,28.92,16,43.62q3,9.54,6.61,18.84c.39,1,.8,2.06,1.22,3.08.24,0,.47,0,.71,0-.23,0-.47,0-.7,0q.59,1.47,1.2,2.94A293.15,293.15,0,0,0,87.2,410.62c3.26,6,7,12.2,13,16.11a19.06,19.06,0,0,0,11.86,3.2c6-.52,11.71-4.42,16.55-11.29,8.9-12.61,11.9-28.11,13.66-41.61.4-3,.75-6.11,1.1-9.1,1.25-10.85,2.54-22.08,6-32.42,2.61-7.74,6-13.47,10.34-17.51,2.39-2.22,4.66-3.42,6.76-3.57,4.91-.35,8.94,4.73,10.92,7.79,8.25,12.71,10.46,27.75,12.81,43.67,1.49,10.13,3,20.59,6.26,30.45,8.81,26.81,19.31,33.74,27.81,33.73a16.61,16.61,0,0,0,4.84-.73c7.59-2.27,13-8.68,16.8-14,19.62-27.28,30.24-60.94,40.5-93.49q2.41-7.63,4.82-15.13c2.74-8.44,5.68-17,8.53-25.2C313.12,243.05,326.86,203.28,323.16,160ZM192,94.91l-.2.08q-.6.2-1.2.36ZM96.48,419.42c.53.61,1.07,1.2,1.64,1.76C97.55,420.63,97,420,96.48,419.42ZM294.15,279.55c-2.85,8.26-5.81,16.81-8.56,25.31-1.63,5-3.23,10.07-4.84,15.18-10.12,32.1-20.6,65.29-39.66,91.79-3.48,4.84-7.82,10-13.64,11.77-11.78,3.53-20.22-13.9-25.23-29.13-3.07-9.37-4.58-19.58-6-29.45-2.33-15.86-4.74-32.25-13.71-46.07-4.42-6.83-9.89-10.53-15.48-10.53-.3,0-.6,0-.89,0-3.5.25-7,2-10.42,5.15-5.11,4.75-9,11.29-11.94,20-3.69,10.94-5,22.48-6.3,33.65-.34,3-.7,6-1.09,9a147.31,147.31,0,0,1-3,16.66c-1.95,7.82-4.87,15.56-9.6,22.27-2.65,3.74-6.9,8.31-12.17,8.77-.28,0-.57,0-.86,0a13.54,13.54,0,0,1-7.23-2.31c-4.9-3.15-8.13-8.61-11-13.93a295.53,295.53,0,0,1-22-52.12c-4.69-14.9-10.5-29.7-16.12-44C50.53,302,46.6,292,43.08,282.05c-10.54-29.59-17.51-53.83-21.95-76.27a211.83,211.83,0,0,1-4-30.72c-.11-2.25-.17-4.45-.17-6.62,0-.72,0-1.43,0-2.14h0c0-.71,0-1.41,0-2.11h0c0-.7.06-1.4.1-2.09h0c0-.69.08-1.38.13-2.06h0c.05-.68.1-1.36.17-2h0c.06-.67.13-1.34.2-2h0l.24-2h0c.09-.65.18-1.31.28-2h0q.45-2.93,1.07-5.76h0a82.38,82.38,0,0,1,3.15-10.88h0a76.53,76.53,0,0,1,6.33-13.22h0l.37-.59c.51-.84,1-1.67,1.6-2.49a78,78,0,0,1,5.58-7.34c15.47-18,35.29-28.94,54.39-29.94,1,0,2-.08,3-.08a63.51,63.51,0,0,1,8.63.6c.81.11,1.62.23,2.42.37a95.51,95.51,0,0,1,11.13,2.63c.7.2,1.4.41,2.09.63,3.2,1,6.4,2.09,9.62,3.25l2.43.87,1.22.45,1.22.44a204.25,204.25,0,0,0,23.36,7.45,84.57,84.57,0,0,0,17.73,2.27h.75c.85,0,1.7,0,2.54,0a48.69,48.69,0,0,1-9,4.26c-.83.28-1.66.53-2.48.74a39.84,39.84,0,0,1-9.87,1.13c-2.09,0-4.32-.12-6.74-.36-3.22-.32-6.5-.81-9.67-1.28-3.32-.49-6.74-1-10.17-1.33h-.29a3,3,0,0,0-2,.8l-.18.18a2.88,2.88,0,0,0-.3.39,4.53,4.53,0,0,0-.23.44,3.24,3.24,0,0,0-.23.89,3,3,0,0,0,2.7,3.28c3.28.32,6.63.81,9.87,1.3s6.6,1,10,1.31c2.62.26,5.06.39,7.35.39a45.37,45.37,0,0,0,11.34-1.32c1-.25,1.95-.54,2.93-.87a60.88,60.88,0,0,0,13.22-6.7c.89-.56,1.78-1.17,2.68-1.78a37.09,37.09,0,0,1,7.26-4.21l.07,0,.89-.3h0c.28-.1.57-.19.85-.3h0a137,137,0,0,0,13.69-6c5.58-2.7,10.85-5.25,16.5-6.87,9.63-2.76,20.79-2.77,32.26,0,29.54,7.09,51.77,30.78,58,61.83a130.37,130.37,0,0,1,2,14.44C320.78,202.53,307.84,239.94,294.15,279.55Z"/><path d="M96.48,419.42c.52.61,1.07,1.21,1.64,1.76-.57-.56-1.11-1.15-1.64-1.76Z"/><path class="cls-3" d="M176.72,100.54a48.69,48.69,0,0,1-9,4.26c-.83.28-1.66.53-2.48.74a39.84,39.84,0,0,1-9.87,1.13c-2.09,0-4.32-.12-6.74-.36-3.22-.32-6.5-.81-9.67-1.28-3.32-.49-6.74-1-10.17-1.33h-.29a3,3,0,0,0-2,.8l-.18.18a2.88,2.88,0,0,0-.3.39,4.53,4.53,0,0,0-.23.44,2.56,2.56,0,0,0-.16.49,74.55,74.55,0,0,0-15.89-1.7c-17.48,0-34.88,6.08-47.93,18-20.66,18.93-23.67,44.59-21,70.93,2.6,25.89,11.62,50.55,19.89,75,13.35,39.52,23,80.52,37.74,119.52,2.25,6,4.78,12,9,16.85a10.25,10.25,0,0,0,3.52,2.87,7.67,7.67,0,0,0,3.13.65c6.87,0,14.25-8.61,19.36-15.27-1.95,7.82-4.87,15.56-9.6,22.27-2.65,3.74-6.9,8.31-12.17,8.77-.28,0-.57,0-.86,0a13.54,13.54,0,0,1-7.23-2.31c-4.9-3.15-8.13-8.61-11-13.93a295.53,295.53,0,0,1-22-52.12c-4.69-14.9-10.5-29.7-16.12-44C50.53,302,46.6,292,43.08,282.05c-10.54-29.59-17.51-53.83-21.95-76.27a211.83,211.83,0,0,1-4-30.72c-.11-2.25-.17-4.45-.17-6.62,0-.72,0-1.43,0-2.14h0c0-.71,0-1.41,0-2.11h0c0-.7.06-1.4.1-2.09h0c0-.69.08-1.38.13-2.06h0c.05-.68.1-1.36.17-2h0c.06-.67.13-1.34.2-2h0l.24-2h0c.09-.65.18-1.31.28-2h0q.45-2.93,1.07-5.76h0a82.38,82.38,0,0,1,3.15-10.88h0a76.53,76.53,0,0,1,6.33-13.22h0l.37-.59c.51-.84,1-1.67,1.6-2.49a78,78,0,0,1,5.58-7.34c15.47-18,35.29-28.94,54.39-29.94,1,0,2-.08,3-.08a63.51,63.51,0,0,1,8.63.6c.81.11,1.62.23,2.42.37a95.51,95.51,0,0,1,11.13,2.63l2.09.63c3.2,1,6.4,2.09,9.62,3.25l2.43.87,1.22.45,1.22.44a204.25,204.25,0,0,0,23.36,7.45,84.57,84.57,0,0,0,17.73,2.27h.75C175,100.59,175.88,100.58,176.72,100.54Z"/><path d="M192,94.91l-1.4.44q.6-.16,1.2-.36l.2-.08"/><path d="M400.9,57.09c-28.82,0-54.09-25.28-54.09-54.09a3,3,0,0,0-6,0c0,28.81-25.28,54.09-54.1,54.09a3,3,0,0,0,0,6c28.82,0,54.1,25.28,54.1,54.1a3,3,0,0,0,6,0c0-28.82,25.27-54.1,54.09-54.1a3,3,0,0,0,0-6ZM343.81,99.16a63.31,63.31,0,0,0-39.07-39.07A63.29,63.29,0,0,0,343.81,21a63.25,63.25,0,0,0,39.06,39.07A63.27,63.27,0,0,0,343.81,99.16Z"/><path class="cls-4" d="M382.87,60.09a63.27,63.27,0,0,0-39.06,39.07,63.31,63.31,0,0,0-39.07-39.07A63.29,63.29,0,0,0,343.81,21,63.25,63.25,0,0,0,382.87,60.09Z"/><path class="cls-4" d="M60.84,379.38A30.88,30.88,0,0,0,47.19,393a30.86,30.86,0,0,0-13.64-13.64,30.81,30.81,0,0,0,13.64-13.64A30.83,30.83,0,0,0,60.84,379.38Z"/><path class="cls-4" d="M73.26,379.38c-.23,0-.47,0-.7,0v0C72.79,379.38,73,379.38,73.26,379.38Z"/><path d="M72.55,379.36v0c.23,0,.47,0,.7,0C73,379.38,72.79,379.38,72.55,379.36Z"/><path d="M72.56,379.4v0c-.42-1-.83-2.05-1.22-3.08-11.29-1.08-21.14-11.55-21.14-23a3,3,0,0,0-6,0c0,12.07-11,23.07-23.07,23.07a3,3,0,0,0,0,6c12.08,0,23.07,11,23.07,23.07a3,3,0,0,0,6,0c0-12.07,11-23.07,23.07-23.07a2.74,2.74,0,0,0,.5,0Q73.14,380.87,72.56,379.4ZM47.19,393a30.86,30.86,0,0,0-13.64-13.64,30.81,30.81,0,0,0,13.64-13.64,30.83,30.83,0,0,0,13.65,13.64A30.88,30.88,0,0,0,47.19,393Z"/></g></g></svg>