<?xml version="1.0" encoding="utf-8"?>
<!-- Generator: Adobe Illustrator 23.0.1, SVG Export Plug-In . SVG Version: 6.00 Build 0)  -->
<svg version="1.1" id="Layer_1" xmlns="http://www.w3.org/2000/svg" xmlns:xlink="http://www.w3.org/1999/xlink" x="0px" y="0px"
	 viewBox="0 0 94.1 54.3" style="enable-background:new 0 0 94.1 54.3;" xml:space="preserve">
<style type="text/css">
	.st0{fill:#0F1D5B;}
</style>
<g>
	<g id="Layer_1-2">
		<path class="st0" d="M73.9,6.9H45.2C34-3.1,16.9-2.1,6.9,9s-9,28.4,2.1,38.4c10.3,9.2,25.9,9.2,36.2,0h28.7
			c11.2,0.2,20.4-8.6,20.7-19.8C94.8,16.4,86,7.1,74.8,6.9C74.5,6.9,74.2,6.9,73.9,6.9z M4,27.1C4,14.4,14.4,4,27.1,4
			s23.1,10.4,23.1,23.1S39.9,50.3,27.1,50.3l0,0C14.4,50.3,4,39.9,4,27.1z M73.9,43.4h-25c7.2-9.6,7.2-22.9,0-32.5h25
			c9-0.2,16.4,6.9,16.6,15.8s-6.9,16.4-15.8,16.6C74.4,43.4,74.1,43.4,73.9,43.4z"/>
		<path class="st0" d="M38.8,15.5c-0.8-0.8-2-0.8-2.8,0c0,0,0,0,0,0l-8.9,8.8l-8.9-8.8c-0.8-0.8-2-0.8-2.8,0c-0.8,0.8-0.8,2,0,2.8
			l0,0l8.9,8.9L15.5,36c-0.8,0.8-0.8,2,0,2.8c0.8,0.8,2,0.8,2.8,0l8.9-8.8l8.9,8.8c0.8,0.8,2,0.8,2.8,0s0.8-2,0-2.8L30,27.1l8.8-8.9
			C39.6,17.5,39.6,16.2,38.8,15.5C38.8,15.5,38.8,15.5,38.8,15.5z"/>
	</g>
</g>
</svg>
