<svg xmlns="http://www.w3.org/2000/svg" width="14" height="16" viewBox="0 0 14 16">
  <defs>
    <style>
      .cls-1 {
        fill: #e54651;
        fill-rule: evenodd;
      }
    </style>
  </defs>
  <path id="Фигура_25" data-name="Фигура 25" class="cls-1" d="M906.716,880a0.439,0.439,0,0,1-.254-0.079l-8.247-5.614a0.507,0.507,0,0,1-.138-0.675l4.173-6.7a1.792,1.792,0,0,1,.535-0.554l3.169-2.113a1.7,1.7,0,0,1,1.913.01l3.347,2.279a1.89,1.89,0,0,1,.794,1.777l-0.462,3.985a1.935,1.935,0,0,1-.272.787l-4.162,6.669A0.453,0.453,0,0,1,906.716,880Zm-0.143-.594h0Zm-7.86-5.57,7.953,5.42,4.069-6.519a1.238,1.238,0,0,0,.172-0.506l0.457-3.977a1.2,1.2,0,0,0-.5-1.131h0l-3.344-2.279a1.085,1.085,0,0,0-1.215,0l-3.172,2.109a1.143,1.143,0,0,0-.34.352Zm8.966-3.818a1.534,1.534,0,1,1,1.465-1.53,1.59,1.59,0,0,1-.237.833h0A1.442,1.442,0,0,1,907.679,870.016Zm0-2.389a0.858,0.858,0,0,0,0,1.715,0.808,0.808,0,0,0,.689-0.391h0a0.878,0.878,0,0,0-.241-1.181h0a0.78,0.78,0,0,0-.438-0.142h0Z" transform="translate(-898 -864)"/>
</svg>
