<svg xmlns="http://www.w3.org/2000/svg" width="11" height="14" viewBox="0 0 11 14">
  <defs>
    <style>
      .cls-1 {
        fill: #101b51;
        stroke: #101b51;
        stroke-width: 1px;
        fill-rule: evenodd;
      }
    </style>
  </defs>
  <path class="cls-1" d="M679.268,896.99a0.27,0.27,0,0,1-.27-0.271v-5.448a0.27,0.27,0,0,1,.27-0.271h3.78a0.27,0.27,0,0,1,.191.462l-1.055,1.058,1.076,1.079a0.271,0.271,0,0,1-.186.462l-3.536.058v2.6A0.27,0.27,0,0,1,679.268,896.99Zm0.27-5.448v2.036l2.89-.048-0.817-.818a0.272,0.272,0,0,1,0-.383l0.785-.787h-2.858ZM685.055,904a0.266,0.266,0,0,1-.262-0.269v-5.417a0.267,0.267,0,0,1,.262-0.27h3.667a0.262,0.262,0,0,1,.241.166,0.274,0.274,0,0,1-.056.294l-1.024,1.051,1.044,1.073a0.276,0.276,0,0,1,.058.291,0.264,0.264,0,0,1-.24.169l-3.428.058v2.585A0.265,0.265,0,0,1,685.055,904Zm0.262-5.417v2.024l2.8-.048-0.791-.813a0.274,0.274,0,0,1,0-.381l0.761-.782h-2.772Zm-4.454-1.533a0.291,0.291,0,0,1-.076-0.011,1.625,1.625,0,0,0-.462-0.061,0.277,0.277,0,0,1,0-.553,2.173,2.173,0,0,1,.613.083,0.276,0.276,0,0,1,.185.342A0.271,0.271,0,0,1,680.863,897.05Zm1.687,6.251a0.27,0.27,0,0,1-.226-0.124,2.859,2.859,0,0,1-.4-1.185,0.271,0.271,0,1,1,.537-0.077,2.331,2.331,0,0,0,.317.957,0.278,0.278,0,0,1-.075.382A0.264,0.264,0,0,1,682.55,903.3Zm-0.409-2.21h-0.006a0.274,0.274,0,0,1-.265-0.282l0.008-.295c0-.136.008-0.261,0.008-0.367l0-.469a0.274,0.274,0,0,1,.268-0.28,0.258,0.258,0,0,1,.275.272l0,0.477c0,0.112,0,.242-0.009.385l-0.007.289A0.274,0.274,0,0,1,682.141,901.091Zm-0.068-2.278a0.272,0.272,0,0,1-.267-0.233,2.737,2.737,0,0,0-.315-0.977,0.279,0.279,0,0,1,.092-0.38,0.269,0.269,0,0,1,.372.094,3.266,3.266,0,0,1,.386,1.176,0.277,0.277,0,0,1-.224.317A0.325,0.325,0,0,1,682.073,898.813ZM683.99,904a2.5,2.5,0,0,1-.605-0.07,0.277,0.277,0,0,1-.2-0.335,0.272,0.272,0,0,1,.329-0.2,1.93,1.93,0,0,0,.474.054A0.277,0.277,0,0,1,683.99,904Z" transform="translate(-678.5 -890.5)"/>
</svg>
