<?xml version="1.0" encoding="utf-8"?>
<!-- Generator: Adobe Illustrator 23.0.1, SVG Export Plug-In . SVG Version: 6.00 Build 0)  -->
<svg version="1.1" id="Layer_1" xmlns="http://www.w3.org/2000/svg" xmlns:xlink="http://www.w3.org/1999/xlink" x="0px" y="0px"
	 viewBox="0 0 94.13 94.13" style="enable-background:new 0 0 94.13 94.13;" xml:space="preserve">
<style type="text/css">
	.st0{fill:#231F20;}
	.st1{fill:#EBEBEC;}
	.st2{fill:#FFFFFF;}
	.st3{fill:#F37A7B;}
	.st4{fill:none;}
</style>
<path class="st2" d="M89.87,11.41l-7.14-7.15c-5.7-5.68-14.91-5.68-20.61,0L8.89,57.5c-0.04,0.03-0.07,0.07-0.09,0.11
	c-0.05,0.05-0.09,0.1-0.13,0.15l-0.11,0.18c-0.03,0.05-0.06,0.1-0.08,0.16c-0.03,0.07-0.06,0.14-0.08,0.21v0.12L0.06,91.65
	c-0.26,1.07,0.39,2.16,1.46,2.42c0.16,0.04,0.32,0.06,0.48,0.06c0.16,0,0.32-0.02,0.48-0.06l33.23-8.3h0.12l0.2-0.07l0.18-0.09
	l0.16-0.1l0.17-0.15l0.1-0.07L89.87,32C95.54,26.31,95.54,17.1,89.87,11.41 M57.16,14.88L79.26,37l-44,44L13.13,58.91L57.16,14.88z
	 M11.38,62.82l19.93,19.93L4.75,89.39L11.38,62.82z M87.05,29.18l-5,5L60,12.05l5-5c4.13-4.14,10.83-4.15,14.98-0.02L80,7.05
	l7.15,7.15c4.11,4.15,4.08,10.84-0.07,14.95C87.07,29.16,87.06,29.17,87.05,29.18"/>
<rect x="-150.85" y="-2635.57" class="st4" width="3000" height="3000"/>
</svg>
