<?xml version="1.0" encoding="utf-8"?>
<!-- Generator: Adobe Illustrator 25.3.1, SVG Export Plug-In . SVG Version: 6.00 Build 0)  -->
<svg version="1.1" id="Layer_1" xmlns="http://www.w3.org/2000/svg" xmlns:xlink="http://www.w3.org/1999/xlink" x="0px" y="0px"
	 viewBox="0 0 27 19" style="enable-background:new 0 0 27 19;" xml:space="preserve">
<style type="text/css">
	.st0{fill-rule:evenodd;clip-rule:evenodd;fill:#B2B4C9;}
</style>
<path id="Фигура_14" class="st0" d="M26.1,0H0.9C0.4,0,0,0.4,0,0.9v17.3C0,18.6,0.4,19,0.9,19h25.3c0.5,0,0.9-0.4,0.9-0.8V0.9
	C27,0.4,26.6,0,26.1,0z M25.8,17.9H1.2V1.1h24.7L25.8,17.9L25.8,17.9z M13.6,14l9.8-9.5c0.2-0.2,0.2-0.6,0-0.8l0,0
	c-0.2-0.2-0.6-0.2-0.8,0l-9,8.7L4.7,3.7c-0.2-0.2-0.6-0.2-0.8,0s-0.2,0.6,0,0.8l0,0L13.6,14z M3.9,15.7c0.2,0,0.3-0.1,0.4-0.2l4-3.9
	c0.2-0.2,0.2-0.6,0-0.8l0,0c-0.2-0.2-0.6-0.2-0.8,0l-4,3.9c-0.2,0.2-0.2,0.6,0,0.8l0,0C3.6,15.6,3.8,15.7,3.9,15.7L3.9,15.7z
	 M19.4,10.6c-0.2-0.2-0.6-0.2-0.8,0c-0.2,0.2-0.2,0.6,0,0.8l0,0l4,3.9c0.2,0.2,0.6,0.2,0.8,0c0.2-0.2,0.2-0.6,0-0.8l0,0L19.4,10.6z"
	/>
</svg>
