<svg xmlns="http://www.w3.org/2000/svg" width="27" height="19" viewBox="0 0 27 19">
  <metadata><?xpacket begin="﻿" id="W5M0MpCehiHzreSzNTczkc9d"?>
<x:xmpmeta xmlns:x="adobe:ns:meta/" x:xmptk="Adobe XMP Core 5.6-c142 79.160924, 2017/07/13-01:06:39        ">
   <rdf:RDF xmlns:rdf="http://www.w3.org/1999/02/22-rdf-syntax-ns#">
      <rdf:Description rdf:about=""/>
   </rdf:RDF>
</x:xmpmeta>
                                                                                                    
                                                                                                    
                                                                                                    
                                                                                                    
                                                                                                    
                                                                                                    
                                                                                                    
                                                                                                    
                                                                                                    
                                                                                                    
                                                                                                    
                                                                                                    
                                                                                                    
                                                                                                    
                                                                                                    
                                                                                                    
                                                                                                    
                                                                                                    
                                                                                                    
                                                                                                    
                           
<?xpacket end="w"?></metadata>
<defs>
    <style>
      .cls-1 {
        fill: #101b51;
        fill-rule: evenodd;
      }
    </style>
  </defs>
  <path id="Фигура_14" data-name="Фигура 14" class="cls-1" d="M329.126,415H303.873a0.863,0.863,0,0,0-.873.85v17.3a0.863,0.863,0,0,0,.873.849h25.253a0.863,0.863,0,0,0,.873-0.849v-17.3A0.863,0.863,0,0,0,329.126,415Zm-0.291,17.867H304.164V416.133h24.671v16.734Zm-12.244-3.911,9.81-9.55a0.556,0.556,0,0,0,0-.8,0.594,0.594,0,0,0-.823,0l-8.987,8.749-8.9-8.66a0.594,0.594,0,0,0-.823,0,0.556,0.556,0,0,0,0,.8Zm-9.684,1.732a0.584,0.584,0,0,0,.411-0.166l4.012-3.906a0.555,0.555,0,0,0,0-.8,0.592,0.592,0,0,0-.822,0l-4.012,3.906a0.555,0.555,0,0,0,0,.8A0.584,0.584,0,0,0,306.907,430.688Zm15.482-5.1a0.594,0.594,0,0,0-.823,0,0.556,0.556,0,0,0,0,.8l4.012,3.905a0.593,0.593,0,0,0,.823,0,0.556,0.556,0,0,0,0-.8Z" transform="translate(-303 -415)"/>
</svg>
