<svg xmlns="http://www.w3.org/2000/svg" width="18.031" height="13" viewBox="0 0 18.031 13">
  <metadata><?xpacket begin="﻿" id="W5M0MpCehiHzreSzNTczkc9d"?>
<x:xmpmeta xmlns:x="adobe:ns:meta/" x:xmptk="Adobe XMP Core 5.6-c142 79.160924, 2017/07/13-01:06:39        ">
   <rdf:RDF xmlns:rdf="http://www.w3.org/1999/02/22-rdf-syntax-ns#">
      <rdf:Description rdf:about=""/>
   </rdf:RDF>
</x:xmpmeta>
                                                                                                    
                                                                                                    
                                                                                                    
                                                                                                    
                                                                                                    
                                                                                                    
                                                                                                    
                                                                                                    
                                                                                                    
                                                                                                    
                                                                                                    
                                                                                                    
                                                                                                    
                                                                                                    
                                                                                                    
                                                                                                    
                                                                                                    
                                                                                                    
                                                                                                    
                                                                                                    
                           
<?xpacket end="w"?></metadata>
<defs>
    <style>
      .cls-1 {
        fill: #101b51;
        fill-rule: evenodd;
      }
    </style>
  </defs>
  <path id="Фигура_12" data-name="Фигура 12" class="cls-1" d="M325.266,472.593C323.723,470.877,320.6,468,317,468s-6.724,2.878-8.266,4.594a2.846,2.846,0,0,0,0,3.814C310.276,478.123,313.4,481,317,481s6.723-2.877,8.266-4.593A2.848,2.848,0,0,0,325.266,472.593ZM324.7,475.9c-1.457,1.621-4.4,4.34-7.7,4.34s-6.24-2.719-7.7-4.34a2.086,2.086,0,0,1,0-2.8c1.457-1.621,4.395-4.34,7.7-4.34s6.239,2.719,7.7,4.34A2.086,2.086,0,0,1,324.7,475.9Zm-7.7-3.921a2.523,2.523,0,1,0,2.53,2.523A2.526,2.526,0,0,0,317,471.977Z" transform="translate(-308 -468)"/>
</svg>
