<?xml version="1.0" encoding="utf-8"?>
<!-- Generator: Adobe Illustrator 23.0.1, SVG Export Plug-In . SVG Version: 6.00 Build 0)  -->
<svg version="1.1" id="Layer_1" xmlns="http://www.w3.org/2000/svg" xmlns:xlink="http://www.w3.org/1999/xlink" x="0px" y="0px"
	 viewBox="0 0 95.13 104.68" style="enable-background:new 0 0 95.13 104.68;" xml:space="preserve">
<style type="text/css">
	.st0{fill:#231F20;}
	.st1{fill:#EBEBEC;}
	.st2{fill:#FFFFFF;}
	.st3{fill:none;stroke:#000000;stroke-width:4;stroke-linecap:round;stroke-miterlimit:10;}
	.st4{fill:#F37A7B;}
	.st5{fill:none;stroke:#000000;stroke-width:5;stroke-linecap:round;stroke-miterlimit:10;}
	.st6{fill:none;}
</style>
<g>
	<path d="M92.12,10.54h-6l6.92-6.93c0.89-0.66,1.08-1.91,0.42-2.8s-1.91-1.08-2.8-0.42c-0.15,0.11-0.29,0.25-0.4,0.4L79.93,11.12
		L36.1,54.96v-7.57c0-0.52-0.2-1.02-0.56-1.39L5.35,14.54h60.22c1.1,0,2-0.9,2-2c0-1.1-0.9-2-2-2H3c-1.66,0-3,1.35-3,3
		c0,0.78,0.3,1.52,0.84,2.08L32.1,48.2v10.76L2,89.02c-0.78,0.78-0.78,2.05,0,2.83c0.78,0.78,2.05,0.78,2.83,0L35.51,61.2
		l46.66-46.66h7.61L59.58,46C59.21,46.37,59,46.87,59,47.39v52.3L36.1,82.62V73.3c0-1.1-0.9-2-2-2c-1.1,0-2,0.9-2,2v9.83
		c0,0.94,0.44,1.83,1.2,2.4l24.93,18.55c0.52,0.39,1.15,0.6,1.79,0.6c0.47,0,0.93-0.11,1.35-0.32c1-0.51,1.63-1.55,1.63-2.68V48.2
		l31.29-32.58c1.15-1.19,1.11-3.09-0.08-4.24C93.65,10.84,92.9,10.54,92.12,10.54"/>
</g>
<rect x="-2135.63" y="-1994.51" class="st6" width="3000" height="3000"/>
</svg>
