<?xml version="1.0" encoding="utf-8"?>
<svg version="1.1" id="Layer_1" x="0px" y="0px" viewBox="0 0 94.13 94.13" style="enable-background:new 0 0 94.13 94.13;" xmlns="http://www.w3.org/2000/svg">
  <style type="text/css">
	.st0{fill:#101B51;}
</style>
  <g>
    <g id="Layer_1-2">
      <path class="st0" d="M88.31,69.71c7.88-14.3,7.76-31.67-0.31-45.87c-0.08-0.19-0.18-0.36-0.31-0.52c-1.79-3.07-3.93-5.92-6.37-8.5 c-0.12-0.18-0.28-0.34-0.45-0.47c-4.15-4.29-9.08-7.75-14.53-10.2c-0.15-0.1-0.32-0.18-0.49-0.23C49.56-3.19,30.66-0.5,17,10.86 c-0.17,0.1-0.32,0.23-0.44,0.38C6.4,19.87,0.38,32.4,0,45.72c0,0.12,0,0.24,0,0.37c0,0.32,0,0.65,0,1 C0.04,73.06,21.09,94.1,47.06,94.13h0.74h0.12h0.15c16.6-0.38,31.77-9.48,39.93-23.94l0,0C88.13,70.05,88.23,69.89,88.31,69.71z M85.84,65.78c-1-0.95-1.7-2.17-2-3.52C83.74,61.5,83.79,60.73,84,60c0.39-1.38,0.3-2.86-0.27-4.18c-0.7-1.44-1.83-2.62-3.24-3.39 c-0.95-0.61-1.27-0.85-1.4-1.36c-0.08-0.41-0.04-0.84,0.1-1.24c0.41-1.12,0.21-2.37-0.52-3.31c-1.69-2-4.72-1.15-7.15-0.46 c-1.67,0.45-3.28,1.1-4.8,1.94c-0.73,0.47-1.54,0.77-2.4,0.89c-0.13,0-3.28,0.37-5-1.3c-2.05-2-1-6.45-0.3-9.67 c0.62-2.69,1.25-5.47,3.69-7.84c2-1.92,5.08-3.91,7.38-3.25c0.8,0.3,1.53,0.77,2.14,1.37c1,0.9,2.45,2.12,4.55,1.73 c1.05-0.22,1.99-0.79,2.66-1.62c0.3-0.34,0.64-0.64,1-0.91c1.33-0.79,2.89-1.11,4.42-0.92c6.65,12.17,7.02,26.8,1,39.29 L85.84,65.78z M62.25,11C62,10,62,9.77,62.13,9.47c0.3-0.64,1.33-1.19,2.87-1.54c4.1,1.89,7.88,4.4,11.2,7.46 c-3.86,1.78-7.98,2.95-12.2,3.47C62.98,19,61.95,19.04,60.92,19c0.73-1.06,1.25-2.25,1.52-3.51C62.73,14,62.67,12.46,62.25,11z M19.08,14.37c2-0.41,3.9-0.89,5.82-1.45c2.6-0.76,4.69-1.52,6.37-2.13c3.53-1.28,5-1.78,6.58-1.15c1.37,0.54,2.32,1.62,2.31,2 s-1.08,1-1.51,1.35c-1.23,0.88-2.91,2.09-2.73,4.13c0.2,2.25,2.41,3.11,4,3.75c0.51,0.18,1,0.4,1.48,0.64 c-0.36,0.31-0.93,0.7-1.42,1c-2.04,1.35-3.89,2.97-5.49,4.81c-1.85,2.27-3.24,4.88-4.09,7.68c-0.85,2.39-1.29,3.48-2.88,4.27 c-0.44,0.22-0.92,0.35-1.41,0.38c-1.43,0.17-2.83,0.53-4.17,1.07c-3.28,1.22-7.36,2.73-7.9,6.14c-0.46,2.94,2,5.18,3.36,6.38 c0.93,0.84,1.97,1.55,3.1,2.1c-4.81-1.1-7.64-1.81-9-2.49c-3.17-1.68-5.78-4.25-7.5-7.4C4.46,33.44,9.93,22.17,19.08,14.37z M61.37,65.08c0.05,0.96,0.19,1.92,0.42,2.86c0.11,0.32,0.15,0.66,0.1,1c-0.16,0.99-0.64,1.89-1.38,2.57 c-0.79,0.93-1.5,1.94-2.1,3c-0.79,1.38-1.31,2.91-1.52,4.49c-0.22,1.2-0.51,2.38-0.89,3.54c-0.8,2.52-1.88,4.93-3.23,7.2 c-1.09,0.14-2.19,0.25-3.3,0.32c-0.49-2.16-0.89-3.87-1.15-5C46.51,77.17,46,74.79,43.49,73c-0.91-0.66-1.97-1.06-3.09-1.16 c-0.75-0.06-1.47-0.33-2.08-0.76c-1.72-1.17-3.05-2.84-3.79-4.78c-0.3-0.79-0.43-1.63-0.4-2.47c0.06-1.14-0.2-2.27-0.76-3.26 c-1.15-2-3-2.87-5.71-3.6c0.55,0,1,0,1.39,0c1.5-0.06,2.96-0.45,4.29-1.14c0.94-0.49,1.95-0.8,3-0.92c4.86-0.69,9.21,1,11.55,1.92 c1.01,0.38,1.99,0.86,2.91,1.43c1,0.65,2.11,1.11,3.28,1.37c2.02,0.46,4.11,0.62,6.18,0.47c0.5,0,1.15,0,1.53,0 c0,0.12-0.05,0.26-0.07,0.38C61.39,61.99,61.28,63.54,61.37,65.08z M4.37,52.46c1.54,1.63,3.35,2.98,5.35,4 c2.1,1,5.57,1.82,13.17,3.55l0.78,0.17c4,0.9,5.6,1.31,6.25,2.43c0.21,0.39,0.29,0.84,0.23,1.28c-0.04,1.31,0.18,2.62,0.64,3.85 c1.04,2.76,2.93,5.12,5.38,6.76c1.11,0.75,2.38,1.22,3.71,1.36c0.47,0.02,0.92,0.18,1.3,0.46c1.15,0.81,1.58,2.33,3.31,9.76 l0.93,4C24.38,89.24,7.02,73.34,4.35,52.46L4.37,52.46z M57.87,88.76c0.79-1.62,1.45-3.29,2-5c0.42-1.33,0.75-2.69,1-4.07 c0.13-1.12,0.49-2.2,1.06-3.18c0.49-0.85,1.07-1.65,1.71-2.39c1.23-1.27,2.02-2.89,2.27-4.64C66,68.65,65.93,67.8,65.68,67 c-0.18-0.7-0.28-1.41-0.31-2.13c-0.08-1.22,0.01-2.44,0.26-3.63c0.39-1.19,0.22-2.48-0.46-3.53C63.91,55.94,62,56,60.08,56.1 c-1.7,0.13-3.42,0.01-5.08-0.37c-0.77-0.16-1.5-0.46-2.15-0.9c-1.12-0.69-2.31-1.27-3.54-1.73c-2.48-1-7.66-3-13.57-2.16 c-1.45,0.18-2.86,0.61-4.16,1.28c-0.86,0.47-1.83,0.72-2.81,0.74c-1.25,0.09-5.56,0.13-8.72-2.71c-0.6-0.55-2.2-2-2.07-2.79 c0.17-1.09,3.53-2.34,5.34-3c1.05-0.43,2.16-0.71,3.29-0.85c0.93-0.09,1.84-0.35,2.67-0.77c3.1-1.54,4-4.06,4.87-6.5 c0.71-2.33,1.87-4.5,3.41-6.39c1.39-1.58,2.98-2.96,4.74-4.11c1.87-1.32,3.8-2.69,3.32-5c-0.44-2.16-2.54-3-4.23-3.65 c-0.3-0.12-0.72-0.28-1.06-0.44l0.63-0.47c1.32-0.94,3.12-2.24,3.18-4.5c0.06-2.64-2.46-4.86-4.83-5.81 c-0.98-0.39-2.02-0.58-3.07-0.55C44.03,3.4,52.23,3.6,59.92,6c-0.6,0.49-1.08,1.1-1.42,1.79c-0.55,1.31-0.6,2.77-0.14,4.11 c0.28,0.9,0.34,1.85,0.17,2.77c-0.21,0.88-0.6,1.71-1.15,2.44c-0.92,1-1.21,2.43-0.75,3.71c0.77,1.72,2.75,2.2,5,2.2 c0.94-0.01,1.88-0.07,2.82-0.19c5.13-0.62,10.11-2.12,14.74-4.42c1.17,1.32,2.26,2.7,3.27,4.15c-2.27,0.24-4.37,1.3-5.9,3 c-0.14,0.17-0.3,0.31-0.47,0.44c-0.19,0-0.63-0.32-1.22-0.83c-1.04-0.99-2.29-1.73-3.65-2.17c-5-1.44-9.88,2.86-11.28,4.22 c-3.28,3.19-4.12,6.86-4.8,9.81c-0.89,3.91-2.25,9.81,1.39,13.41c2.94,2.9,7.4,2.54,8.27,2.43c1.35-0.17,2.64-0.63,3.8-1.33 c1.26-0.7,2.61-1.24,4-1.61c0.86-0.26,1.73-0.46,2.61-0.61c-0.22,0.9-0.22,1.83,0,2.73c0.47,1.63,1.6,3,3.12,3.77 c0.9,0.58,1.43,0.94,1.74,1.65c0.22,0.56,0.22,1.18,0,1.74c-0.3,1.22-0.35,2.49-0.15,3.73c0.55,2.56,1.96,4.84,4,6.48 c-5.85,9.59-15.2,16.53-26.07,19.34H57.87z" style="fill: rgb(255, 255, 255);"/>
    </g>
  </g>
</svg>