<?xml version="1.0" encoding="utf-8"?>
<!-- Generator: Adobe Illustrator 23.0.1, SVG Export Plug-In . SVG Version: 6.00 Build 0)  -->
<svg version="1.1" id="Layer_1" xmlns="http://www.w3.org/2000/svg" xmlns:xlink="http://www.w3.org/1999/xlink" x="0px" y="0px"
	 viewBox="0 0 94.14 94.14" style="enable-background:new 0 0 94.14 94.14;" xml:space="preserve">
<style type="text/css">
	.st0{fill:#FFFFFF;}
</style>
<g>
	<g id="Layer_1-2">
		<path class="st0" d="M91.49,62.62c3.49-9.94,3.53-20.77,0.12-30.74c-0.03-0.16-0.09-0.32-0.16-0.47
			C82.8,6.9,55.93-5.96,31.42,2.68C17.99,7.42,7.43,17.98,2.69,31.41c-0.07,0.15-0.13,0.31-0.16,0.48
			c-3.41,9.96-3.37,20.78,0.12,30.71c0.03,0.15,0.08,0.29,0.14,0.43c8.82,24.46,35.79,37.13,60.24,28.32
			c13.18-4.75,23.56-15.13,28.32-28.32C91.41,62.9,91.46,62.76,91.49,62.62z M47.07,90.14C38.52,90.14,31,79.3,27.63,64.2h38.88
			C63.18,79.3,55.62,90.14,47.07,90.14z M26.86,60.2c-0.68-4.3-1.01-8.65-1-13c-0.02-4.33,0.32-8.65,1-12.92H67.3
			c0.68,4.27,1.01,8.59,1,12.92c0.01,4.35-0.32,8.7-1,13L26.86,60.2z M4,47.07c0.01-4.35,0.69-8.67,2-12.81h16.76
			c-0.63,4.28-0.95,8.6-0.94,12.92c0,4.35,0.32,8.7,0.95,13H6.05C4.69,55.94,4,51.52,4,47.07z M47.07,4.21
			c8.57,0,16.14,10.89,19.46,26.05H27.61C30.93,15.1,38.5,4.21,47.07,4.21z M71.38,34.26H88.2c2.62,8.45,2.59,17.51-0.11,25.94
			H71.37c0.63-4.3,0.95-8.65,0.95-13C72.33,42.87,72.01,38.54,71.38,34.26z M86.72,30.26h-16C68.54,19.65,64.43,11,59.12,5.73
			C71.52,9.37,81.65,18.37,86.72,30.26z M35,5.73C29.71,11,25.6,19.65,23.45,30.26h-16C12.51,18.38,22.62,9.39,35,5.73z M7.56,64.2
			h15.92c2.1,10.37,6.1,18.87,11.25,24.13C22.57,84.66,12.64,75.84,7.56,64.2z M59.41,88.33c5.15-5.26,9.15-13.76,11.25-24.13h15.92
			C81.5,75.84,71.57,84.66,59.41,88.33z"/>
	</g>
</g>
</svg>
