<svg xmlns="http://www.w3.org/2000/svg" viewBox="0 0 94.14 94.14"><g id="Layer_2" data-name="Layer 2"><g id="Layer_1-2" data-name="Layer 1"><path d="M91.49,62.62a46.91,46.91,0,0,0,.12-30.74,1.86,1.86,0,0,0-.16-.47,47.06,47.06,0,0,0-88.76,0,1.94,1.94,0,0,0-.16.48A46.85,46.85,0,0,0,2.65,62.6a2,2,0,0,0,.14.43,47.07,47.07,0,0,0,88.56,0A1.8,1.8,0,0,0,91.49,62.62ZM47.07,90.14C38.52,90.14,31,79.3,27.63,64.2H66.51C63.18,79.3,55.62,90.14,47.07,90.14ZM26.86,60.2a81.56,81.56,0,0,1-1-13,80.32,80.32,0,0,1,1-12.92H67.3a81.5,81.5,0,0,1,1,12.92,81.56,81.56,0,0,1-1,13ZM4,47.07A42.73,42.73,0,0,1,6,34.26H22.76a87.74,87.74,0,0,0-.94,12.92,89,89,0,0,0,.95,13H6.05A42.85,42.85,0,0,1,4,47.07ZM47.07,4.21c8.57,0,16.14,10.89,19.46,26.05H27.61C30.93,15.1,38.5,4.21,47.07,4.21ZM71.38,34.26H88.2a43.17,43.17,0,0,1-.11,25.94H71.37a89,89,0,0,0,.95-13A87.74,87.74,0,0,0,71.38,34.26Zm15.34-4h-16C68.54,19.65,64.43,11,59.12,5.73A43.26,43.26,0,0,1,86.72,30.26ZM35,5.73C29.71,11,25.6,19.65,23.45,30.26h-16A43.26,43.26,0,0,1,35,5.73ZM7.56,64.2H23.48c2.1,10.37,6.1,18.87,11.25,24.13A43.29,43.29,0,0,1,7.56,64.2ZM59.41,88.33c5.15-5.26,9.15-13.76,11.25-24.13H86.58A43.29,43.29,0,0,1,59.41,88.33Z"/></g></g></svg>