<?xml version="1.0" encoding="utf-8"?>
<!-- Generator: Adobe Illustrator 23.0.1, SVG Export Plug-In . SVG Version: 6.00 Build 0)  -->
<svg version="1.1" id="Layer_1" xmlns="http://www.w3.org/2000/svg" xmlns:xlink="http://www.w3.org/1999/xlink" x="0px" y="0px"
	 viewBox="0 0 102.13 67.47" style="enable-background:new 0 0 102.13 67.47;" xml:space="preserve">
<style type="text/css">
	.st0{fill:#231F20;}
	.st1{fill:#EBEBEC;}
	.st2{fill:#FFFFFF;}
	.st3{fill:none;stroke:#000000;stroke-width:4;stroke-linecap:round;stroke-miterlimit:10;}
	.st4{fill:#F37A7B;}
	.st5{fill:none;stroke:#000000;stroke-width:5;stroke-linecap:round;stroke-miterlimit:10;}
	.st6{fill:none;}
</style>
<g>
	<path class="st2" d="M96.13,12H6c-3.31,0-6-2.69-6-6c0-3.31,2.69-6,6-6h90.13c3.31,0,6,2.69,6,6C102.13,9.31,99.44,12,96.13,12"/>
	<path class="st2" d="M96.13,39.73H6c-3.31,0-6-2.69-6-6c0-3.31,2.69-6,6-6h90.13c3.31,0,6,2.69,6,6
		C102.13,37.04,99.44,39.73,96.13,39.73"/>
	<path class="st2" d="M60,67.47H6c-3.31,0-6-2.69-6-6c0-3.31,2.69-6,6-6h54c3.31,0,6,2.69,6,6C66,64.78,63.31,67.47,60,67.47"/>
</g>
<rect x="-2421.3" y="-813.91" class="st6" width="3000" height="3000"/>
</svg>
