<?xml version="1.0" encoding="utf-8"?>
<!-- Generator: Adobe Illustrator 23.0.1, SVG Export Plug-In . SVG Version: 6.00 Build 0)  -->
<svg version="1.1" id="Layer_1" xmlns="http://www.w3.org/2000/svg" xmlns:xlink="http://www.w3.org/1999/xlink" x="0px" y="0px"
	 viewBox="0 0 98.13 63.47" style="enable-background:new 0 0 98.13 63.47;" xml:space="preserve">
<style type="text/css">
	.st0{fill:#231F20;}
	.st1{fill:#EBEBEC;}
	.st2{fill:#FFFFFF;}
	.st3{fill:none;stroke:#000000;stroke-width:4;stroke-linecap:round;stroke-miterlimit:10;}
	.st4{fill:#F37A7B;}
	.st5{fill:none;stroke:#000000;stroke-width:5;stroke-linecap:round;stroke-miterlimit:10;}
	.st6{fill:none;}
</style>
<g>
	<path class="st2" d="M94.13,8H4C1.79,8,0,6.21,0,4c0-2.21,1.79-4,4-4h90.13c2.21,0,4,1.79,4,4C98.13,6.21,96.34,8,94.13,8"/>
	<path class="st2" d="M94.13,35.73H4c-2.21,0-4-1.79-4-4c0-2.21,1.79-4,4-4h90.13c2.21,0,4,1.79,4,4
		C98.13,33.94,96.34,35.73,94.13,35.73"/>
	<path class="st2" d="M58,63.47H4c-2.21,0-4-1.79-4-4c0-2.21,1.79-4,4-4h54c2.21,0,4,1.79,4,4C62,61.68,60.21,63.47,58,63.47"/>
</g>
<rect x="-2423.3" y="-1215.91" class="st6" width="3000" height="3000"/>
</svg>
