<?xml version="1.0" encoding="utf-8"?>
<!-- Generator: Adobe Illustrator 25.2.1, SVG Export Plug-In . SVG Version: 6.00 Build 0)  -->
<svg version="1.1" id="Layer_1" xmlns="http://www.w3.org/2000/svg" xmlns:xlink="http://www.w3.org/1999/xlink" x="0px" y="0px"
	 viewBox="0 0 66.6 80.6" style="enable-background:new 0 0 66.6 80.6;" xml:space="preserve">
<style type="text/css">
	.st0{fill:#FFFFFF;}
</style>
<g id="Layer_2_1_">
	<g id="Layer_1-2">
		<path class="st0" d="M63.6,74.6h-6.2V57.3c0-0.9-0.4-1.8-1.1-2.4L37.1,39.8l19.2-15.1c0.7-0.6,1.1-1.5,1.1-2.4V6h6.2
			c1.7,0,3-1.3,3-3s-1.3-3-3-3H3C1.3,0,0,1.3,0,3s1.3,3,3,3h6.2v16.3c0,0.9,0.4,1.8,1.1,2.4l19.1,15.1L10.3,54.9
			c-0.7,0.6-1.1,1.5-1.1,2.4v17.3H3c-1.7,0-3,1.3-3,3s1.3,3,3,3h60.6c1.7,0,3-1.3,3-3S65.3,74.6,63.6,74.6L63.6,74.6z M15.2,6h36.2
			v14.8L33.3,35.2L15.2,20.8V6z M15.2,58.8l18.1-14.4l18.1,14.3v15.8H15.2V58.8z"/>
	</g>
</g>
</svg>
