<?xml version="1.0" encoding="utf-8"?>
<!-- Generator: Adobe Illustrator 25.3.1, SVG Export Plug-In . SVG Version: 6.00 Build 0)  -->
<svg version="1.1" id="Layer_1" xmlns="http://www.w3.org/2000/svg" xmlns:xlink="http://www.w3.org/1999/xlink" x="0px" y="0px"
	 viewBox="0 0 59 94.1" style="enable-background:new 0 0 59 94.1;" xml:space="preserve">
<style type="text/css">
	.st0{fill:#B2B4C9;}
</style>
<g id="Layer_2_1_">
	<g>
		<g id="Layer_1-2_8_">
			<path class="st0" d="M55,0H4C1.8,0,0,1.8,0,4v90.1h59V4C59,1.8,57.2,0,55,0z M55,90.1H4V4h51V90.1z M48.2,31.4V11H10.8v20.4H48.2
				z M44.2,27.4H31.5V15h12.7V27.4z M14.8,15h12.7v12.4H14.8V15z M48.2,55.7V35.3H10.8v20.4L48.2,55.7z M44.2,51.7H31.5V39.3h12.7
				V51.7z M14.8,39.3h12.7v12.4H14.8V39.3z M48.2,80V59.6H10.8V80H48.2z M44.2,76H31.5V63.6h12.7V76z M14.8,63.6h12.7V76H14.8V63.6z
				"/>
		</g>
	</g>
</g>
</svg>
