<?xml version="1.0" encoding="utf-8"?>
<!-- Generator: Adobe Illustrator 23.0.1, SVG Export Plug-In . SVG Version: 6.00 Build 0)  -->
<svg version="1.1" id="Layer_1" xmlns="http://www.w3.org/2000/svg" xmlns:xlink="http://www.w3.org/1999/xlink" x="0px" y="0px"
	 viewBox="0 0 89.8 89.8" style="enable-background:new 0 0 89.8 89.8;" xml:space="preserve">
<style type="text/css">
	.st0{clip-path:url(#SVGID_2_);}
	.st1{clip-path:url(#SVGID_2_);fill:#231F20;}
	.st2{clip-path:url(#SVGID_2_);fill:#EBEBEC;}
	.st3{clip-path:url(#SVGID_2_);fill:#FFFFFF;}
	.st4{clip-path:url(#SVGID_2_);fill:#F37A7B;}
	.st5{clip-path:url(#SVGID_2_);fill:none;stroke:#000000;stroke-width:5;stroke-linecap:round;stroke-miterlimit:10;}
	.st6{clip-path:url(#SVGID_2_);fill:#0F1D5B;}
	.st7{clip-path:url(#SVGID_2_);fill:#FFA35F;}
	.st8{fill:none;stroke:#231F20;stroke-width:3;stroke-miterlimit:10;}
	.st9{fill:#FFA35F;}
	.st10{fill:#0F1D5B;}
	.st11{fill:#FFFFFF;}
	.st12{fill:#0F1D5B;}
	.st13{fill:none;}
</style>
<g>
	<defs>
		<rect id="SVGID_1_" x="-410.72" y="-3023.23" width="3792.92" height="5746.56"/>
	</defs>
	<clipPath id="SVGID_2_">
		<use xlink:href="#SVGID_1_"  style="overflow:visible;"/>
	</clipPath>
</g>
<path class="st12" d="M44.9,0C20.1,0,0,20.1,0,44.9c0,24.8,20.1,44.9,44.9,44.9c24.8,0,44.9-20.1,44.9-44.9C89.8,20.1,69.7,0,44.9,0
	 M71.9,58.4c0,7.5-6.1,13.6-13.6,13.6H31.5c-7.5,0-13.6-6.1-13.6-13.6V31.6C17.9,24.1,24,18,31.5,18h26.8c7.5,0,13.6,6.1,13.6,13.6
	V58.4z"/>
<path class="st12" d="M58.3,23.9H31.5c-4.3,0-7.7,3.5-7.7,7.8v26.8c0,4.3,3.5,7.8,7.7,7.8h26.8c4.3,0,7.7-3.5,7.7-7.8V31.6
	C66,27.4,62.5,23.9,58.3,23.9 M44.9,58.9C37.2,58.9,31,52.7,31,45c0-7.7,6.2-13.9,13.9-13.9c7.7,0,13.9,6.2,13.9,13.9
	C58.8,52.7,52.5,58.9,44.9,58.9 M59.2,34c-1.8,0-3.3-1.5-3.3-3.3c0-1.8,1.5-3.3,3.3-3.3c1.8,0,3.3,1.5,3.3,3.3
	C62.5,32.5,61,34,59.2,34"/>
<path class="st12" d="M52.9,45c0,4.4-3.6,8-8,8c-4.4,0-8-3.6-8-8c0-4.4,3.6-8,8-8C49.3,37,52.9,40.6,52.9,45"/>
<rect x="-410.72" y="-3023.23" class="st13" width="3792.92" height="5746.56"/>
</svg>
