<?xml version="1.0" encoding="utf-8"?>
<!-- Generator: Adobe Illustrator 23.0.1, SVG Export Plug-In . SVG Version: 6.00 Build 0)  -->
<svg version="1.1" id="Layer_1" xmlns="http://www.w3.org/2000/svg" xmlns:xlink="http://www.w3.org/1999/xlink" x="0px" y="0px"
	 viewBox="0 0 112.2 112.2" style="enable-background:new 0 0 112.2 112.2;" xml:space="preserve">
<style type="text/css">
	.st0{clip-path:url(#SVGID_2_);}
	.st1{clip-path:url(#SVGID_2_);fill:#231F20;}
	.st2{clip-path:url(#SVGID_2_);fill:#EBEBEC;}
	.st3{clip-path:url(#SVGID_2_);fill:#FFFFFF;}
	.st4{clip-path:url(#SVGID_2_);fill:#F37A7B;}
	.st5{clip-path:url(#SVGID_2_);fill:none;stroke:#000000;stroke-width:5;stroke-linecap:round;stroke-miterlimit:10;}
	.st6{clip-path:url(#SVGID_2_);fill:#0F1D5B;}
	.st7{clip-path:url(#SVGID_2_);fill:#FFA35F;}
	.st8{fill:none;stroke:#231F20;stroke-width:3;stroke-miterlimit:10;}
	.st9{fill:#FFA35F;}
	.st10{fill:#0F1D5B;}
	.st11{fill:#FFFFFF;}
	.st12{fill:#101B51;}
	.st13{fill:none;}
</style>
<g>
	<defs>
		<rect id="SVGID_1_" x="-699.52" y="-3012.03" width="3792.92" height="5746.56"/>
	</defs>
	<clipPath id="SVGID_2_">
		<use xlink:href="#SVGID_1_"  style="overflow:visible;"/>
	</clipPath>
</g>
<path class="st12" d="M62,49.3L62,49.3l0.1-0.1C62.1,49.2,62,49.2,62,49.3 M62,49.3L62,49.3l0.1-0.1C62.1,49.2,62,49.2,62,49.3
	 M62,49.3L62,49.3l0.1-0.1C62.1,49.2,62,49.2,62,49.3"/>
<path class="st12" d="M56.1,0C25.1,0,0,25.1,0,56.1s25.1,56.1,56.1,56.1s56.1-25.1,56.1-56.1S87.1,0,56.1,0 M41.3,83.7H27.9V43.4
	h13.4V83.7z M34.6,37.9L34.6,37.9c-4.6,0-7.5-3.1-7.5-7c0-4,3-7,7.6-7s7.4,3,7.5,7C42.2,34.8,39.2,37.9,34.6,37.9 M89.6,83.7H76.2
	V62.2c0-5.4-1.9-9.1-6.8-9.1c-3.7,0-5.9,2.5-6.9,4.9c-0.3,0.9-0.4,2.1-0.4,3.3v22.5H48.7c0,0,0.2-36.5,0-40.3h13.4v5.7
	c1.8-2.7,5-6.7,12.1-6.7c8.8,0,15.4,5.8,15.4,18.2V83.7z"/>
<rect x="-699.52" y="-3012.03" class="st13" width="3792.92" height="5746.56"/>
</svg>
