<svg xmlns="http://www.w3.org/2000/svg" width="16" height="22" viewBox="0 0 16 22">
  <metadata><?xpacket begin="﻿" id="W5M0MpCehiHzreSzNTczkc9d"?>
<x:xmpmeta xmlns:x="adobe:ns:meta/" x:xmptk="Adobe XMP Core 5.6-c142 79.160924, 2017/07/13-01:06:39        ">
   <rdf:RDF xmlns:rdf="http://www.w3.org/1999/02/22-rdf-syntax-ns#">
      <rdf:Description rdf:about=""/>
   </rdf:RDF>
</x:xmpmeta>
                                                                                                    
                                                                                                    
                                                                                                    
                                                                                                    
                                                                                                    
                                                                                                    
                                                                                                    
                                                                                                    
                                                                                                    
                                                                                                    
                                                                                                    
                                                                                                    
                                                                                                    
                                                                                                    
                                                                                                    
                                                                                                    
                                                                                                    
                                                                                                    
                                                                                                    
                                                                                                    
                           
<?xpacket end="w"?></metadata>
<defs>
    <style>
      .cls-1 {
        fill: #101b51;
        fill-rule: evenodd;
      }
    </style>
  </defs>
  <path id="Фигура_15" data-name="Фигура 15" class="cls-1" d="M962.6,628.743h-0.9v-4.1a5.622,5.622,0,1,0-11.244,0v4.1H949.4a1.4,1.4,0,0,0-1.4,1.4V639.6a1.4,1.4,0,0,0,1.4,1.4H962.6a1.4,1.4,0,0,0,1.4-1.4v-9.451A1.4,1.4,0,0,0,962.6,628.743Zm-11.217-4.1a4.691,4.691,0,1,1,9.382,0v4.1h-9.382v-4.1Zm11.682,14.95a0.467,0.467,0,0,1-.465.468H949.4a0.468,0.468,0,0,1-.466-0.468v-9.451a0.468,0.468,0,0,1,.466-0.468H962.6a0.467,0.467,0,0,1,.465.468V639.6Z" transform="translate(-948 -619)"/>
</svg>
