<svg xmlns="http://www.w3.org/2000/svg" width="16" height="22" viewBox="0 0 16 22">
  <metadata><?xpacket begin="﻿" id="W5M0MpCehiHzreSzNTczkc9d"?>
<x:xmpmeta xmlns:x="adobe:ns:meta/" x:xmptk="Adobe XMP Core 5.6-c142 79.160924, 2017/07/13-01:06:39        ">
   <rdf:RDF xmlns:rdf="http://www.w3.org/1999/02/22-rdf-syntax-ns#">
      <rdf:Description rdf:about=""/>
   </rdf:RDF>
</x:xmpmeta>
                                                                                                    
                                                                                                    
                                                                                                    
                                                                                                    
                                                                                                    
                                                                                                    
                                                                                                    
                                                                                                    
                                                                                                    
                                                                                                    
                                                                                                    
                                                                                                    
                                                                                                    
                                                                                                    
                                                                                                    
                                                                                                    
                                                                                                    
                                                                                                    
                                                                                                    
                                                                                                    
                           
<?xpacket end="w"?></metadata>
<defs>
    <style>
      .cls-1 {
        fill: #101b51;
        fill-rule: evenodd;
      }
    </style>
  </defs>
  <path id="Фигура_9" data-name="Фигура 9" class="cls-1" d="M1190,517a7.927,7.927,0,0,0-8,7.832c0,3.719,5.68,11.563,7.42,13.878a0.717,0.717,0,0,0,.58.287,0.731,0.731,0,0,0,.58-0.287c1.74-2.315,7.42-10.159,7.42-13.878A7.927,7.927,0,0,0,1190,517Zm0,20.893c-3.29-4.415-7.04-10.383-7.04-13.061a7.042,7.042,0,0,1,14.08,0C1197.04,527.511,1193.29,533.479,1190,537.894Zm0-16.724a3.664,3.664,0,1,0,3.74,3.663A3.708,3.708,0,0,0,1190,521.17Zm0,6.386a2.723,2.723,0,1,1,2.78-2.723A2.757,2.757,0,0,1,1190,527.556Z" transform="translate(-1182 -517)"/>
</svg>
