<?xml version="1.0" encoding="utf-8"?>
<!-- Generator: Adobe Illustrator 25.4.1, SVG Export Plug-In . SVG Version: 6.00 Build 0)  -->
<svg version="1.1" id="Layer_1" xmlns="http://www.w3.org/2000/svg" xmlns:xlink="http://www.w3.org/1999/xlink" x="0px" y="0px"
	 viewBox="0 0 94.1 89.5" style="enable-background:new 0 0 94.1 89.5;" xml:space="preserve">
<style type="text/css">
	.st0{fill:#B2B4C9;}
	.st1{fill:none;}
</style>
<g>
	<path class="st0" d="M18.7,19.2h56.7c1.1,0,2-0.9,2-2s-0.9-2-2-2H18.7c-1.1,0-2,0.9-2,2C16.7,18.4,17.6,19.2,18.7,19.2"/>
	<path class="st0" d="M18.7,34.3h56.7c1.1,0,2-0.9,2-2c0-1.1-0.9-2-2-2H18.7c-1.1,0-2,0.9-2,2C16.7,33.4,17.6,34.3,18.7,34.3"/>
	<path class="st0" d="M18.7,49.4h27.8c1.1,0,2-0.9,2-2s-0.9-2-2-2H18.7c-1.1,0-2,0.9-2,2S17.6,49.4,18.7,49.4"/>
	<path class="st0" d="M0,0v89.5l23-20.7h71.2V0H0z M90.1,64.7H21.4L4,80.5V4h86.1V64.7z"/>
</g>
<rect x="-292.9" y="-2428.6" class="st1" width="3000" height="3000"/>
</svg>
