<?xml version="1.0" encoding="utf-8"?>
<!-- Generator: Adobe Illustrator 23.0.1, SVG Export Plug-In . SVG Version: 6.00 Build 0)  -->
<svg version="1.1" id="Layer_1" xmlns="http://www.w3.org/2000/svg" xmlns:xlink="http://www.w3.org/1999/xlink" x="0px" y="0px"
	 viewBox="0 0 94.14 89.46" style="enable-background:new 0 0 94.14 89.46;" xml:space="preserve">
<style type="text/css">
	.st0{fill:#231F20;}
	.st1{fill:#101B51;}
	.st2{fill:#EBEBEC;}
	.st3{fill:#FFFFFF;}
	.st4{fill:#F37A7B;}
	.st5{fill:none;}
</style>
<g>
	<path class="st1" d="M18.72,19.24h56.7c1.11,0,2-0.9,2-2c0-1.1-0.89-2-2-2h-56.7c-1.1,0-2,0.9-2,2
		C16.72,18.35,17.62,19.24,18.72,19.24"/>
	<path class="st1" d="M18.72,34.31h56.7c1.11,0,2-0.9,2-2c0-1.1-0.89-2-2-2h-56.7c-1.1,0-2,0.9-2,2
		C16.72,33.41,17.62,34.31,18.72,34.31"/>
	<path class="st1" d="M18.72,49.38h27.83c1.11,0,2-0.9,2-2c0-1.1-0.89-2-2-2H18.72c-1.1,0-2,0.9-2,2
		C16.72,48.48,17.62,49.38,18.72,49.38"/>
	<path class="st1" d="M0,0v89.46l22.96-20.72h71.18V0H0z M90.14,64.74H21.42L4,80.46V4h86.14V64.74z"/>
</g>
<rect x="-292.89" y="-2428.64" class="st5" width="3000" height="3000"/>
</svg>
