<?xml version="1.0" encoding="utf-8"?>
<!-- Generator: Adobe Illustrator 25.2.3, SVG Export Plug-In . SVG Version: 6.00 Build 0)  -->
<svg version="1.1" id="Layer_1" xmlns="http://www.w3.org/2000/svg" xmlns:xlink="http://www.w3.org/1999/xlink" x="0px" y="0px"
	 viewBox="0 0 86.7 95.1" style="enable-background:new 0 0 86.7 95.1;" xml:space="preserve">
<style type="text/css">
	.st0{fill:#0F1D5B;}
</style>
<g id="Layer_2_1_">
	<g id="Layer_1-2">
		<path class="st0" d="M69.2,60c-9.7,0-17.6,7.8-17.6,17.5s7.8,17.6,17.5,17.6s17.6-7.8,17.6-17.5c0,0,0,0,0,0
			C86.7,67.9,78.9,60,69.2,60z M69.2,91.1c-7.5,0-13.6-6.1-13.6-13.5c0-7.5,6.1-13.6,13.5-13.6c7.5,0,13.6,6.1,13.6,13.5
			C82.7,85,76.7,91.1,69.2,91.1L69.2,91.1z"/>
		<path class="st0" d="M76,75.5h-4.8v-4.8c0-1.1-0.9-2-2-2s-2,0.9-2,2v4.8h-4.9c-1.1,0-2,0.9-2,2s0.9,2,2,2h4.9v4.8c0,1.1,0.9,2,2,2
			s2-0.9,2-2v-4.8H76c1.1,0,2-0.9,2-2S77.1,75.5,76,75.5z"/>
		<path class="st0" d="M52.9,90.1H4.1c1.1-14.3,13-25.4,27.3-25.4H34V53.4l-0.6-0.6c-5.6-5.6-8.8-13.2-8.8-21.2v-8.9
			C24.6,12.4,33,4,43.3,4S62,12.4,62,22.7v8.9c0,7.9-3.1,15.6-8.8,21.2l-0.6,0.6v9.4c0,1.1,0.9,2,2,2s2-0.9,2-2V55
			c6-6.3,9.4-14.7,9.4-23.4v-8.9C66,10.2,55.9,0,43.3,0S20.7,10.2,20.7,22.7v8.9c0,8.7,3.3,17.1,9.3,23.4v5.8
			C13.2,61.5,0,75.3,0,92.1v2h52.9c1.1,0,2-0.9,2-2S54,90.1,52.9,90.1z"/>
	</g>
</g>
</svg>
