<?xml version="1.0" encoding="utf-8"?>
<!-- Generator: Adobe Illustrator 23.0.1, SVG Export Plug-In . SVG Version: 6.00 Build 0)  -->
<svg version="1.1" id="Layer_1" xmlns="http://www.w3.org/2000/svg" xmlns:xlink="http://www.w3.org/1999/xlink" x="0px" y="0px"
	 viewBox="0 0 129.6 95.5" style="enable-background:new 0 0 129.6 95.5;" xml:space="preserve">
<style type="text/css">
	.st0{fill:#101B51;}
</style>
<g>
	<g id="Layer_1-2">
		<path class="st0" d="M112,60.4c-9.7,0-17.5,7.9-17.5,17.6c0,9.7,7.9,17.5,17.6,17.5c9.7,0,17.5-7.8,17.5-17.5
			C129.6,68.3,121.7,60.4,112,60.4C112,60.4,112,60.4,112,60.4z M112,91.5c-7.5,0-13.5-6.1-13.5-13.6c0-7.5,6.1-13.5,13.6-13.5
			s13.5,6.1,13.5,13.6c0,0,0,0,0,0C125.5,85.5,119.5,91.5,112,91.5z"/>
		<path class="st0" d="M118.9,76H114v-4.9c0-1.1-0.9-2-2-2s-2,0.9-2,2V76h-4.8c-1.1,0-2,0.9-2,2s0.9,2,2,2h4.8v4.8c0,1.1,0.9,2,2,2
			s2-0.9,2-2V80h4.8c1.1,0,2-0.9,2-2S119.9,76,118.9,76L118.9,76z"/>
		<path class="st0" d="M93.1,90.1H59V4h51v50.7c0,1.1,0.9,2,2,2s2-0.9,2-2V4c0-2.2-1.8-4-4-4H59c-2.2,0-4,1.8-4,4v22H3.7
			c-2,0-3.7,1.6-3.7,3.6v64.4h93.1c1.1,0,2-0.9,2-2S94.2,90.1,93.1,90.1z M55,90.1H4V30h51V90.1z"/>
		<path class="st0" d="M103.2,11H65.8v20.4h37.5L103.2,11z M69.8,15h12.7v12.4H69.8V15z M99.2,27.4H86.5V15h12.7L99.2,27.4z"/>
		<path class="st0" d="M103.2,35.3H65.8v20.4h37.5L103.2,35.3z M69.8,39.3h12.7v12.4H69.8L69.8,39.3z M99.2,51.7H86.5V39.3h12.7
			V51.7z"/>
		<path class="st0" d="M48.2,55.7V35.3H10.8v20.4H48.2z M44.2,51.7H31.5V39.3h12.7V51.7z M14.8,39.3h12.7v12.4H14.8V39.3z"/>
		<path class="st0" d="M48.2,80V59.6H10.8V80H48.2z M44.2,76H31.5V63.6h12.7V76z M14.8,63.6h12.7V76H14.8V63.6z"/>
		<path class="st0" d="M65.8,59.6V80h20.7V59.6H65.8z M69.8,63.6h12.7V76H69.8V63.6z"/>
	</g>
</g>
</svg>
