<?xml version="1.0" encoding="utf-8"?>
<!-- Generator: Adobe Illustrator 25.3.1, SVG Export Plug-In . SVG Version: 6.00 Build 0)  -->
<svg version="1.1" id="Layer_1" xmlns="http://www.w3.org/2000/svg" xmlns:xlink="http://www.w3.org/1999/xlink" x="0px" y="0px"
	 viewBox="0 0 263.1 300" style="enable-background:new 0 0 263.1 300;" xml:space="preserve">
<style type="text/css">
	.st0{fill:#101B51;}
</style>
<g id="Layer_2_1_">
	<g id="Layer_1-2">
		<path class="st0" d="M210.1,3.2c-14.1-4.3-29.2-4.3-43.4,0.1L165,3.8l-0.4,0.1L164.3,4c-2.4,0.8-4.7,1.6-6.9,2.3
			c-9.1,3.1-17.7,6.1-27.2,6.1s-18.7-2.5-28.5-5.3c-8.2-2.3-16.6-4.6-25.4-5.5C54.2-0.3,30,8,16.2,22.4c-4.2,4.4-7.6,9.5-9.9,15
			C2.4,46.7,1.2,56.5,0.6,64c-1.6,19.7-0.2,40.9,4.3,66.8c5.2,29.1,13.1,57.6,23.6,85.2c9.4,25.2,20.2,51.6,38.8,73.5
			c3.6,4.2,8.1,8.6,14.4,9.7c7.3,1.2,15.1-2.7,20.8-10.4c7.4-10,9.8-22.4,10.9-30.8c0.4-3.2,0.8-6.4,1.2-9.9
			c1.6-14.9,3.5-31.9,12.1-41.9c1.9-2.2,4.8-3.5,6.7-3c1.8,0.5,3.6,2.4,5.5,5.8c6.3,11.3,8,24.9,9.1,37.8c0.2,2.2,0.3,4.4,0.5,6.8
			c0.7,11.2,1.5,24,8.6,34.6c4.3,6.5,11.7,12,19.9,12c1.7,0,3.5-0.3,5.1-0.8c6.7-2,11-7.4,14.5-12.9c17.5-27.2,29.2-58.6,40.6-88.9
			l0.8-2c13.9-37.2,21.7-68.7,24.5-99.2c2.2-23.5-1.4-43.5-10.5-59.4C242.7,20.7,227.7,8.7,210.1,3.2z M250.5,95.1
			c-2.7,29.4-10.3,60-23.8,96.1l-0.8,2c-11.1,29.7-22.6,60.5-39.4,86.6c-2.3,3.6-4.9,7-7.8,7.9c-4,1.2-8.9-2.3-11.6-6.4
			c-5.3-7.9-5.9-18-6.6-28.7c-0.1-2.3-0.3-4.7-0.5-7c-1.2-14.2-3.1-29.3-10.6-42.6c-3.6-6.3-7.7-10.1-12.7-11.5
			c-1.4-0.4-2.8-0.6-4.2-0.6c-5.8,0.2-11.2,2.8-14.8,7.3c-11,12.9-13.1,31.8-14.9,48.4c-0.4,3.4-0.7,6.6-1.1,9.6
			c-1.6,11.5-4.3,19.4-8.7,25.4c-2.2,3-5.9,6.2-9.2,5.7c-2.5-0.4-5.1-3.1-7.2-5.6c-17.3-20.4-27.6-45.7-36.7-69.9
			c-10.8-28.8-18.3-56-23-83c-4.3-24.9-5.6-45.2-4.2-63.8c0.5-6.6,1.5-15.1,4.8-22.9c1.8-4.2,4.3-8.1,7.5-11.4
			c11.4-11.9,31.6-18.7,50.2-17c7.7,0.7,15.3,2.9,23.3,5.1c10.1,2.8,20.6,5.8,31.6,5.8h0.1c0.6,0,1.2,0,1.8,0
			c-2.5,1.6-5.1,2.9-7.8,4c-9,3.5-16,4.1-22.9,4.7c-1.7,0.2-3.4,0.3-5.1,0.5c-3.3,0.2-5.9,3-5.7,6.3s3,5.9,6.3,5.7l0,0
			c0.2,0,0.5,0,0.7,0c1.6-0.2,3.1-0.3,4.8-0.5c7.3-0.6,15.6-1.4,26.2-5.4c7.5-2.9,14.8-8.2,21.9-13.3c6.5-4.7,12.6-9.1,17.8-11
			c0.7-0.2,1.4-0.5,2-0.7c27.4-8.6,57.1,3.1,71.3,28C249.4,56.5,252.4,74.1,250.5,95.1L250.5,95.1z"/>
		<path class="st0" d="M226.4,109.6c-3.3-0.6-6.4,1.5-7,4.8c-1.6,8.6-4,17-7.2,25.2c-1.2,3.1,0.4,6.6,3.5,7.8s6.6-0.4,7.8-3.5
			c3.4-8.8,6-17.9,7.8-27.2C231.9,113.4,229.7,110.2,226.4,109.6C226.5,109.6,226.5,109.6,226.4,109.6z"/>
		<path class="st0" d="M209.9,31.8c-10.3-5.5-22-7.6-33.6-6c-3.3,0.2-5.8,3-5.7,6.3c0.2,3.3,3,5.8,6.3,5.7c0.3,0,0.7-0.1,1-0.1
			c9-1.3,18.2,0.4,26.1,4.7c8,4.3,14.3,11.1,18.1,19.4c0.9,2,3.5,8,2.8,24.3c-0.2,3.3,2.4,6.1,5.7,6.3c0,0,0,0,0,0h0.3
			c3.2,0,5.9-2.5,6-5.7c0.9-19.1-2.6-27.1-3.8-29.7C228.4,46.1,220.2,37.3,209.9,31.8z"/>
	</g>
</g>
</svg>
