<?xml version="1.0" encoding="utf-8"?>
<svg version="1.1" id="Layer_1" x="0px" y="0px" viewBox="0 0 125 142.02" style="enable-background:new 0 0 125 142.02;" xmlns="http://www.w3.org/2000/svg">
  <style type="text/css">
	.st0{fill:#231F20;}
	.st1{fill:#EBEBEC;}
	.st2{fill:#FFFFFF;}
	.st3{fill:none;stroke:#000000;stroke-width:4;stroke-linecap:round;stroke-miterlimit:10;}
	.st4{fill:#F37A7B;}
	.st5{fill:none;stroke:#000000;stroke-width:5;stroke-linecap:round;stroke-miterlimit:10;}
	.st6{fill:none;}
</style>
  <path d="M90.51,0c-5.3,0-9.79,1.54-14.12,3c-4.33,1.46-8.67,3-13.88,3c-5.21,0-9.42-1.44-13.88-3c-4.46-1.56-8.82-3-14.12-3 C24.91,0,0,6.56,0,36.5c0,11.62,4,29.39,12,52.81c6.53,19.19,13.44,35.39,14.2,37.19c3.08,7.16,8.66,15.52,14.31,15.52 c6,0,11.36-8.47,13.47-21.09l0.37-2.26c1.48-9,3.72-22.65,8.16-22.65s6.68,13.63,8.16,22.65l0.37,2.26 C73.15,133.5,78.56,142,84.51,142c5.65,0,11.23-8.36,14.3-15.52c0.76-1.78,7.67-18,14.19-37.17c8-23.42,12-41.19,12-52.81 C125,6.56,100.11,0,90.51,0 M94.21,124.5c-3.2,7.48-7.6,12.48-9.7,12.48c-1.93,0-6.57-5.11-8.53-16.91l-0.38-2.25 c-2.16-13.2-4.4-26.84-13.09-26.84s-10.93,13.64-13.09,26.84L49,120.09c-2,11.8-6.6,16.91-8.53,16.91c-2.1,0-6.5-5-9.7-12.48 C29.75,122.06,5,64,5,36.5C5,10.66,26.3,5,34.51,5C39,5,42.88,6.34,47,7.76C51.6,9.33,56.36,11,62.3,11 c-4.46,2.89-9.51,5.48-14.56,5c-1.38-0.13-2.6,0.89-2.73,2.27c-0.13,1.38,0.89,2.6,2.27,2.73c0.55,0.05,1.09,0.07,1.63,0.07 c7.76,0,14.84-4.92,20.1-8.57c1.92-1.47,3.99-2.73,6.17-3.78l2.83-1c4.13-1.38,8-2.72,12.5-2.72c8.21,0,29.5,5.66,29.5,31.5 C120,64,95.27,122.06,94.21,124.5" style="fill: rgb(16, 27, 81);"/>
  <path d="M112,43.6c-1.36-0.21-2.64,0.73-2.85,2.09c-0.32,2.09-0.74,4.38-1.25,6.8c-0.32,1.34,0.52,2.68,1.85,2.99l0.03,0.01 c0.17,0.02,0.35,0.02,0.52,0c1.18,0,2.2-0.84,2.44-2c0.53-2.51,1-4.89,1.3-7.07C114.23,45.08,113.33,43.83,112,43.6" style="fill: rgb(16, 27, 81);"/>
  <path d="M90.51,10c-1.38,0-2.5,1.12-2.5,2.5c0,1.38,1.12,2.5,2.5,2.5c0.8,0,19.52,0.48,19.52,21.5c0,1.38,1.12,2.5,2.5,2.5 c1.38,0,2.5-1.12,2.5-2.5C115,10.3,90.76,10,90.51,10" style="fill: rgb(16, 27, 81);"/>
  <rect x="-595.79" y="-2201.7" class="st6" width="3000" height="3000"/>
</svg>