<svg xmlns="http://www.w3.org/2000/svg" width="65.801" height="55" viewBox="0 0 65.801 55"><g transform="translate(0 0)"><path d="M65.8,41.078a18.954,18.954,0,0,0-3.335-10.752,19.248,19.248,0,0,0-5.931-5.6A14.308,14.308,0,1,0,34.973,6.133a14.171,14.171,0,0,0-4.145,0A14.31,14.31,0,1,0,9.266,24.723a19.248,19.248,0,0,0-5.931,5.6A18.953,18.953,0,0,0,0,41.078v7.963H13.8V55H52V49.041H65.8ZM46.7,3.56a10.782,10.782,0,0,1,0,21.565h-.32a.254.254,0,0,1,.023-.069,14.121,14.121,0,0,0,.462-1.605.691.691,0,0,1,.025-.117c.033-.147.061-.3.089-.444l.038-.213.061-.4c.013-.094.023-.188.036-.279s.028-.239.038-.358.02-.254.028-.366.015-.193.018-.29c0-.208.015-.417.018-.625v-.071c0-.213,0-.424-.018-.635v-.185a5.333,5.333,0,0,0-.041-.533V18.8A14.242,14.242,0,0,0,38.641,7.171,10.8,10.8,0,0,1,46.7,3.56ZM29.174,10.186l.1-.036c.107-.038.216-.076.323-.109l.254-.076.183-.053.328-.086a10.737,10.737,0,0,1,5.08,0c.109.025.218.056.325.084l.185.053.254.076.328.109.1.036a10.815,10.815,0,0,1,6.922,8.438l.015.094c.018.132.036.254.051.4l.015.147c.013.122.02.254.028.366v1.3a4.162,4.162,0,0,1-.036.437c0,.058-.013.114-.018.17a2.049,2.049,0,0,1-.036.279,1.041,1.041,0,0,1-.033.218c-.013.071-.038.218-.058.328l-.053.282c-.013.058-.028.117-.041.175-.036.142-.074.284-.112.427-.018.056-.033.114-.048.17s-.051.16-.079.241-.043.13-.063.193-.051.145-.079.218c-.046.122-.094.254-.145.363-.02.053-.046.107-.069.16-.043.1-.089.2-.135.3l-.015.033c-.018.036-.036.071-.051.107-.053.107-.107.211-.163.315l-.066.124h0c-.061.109-.124.218-.188.328-.025.043-.051.086-.079.13-.071.114-.142.229-.218.34l-.142.206c-.041.058-.081.117-.124.173s-.109.147-.165.218l-.114.147c-.061.074-.119.15-.18.221l-.117.135c-.063.071-.127.145-.193.216l-.117.124c-.107.112-.216.224-.328.33l-.2.19-.142.127-.234.2-.122.1c-.1.079-.193.155-.292.229l-.081.063a10.765,10.765,0,0,1-12.84,0l-.079-.058-.292-.231-.122-.1-.234-.206c-.048-.041-.1-.081-.142-.124l-.2-.191c-.109-.109-.218-.218-.325-.33-.041-.041-.081-.081-.119-.124l-.19-.216-.117-.135c-.061-.071-.122-.147-.18-.221l-.114-.147-.168-.218-.122-.173-.142-.206c-.076-.112-.15-.226-.221-.34L23.65,25.8q-.1-.168-.19-.335l-.069-.124-.163-.317c-.018-.038-.036-.079-.056-.117V24.9c-.048-.1-.094-.208-.14-.312-.023-.051-.046-.1-.066-.152-.051-.122-.1-.254-.147-.371-.025-.069-.048-.135-.071-.2s-.048-.14-.071-.211-.051-.152-.074-.229-.069-.231-.1-.348-.041-.163-.061-.254l-.053-.206c-.018-.079-.036-.157-.051-.239-.025-.122-.048-.254-.069-.373a1.777,1.777,0,0,0-.028-.2c0-.066-.028-.2-.041-.3l-.015-.15c-.015-.147-.028-.3-.036-.45V19.62c0-.13.018-.254.03-.386L22.2,19.1a2.837,2.837,0,0,1,.051-.414V18.6a10.818,10.818,0,0,1,6.922-8.435ZM8.318,14.334A10.78,10.78,0,0,1,27.16,7.174a14.244,14.244,0,0,0-8.5,11.626v.1c-.018.185-.033.368-.043.556v.168c0,.221-.018.444-.018.665s0,.452.018.676a1.58,1.58,0,0,0,.015.269c0,.13.018.254.03.389s.023.229.038.343.023.2.038.3.036.254.058.389a1.2,1.2,0,0,0,.041.229c.025.145.053.287.084.429a.719.719,0,0,0,.033.142,13.9,13.9,0,0,0,.447,1.554l.03.1h-.318A10.792,10.792,0,0,1,8.318,14.334Zm8.446,22.522-.114.185c-.079.132-.16.254-.236.394-.043.074-.086.147-.127.224-.071.122-.14.254-.206.368s-.084.155-.124.234c-.064.124-.127.254-.188.371-.038.079-.079.157-.114.234q-.094.2-.183.4c-.033.071-.066.142-.1.216-.069.157-.135.317-.2.478l-.056.14c-.081.208-.16.417-.234.627l-.051.145c-.056.163-.109.325-.16.49-.025.074-.046.15-.069.224L14.478,42c-.023.081-.043.165-.066.254-.033.135-.069.254-.1.4-.02.086-.041.173-.058.254-.03.137-.061.274-.086.411-.018.084-.033.165-.051.254l-.076.45a1.524,1.524,0,0,1-.033.211c-.033.221-.064.442-.089.665h0c-.023.2-.043.4-.058.607H3.533v-4.43a15.535,15.535,0,0,1,8.931-14.067,14.255,14.255,0,0,0,8.712,1.5c.107.152.216.3.33.452l.117.15c.112.142.224.282.34.422l.147.168c.109.127.221.254.335.371.058.066.119.13.18.19.1.109.208.213.318.318.038.041.076.081.117.119-.152.094-.3.188-.455.284l-.074.048c-.15.1-.3.2-.447.3l-.152.107-.391.284c-.041.03-.084.058-.122.089q-.254.185-.488.381l-.1.086-.378.295L20.3,32.7c-.124.109-.254.221-.371.335l-.1.086c-.15.142-.3.284-.442.432l-.112.114c-.112.114-.221.229-.33.345l-.13.14c-.122.132-.254.269-.361.406-.018.02-.038.041-.056.064-.135.157-.254.318-.4.48l-.107.137c-.1.124-.2.254-.29.378l-.112.147c-.124.168-.254.34-.366.508S16.883,36.666,16.764,36.856Zm.571,14.615v-5.2a2.573,2.573,0,0,1,.02-.391l.023-.234a3.131,3.131,0,0,1,.033-.343c.013-.114.02-.165.03-.254s.028-.218.043-.325.028-.17.043-.254.033-.208.053-.312.036-.173.053-.254.038-.2.061-.3.043-.175.063-.254.048-.2.074-.292.048-.173.074-.254.053-.19.081-.284.056-.173.084-.254.058-.183.091-.277.061-.173.094-.254l.1-.274c.033-.084.069-.17.1-.254s.071-.178.109-.254.076-.17.112-.254l.119-.254.122-.254.127-.254c.043-.084.089-.165.132-.254s.089-.165.137-.254l.14-.254c.048-.081.094-.16.145-.241l.15-.236.152-.236c.051-.079.1-.155.157-.234L20.226,38c.053-.076.109-.152.168-.226s.109-.15.168-.224l.175-.221c.058-.074.117-.147.178-.218L21.1,36.9c.061-.071.122-.142.185-.211l.191-.208.193-.206.2-.2.2-.2.206-.193.211-.193c.069-.063.14-.124.213-.185l.216-.185c.074-.061.145-.119.221-.178l.224-.178.226-.173.234-.168.231-.165L24.3,34.1l.236-.152.254-.155c.079-.051.16-.1.241-.147l.254-.145c.084-.048.165-.094.254-.137l.254-.14.254-.127.2-.1a14.262,14.262,0,0,0,13.274,0l.2.1.254.127.254.137.254.14.254.145.254.147.254.152.239.157.239.16.234.165.231.168.229.173.224.175.221.18.216.183.213.188.208.191.208.2.2.2.2.2.191.2.193.211c.063.069.124.14.185.208l.183.216c.061.071.119.145.175.216s.119.147.178.224l.168.221L45.55,38c.056.076.107.152.16.229l.16.234.152.234.15.239c.048.079.1.16.142.241s.1.16.142.254.091.165.135.254.089.163.132.254.086.168.127.254l.124.254.117.254.114.254c.038.089.071.175.109.254s.069.173.1.254l.1.269.094.254.091.279.084.254c.028.094.053.191.081.284l.074.254c.023.079.048.2.071.292s.046.175.064.254.043.2.064.3.038.173.053.254.036.206.053.31.03.17.043.254.028.213.041.323.025.165.033.254.023.229.033.343.015.155.02.234c0,.13.018.254.023.391v5.217Zm34.608-5.964c-.036-.429-.086-.856-.15-1.283a1.1,1.1,0,0,0-.033-.2c-.023-.155-.048-.307-.076-.46-.015-.081-.033-.163-.048-.241-.028-.14-.058-.279-.089-.419-.018-.084-.038-.168-.058-.254-.03-.135-.066-.272-.1-.406-.02-.081-.041-.165-.064-.254-.038-.14-.081-.282-.122-.422-.023-.074-.043-.147-.069-.221-.051-.165-.107-.33-.163-.508l-.046-.14c-.076-.211-.155-.419-.236-.627-.018-.046-.036-.089-.056-.135-.064-.163-.132-.323-.2-.485-.03-.071-.064-.14-.1-.211-.058-.135-.119-.254-.183-.4l-.114-.231-.188-.376c-.041-.076-.081-.155-.124-.231-.066-.124-.135-.254-.206-.371l-.127-.221c-.076-.132-.157-.254-.239-.394-.038-.061-.074-.124-.114-.185-.119-.191-.254-.378-.371-.566s-.254-.345-.368-.508c-.036-.051-.071-.1-.109-.147-.094-.127-.193-.254-.29-.378L47.8,35.1c-.132-.163-.254-.323-.4-.48l-.053-.061c-.119-.14-.241-.274-.366-.409-.041-.048-.084-.094-.127-.14-.109-.117-.221-.231-.333-.345l-.109-.114c-.147-.145-.295-.29-.445-.432l-.094-.086c-.122-.114-.254-.226-.371-.335l-.145-.127-.378-.3-.1-.086q-.239-.193-.488-.381l-.122-.091c-.13-.094-.254-.188-.391-.279l-.152-.109c-.147-.1-.295-.2-.445-.3l-.079-.051c-.15-.1-.3-.191-.455-.284l.117-.114c.109-.107.216-.216.323-.325l.175-.183c.117-.124.229-.254.34-.378l.142-.163c.117-.14.234-.284.345-.429.038-.048.076-.094.112-.142.114-.15.224-.3.33-.455a14.254,14.254,0,0,0,8.715-1.481,15.535,15.535,0,0,1,8.931,14.067v4.43Z" transform="translate(0 -0.005)" fill="#0f1d5b"/></g></svg>