<?xml version="1.0" encoding="utf-8"?>
<!-- Generator: Adobe Illustrator 23.0.1, SVG Export Plug-In . SVG Version: 6.00 Build 0)  -->
<svg version="1.1" id="Layer_1" xmlns="http://www.w3.org/2000/svg" xmlns:xlink="http://www.w3.org/1999/xlink" x="0px" y="0px"
	 viewBox="0 0 86.7 94.1" style="enable-background:new 0 0 86.7 94.1;" xml:space="preserve">
<style type="text/css">
	.st0{fill:#FFFFFF;}
</style>
<g id="XMLID_1_">
	<g>
		<path class="st0" d="M82.7,90.2H4.1v-0.1c1.1-14.3,13-25.4,27.3-25.4H34V53.4l-0.6-0.6c-5.6-5.6-8.8-13.2-8.8-21.2v-8.9
			C24.7,12.4,33,4,43.3,4S62,12.4,62,22.7v8.9c0,7.9-3.1,15.6-8.8,21.2l-0.6,0.6v11.4h2.7C69.7,64.8,81.6,75.9,82.7,90.2z"/>
		<path class="st0" d="M86.7,92.1v2H0v-2c0-16.8,13.2-30.6,30-31.3V55c-6-6.3-9.3-14.7-9.3-23.4v-8.9C20.7,10.2,30.9,0,43.4,0
			s22.7,10.2,22.7,22.7v8.9c0,8.7-3.4,17.1-9.4,23.4v5.8C73.5,61.5,86.7,75.3,86.7,92.1z M4.1,90.2h78.6
			c-1.1-14.3-13-25.4-27.4-25.4h-2.7V53.4l0.6-0.6c5.7-5.6,8.8-13.3,8.8-21.2v-8.9C62,12.4,53.6,4,43.3,4s-18.6,8.4-18.7,18.7v8.9
			c0,8,3.2,15.6,8.8,21.2l0.6,0.6v11.3h-2.6C17.1,64.7,5.2,75.8,4.1,90.2L4.1,90.2z"/>
	</g>
	<g>
	</g>
</g>
</svg>
