<svg xmlns="http://www.w3.org/2000/svg" width="13" height="21" viewBox="0 0 13 21">
  <metadata><?xpacket begin="﻿" id="W5M0MpCehiHzreSzNTczkc9d"?>
<x:xmpmeta xmlns:x="adobe:ns:meta/" x:xmptk="Adobe XMP Core 5.6-c142 79.160924, 2017/07/13-01:06:39        ">
   <rdf:RDF xmlns:rdf="http://www.w3.org/1999/02/22-rdf-syntax-ns#">
      <rdf:Description rdf:about=""/>
   </rdf:RDF>
</x:xmpmeta>
                                                                                                    
                                                                                                    
                                                                                                    
                                                                                                    
                                                                                                    
                                                                                                    
                                                                                                    
                                                                                                    
                                                                                                    
                                                                                                    
                                                                                                    
                                                                                                    
                                                                                                    
                                                                                                    
                                                                                                    
                                                                                                    
                                                                                                    
                                                                                                    
                                                                                                    
                                                                                                    
                           
<?xpacket end="w"?></metadata>
<defs>
    <style>
      .cls-1 {
        fill: #101b51;
        fill-rule: evenodd;
      }
    </style>
  </defs>
  <path id="Фигура_11" data-name="Фигура 11" class="cls-1" d="M961.724,518H951.276A1.309,1.309,0,0,0,950,519.337v18.326A1.31,1.31,0,0,0,951.276,539h10.448A1.31,1.31,0,0,0,963,537.663V519.337A1.309,1.309,0,0,0,961.724,518Zm-10.448.892h10.448a0.436,0.436,0,0,1,.425.445V533.45h-11.3V519.337A0.436,0.436,0,0,1,951.276,518.892Zm10.448,19.217H951.276a0.437,0.437,0,0,1-.425-0.446v-3.321h11.3v3.321A0.436,0.436,0,0,1,961.724,538.109Zm-7.2-16.138h3.942a0.446,0.446,0,0,0,0-.892h-3.942A0.446,0.446,0,0,0,954.529,521.971Z" transform="translate(-950 -518)"/>
</svg>
