<?xml version="1.0" encoding="utf-8"?>
<!-- Generator: Adobe Illustrator 25.3.1, SVG Export Plug-In . SVG Version: 6.00 Build 0)  -->
<svg version="1.1" id="Layer_1" xmlns="http://www.w3.org/2000/svg" xmlns:xlink="http://www.w3.org/1999/xlink" x="0px" y="0px"
	 viewBox="0 0 13 21" style="enable-background:new 0 0 13 21;" xml:space="preserve">
<style type="text/css">
	.st0{fill-rule:evenodd;clip-rule:evenodd;fill:#B2B4C9;}
</style>
<path id="Фигура_11" class="st0" d="M11.7,0H1.3C0.6,0,0,0.6,0,1.3v18.3C0,20.4,0.6,21,1.3,21h10.4c0.7,0,1.3-0.6,1.3-1.3V1.3
	C13,0.6,12.4,0,11.7,0z M1.3,0.9h10.4c0.2,0,0.4,0.2,0.4,0.4v14.1H0.8V1.3C0.8,1.1,1,0.9,1.3,0.9L1.3,0.9z M11.7,20.1H1.3
	c-0.2,0-0.4-0.2-0.4-0.4v-3.3h11.3v3.3C12.2,19.9,12,20.1,11.7,20.1L11.7,20.1z M4.5,4h3.9c0.2,0,0.4-0.2,0.4-0.4S8.6,3.2,8.4,3.2
	l0,0H4.5c-0.2,0-0.4,0.2-0.4,0.4S4.3,4,4.5,4L4.5,4L4.5,4z"/>
</svg>
