<?xml version="1.0" encoding="utf-8"?>
<!-- Generator: Adobe Illustrator 23.0.1, SVG Export Plug-In . SVG Version: 6.00 Build 0)  -->
<svg version="1.1" id="Layer_1" xmlns="http://www.w3.org/2000/svg" xmlns:xlink="http://www.w3.org/1999/xlink" x="0px" y="0px"
	 viewBox="0 0 94.14 94.14" style="enable-background:new 0 0 94.14 94.14;" xml:space="preserve">
<style type="text/css">
	.st0{fill:#231F20;}
	.st1{fill:#EBEBEC;}
	.st2{fill:#FFFFFF;}
	.st3{fill:#F37A7B;}
	.st4{fill:none;}
</style>
<path class="st2" d="M92.14,45.07H49.07V2c0-1.1-0.9-2-2-2c-1.1,0-2,0.9-2,2v43.07H2c-1.11,0-2,0.9-2,2c0,1.1,0.89,2,2,2h43.07
	v43.07c0,1.1,0.9,2,2,2c1.1,0,2-0.9,2-2V49.07h43.07c1.1,0,2-0.9,2-2C94.14,45.97,93.24,45.07,92.14,45.07"/>
<rect x="-176.74" y="-1023.74" class="st4" width="3000" height="3000"/>
</svg>
