<svg xmlns="http://www.w3.org/2000/svg" width="12" height="13" viewBox="0 0 12 13">
  <metadata><?xpacket begin="﻿" id="W5M0MpCehiHzreSzNTczkc9d"?>
<x:xmpmeta xmlns:x="adobe:ns:meta/" x:xmptk="Adobe XMP Core 5.6-c142 79.160924, 2017/07/13-01:06:39        ">
   <rdf:RDF xmlns:rdf="http://www.w3.org/1999/02/22-rdf-syntax-ns#">
      <rdf:Description rdf:about=""/>
   </rdf:RDF>
</x:xmpmeta>
                                                                                                    
                                                                                                    
                                                                                                    
                                                                                                    
                                                                                                    
                                                                                                    
                                                                                                    
                                                                                                    
                                                                                                    
                                                                                                    
                                                                                                    
                                                                                                    
                                                                                                    
                                                                                                    
                                                                                                    
                                                                                                    
                                                                                                    
                                                                                                    
                                                                                                    
                                                                                                    
                           
<?xpacket end="w"?></metadata>
<defs>
    <style>
      .cls-1 {
        fill: #101b51;
        fill-rule: evenodd;
      }
    </style>
  </defs>
  <path id="Фигура_25" data-name="Фигура 25" class="cls-1" d="M523.471,795a0.4,0.4,0,0,1-.218-0.065l-7.068-4.561a0.4,0.4,0,0,1-.119-0.549l3.577-5.44a1.5,1.5,0,0,1,.458-0.45l2.717-1.717a1.527,1.527,0,0,1,1.64.008l2.869,1.851a1.507,1.507,0,0,1,.68,1.445l-0.4,3.238a1.533,1.533,0,0,1-.233.639l-3.568,5.418a0.413,0.413,0,0,1-.254.175A0.48,0.48,0,0,1,523.471,795Zm-0.123-.483h0Zm-6.737-4.526,6.817,4.4,3.487-5.3a0.966,0.966,0,0,0,.148-0.411l0.392-3.231a0.958,0.958,0,0,0-.432-0.919h0l-2.866-1.852a0.972,0.972,0,0,0-1.042,0L520.4,784.4a0.96,0.96,0,0,0-.291.287Zm7.685-3.1a1.25,1.25,0,1,1,1.053-.567h0A1.252,1.252,0,0,1,524.3,786.888Zm0-1.941a0.7,0.7,0,1,0,.587,1.075h0a0.691,0.691,0,0,0-.207-0.959h0a0.707,0.707,0,0,0-.376-0.115h0Z" transform="translate(-516 -782)"/>
</svg>
