<?xml version="1.0" encoding="utf-8"?>
<!-- Generator: Adobe Illustrator 23.0.1, SVG Export Plug-In . SVG Version: 6.00 Build 0)  -->
<svg version="1.1" id="Layer_1" xmlns="http://www.w3.org/2000/svg" xmlns:xlink="http://www.w3.org/1999/xlink" x="0px" y="0px"
	 viewBox="0 0 93.97 94.14" style="enable-background:new 0 0 93.97 94.14;" xml:space="preserve">
<style type="text/css">
	.st0{fill:#231F20;}
	.st1{fill:#101B51;}
	.st2{fill:#EBEBEC;}
	.st3{fill:#FFFFFF;}
	.st4{fill:#F37A7B;}
	.st5{fill:none;}
</style>
<path d="M48.25,45.07H23.58c-1.1,0-2,0.9-2,2c0,1.1,0.9,2,2,2h24.67c1.1,0,2-0.9,2-2C50.25,45.97,49.35,45.07,48.25,45.07"/>
<path class="st1" d="M48.25,45.07H23.58c-1.1,0-2,0.9-2,2c0,1.1,0.9,2,2,2h24.67c1.1,0,2-0.9,2-2
	C50.25,45.97,49.35,45.07,48.25,45.07"/>
<path class="st1" d="M38.73,45.07H23.58c-1.1,0-2,0.9-2,2c0,1.1,0.9,2,2,2h15.15c1.1,0,2-0.9,2-2
	C40.73,45.97,39.83,45.07,38.73,45.07"/>
<path class="st1" d="M93.97,24.19H79.52V0H14.62v24.19H0v52.38h13.4v17.58h67.69V76.56h12.88V24.19z M18.62,4h56.91v20.19H18.62V4z
	 M77.09,90.14H17.4V52.38h59.69V90.14z M89.97,72.56h-8.88V48.38H13.4v24.19H4V28.19h10.62h64.91h10.44V72.56z"/>
<rect x="-1239.74" y="-2426.3" class="st5" width="3000" height="3000"/>
</svg>
