<svg xmlns="http://www.w3.org/2000/svg" width="43.045" height="43.046" viewBox="0 0 43.045 43.046"><g transform="translate(-16.043 -15.971)"><path d="M51.914,37.08a5.25,5.25,0,1,0-5.244-5.25A5.25,5.25,0,0,0,51.914,37.08Zm0-8.84a3.59,3.59,0,1,1-3.59,3.59,3.59,3.59,0,0,1,3.59-3.59Z" transform="translate(-17.979 -10.24)" fill="#3dafb2"/><path d="M68.234,43.291H64.926V26.81a.83.83,0,0,0-1.66,0V43.291H47.283a9.061,9.061,0,0,0-.252-1.23,7.3,7.3,0,0,0-3.43-4.617,2.17,2.17,0,0,0-2.564.363l-4.592,4.6h0l-.9.9H31.859V26.878a.83.83,0,0,0-1.654,0V43.291h-3.35a.83.83,0,0,0,0,1.654h7.174a3.922,3.922,0,0,0,.615,4.807l3.283,3.289L35.793,58.98l-2.17,4.088a3.689,3.689,0,0,0,6.467,3.424L42.254,62.4a2.146,2.146,0,0,0,.092-.209L44.48,56.33h5.656v2.557a3.725,3.725,0,0,0,.615,2.1,7.248,7.248,0,0,0-6.516,7.2.83.83,0,0,0,.861.836H62.812a.83.83,0,0,0,.824-.83,7.242,7.242,0,0,0-6.811-7.236,3.688,3.688,0,0,0,.615-2.01V52.328a3.307,3.307,0,0,0-3.307-3.307H45.973c.1-.172.209-.344.307-.516l.037-.061a7.641,7.641,0,0,0,1.02-3.5h20.9a.83.83,0,1,0,0-1.654Zm-33.1,3.689a2.262,2.262,0,0,1,.664-1.611l1.807-1.807h0l4.6-4.6a.5.5,0,0,1,.35-.141.5.5,0,0,1,.246.061,5.693,5.693,0,0,1,2.631,3.6,6.762,6.762,0,0,1-.541,5.127l-.037.061c-.234.387-.449.756-.7,1.1a.689.689,0,0,0-.074.1l-3.3-3.332a.83.83,0,1,0-1.168,1.174l3.719,3.719.584.584h0a2,2,0,0,1,0,2.828,1.7,1.7,0,0,1-.227.191,2.01,2.01,0,0,1-2.607-.191l-1.592-1.6L35.812,48.56a2.262,2.262,0,0,1-.676-1.586Zm5.656,14.668-2.164,4.094A2,2,0,0,1,35.086,63.9l2.17-4.094a.959.959,0,0,0,.086-.2l1.881-5.207.67.67.141.135.055.043.092.086.068.049.086.068.074.049.086.055.074.049.092.049.08.043.086.049.08.037L41,55.82l.08.037h.092l.086.037h.1l.129.037.123.037h1.174ZM61.92,67.378H45.937a5.594,5.594,0,0,1,5.533-4.758h4.918a5.6,5.6,0,0,1,5.533,4.76ZM55.773,52.347v6.6a2,2,0,0,1-2,2H53.7a2.041,2.041,0,0,1-1.955-2.059V55.5a.824.824,0,0,0-.824-.83H45.365l.154-.215v-.037l.129-.215h0c.037-.08.08-.16.111-.24a.123.123,0,0,0,0-.049c0-.08.068-.16.092-.24v-.043l.074-.246h0a1.845,1.845,0,0,0,.154-.344v-.049a.963.963,0,0,1,.031-.258.117.117,0,0,1,0-.049v-.277a2.367,2.367,0,0,0,0-.3.381.381,0,0,0,0-.08v-.289c0-.018-.043-.184-.061-.277v-.061a2.205,2.205,0,0,0-.074-.215.344.344,0,0,0,0-.074,4,4,0,0,0-.209-.467h8.355a1.654,1.654,0,0,1,1.654,1.678Z" transform="translate(-10.053 -10.009)" fill="#3dafb2"/></g></svg>