<?xml version="1.0" encoding="utf-8"?>
<!-- Generator: Adobe Illustrator 25.2.1, SVG Export Plug-In . SVG Version: 6.00 Build 0)  -->
<svg version="1.1" id="Layer_1" xmlns="http://www.w3.org/2000/svg" xmlns:xlink="http://www.w3.org/1999/xlink" x="0px" y="0px"
	 viewBox="0 0 68.8 90.2" style="enable-background:new 0 0 68.8 90.2;" xml:space="preserve">
<style type="text/css">
	.st0{fill:#5999B4;}
	.st1{fill:none;}
</style>
<path class="st0" d="M68.3,77.3c-0.7-0.8-2-0.9-2.8-0.2C50.1,90.6,26.6,89,13.2,73.5C-0.3,58.1,1.3,34.7,16.7,21.2
	c12.2-10.6,29.9-12.2,43.7-3.7l-14.3,2.8l0.7,3.3l20-3.9L61.4,0l-3.3,0.9l3.5,12.6C41.9,2.2,16.8,9,5.5,28.6
	C-5.8,48.3,0.9,73.4,20.6,84.8c15.2,8.8,34.3,6.9,47.5-4.7C68.9,79.4,69,78.1,68.3,77.3L68.3,77.3z"/>
<rect x="-312.2" y="-1195.3" class="st1" width="3000" height="3000"/>
</svg>
