<?xml version="1.0" encoding="utf-8"?>
<!-- Generator: Adobe Illustrator 23.0.1, SVG Export Plug-In . SVG Version: 6.00 Build 0)  -->
<svg version="1.1" id="Layer_1" xmlns="http://www.w3.org/2000/svg" xmlns:xlink="http://www.w3.org/1999/xlink" x="0px" y="0px"
	 viewBox="0 0 68.8 90.24" style="enable-background:new 0 0 68.8 90.24;" xml:space="preserve">
<style type="text/css">
	.st0{fill:#231F20;}
	.st1{fill:#EBEBEC;}
	.st2{fill:#FFFFFF;}
	.st3{fill:#F37A7B;}
	.st4{fill:#FF9954;}
	.st5{fill:none;}
</style>
<path class="st4" d="M68.31,77.28c-0.73-0.83-1.99-0.92-2.82-0.19c-15.43,13.47-38.86,11.89-52.33-3.54
	C-0.32,58.12,1.26,34.69,16.69,21.22c12.2-10.65,29.89-12.16,43.71-3.73L46.1,20.28l0.66,3.34l20-3.92L61.43,0l-3.28,0.89
	l3.45,12.65C41.93,2.22,16.81,8.99,5.49,28.65C-5.84,48.32,0.93,73.44,20.6,84.76c15.21,8.75,34.3,6.88,47.52-4.65
	C68.95,79.39,69.04,78.12,68.31,77.28L68.31,77.28z"/>
<rect x="-312.21" y="-1195.3" class="st5" width="3000" height="3000"/>
</svg>
