<?xml version="1.0" encoding="utf-8"?>
<!-- Generator: Adobe Illustrator 24.1.0, SVG Export Plug-In . SVG Version: 6.00 Build 0)  -->
<svg version="1.1" id="Layer_1" xmlns="http://www.w3.org/2000/svg" xmlns:xlink="http://www.w3.org/1999/xlink" x="0px" y="0px"
	 viewBox="0 0 114.3 114.3" style="enable-background:new 0 0 114.3 114.3;" xml:space="preserve">
<style type="text/css">
	.st0{fill:#FFFFFF;}
</style>
<g id="Layer_2_1_">
	<g id="Layer_1-2">
		<path class="st0" d="M112.1,101.5L83.4,72.8C98.3,52.1,93.5,23.3,72.8,8.5S23.3-1.6,8.5,19.1S-1.6,68.6,19.1,83.4
			C35.2,95,56.8,95,72.8,83.4l28.6,28.6c2.9,2.9,7.7,2.9,10.6,0S115,104.4,112.1,101.5z M15,46c0-17.1,13.9-31,31-31s31,13.9,31,31
			S63.1,77,46,77C28.9,77,15,63.1,15,46z"/>
	</g>
</g>
</svg>
