<?xml version="1.0" encoding="utf-8"?>
<!-- Generator: Adobe Illustrator 23.0.1, SVG Export Plug-In . SVG Version: 6.00 Build 0)  -->
<svg version="1.1" id="Layer_1" xmlns="http://www.w3.org/2000/svg" xmlns:xlink="http://www.w3.org/1999/xlink" x="0px" y="0px"
	 viewBox="0 0 122.99 122.95" style="enable-background:new 0 0 122.99 122.95;" xml:space="preserve">
<style type="text/css">
	.st0{fill:#231F20;}
	.st1{fill:#EBEBEC;}
	.st2{fill:#FFFFFF;}
	.st3{fill:none;stroke:#000000;stroke-width:4;stroke-linecap:round;stroke-miterlimit:10;}
	.st4{fill:#F37A7B;}
	.st5{fill:none;stroke:#000000;stroke-width:5;stroke-linecap:round;stroke-miterlimit:10;}
	.st6{fill:none;}
</style>
<g>
	<path class="st2" d="M91.97,81.36c11.51-16.02,11.51-37.59,0-53.61l14.88-14.86c2.98-2.88,3.06-7.63,0.18-10.6
		c-2.88-2.98-7.63-3.06-10.61-0.18c-0.06,0.06-0.12,0.12-0.18,0.18L27.96,70.57c-8.83-14.71-4.06-33.79,10.65-42.61
		c5.75-3.45,12.46-4.95,19.14-4.27c4.11,0.5,7.85-2.43,8.35-6.54S63.67,9.3,59.56,8.8c-0.09-0.01-0.19-0.02-0.29-0.03
		C34,6.13,11.38,24.48,8.74,49.75c-1.17,11.22,1.82,22.48,8.41,31.64L2.29,96.24c-2.98,2.88-3.06,7.62-0.19,10.61
		c2.88,2.98,7.62,3.07,10.6,0.19c0.06-0.06,0.12-0.12,0.18-0.18l19.73-19.76l48.56-48.52c8.81,14.71,4.02,33.78-10.69,42.59
		c-4.81,2.88-10.31,4.4-15.92,4.41c-4.14,0-7.5,3.36-7.5,7.5c0,4.14,3.36,7.5,7.5,7.5c9.62,0.01,19-3.02,26.8-8.64L110,120.56
		c2.82,3.03,7.57,3.2,10.6,0.37c3.03-2.82,3.2-7.57,0.38-10.6c-0.12-0.13-0.25-0.25-0.38-0.38L91.97,81.36z"/>
</g>
<rect x="-2321.83" y="-1985.22" class="st6" width="3000" height="3000"/>
</svg>
