<svg xmlns="http://www.w3.org/2000/svg" width="22" height="22" viewBox="0 0 22 22">
  <defs>
    <style>
      .cls-1 {
        fill: #101b51;
        fill-rule: evenodd;
      }
    </style>
  </defs>
  <path id="Фигура_6" data-name="Фигура 6" class="cls-1" d="M1626.82,41.728a10.982,10.982,0,0,0,0-15.457c-0.01-.017-0.03-0.034-0.04-0.049s-0.03-.027-0.05-0.04a10.978,10.978,0,0,0-15.46,0c-0.02.012-.03,0.024-0.05,0.039a0.189,0.189,0,0,1-.04.047,10.986,10.986,0,0,0,0,15.461,0.192,0.192,0,0,1,.04.048c0.02,0.015.03,0.027,0.05,0.039a10.981,10.981,0,0,0,15.46,0,0.323,0.323,0,0,1,.05-0.042C1626.79,41.763,1626.81,41.745,1626.82,41.728Zm-0.38-.952L1619.66,34l6.78-6.776A10.043,10.043,0,0,1,1626.44,40.776Zm-0.66-14.213L1619,33.339l-6.78-6.776A10.058,10.058,0,0,1,1625.78,26.563Zm-14.22.661L1618.34,34l-6.78,6.776A10.043,10.043,0,0,1,1611.56,27.224Zm0.66,14.212,6.78-6.776,6.78,6.776A10.057,10.057,0,0,1,1612.22,41.437Z" transform="translate(-1608 -23)"/>
</svg>
