<?xml version="1.0" encoding="utf-8"?>
<!-- Generator: Adobe Illustrator 23.0.1, SVG Export Plug-In . SVG Version: 6.00 Build 0)  -->
<svg version="1.1" id="Layer_1" xmlns="http://www.w3.org/2000/svg" xmlns:xlink="http://www.w3.org/1999/xlink" x="0px" y="0px"
	 viewBox="0 0 22 22" style="enable-background:new 0 0 22 22;" xml:space="preserve">
<style type="text/css">
	.st0{fill-rule:evenodd;clip-rule:evenodd;fill:#FFFFFF;}
</style>
<path id="Фигура_6" class="st0" d="M18.82,18.73c4.24-4.28,4.24-11.18,0-15.46c-0.01-0.02-0.03-0.03-0.04-0.05
	s-0.03-0.03-0.05-0.04c-4.28-4.24-11.18-4.24-15.46,0C3.25,3.19,3.24,3.21,3.22,3.22C3.21,3.24,3.2,3.25,3.18,3.27
	c-4.24,4.28-4.24,11.18,0,15.46c0.02,0.01,0.03,0.03,0.04,0.05c0.02,0.01,0.03,0.03,0.05,0.04c4.28,4.24,11.18,4.24,15.46,0
	c0.02-0.02,0.03-0.03,0.05-0.04C18.79,18.76,18.81,18.74,18.82,18.73z M18.44,17.78L11.66,11l6.78-6.78
	C21.95,8.06,21.95,13.94,18.44,17.78z M17.78,3.56L11,10.34L4.22,3.56C8.06,0.06,13.94,0.06,17.78,3.56L17.78,3.56z M3.56,4.22
	L10.34,11l-6.78,6.78C0.05,13.94,0.05,8.06,3.56,4.22L3.56,4.22z M4.22,18.44L11,11.66l6.78,6.78C13.94,21.94,8.06,21.94,4.22,18.44
	L4.22,18.44z"/>
</svg>
