<?xml version="1.0" encoding="utf-8"?>
<!-- Generator: Adobe Illustrator 23.0.1, SVG Export Plug-In . SVG Version: 6.00 Build 0)  -->
<svg version="1.1" id="Layer_1" xmlns="http://www.w3.org/2000/svg" xmlns:xlink="http://www.w3.org/1999/xlink" x="0px" y="0px"
	 viewBox="0 0 94.1 94.1" style="enable-background:new 0 0 94.1 94.1;" xml:space="preserve">
<style type="text/css">
	.st0{fill:#101B51;}
</style>
<path id="Layer_2_1_" class="st0" d="M93.6,90.7l-23-23c15.1-16.6,13.8-42.3-2.8-57.3S25.4-3.4,10.4,13.2s-13.8,42.3,2.8,57.3
	c15.5,14,39,14,54.5,0l23,23c0.7,0.8,2,0.9,2.8,0.1S94.4,91.6,93.6,90.7C93.6,90.8,93.6,90.8,93.6,90.7L93.6,90.7z M4,40.5
	C4,20.4,20.4,4,40.5,4S77,20.4,77,40.5S60.7,77.1,40.5,77.1C20.4,77.1,4,60.7,4,40.5z"/>
</svg>
