<?xml version="1.0" encoding="utf-8"?>
<!-- Generator: Adobe Illustrator 25.3.1, SVG Export Plug-In . SVG Version: 6.00 Build 0)  -->
<svg version="1.1" id="Layer_1" xmlns="http://www.w3.org/2000/svg" xmlns:xlink="http://www.w3.org/1999/xlink" x="0px" y="0px"
	 viewBox="0 0 298.6 313" style="enable-background:new 0 0 298.6 313;" xml:space="preserve">
<style type="text/css">
	.st0{fill:#0F1D5B;}
</style>
<g id="Layer_2_1_">
	<g id="Layer_1-2">
		<path class="st0" d="M278,140.2l-2.1-1c15.8-16.4,15.4-42.4-1-58.3c-16.4-15.8-42.4-15.4-58.3,1c-13.8,14.2-15.5,36.2-4.1,52.4
			c-5.1,3.5-8.1,9.2-8.1,15.4v81.2l-42.3-95.1v-31.4c-0.1-18-12-33.8-29.3-38.8c13.5-18.3,9.5-44.1-8.8-57.6s-44.1-9.5-57.6,8.8
			c-10.6,14.5-10.6,34.2,0,48.8c-17.3,5-29.2,20.8-29.3,38.8v1.8c-13.5-1.1-25.4,8.9-26.5,22.4c-0.9,11.1,5.7,21.4,16.2,25.1
			c0.2,7.1,4.1,13.6,10.3,17.1v92.4l-11.3,0.7c-6.7,0.2-13.1,2.8-18.1,7.3C2.9,275.6,0,281.8,0,288.4C0,301.9,12.2,313,27.2,313H243
			c7.6,0,15-2.2,21.3-6.5c0.3,0.4,0.6,0.7,1,1c3.6,3.5,8.5,5.4,13.5,5.5l0,0c5.1,0,10-2.1,13.6-5.8c3.9-3.9,6.1-9.1,6.1-14.6v-120
			C298.6,158.8,290.6,146.1,278,140.2z M246.3,81.4c16.1,0,29.2,13.1,29.2,29.2c0,8.4-3.6,16.4-9.9,21.9c-1.3,1.1-2.6,2.1-4,2.9
			c-4.6,2.8-9.9,4.3-15.3,4.3c-7.1,0-13.9-2.6-19.3-7.3c-12.1-10.6-13.3-29-2.7-41.2C229.8,85,237.8,81.4,246.3,81.4L246.3,81.4z
			 M99.6,12c16.1,0,29.2,13.1,29.2,29.2c0,9.1-4.2,17.7-11.5,23.2c-5.1,3.9-11.3,6-17.7,6c-0.8,0-1.6,0-2.4-0.1s-1.8-0.2-2.6-0.3
			c-4.6-0.8-9-2.7-12.7-5.6l0,0c-12.8-9.8-15.3-28.1-5.5-40.9C81.9,16.2,90.5,12,99.6,12z M71.8,76.6l5.2-1.1l0.2,0.1
			c0.7,0.5,1.5,0.9,2.2,1.4l0.4,0.2c0.8,0.4,1.5,0.8,2.3,1.2l0.3,0.2c0.8,0.4,1.7,0.7,2.5,1.1H85c0.8,0.3,1.7,0.6,2.6,0.9l0.3,0.1
			c0.8,0.2,1.7,0.5,2.6,0.7l0.4,0.1c0.8,0.2,1.7,0.3,2.6,0.5l0.5,0.1c0.9,0.1,1.8,0.2,2.6,0.3h0.3c0.9,0.1,1.9,0.1,2.8,0.1
			s1.9,0,2.8-0.1h0.3c0.9-0.1,1.8-0.2,2.7-0.3l0.4-0.1c0.9-0.1,1.7-0.3,2.6-0.5l0.4-0.1c0.9-0.2,1.7-0.4,2.6-0.7l0.3-0.1
			c0.9-0.3,1.7-0.6,2.6-0.9l0,0c0.9-0.3,1.7-0.7,2.5-1.1l0.3-0.1c0.8-0.4,1.6-0.8,2.3-1.2L120,77c0.8-0.4,1.5-0.9,2.2-1.4l0.2-0.1
			l5.2,1.1c13.1,2.7,22.6,14.3,22.6,27.7v25.3l-101-21.2v-4.2C49.2,90.9,58.6,79.4,71.8,76.6z M102.3,167.8c0.9-3.6,4.2-6.1,7.9-6.1
			c0.7,0,1.4,0.1,2.1,0.3l19.4,5.1c4.4,1.3,6.8,5.9,5.6,10.2c-1.2,4.2-5.5,6.7-9.7,5.7l-19.4-5.1
			C103.8,176.6,101.2,172.1,102.3,167.8z M74.4,160.4L74.4,160.4c-1.2,4.4-5.6,7-10,5.9L45,161.2c-4.4-1.3-6.8-5.9-5.6-10.2
			c1.2-4.2,5.5-6.7,9.7-5.7l19.4,5.1C73,151.5,75.6,156,74.4,160.4L74.4,160.4z M49.2,208.7v-34l12.2,3.2c1.7,0.4,3.4,0.7,5.2,0.7
			c7,0,13.4-3.7,17.1-9.6l6.4,1.7c0.4,8.8,6.5,16.4,15.1,18.7l19.4,5.1c10.9,2.6,21.8-4,24.4-14.9c2.6-10.6-3.7-21.3-14.1-24.3
			l-19.4-5.1c-8.5-2.2-17.4,1.3-22.2,8.6l-6.6-1.7c-0.5-8.7-6.5-16.2-15-18.4l-19.4-5.1c-8.4-2.2-17.3,1.2-22.1,8.5
			c-6.3-2.8-9.3-10.2-6.5-16.5c2.4-5.5,8.2-8.5,14.1-7.3l4.2,0.9H42l109.9,23l49.6,111.4l-44.6,2.6L143.2,207c-1-3.2-4.3-5-7.5-4
			c-3.1,0.9-4.9,4.1-4.1,7.2l12.9,46.8l-95.4,5.6V208.7z M286.6,292.6c0,2.3-1,4.5-2.6,6.1c-1.3,1.4-3.2,2.2-5.2,2.3l0,0
			c-2,0-3.9-0.8-5.3-2.1c-0.9-0.9-1.6-2-2-3.2c-0.2-0.6-0.3-1.3-0.4-2l-3.6-70.1l0,0l-1.3-25.7c-0.2-3.3-3-5.9-6.3-5.7
			c-3.3,0.2-5.9,3-5.7,6.3l1.3,25.7l0,0l3.6,70.1c0,0.4,0,0.7,0.1,1.1c-4.6,3.6-10.4,5.6-16.3,5.6H27.2c-8.4,0-15.2-5.7-15.2-12.6
			c0.1-3.2,1.5-6.2,3.9-8.4c2.9-2.6,6.7-4.1,10.6-4.2l184.3-10.7h0.2h0.1l0.5-0.1h0.1l0.6-0.1l0,0c1.1-0.4,2.2-1.1,2.9-2
			c0,0,0,0,0-0.1c0.1-0.1,0.2-0.3,0.3-0.4l0.1-0.1l0.2-0.4c0,0,0-0.1,0-0.1c0.1-0.1,0.1-0.3,0.2-0.4c0,0,0-0.1,0-0.1
			c0.1-0.1,0.1-0.3,0.1-0.4c0-0.1,0-0.1,0.1-0.2c0-0.1,0.1-0.2,0.1-0.4s0-0.2,0.1-0.3v-0.2c0-0.1,0-0.3,0-0.4V149.6
			c0-2.9,1.9-5.5,4.8-6.3l0.4,0.3l0.6,0.5l0.8,0.6l0.6,0.4c0.3,0.2,0.6,0.4,0.9,0.6l0.6,0.4c0.3,0.2,0.7,0.4,1,0.6l0.6,0.3
			c0.4,0.2,0.9,0.4,1.3,0.7l0.2,0.1c0.5,0.3,1.1,0.5,1.6,0.7l0.5,0.2l1.1,0.4c0.2,0.1,0.4,0.2,0.6,0.2l1,0.4l0.7,0.2l1,0.3l0.7,0.2
			l1,0.2l0.8,0.2l1,0.2l0.8,0.1l1,0.2l0.7,0.1l1.1,0.1l0.7,0.1l1.2,0.1h0.6c0.6,0,1.2,0,1.8,0c4.5,0,8.9-0.7,13.1-2.2h0.1
			c0.6-0.2,1.2-0.4,1.8-0.7l0.4-0.2c0.6-0.2,1.3-0.5,1.9-0.8l0.2-0.1l1.1-0.5l8,3.8c8.4,3.9,13.7,12.3,13.7,21.6L286.6,292.6z"/>
	</g>
</g>
</svg>
