<?xml version="1.0" encoding="utf-8"?>
<!-- Generator: Adobe Illustrator 23.0.1, SVG Export Plug-In . SVG Version: 6.00 Build 0)  -->
<svg version="1.1" id="Layer_1" xmlns="http://www.w3.org/2000/svg" xmlns:xlink="http://www.w3.org/1999/xlink" x="0px" y="0px"
	 viewBox="0 0 213.82 141.94" style="enable-background:new 0 0 213.82 141.94;" xml:space="preserve">
<style type="text/css">
	.st0{fill:#231F20;}
	.st1{fill:#EBEBEC;}
	.st2{fill:#FFFFFF;}
	.st3{fill:none;stroke:#000000;stroke-width:4;stroke-linecap:round;stroke-miterlimit:10;}
	.st4{fill:#F37A7B;}
	.st5{fill:none;stroke:#000000;stroke-width:5;stroke-linecap:round;stroke-miterlimit:10;}
	.st6{fill:none;}
</style>
<path d="M213.71,105.34c-0.05-0.7-0.37-1.34-0.9-1.8c-0.55-0.41-1.22-0.62-1.9-0.6c-4.14,0.62-8.08,2.19-11.5,4.6
	c1.7-10.05-5.06-19.57-15.1-21.28c-8.98-1.52-17.73,3.73-20.6,12.38c-3.37-2.36-7.39-3.62-11.5-3.6h-42.3l-11.8-32.3
	c-0.38-0.96-0.88-1.87-1.5-2.7l-1.41-17.7c-0.41-5.29-3.9-9.83-8.9-11.6l-5.8-2c6.22-7.41,5.28-18.45-2.1-24.7
	c-7.41-6.17-18.42-5.16-24.59,2.25c-5.64,6.78-5.34,16.7,0.7,23.13l-3.6,1.3c-5,1.77-8.49,6.31-8.9,11.6l-0.3,4.1l-1.1-0.2
	c-5.29-0.89-10.3,2.67-11.19,7.95c-0.77,4.52,1.73,8.96,5.99,10.65c-0.51,4.61,2.42,8.9,6.9,10.1l5.8,1.6
	c0.81,0.25,1.66,0.35,2.5,0.3c3.49,0.02,6.69-1.91,8.3-5l4.3,1.3c-0.14,4.37,2.7,8.28,6.9,9.5l5.8,1.6
	c5.05,1.44,10.31-1.5,11.75-6.55c1.44-5.05-1.5-10.31-6.55-11.75l-5.8-1.6c-4.03-1.1-8.3,0.51-10.6,4l-4.6-1.4
	c-0.2-4.08-2.97-7.58-6.9-8.7l-5.8-1.6c-3.8-1.1-7.89,0.3-10.21,3.52c-1.17-0.39-2.13-1.21-2.7-2.3c-1.17-2.3-0.25-5.11,2.05-6.28
	c0.02-0.01,0.03-0.02,0.05-0.02c0.92-0.48,1.98-0.62,3-0.4l49.6,9.9c1.88,0.39,3.42,1.71,4.1,3.5l12.4,33.8
	c0.36,0.96,1.28,1.6,2.3,1.6h44c3.94,0.02,7.72,1.6,10.5,4.4v0.1c0,7.62,4.69,14.46,11.8,17.2l-4,6.6c-2.33,3.79-6.45,6.1-10.9,6.1
	h-53.3c-2.27,0-4.11-1.84-4.1-4.11c0-2.11,1.6-3.88,3.71-4.09l48.4-2.3c1.38-0.05,2.46-1.22,2.4-2.6c-0.05-1.38-1.22-2.46-2.6-2.4
	l-48.4,2.3c-4.04,0.28-7.4,3.23-8.2,7.2h-87c-2.81,0.01-5.09-2.25-5.1-5.06c0-0.05,0-0.1,0-0.14c0.02-2.73,2.17-4.97,4.9-5.1
	l91.7-4.6c1.38-0.05,2.46-1.22,2.4-2.6c-0.06-1.38-1.22-2.46-2.6-2.4l-10.6,0.5l-5.3-19.2c-0.39-1.33-1.77-2.09-3.1-1.7
	c-1.33,0.39-2.09,1.77-1.7,3.1l5.1,18.1l-34.3,1.7V84.42c0-1.38-1.12-2.5-2.5-2.5c-1.38,0-2.5,1.12-2.5,2.5v26.8l-36.8,1.9
	c-5.6,0.14-10.04,4.79-9.9,10.4c0.14,5.61,4.79,10.04,10.4,9.9h87.4c1.31,3.62,4.75,6.02,8.6,6h53.3c6.2-0.01,11.95-3.22,15.2-8.5
	l4.9-8c0.5,0,1,0.1,1.5,0.1c1.11,0,2.21-0.1,3.3-0.3c-0.58,0.86-1.08,1.76-1.5,2.7c-0.7,1.21-0.28,2.76,0.93,3.46
	c1.21,0.7,2.76,0.28,3.45-0.93c0.04-0.07,0.08-0.15,0.11-0.22c4.2-8.4,13.7-16.7,21.4-19.1c0,6.3-0.5,17.1-3.6,21.5
	c-4.3,6-8.2,6.9-16,6.9c-3.82,0.1-7.64-0.2-11.4-0.9c-1.33-0.33-2.67,0.47-3,1.8c-0.33,1.33,0.47,2.67,1.8,3
	c4.15,0.78,8.38,1.11,12.6,1c9,0,14.6-1.4,20-9.1C214.61,125.42,213.81,107.34,213.71,105.34 M72.81,69.04
	c0.41,0.02,0.81,0.09,1.2,0.2l5.8,1.6c2.37,0.66,3.76,3.12,3.1,5.49c0,0,0,0.01,0,0.01c-0.7,2.34-3.13,3.71-5.5,3.1l-5.8-1.6
	c-2.26-0.63-3.66-2.9-3.2-5.2c0.1-0.2,0.1-0.3,0.2-0.5c0.08-0.15,0.12-0.33,0.1-0.5C69.44,70.03,71.05,69.01,72.81,69.04
	 M42.61,61.84c1.04-0.58,2.26-0.72,3.4-0.4l5.8,1.6c2.37,0.66,3.76,3.12,3.1,5.49c0,0,0,0.01,0,0.01c-0.7,2.34-3.13,3.71-5.5,3.1
	l-5.8-1.6c-2.37-0.66-3.76-3.12-3.1-5.49c0,0,0,0,0-0.01C40.82,63.39,41.58,62.42,42.61,61.84 M67.2,4.94
	c6.9,0,12.5,5.59,12.51,12.49c0.01,6.9-5.59,12.51-12.49,12.51c-6.9,0.01-12.5-5.59-12.51-12.49v-0.03
	C54.72,10.53,60.31,4.95,67.2,4.94 M46.7,47.34l0.3-4.7c0.26-3.27,2.41-6.09,5.5-7.2l6.8-2.4c5.37,2.71,11.75,2.47,16.9-0.62l8.5,3
	c3.07,1.14,5.21,3.94,5.5,7.2l1,13.7l-1-0.3L46.7,47.34z M167.7,104.44c0.23-0.54,0.27-1.14,0.1-1.7c0.91-7.37,7.63-12.61,15-11.7
	c7.37,0.91,12.61,7.63,11.7,15c-0.91,7.37-7.63,12.61-15,11.7c-6.77-0.75-11.87-6.51-11.79-13.32L167.7,104.44z"/>
<rect x="-751.05" y="-2202.56" class="st6" width="3000" height="3000"/>
</svg>
