<svg xmlns="http://www.w3.org/2000/svg" width="124.127" height="120" viewBox="0 0 124.127 120">
  <g id="Layer_2" data-name="Layer 2" transform="translate(0.005 0.01)">
    <g id="Layer_1" data-name="Layer 1" transform="translate(-0.005 -0.01)">
      <path id="Path_19" data-name="Path 19" d="M100.676,37.185H75.852A7.3,7.3,0,0,0,72.418,35.3,15.742,15.742,0,0,0,60.834,10a2.069,2.069,0,0,0-2.172,1.882h0a2.069,2.069,0,0,0,1.945,2.172,11.458,11.458,0,0,1,8.957,17.728V28.911a2.069,2.069,0,0,0-4.137,0V47.528a16.549,16.549,0,1,1-33.1,0V30.752a16.776,16.776,0,0,0,9.991-4.861l.414-.414a23.044,23.044,0,0,0,15,5.5H59.3a2.069,2.069,0,0,0,0-4.137H57.731a18.928,18.928,0,0,1-13.508-5.585,2.069,2.069,0,0,0-2.937,0l-1.8,1.82a12.825,12.825,0,0,1-9.143,3.765,2.069,2.069,0,0,0-2.069,2.069A14.873,14.873,0,0,1,33.012,9.88l3.972-2.834a18.349,18.349,0,0,0,13.156,6.7l2.441.124a2.072,2.072,0,1,0,.248-4.137l-2.462-.124A14.211,14.211,0,0,1,39.2,3.053,1.942,1.942,0,0,0,36.28,2.37L30.633,6.322a19.217,19.217,0,0,0-7.675,19.714A18.907,18.907,0,0,0,27.7,35.117H27.24a7.24,7.24,0,1,0,0,14.48h1.138a20.686,20.686,0,0,0,10.24,15.721v4.965a2.069,2.069,0,0,0,.6,1.469l7.675,7.571V90.969a2.069,2.069,0,0,0,4.137,0V79.323L58.7,71.648a2.069,2.069,0,0,0,.6-1.365V68.214h4.137a14.48,14.48,0,0,1,14.48,14.48V88.9H67.578a2.069,2.069,0,0,0-2.069,2.069v14.48H59.3a2.069,2.069,0,1,0,0,4.137h41.372a2.069,2.069,0,0,0,0-4.137H69.647V93.037h8.274v6.206a2.069,2.069,0,1,0,4.137,0V82.694a18.473,18.473,0,0,0-4.137-11.667V41.322H98.607v6.206a2.069,2.069,0,1,0,4.137,0V39.254A2.069,2.069,0,0,0,100.676,37.185Zm-72.4,8.274H27.24a3.1,3.1,0,1,1,0-6.206h1.034ZM55.166,69.331,48.96,75.537l-6.206-6.206V67.263a20.5,20.5,0,0,0,12.412,0Zm18.617-2.193a18.472,18.472,0,0,0-10.343-3.062H61.372A20.686,20.686,0,0,0,69.647,49.6h1.138a7.033,7.033,0,0,0,3-.827Zm-3.1-21.679H69.647V39.254h1.034a3.1,3.1,0,0,1,0,6.206Z" transform="translate(21.383 2.139)" fill="#0f1d5b"/>
      <path id="Path_20" data-name="Path 20" d="M67.292,27a2.069,2.069,0,0,0-2.069,2.069v14.48H53.309a2.069,2.069,0,0,0,0,4.137H67.292a2.069,2.069,0,0,0,2.069-2.069V29.069A2.069,2.069,0,0,0,67.292,27Z" transform="translate(54.766 28.873)" fill="#0f1d5b"/>
      <path id="Path_21" data-name="Path 21" d="M37.989,23.661h0a2.069,2.069,0,0,0-.559-2.875h0a7.654,7.654,0,0,0-8.5,0,2.074,2.074,0,1,0,2.3,3.455,3.455,3.455,0,0,1,3.91,0A2.069,2.069,0,0,0,37.989,23.661Z" transform="translate(29.934 20.855)" fill="#0f1d5b"/>
      <path id="Path_22" data-name="Path 22" d="M42.134,24.24a2.074,2.074,0,1,0,2.3-3.455,7.654,7.654,0,0,0-8.5,0,2.074,2.074,0,1,0,2.3,3.455,3.455,3.455,0,0,1,3.91,0Z" transform="translate(37.414 20.855)" fill="#0f1d5b"/>
      <path id="Path_23" data-name="Path 23" d="M37.215,36.412a6.764,6.764,0,0,0,6.206-7.24C43.421,24,38.911,24,37.215,24s-6.206,0-6.206,5.172a6.785,6.785,0,0,0,6.206,7.24ZM35.27,28.385a4.451,4.451,0,0,1,1.944-.248c1.531,0,1.862.165,1.944.248a1.469,1.469,0,0,1,.124.786c0,1.655-.972,3.1-2.069,3.1s-2.069-1.448-2.069-3.1a1.7,1.7,0,0,1,.124-.889Z" transform="translate(33.129 25.667)" fill="#0f1d5b"/>
      <path id="Path_24" data-name="Path 24" d="M122.048,56H2.069a2.069,2.069,0,1,0,0,4.137H122.048a2.069,2.069,0,1,0,0-4.137Z" transform="translate(0.011 59.863)" fill="#0f1d5b"/>
      <path id="Path_25" data-name="Path 25" d="M0,83.99a2.069,2.069,0,0,0,2.069,2.069H72.4a2.069,2.069,0,0,0,0-4.137H45.178l-3.806-5.813v-6.6h8.274v6.206a2.069,2.069,0,1,0,4.137,0V67.441a2.069,2.069,0,0,0-2.069-2.069H41.372V59.166A14.48,14.48,0,0,1,52.067,45.2a2.069,2.069,0,1,0-.972-4.013h-.1A18.617,18.617,0,0,0,37.235,59.166V70.006L33.7,64.71A12.412,12.412,0,0,0,30.553,57.1h.476a6.206,6.206,0,0,0,6.206-6.206V38.48a6.206,6.206,0,0,0-6.206-6.206,2.069,2.069,0,0,1-2.069-2.069A6.206,6.206,0,0,0,22.755,24H14.48a6.206,6.206,0,0,0-6.206,6.206,2.069,2.069,0,0,1-2.069,2.069A6.206,6.206,0,0,0,0,38.48v4.137a2.069,2.069,0,0,0,4.137,0V38.48a2.069,2.069,0,0,1,2.069-2.069,6.206,6.206,0,0,0,6.206-6.206,2.069,2.069,0,0,1,2.069-2.069h8.274a2.069,2.069,0,0,1,2.069,2.069,6.206,6.206,0,0,0,6.206,6.206A2.069,2.069,0,0,1,33.1,38.48V50.892a2.069,2.069,0,0,1-2.069,2.069H6.206a2.069,2.069,0,0,1-2.069-2.069,2.069,2.069,0,0,0-4.137,0,6.206,6.206,0,0,0,2.338,4.82A5.937,5.937,0,0,0,4.572,58.9l9.267,6.475a9.889,9.889,0,0,0,4.137,1.738l8.109,14.811H2.069A2.069,2.069,0,0,0,0,83.99ZM16.239,62.062,9.164,57.1H21.327A8.274,8.274,0,0,1,29.333,63.3H19.838a6.206,6.206,0,0,1-3.6-1.241Zm6.516,5.378h7.778l9.66,14.48H30.822Z" transform="translate(0.011 25.667)" fill="#0f1d5b"/>
      <path id="Path_26" data-name="Path 26" d="M21.549,37.274a8.274,8.274,0,1,0-8.274,8.274A8.274,8.274,0,0,0,21.549,37.274Zm-12.412,0a4.137,4.137,0,1,1,4.137,4.137A4.137,4.137,0,0,1,9.137,37.274Z" transform="translate(5.354 31.01)" fill="#0f1d5b"/>
      <path id="Path_27" data-name="Path 27" d="M58.206,27.137a2.069,2.069,0,0,0,0-4.137H54.069a2.069,2.069,0,1,0,0,4.137Z" transform="translate(55.578 24.599)" fill="#0f1d5b"/>
      <path id="Path_28" data-name="Path 28" d="M50,29.069a2.069,2.069,0,0,0,2.069,2.069h8.274a2.069,2.069,0,1,0,0-4.137H52.069A2.069,2.069,0,0,0,50,29.069Z" transform="translate(53.441 28.873)" fill="#0f1d5b"/>
      <path id="Path_29" data-name="Path 29" d="M52.069,35.137h8.274a2.069,2.069,0,1,0,0-4.137H52.069a2.069,2.069,0,1,0,0,4.137Z" transform="translate(53.441 33.148)" fill="#0f1d5b"/>
      <path id="Path_30" data-name="Path 30" d="M4,23.729l-.807,4.613a2.071,2.071,0,0,0,3,2.193l4.137-2.193,4.137,2.193a2.185,2.185,0,0,0,3.02-2.193L16.7,23.729l3.372-3.268a2.069,2.069,0,0,0-1.138-3.537l-4.654-.683L12.21,12.1a2.146,2.146,0,0,0-3.7,0L6.439,16.241l-4.654.683A2.069,2.069,0,0,0,.626,20.461Zm4.137-3.537a2.069,2.069,0,0,0,1.551-1.138l.662-1.427.7,1.427A2.069,2.069,0,0,0,12.6,20.192l1.572.228-1.138,1.1a2.069,2.069,0,0,0-.621,1.882l.269,1.551-1.407-.724a2.069,2.069,0,0,0-1.924,0l-1.407.724L8.28,23.4a2.069,2.069,0,0,0-.6-1.841L6.542,20.44Z" transform="translate(0.005 11.789)" fill="#0f1d5b"/>
      <path id="Path_31" data-name="Path 31" d="M12.789,16.934a2.069,2.069,0,0,0-1.779,2.338,2.234,2.234,0,0,0,.6,1.179l3.372,3.268-.807,4.613a2.071,2.071,0,0,0,3,2.193l4.137-2.193,4.137,2.193a2.185,2.185,0,0,0,3.02-2.193l-.786-4.613,3.351-3.268A2.069,2.069,0,0,0,29.9,16.914l-4.654-.683-2.069-4.137a2.146,2.146,0,0,0-3.7,0L17.4,16.231ZM19.1,20.2a2.069,2.069,0,0,0,1.551-1.138l.7-1.427.7,1.427A2.069,2.069,0,0,0,23.608,20.2l1.572.228-1.138,1.1a2.069,2.069,0,0,0-.621,1.882l.269,1.551-1.407-.724a2.069,2.069,0,0,0-1.924,0l-1.407.724.331-1.551a2.069,2.069,0,0,0-.6-1.841l-1.138-1.1Z" transform="translate(11.755 11.778)" fill="#0f1d5b"/>
      <path id="Path_32" data-name="Path 32" d="M9.028,12.753l-.807,4.613a2.083,2.083,0,0,0,3.02,2.193l4.137-2.193,4.137,2.193a2.185,2.185,0,0,0,3.02-2.193l-.786-4.613L25.1,9.485a2.069,2.069,0,0,0-1.138-3.537l-4.654-.683L17.241,1.128A2.069,2.069,0,0,0,14.3.3a2.069,2.069,0,0,0-.765.765L11.469,5.2l-4.654.683a2.069,2.069,0,0,0-1.158,3.6Zm4.137-3.537a2.069,2.069,0,0,0,1.551-1.138l.662-1.427.7,1.427a2.069,2.069,0,0,0,1.551,1.138l1.572.228-1.138,1.1a2.069,2.069,0,0,0-.621,1.882l.269,1.551L16.31,13.25a2.069,2.069,0,0,0-1.924,0l-1.407.724.331-1.551a2.069,2.069,0,0,0-.6-1.841L11.573,9.464Z" transform="translate(5.318 0.01)" fill="#0f1d5b"/>
    </g>
  </g>
</svg>
