<?xml version="1.0" encoding="utf-8"?>
<!-- Generator: Adobe Illustrator 25.4.1, SVG Export Plug-In . SVG Version: 6.00 Build 0)  -->
<svg version="1.1" id="Layer_1" xmlns="http://www.w3.org/2000/svg" xmlns:xlink="http://www.w3.org/1999/xlink" x="0px" y="0px"
	 viewBox="0 0 312 282" style="enable-background:new 0 0 312 282;" xml:space="preserve">
<style type="text/css">
	.st0{fill:#E0A960;}
</style>
<g id="Layer_2_1_">
	<g id="Layer_1-2">
		<path class="st0" d="M112.2,200l-29.7-10.1l29.1-86l29.7,10.1c3.1,1.1,6.5-0.6,7.6-3.8l9.7-28.6c1.1-3.1-0.6-6.5-3.8-7.6l0,0
			l-5.7-1.9l7.8-22.9c1.1-3.1-0.6-6.5-3.8-7.6l-18.3-6.2l6.6-19.4c1.1-3.1-0.6-6.5-3.8-7.6l0,0l-23.8-8.1c-3.1-1.1-6.5,0.6-7.6,3.8
			l-6.6,19.5l-18.3-6.2c-3.1-1.1-6.5,0.6-7.6,3.8l0,0L66,44l-5.7-2c-3.1-1.1-6.5,0.6-7.6,3.8L43,74.4c-1.1,3.1,0.6,6.5,3.7,7.6l0,0
			l29.7,10l-29.1,86l-29.7-10c-3.1-1.1-6.5,0.6-7.6,3.7l-9.7,28.6c-1.1,3.1,0.6,6.5,3.8,7.6l5.7,2l-7.7,22.8
			c-1.1,3.1,0.6,6.5,3.8,7.6l18.3,6.2L17.5,266c-1.1,3.1,0.6,6.5,3.8,7.6l0,0l23.8,8.1c0.6,0.2,1.3,0.3,1.9,0.3
			c2.6,0,4.9-1.6,5.7-4.1l6.6-19.5l18.3,6.2c0.6,0.2,1.3,0.3,1.9,0.3c2.6,0,4.9-1.6,5.7-4.1l7.8-22.9l5.7,1.9
			c1.5,0.5,3.2,0.4,4.6-0.3s2.5-2,3-3.5l9.8-28.6C117.1,204.5,115.4,201.1,112.2,200L112.2,200z M43.2,268.4l-12.5-4.2l4.7-13.8
			l6.2,2.1l6.2,2.1L43.2,268.4z M75.7,251.4l-30.2-10.3l-11.9-4l0,0l-18.3-6.2l5.8-17.2l60.4,20.5L75.7,251.4z M115.7,13.6l12.4,4.2
			l-4.7,13.8L111,27.4L115.7,13.6z M83.2,30.6l27.5,9.3l14.6,5l0,0l18.3,6.2l-5.8,17.2L107.6,58L77.4,47.8L83.2,30.6z M62.1,55.3
			l83.2,28.2l-5.8,17.2L56.3,72.5L62.1,55.3z M87.8,95.9l8.7,3l3.8,1.3l-29.1,86l-3.8-1.3l-8.7-2.9L87.8,95.9z M96.8,226.6
			l-83.2-28.2l5.8-17.2l83.2,28.2L96.8,226.6z"/>
		<path class="st0" d="M286,217.8c-3.2-0.8-6.5,1.2-7.3,4.4l0,0c-0.6,2.4-1.3,4.8-2.2,7.1c-1.2,3.1,0.3,6.6,3.4,7.8
			c0.7,0.3,1.4,0.4,2.2,0.4c2.5,0,4.7-1.5,5.6-3.8c1.1-2.8,2-5.7,2.7-8.6C291.2,221.9,289.2,218.6,286,217.8L286,217.8z"/>
		<path class="st0" d="M278.2,192.4c1.2,4.3,1.9,8.7,2.2,13.2c0.1,3.2,2.8,5.7,6,5.7h0.3c3.3-0.2,5.9-3,5.7-6.3l0,0
			c-0.3-5.4-1.1-10.7-2.6-15.9c-0.9-3.2-4.2-5.1-7.4-4.2S277.3,189.2,278.2,192.4L278.2,192.4L278.2,192.4z"/>
		<path class="st0" d="M258.3,148.2c-2.9-1.6-6.5-0.6-8.2,2.3c-1.6,2.8-0.7,6.3,2,8c8.1,4.9,14.9,11.6,19.8,19.7
			c1.1,1.8,3,2.9,5.1,2.9c1.1,0,2.2-0.3,3.1-0.9c2.8-1.7,3.7-5.4,2-8.2C276.2,162.2,268.1,154.1,258.3,148.2z"/>
		<path class="st0" d="M251.9,128v-25.2c0-3.3-2.7-6-6-6h-47.2c-3.3,0-6,2.7-6,6v25.3c0,3.3,2.7,6,6,6c0.6,0,1.2-0.1,1.7-0.2
			c7.1-2.1,14.5-3.2,21.9-3.1c7.4,0,14.8,1.1,21.9,3.1c3.2,0.9,6.5-0.9,7.4-4.1C251.8,129.2,251.9,128.6,251.9,128z M239.9,120.4
			c-11.6-2.3-23.6-2.3-35.2,0v-11.6h35.2V120.4z"/>
		<path class="st0" d="M277.2,137.5V92.2c0-12.5-10.1-22.6-22.6-22.6H190c-12.5,0-22.6,10.1-22.6,22.6v45.3
			c-39.2,30.3-46.4,86.6-16.1,125.8c5.2,6.7,11.3,12.6,18.1,17.6c1.1,0.8,2.3,1.2,3.6,1.2h98.7c1.3,0,2.5-0.4,3.5-1.2
			c40-29.2,48.8-85.3,19.6-125.3C289.8,148.7,283.9,142.6,277.2,137.5L277.2,137.5z M269.6,270H175c-34-26.1-40.4-74.9-14.3-108.9
			c4.6-6,10.1-11.3,16.2-15.8c1.6-1.1,2.5-2.9,2.5-4.9V92.2c0-5.8,4.7-10.6,10.6-10.6h64.6c5.9,0,10.6,4.8,10.6,10.6v48.3
			c0,1.9,0.9,3.7,2.5,4.9c34.8,25.1,42.7,73.6,17.7,108.4C280.9,259.9,275.6,265.4,269.6,270z"/>
	</g>
</g>
</svg>
