<?xml version="1.0" encoding="utf-8"?>
<!-- Generator: Adobe Illustrator 23.0.1, SVG Export Plug-In . SVG Version: 6.00 Build 0)  -->
<svg version="1.1" id="Layer_1" xmlns="http://www.w3.org/2000/svg" xmlns:xlink="http://www.w3.org/1999/xlink" x="0px" y="0px"
	 viewBox="0 0 165.94 127.58" style="enable-background:new 0 0 165.94 127.58;" xml:space="preserve">
<style type="text/css">
	.st0{fill:#231F20;}
	.st1{fill:#EBEBEC;}
	.st2{fill:#FFFFFF;}
	.st3{fill:none;stroke:#000000;stroke-width:4;stroke-linecap:round;stroke-miterlimit:10;}
	.st4{fill:#F37A7B;}
	.st5{fill:none;stroke:#000000;stroke-width:5;stroke-linecap:round;stroke-miterlimit:10;}
	.st6{fill:none;}
</style>
<g>
	<path d="M148.28,55.09V30.61c-0.01-5.93-4.82-10.73-10.75-10.74h-31.62c-5.93,0-10.74,4.81-10.74,10.74v24.48
		c-19.51,14.66-23.44,42.36-8.77,61.88c2.97,3.95,6.58,7.37,10.67,10.13c0.41,0.28,0.9,0.43,1.4,0.43H145c0.5,0,0.98-0.15,1.39-0.43
		c20.26-13.6,25.65-41.05,12.05-61.31c-2.76-4.11-6.19-7.72-10.14-10.69H148.28z M144.2,122.55h-45
		c-17.74-12.41-22.06-36.85-9.65-54.59c2.6-3.71,5.82-6.95,9.52-9.56c0.65-0.46,1.04-1.2,1.06-2V30.61c0-3.17,2.57-5.74,5.74-5.74
		h31.62c3.17,0.01,5.74,2.57,5.75,5.74v25.75c0,0.79,0.37,1.53,1,2c17.69,12.48,21.91,36.94,9.43,54.63
		c-2.61,3.7-5.85,6.92-9.56,9.52L144.2,122.55z"/>
	<path d="M133.52,52.92c1.37-0.02,2.48-1.13,2.5-2.5V36.6c0-1.38-1.12-2.5-2.5-2.5h-23.59c-1.38,0-2.5,1.12-2.5,2.5v13.82
		c0,1.38,1.12,2.5,2.5,2.5c0.24,0,0.47-0.04,0.7-0.1c7.24-2.13,14.94-2.13,22.18,0C133.04,52.89,133.28,52.92,133.52,52.92
		 M131,47.2c-6.13-1.31-12.46-1.31-18.59,0v-8.1H131V47.2z"/>
	<path d="M154.64,93.46c-1.35-0.23-2.63,0.66-2.88,2c-0.19,1.12-0.44,2.22-0.75,3.31c-0.38,1.33,0.39,2.71,1.72,3.09h0
		c0.22,0.07,0.46,0.1,0.69,0.1c1.11-0.01,2.09-0.75,2.4-1.82c0.36-1.27,0.65-2.55,0.87-3.85C156.89,94.94,155.98,93.68,154.64,93.46
		"/>
	<path d="M154.63,91.01h0.14c1.38-0.08,2.43-1.26,2.36-2.64c-0.18-3.08-0.76-6.13-1.72-9.07c-0.43-1.31-1.85-2.02-3.16-1.59
		c-1.31,0.43-2.02,1.85-1.59,3.16c0.83,2.52,1.32,5.14,1.47,7.79C152.21,89.98,153.3,91.01,154.63,91.01"/>
	<path d="M152.29,72.44c-4.34-7.37-11.19-12.93-19.29-15.66c-1.29-0.49-2.73,0.17-3.22,1.46c-0.49,1.29,0.17,2.73,1.46,3.22
		c0,0,0,0,0,0l0.18,0.06c6.97,2.35,12.86,7.14,16.58,13.49c0.45,0.76,1.27,1.23,2.16,1.23c0.44,0,0.88-0.12,1.27-0.34
		c1.19-0.71,1.58-2.24,0.88-3.43L152.29,72.44z"/>
	<path d="M62.45,92.4l-16.33-9l15.46-28.1l16.33,9c0.58,0.32,1.26,0.39,1.9,0.21c0.64-0.19,1.17-0.63,1.49-1.21l8.56-15.6
		c0.66-1.21,0.21-2.74-1-3.4l-3.74-2l5.4-9.85c0.66-1.21,0.21-2.74-1-3.4L79.13,23.3L86,10.67c0.65-1.21,0.2-2.71-1-3.37l-12.64-7
		c-1.2-0.65-2.71-0.2-3.36,1l-6.9,12.57L51.9,8.3c-1.21-0.66-2.73-0.22-3.39,0.99c0,0,0,0.01-0.01,0.01l-5.4,9.85l-3.75-2.06
		c-1.18-0.66-2.66-0.23-3.32,0.94c-0.01,0.02-0.02,0.04-0.03,0.06l-8.6,15.58c-0.66,1.21-0.21,2.72,1,3.38l0,0l16.1,8.85
		L29.05,74.07l-16.12-8.84c-0.58-0.34-1.28-0.42-1.93-0.22c-0.64,0.18-1.17,0.62-1.49,1.2L1,81.83c-0.66,1.21-0.21,2.72,1,3.38
		c0,0,0,0,0,0l3.75,2l-5.44,9.91c-0.66,1.21-0.22,2.72,0.98,3.38l0.02,0.01l10.18,5.58l-5.93,10.79c-0.65,1.22-0.21,2.73,1,3.4
		l12.69,7c1.21,0.66,2.72,0.21,3.38-0.99c0,0,0,0,0-0.01l5.92-10.78L39,121.2c1.21,0.66,2.73,0.21,3.39-1l5.4-9.85l3.75,2.06
		c0.37,0.2,0.78,0.31,1.2,0.31c0.24-0.01,0.47-0.04,0.7-0.1c0.63-0.19,1.17-0.62,1.49-1.2l8.56-15.61c0.66-1.2,0.22-2.72-0.98-3.38
		l-0.02-0.01L62.45,92.4z M72.15,5.91l8.31,4.55l-5.7,10.38l-8.3-4.54L72.15,5.91z M51.68,13.91l33.26,18.21l-4.2,7.66L47.48,21.53
		L51.68,13.91z M39.14,22.66l45.14,24.76l-6.16,11.23L33,33.88L39.14,22.66z M48.89,48.3l8.3,4.56L41.74,81.01l-8.31-4.55
		L48.89,48.3z M19.45,121.65l-8.3-4.55l4.71-8.59l8.31,4.55L19.45,121.65z M39.16,115.58L5.89,97.3l4.2-7.66l33.27,18.25
		L39.16,115.58z M51.7,106.8L6.56,82.01l6.16-11.22l45.14,24.79L51.7,106.8z"/>
</g>
<rect x="-1162.44" y="-2218.9" class="st6" width="3000" height="3000"/>
</svg>
