<svg xmlns="http://www.w3.org/2000/svg" width="55.022" height="55" viewBox="0 0 55.022 55"><g transform="translate(0 0)"><g transform="translate(0.059 -0.002)"><g transform="translate(-0.059 0.002)"><g transform="translate(0 0)"><path d="M53.951,19.576a4,4,0,0,0-2.423-1.3h0l-14.62-2.018L31.121,2.447a3.972,3.972,0,0,0-7.333,0L18.009,16.26,3.389,18.278a3.972,3.972,0,0,0-2.1,6.919L12.3,35.018,10.04,50.432A3.972,3.972,0,0,0,16.2,54.307l11.253-7.656,11.256,7.664a3.972,3.972,0,0,0,6.162-3.875L42.613,35.02,53.628,25.2a3.972,3.972,0,0,0,.333-5.608ZM39.2,32.8a1.956,1.956,0,0,0-.633,1.753l2.346,16.5L28.567,42.664a1.956,1.956,0,0,0-2.207,0L13.927,51,16.34,34.546a1.961,1.961,0,0,0-.636-1.738L3.928,22.175l15.732-2.17A1.964,1.964,0,0,0,21.2,18.817l6.283-14.9.015.03,6.206,14.858A1.956,1.956,0,0,0,35.252,20L51,22.265Z" transform="translate(0.059 -0.002)" fill="#0f1d5b"/></g></g></g></g></svg>