<svg xmlns="http://www.w3.org/2000/svg" viewBox="0 0 94.14 94.14"><g id="Layer_2" data-name="Layer 2"><g id="Layer_1-2" data-name="Layer 1"><path d="M2,94.14A2,2,0,0,1,.08,91.6L25.44,1.46A2,2,0,0,1,27.91.07a2,2,0,0,1,1.38,2.47L3.93,92.68A2,2,0,0,1,2,94.14Z"/><path d="M92.14,94.14a2,2,0,0,1-1.92-1.46L64.85,2.54A2,2,0,1,1,68.7,1.46L94.07,91.6a2,2,0,0,1-1.93,2.54Z"/><path d="M47.07,94.14a2,2,0,0,1-2-2v-15a2,2,0,0,1,4,0v15A2,2,0,0,1,47.07,94.14Zm0-38a2,2,0,0,1-2-2v-15a2,2,0,0,1,4,0v15A2,2,0,0,1,47.07,56.14Zm0-38a2,2,0,0,1-2-2V2a2,2,0,0,1,4,0V16.14A2,2,0,0,1,47.07,18.14Z"/></g></g></svg>