<?xml version="1.0" encoding="utf-8"?>
<!-- Generator: Adobe Illustrator 23.0.1, SVG Export Plug-In . SVG Version: 6.00 Build 0)  -->
<svg version="1.1" id="Layer_1" xmlns="http://www.w3.org/2000/svg" xmlns:xlink="http://www.w3.org/1999/xlink" x="0px" y="0px"
	 viewBox="0 0 94.1 94.1" style="enable-background:new 0 0 94.1 94.1;" xml:space="preserve">
<style type="text/css">
	.st0{fill:#101B51;}
</style>
<g>
	<g id="Layer_1-2">
		<path class="st0" d="M2,94.1c-1.1,0-2-0.9-2-2c0-0.2,0-0.4,0.1-0.5L25.4,1.5c0.3-1.1,1.4-1.7,2.5-1.4c0,0,0,0,0,0
			c1.1,0.3,1.7,1.4,1.4,2.5c0,0,0,0,0,0L3.9,92.7C3.7,93.5,2.9,94.1,2,94.1z"/>
		<path class="st0" d="M92.1,94.1c-0.9,0-1.7-0.6-1.9-1.5L64.8,2.5c-0.3-1.1,0.3-2.2,1.3-2.5c1.1-0.3,2.2,0.3,2.5,1.3
			c0,0,0,0.1,0,0.1l25.4,90.1c0.3,1.1-0.3,2.2-1.4,2.5C92.5,94.1,92.3,94.1,92.1,94.1z"/>
		<path class="st0" d="M47.1,94.1c-1.1,0-2-0.9-2-2v-15c0-1.1,0.9-2,2-2s2,0.9,2,2v15C49.1,93.2,48.2,94.1,47.1,94.1z M47.1,56.1
			c-1.1,0-2-0.9-2-2v-15c0-1.1,0.9-2,2-2s2,0.9,2,2v15C49.1,55.2,48.2,56.1,47.1,56.1z M47.1,18.1c-1.1,0-2-0.9-2-2V2
			c0-1.1,0.9-2,2-2s2,0.9,2,2v14.1C49.1,17.2,48.2,18.1,47.1,18.1z"/>
	</g>
</g>
</svg>
