<?xml version="1.0" encoding="utf-8"?>
<!-- Generator: Adobe Illustrator 23.0.1, SVG Export Plug-In . SVG Version: 6.00 Build 0)  -->
<svg version="1.1" id="Layer_1" xmlns="http://www.w3.org/2000/svg" xmlns:xlink="http://www.w3.org/1999/xlink" x="0px" y="0px"
	 viewBox="0 0 94.14 81.26" style="enable-background:new 0 0 94.14 81.26;" xml:space="preserve">
<style type="text/css">
	.st0{fill:#101B51;}
</style>
<g>
	<g id="Layer_1-2">
		<path class="st0" d="M94,67.15c0.03-0.06,0.05-0.13,0.06-0.2c0-0.06,0-0.11,0-0.17c0.05-0.26,0.05-0.53,0-0.79
			c0-0.06,0-0.11,0-0.17c-0.02-0.07-0.04-0.13-0.06-0.2c0-0.07-0.07-0.13-0.1-0.19s0-0.11-0.08-0.15c-0.08-0.11-0.16-0.22-0.26-0.31
			L80.68,52.09c-0.78-0.78-2.05-0.78-2.83,0c-0.78,0.78-0.78,2.05,0,2.83l9.46,9.47h-20.1l-51.5-51.51H2c-1.1,0-2,0.9-2,2s0.9,2,2,2
			h12.05l51.51,51.51h21.75l-9.46,9.46c-0.78,0.78-0.78,2.05,0,2.83c0,0,0,0,0,0c0.78,0.78,2.05,0.78,2.83,0c0,0,0,0,0,0L93.55,67.8
			c0.1-0.09,0.18-0.2,0.26-0.31c0,0,0-0.09,0.08-0.14L94,67.15z"/>
		<path class="st0" d="M47.63,35.63c0.54-0.01,1.05-0.24,1.42-0.63l18.16-18.12h20.1l-9.46,9.46c-0.78,0.78-0.78,2.05,0,2.83
			c0,0,0,0,0,0c0.78,0.78,2.05,0.78,2.83,0c0,0,0,0,0,0l12.87-12.88c0.1-0.09,0.18-0.19,0.26-0.3l0.08-0.15l0.1-0.2
			c0.03-0.06,0.05-0.13,0.06-0.2c0-0.06,0-0.11,0-0.17c0.05-0.26,0.05-0.52,0-0.78c0-0.06,0-0.12,0-0.18c0-0.06,0-0.13-0.06-0.2
			s-0.07-0.13-0.1-0.19l-0.08-0.15c-0.08-0.11-0.16-0.22-0.26-0.31L80.68,0.59c-0.82-0.74-2.08-0.68-2.83,0.13
			c-0.69,0.76-0.69,1.92,0,2.69l9.46,9.47H65.56L46.22,32.22c-0.78,0.78-0.77,2.05,0.01,2.83C46.6,35.42,47.1,35.63,47.63,35.63z"/>
		<path class="st0" d="M32.46,46L14.05,64.39H2c-1.1,0-2,0.9-2,2s0.9,2,2,2h13.71L35.29,48.8c0.7-0.86,0.57-2.12-0.29-2.81
			C34.26,45.38,33.19,45.39,32.46,46z"/>
	</g>
</g>
</svg>
