<?xml version="1.0" encoding="utf-8"?>
<!-- Generator: Adobe Illustrator 23.0.1, SVG Export Plug-In . SVG Version: 6.00 Build 0)  -->
<svg version="1.1" id="Layer_1" xmlns="http://www.w3.org/2000/svg" xmlns:xlink="http://www.w3.org/1999/xlink" x="0px" y="0px"
	 viewBox="0 0 94.1 81.3" style="enable-background:new 0 0 94.1 81.3;" xml:space="preserve">
<style type="text/css">
	.st0{fill:#FF9954;}
</style>
<g>
	<g id="Layer_1-2">
		<path class="st0" d="M94,67.1c0-0.1,0.1-0.1,0.1-0.2c0-0.1,0-0.1,0-0.2c0.1-0.3,0.1-0.5,0-0.8c0-0.1,0-0.1,0-0.2
			c0-0.1,0-0.1-0.1-0.2c0-0.1-0.1-0.1-0.1-0.2s0-0.1-0.1-0.2c-0.1-0.1-0.2-0.2-0.3-0.3L80.7,52.1c-0.8-0.8-2.1-0.8-2.8,0
			s-0.8,2,0,2.8l9.5,9.5H67.2L15.7,12.9H2c-1.1,0-2,0.9-2,2s0.9,2,2,2h12.1l51.5,51.5h21.8l-9.5,9.5c-0.8,0.8-0.8,2.1,0,2.8l0,0
			c0.8,0.8,2.1,0.8,2.8,0l0,0l12.9-12.9c0.1-0.1,0.2-0.2,0.3-0.3c0,0,0-0.1,0.1-0.1L94,67.1z"/>
		<path class="st0" d="M47.6,35.6c0.5,0,1-0.2,1.4-0.6l18.2-18.1h20.1l-9.5,9.5c-0.8,0.8-0.8,2,0,2.8l0,0c0.8,0.8,2.1,0.8,2.8,0l0,0
			l12.9-12.9c0.1-0.1,0.2-0.2,0.3-0.3l0.1-0.1l0.1-0.2c0-0.1,0.1-0.1,0.1-0.2c0-0.1,0-0.1,0-0.2c0.1-0.3,0.1-0.5,0-0.8
			c0-0.1,0-0.1,0-0.2s0-0.1-0.1-0.2s-0.1-0.1-0.1-0.2l-0.1-0.1c-0.1-0.1-0.2-0.2-0.3-0.3L80.7,0.6c-0.8-0.7-2.1-0.7-2.8,0.1
			c-0.7,0.8-0.7,1.9,0,2.7l9.5,9.5H65.6L46.2,32.2c-0.8,0.8-0.8,2,0,2.8C46.6,35.4,47.1,35.6,47.6,35.6z"/>
		<path class="st0" d="M32.5,46L14.1,64.4H2c-1.1,0-2,0.9-2,2s0.9,2,2,2h13.7l19.6-19.6c0.7-0.9,0.6-2.1-0.3-2.8
			C34.3,45.4,33.2,45.4,32.5,46z"/>
	</g>
</g>
</svg>
