<svg xmlns="http://www.w3.org/2000/svg" viewBox="0 0 100.14 100.14"><g id="Layer_2" data-name="Layer 2"><g id="Layer_1-2" data-name="Layer 1"><path d="M72.41,100.14a36.82,36.82,0,0,1-10.8-1.7c-10.27-3.15-23.23-12-35.54-24.36S4.85,48.81,1.7,38.52C-1.57,27.84-.08,17.84,5.89,10.37A27.92,27.92,0,0,1,25.76,0h.3a15.12,15.12,0,0,1,10.7,4.54,29.71,29.71,0,0,1,5.83,8.32,57.07,57.07,0,0,1,4.06,11.07A6.53,6.53,0,0,1,44.92,30L40,35A71.36,71.36,0,0,0,51.11,49,71,71,0,0,0,65.17,60.14l4.93-4.93.15-.14a6.53,6.53,0,0,1,5.94-1.59,57.72,57.72,0,0,1,11.08,4.07,29.77,29.77,0,0,1,8.32,5.83,14.82,14.82,0,0,1,4.52,11.28A27.6,27.6,0,0,1,89.76,94.25,27.3,27.3,0,0,1,72.41,100.14ZM26.17,10A18,18,0,0,0,13.7,16.62c-2.72,3.4-5.36,9.45-2.44,19C13.94,44.36,21.92,55.81,33.14,67s22.64,19.2,31.4,21.88c9.52,2.92,15.57.28,19-2.44a17.71,17.71,0,0,0,6.62-12.36,5.14,5.14,0,0,0-1.74-3.77,20.43,20.43,0,0,0-5.58-3.81,46.89,46.89,0,0,0-7.08-2.77l-6.12,6.11a5,5,0,0,1-5.73,1A76.37,76.37,0,0,1,44,56.07,76.6,76.6,0,0,1,29.33,36.25a5,5,0,0,1,1-5.73l6.12-6.11a47,47,0,0,0-2.77-7.09,20.14,20.14,0,0,0-3.81-5.57A5.35,5.35,0,0,0,26.17,10ZM36.93,26.25ZM37.86,23h0Z"/></g></g></svg>