<?xml version="1.0" encoding="utf-8"?>
<!-- Generator: Adobe Illustrator 25.2.3, SVG Export Plug-In . SVG Version: 6.00 Build 0)  -->
<svg version="1.1" id="Layer_1" xmlns="http://www.w3.org/2000/svg" xmlns:xlink="http://www.w3.org/1999/xlink" x="0px" y="0px"
	 viewBox="0 0 100.1 100.1" style="enable-background:new 0 0 100.1 100.1;" xml:space="preserve">
<style type="text/css">
	.st0{fill:#101B51;}
</style>
<g id="Layer_2_1_">
	<g id="Layer_1-2">
		<path class="st0" d="M72.4,100.1c-3.7,0-7.3-0.6-10.8-1.7c-10.3-3.2-23.2-12-35.5-24.4S4.8,48.8,1.7,38.5
			c-3.3-10.7-1.8-20.7,4.2-28.2C10.8,4.3,18,0.5,25.8,0h0.3c4,0,7.9,1.7,10.7,4.5c2.4,2.4,4.4,5.2,5.8,8.3c1.7,3.5,3.1,7.2,4.1,11.1
			c0.5,2.2-0.1,4.5-1.7,6.1L40,35c3.1,5.1,6.8,9.8,11.1,14c4.2,4.3,8.9,8,14.1,11.1l4.9-4.9l0.2-0.1c1.6-1.5,3.8-2.1,5.9-1.6
			c3.8,1,7.5,2.3,11.1,4.1c3.1,1.5,5.9,3.4,8.3,5.8c3,2.9,4.7,7,4.5,11.3c-0.6,7.7-4.3,14.8-10.3,19.6
			C84.8,98.2,78.7,100.2,72.4,100.1z M26.2,10c-4.9,0.4-9.4,2.8-12.5,6.6c-2.7,3.4-5.4,9.4-2.4,19c2.7,8.7,10.7,20.2,21.9,31.4
			s22.6,19.2,31.4,21.9c9.5,2.9,15.6,0.3,19-2.4c3.8-3,6.2-7.5,6.6-12.4c0-1.4-0.7-2.8-1.7-3.8c-1.6-1.6-3.5-2.9-5.6-3.8
			c-2.3-1.1-4.6-2-7.1-2.8l-6.1,6.1c-1.5,1.5-3.8,1.9-5.7,1C56.5,67,49.8,62,44,56.1c-5.9-5.8-10.9-12.5-14.7-19.8
			c-0.9-1.9-0.5-4.2,1-5.7l6.1-6.1c-0.7-2.4-1.7-4.8-2.8-7.1c-0.9-2.1-2.2-3.9-3.8-5.6C28.9,10.7,27.6,10.1,26.2,10z M37.9,23
			L37.9,23z"/>
	</g>
</g>
</svg>
