<?xml version="1.0" encoding="utf-8"?>
<!-- Generator: Adobe Illustrator 25.2.1, SVG Export Plug-In . SVG Version: 6.00 Build 0)  -->
<svg version="1.1" id="Layer_1" xmlns="http://www.w3.org/2000/svg" xmlns:xlink="http://www.w3.org/1999/xlink" x="0px" y="0px"
	 viewBox="0 0 94.1 94.2" style="enable-background:new 0 0 94.1 94.2;" xml:space="preserve">
<style type="text/css">
	.st0{fill:#0F1D5B;}
</style>
<path id="Layer_2_1_" class="st0" d="M90.5,18.1H50.7l-5-15.6C45.2,1,43.8,0,42.2,0H3.6C1.6,0,0,1.6,0,3.6v69.5c0,2,1.6,3.6,3.6,3.6
	H44l5.8,17.5h40.8c2,0,3.6-1.6,3.6-3.6V21.7C94.1,19.7,92.5,18.1,90.5,18.1z M74.3,45.1C73,48.6,71.2,52,69,55
	c-0.1,0.2-0.3,0.3-0.4,0.5c-1.8-2.4-3.5-4.8-5-7.4c-0.6-0.9-1.8-1.3-2.7-0.7c-0.2,0.1-0.4,0.3-0.6,0.5l-0.9-2.8H74.3z M61.9,52.8
	c1.3,2,2.7,3.9,4.2,5.8c-0.6,0.6-1.1,1.2-1.7,1.7L61.9,52.8z M4,72.7V4h37.9l4.5,14.1l0,0l14.9,46.3l0,0l2.7,8.3
	C64,72.7,4,72.7,4,72.7z M62.3,76.7L52,88.2l-3.8-11.6L62.3,76.7L62.3,76.7z M90.1,90.2H55.6l12.1-13.5h1.8l-3.9-12.2
	c1-0.9,2-1.8,3-2.8c3.3,3.8,6.9,7.3,10.9,10.5c0.9,0.7,2.1,0.5,2.8-0.3s0.5-2.1-0.3-2.8l0,0c-3.9-3.1-7.5-6.6-10.8-10.4
	c0.3-0.4,0.7-0.8,1-1.3c2.7-3.7,4.9-7.8,6.3-12.2h8c1.1,0,2-0.9,2-2s-0.9-2-2-2H68.4v-5.3c0-1.1-0.9-2-2-2s-2,0.9-2,2v5.3h-6.3
	l-6.1-19h38.1C90.1,22.2,90.1,90.2,90.1,90.2z M28.4,21.2l-6.7,15.7l0,0L17,47.8c-0.4,1,0,2.2,1,2.6s2.2,0,2.6-1l4.2-9.7h8.6
	l5.1,9.8c0.5,1,1.8,1.3,2.7,0.8s1.3-1.7,0.8-2.6L28.4,21.2z M26.6,35.6l2.2-5.1l2.6,5.1H26.6z"/>
</svg>
