<?xml version="1.0" encoding="utf-8"?>
<!-- Generator: Adobe Illustrator 25.2.1, SVG Export Plug-In . SVG Version: 6.00 Build 0)  -->
<svg version="1.1" id="Layer_1" xmlns="http://www.w3.org/2000/svg" xmlns:xlink="http://www.w3.org/1999/xlink" x="0px" y="0px"
	 viewBox="0 0 91.5 93.5" style="enable-background:new 0 0 91.5 93.5;" xml:space="preserve">
<style type="text/css">
	.st0{fill:#FF9954;}
	.st1{fill:none;}
</style>
<g>
	<path class="st0" d="M78.4,35.3c-1.1,0-2,0.9-2,2v50.5c0,1-0.8,1.7-1.7,1.7H16.8c-1,0-1.8-0.7-1.8-1.7c0,0,0,0,0,0V37.3
		c0-1.1-0.9-2-2-2s-2,0.9-2,2v50.5c0,3.2,2.6,5.7,5.7,5.7h58c3.2,0,5.7-2.6,5.7-5.7V37.3C80.4,36.2,79.6,35.3,78.4,35.3"/>
	<path class="st0" d="M31.4,73.8v-28c0-1.1-0.9-2-2-2c-1.1,0-2,0.9-2,2v28c0,1.1,0.9,2,2,2C30.5,75.8,31.4,74.9,31.4,73.8"/>
	<path class="st0" d="M47.7,73.8v-28c0-1.1-0.9-2-2-2s-2,0.9-2,2v28c0,1.1,0.9,2,2,2S47.7,74.9,47.7,73.8"/>
	<path class="st0" d="M64.1,73.8v-28c0-1.1-0.9-2-2-2c-1.1,0-2,0.9-2,2v28c0,1.1,0.9,2,2,2C63.2,75.8,64.1,74.9,64.1,73.8"/>
	<path class="st0" d="M89.5,28.4h-9v-7.8c0-3.2-2.6-5.7-5.7-5.8H61.1C60.8,6.6,54,0,45.8,0c-8.3,0-15.1,6.6-15.4,14.9H16.8
		c-3.2,0-5.8,2.5-5.8,5.7v0v7.8H2c-1.1,0-2,0.9-2,2s0.9,2,2,2h87.5c1.1,0,2-0.9,2-2C91.5,29.3,90.6,28.4,89.5,28.4 M45.8,4
		c6.1,0,11.1,4.8,11.4,10.9H34.4C34.6,8.8,39.7,4,45.8,4 M15,20.7c0-1,0.8-1.7,1.7-1.8h0h58c1,0,1.7,0.8,1.7,1.7v0v7.8H15V20.7z"/>
</g>
<rect x="-690.7" y="-1674.4" class="st1" width="3000" height="3000"/>
</svg>
