<?xml version="1.0" encoding="utf-8"?>
<!-- Generator: Adobe Illustrator 23.0.1, SVG Export Plug-In . SVG Version: 6.00 Build 0)  -->
<svg version="1.1" id="Layer_1" xmlns="http://www.w3.org/2000/svg" xmlns:xlink="http://www.w3.org/1999/xlink" x="0px" y="0px"
	 viewBox="0 0 91.49 93.49" style="enable-background:new 0 0 91.49 93.49;" xml:space="preserve">
<style type="text/css">
	.st0{fill:#231F20;}
	.st1{fill:#EBEBEC;}
	.st2{fill:#FFFFFF;}
	.st3{fill:#0F1D5B;}
	.st4{fill:none;stroke:#000000;stroke-width:4;stroke-linecap:round;stroke-miterlimit:10;}
	.st5{fill:#F37A7B;}
	.st6{fill:none;stroke:#000000;stroke-width:5;stroke-linecap:round;stroke-miterlimit:10;}
	.st7{fill:none;}
</style>
<g>
	<path class="st3" d="M78.45,35.26c-1.1,0-2,0.9-2,2v50.49c0,0.96-0.78,1.74-1.74,1.74H16.78c-0.96,0.02-1.76-0.74-1.78-1.7
		c0-0.01,0-0.03,0-0.04V37.26c0-1.1-0.9-2-2-2c-1.1,0-2,0.9-2,2v50.49c0,3.17,2.57,5.74,5.74,5.74h57.97c3.17,0,5.74-2.57,5.74-5.74
		V37.26C80.45,36.16,79.55,35.26,78.45,35.26"/>
	<path class="st3" d="M31.39,73.8v-28c0-1.1-0.9-2-2-2c-1.11,0-2,0.9-2,2v28c0,1.1,0.89,2,2,2C30.49,75.8,31.39,74.9,31.39,73.8"/>
	<path class="st3" d="M47.74,73.8v-28c0-1.1-0.9-2-2-2c-1.1,0-2,0.9-2,2v28c0,1.1,0.9,2,2,2C46.84,75.8,47.74,74.9,47.74,73.8"/>
	<path class="st3" d="M64.1,73.8v-28c0-1.1-0.9-2-2-2c-1.11,0-2,0.9-2,2v28c0,1.1,0.89,2,2,2C63.2,75.8,64.1,74.9,64.1,73.8"/>
	<path class="st3" d="M89.49,28.44h-9v-7.78c0-3.17-2.57-5.74-5.74-5.75H61.11C60.85,6.61,54.05,0.02,45.75,0
		c-8.31,0.01-15.11,6.61-15.37,14.91h-13.6c-3.18-0.02-5.76,2.55-5.78,5.72v0.03v7.78H2c-1.1,0-2,0.9-2,2c0,1.1,0.9,2,2,2h87.49
		c1.1,0,2-0.9,2-2C91.49,29.34,90.59,28.44,89.49,28.44 M45.75,4c6.1,0.01,11.11,4.82,11.37,10.91H34.37
		C34.63,8.81,39.65,4.01,45.75,4 M15,20.66c-0.01-0.96,0.77-1.74,1.73-1.75h0.01h57.97c0.96,0,1.74,0.78,1.74,1.74v0.01v7.78H15
		V20.66z"/>
</g>
<rect x="-690.68" y="-1674.43" class="st7" width="3000" height="3000"/>
</svg>
