<?xml version="1.0" encoding="utf-8"?>
<!-- Generator: Adobe Illustrator 23.0.1, SVG Export Plug-In . SVG Version: 6.00 Build 0)  -->
<svg version="1.1" id="Layer_1" xmlns="http://www.w3.org/2000/svg" xmlns:xlink="http://www.w3.org/1999/xlink" x="0px" y="0px"
	 viewBox="0 0 92.23 94.17" style="enable-background:new 0 0 92.23 94.17;" xml:space="preserve">
<style type="text/css">
	.st0{fill:#231F20;}
	.st1{fill:#EBEBEC;}
	.st2{fill:#FFFFFF;}
	.st3{fill:none;stroke:#000000;stroke-width:4;stroke-linecap:round;stroke-miterlimit:10;}
	.st4{fill:#F37A7B;}
	.st5{fill:none;stroke:#000000;stroke-width:5;stroke-linecap:round;stroke-miterlimit:10;}
	.st6{fill:none;}
</style>
<g>
	<path class="st2" d="M25.05,58.35l22.83-24.43c1.1-1.24,1-3.13-0.24-4.24c-0.54-0.48-1.23-0.75-1.94-0.76h-7.27V3
		c0-1.66-1.34-3-3-3H14.72c-1.66,0-3,1.34-3,3v25.91H4.4c-1.66,0.04-2.97,1.41-2.93,3.07c0.02,0.72,0.29,1.4,0.76,1.93L25.05,58.35z
		 M15.74,32.91V4h18.69v28.91h8.92l-18.3,19.58L6.76,32.91H15.74z"/>
	<path class="st2" d="M67.16,35.79L44.34,60.22c-1.11,1.23-1,3.13,0.23,4.24c0.53,0.48,1.22,0.75,1.94,0.76h7.34v25.95
		c0,1.66,1.34,3,3,3h20.71c1.66,0,3-1.34,3-3V65.23h7.28c1.66-0.03,2.97-1.4,2.94-3.05c-0.01-0.72-0.28-1.41-0.76-1.95L67.16,35.79z
		 M76.53,61.23v28.91H57.85V61.23h-9l18.31-19.58l18.3,19.58H76.53z"/>
	<path class="st2" d="M91.64,1.54c-0.78-0.78-2.05-0.78-2.83,0l0,0L0.58,89.78c-0.78,0.78-0.78,2.04,0,2.82
		c0.78,0.77,2.04,0.77,2.82,0L91.64,4.37C92.42,3.59,92.42,2.32,91.64,1.54C91.64,1.54,91.64,1.54,91.64,1.54"/>
</g>
<rect x="-1967.23" y="-1999.63" class="st6" width="3000" height="3000"/>
</svg>
