<svg xmlns="http://www.w3.org/2000/svg" width="20" height="22" viewBox="0 0 20 22">
  <metadata><?xpacket begin="﻿" id="W5M0MpCehiHzreSzNTczkc9d"?>
<x:xmpmeta xmlns:x="adobe:ns:meta/" x:xmptk="Adobe XMP Core 5.6-c142 79.160924, 2017/07/13-01:06:39        ">
   <rdf:RDF xmlns:rdf="http://www.w3.org/1999/02/22-rdf-syntax-ns#">
      <rdf:Description rdf:about=""/>
   </rdf:RDF>
</x:xmpmeta>
                                                                                                    
                                                                                                    
                                                                                                    
                                                                                                    
                                                                                                    
                                                                                                    
                                                                                                    
                                                                                                    
                                                                                                    
                                                                                                    
                                                                                                    
                                                                                                    
                                                                                                    
                                                                                                    
                                                                                                    
                                                                                                    
                                                                                                    
                                                                                                    
                                                                                                    
                                                                                                    
                           
<?xpacket end="w"?></metadata>
<defs>
    <style>
      .cls-1 {
        fill: #101b51;
        fill-rule: evenodd;
      }
    </style>
  </defs>
  <path id="Фигура_13" data-name="Фигура 13" class="cls-1" d="M961.072,425.2V423.86a7.936,7.936,0,0,0,2.157-5.47V416.3a5.23,5.23,0,1,0-10.459,0v2.089a7.936,7.936,0,0,0,2.157,5.47V425.2a7.3,7.3,0,0,0-6.927,7.33V433h20v-0.467A7.3,7.3,0,0,0,961.072,425.2Zm-12.133,6.862a6.359,6.359,0,0,1,6.3-5.933h0.612v-2.656l-0.135-.137a7,7,0,0,1-2.022-4.949V416.3a4.308,4.308,0,1,1,8.615,0v2.089a7,7,0,0,1-2.022,4.949l-0.135.137v2.656h0.612a6.359,6.359,0,0,1,6.3,5.933H948.939Z" transform="translate(-948 -411)"/>
</svg>
