<svg xmlns="http://www.w3.org/2000/svg" viewBox="0 0 56.85 97.19"><defs><style>.cls-1{fill:#f37a7b;}</style></defs><g id="Layer_2" data-name="Layer 2"><g id="Layer_1-2" data-name="Layer 1"><path d="M3.74,10.4,0,4V49.05l.27.46A29,29,0,0,0,4,54.72V10.84C3.91,10.7,3.83,10.55,3.74,10.4Z"/><path class="cls-1" d="M56.85,13.64V46.28a2.44,2.44,0,0,1-1.59,2.49c-1.88.64-3.41-1.35-4.23-2.42-2.18-2.85-4.36-4.35-6.67-4.59-4.52-.45-9.66,4-14.63,8.26C24.45,54.59,19,59.3,13.18,59.3a10.55,10.55,0,0,1-1.76-.15A13,13,0,0,1,4,54.72V10.84c2.62,4.41,5.27,6.79,8.08,7.26,4.63.78,9.92-3.79,15-8.21C32.73,5,38.54,0,44.77.68,48.23,1,51.32,3,54.2,6.8A14,14,0,0,1,56.85,13.64Z"/><path d="M4,2V95.19a2,2,0,0,1-4,0V2A2,2,0,0,1,4,2Z"/></g></g></svg>