<svg xmlns="http://www.w3.org/2000/svg" viewBox="0 0 93.57 98.3"><g id="Layer_2" data-name="Layer 2"><g id="Layer_1-2" data-name="Layer 1"><path d="M32.33,25.33a5,5,0,0,0,0-8.36L7.8.86h0l0,0A5,5,0,0,0,7,.44L6.8.35A4.92,4.92,0,0,0,6.15.14L6,.1A4.28,4.28,0,0,0,5.08,0H4.87a4.78,4.78,0,0,0-.75.08A.86.86,0,0,0,4,.12a4.47,4.47,0,0,0-.81.25l-.23.1L2.63.6c-.1.05-.19.12-.29.18L2.14.9a4.81,4.81,0,0,0-.64.54l-.11.12a4.6,4.6,0,0,0-.45.54L.8,2.3A4.78,4.78,0,0,0,.4,3l0,.09a4.87,4.87,0,0,0-.23.74,2,2,0,0,0-.05.24A5.27,5.27,0,0,0,0,5V56.26a5,5,0,0,0,10,0V40ZM10,28V14.27l10.48,6.88Z"/><path d="M91.31,54,66.78,37.9h0l0,0a5.41,5.41,0,0,0-.71-.38l-.23-.09a5.6,5.6,0,0,0-.66-.21l-.19,0a4.28,4.28,0,0,0-.87-.09h-.22a4.53,4.53,0,0,0-.74.08l-.18,0a4.63,4.63,0,0,0-.8.25l-.23.1-.29.13c-.1,0-.19.12-.29.18l-.19.12a5.64,5.64,0,0,0-.65.54l-.1.11a5.83,5.83,0,0,0-.46.55l-.13.2a4.78,4.78,0,0,0-.4.74s0,.06,0,.09a6.34,6.34,0,0,0-.23.74c0,.08,0,.16,0,.24A4.41,4.41,0,0,0,59,42V93.3a5,5,0,1,0,10,0V77L91.31,62.37a5,5,0,0,0,0-8.36ZM69,65.07V51.31l10.47,6.88Z"/><path d="M12.47,82.69a3,3,0,0,0,1.19,5.75,3.17,3.17,0,0,0,1.2-.24,3,3,0,1,0-2.39-5.51Z"/><path d="M20.32,78.82a3,3,0,0,0-3.74-4.7h0a3,3,0,0,0-.48,4.21,3,3,0,0,0,2.35,1.13,3,3,0,0,0,1.87-.66Z"/><path d="M14,56.07a3,3,0,0,0,2.94,3.07H17a3,3,0,1,0-3-3.07Z"/><path d="M24,56.51A3,3,0,0,0,26.47,60,2.77,2.77,0,0,0,27,60a3,3,0,1,0-3-3.49Z"/><path d="M35.84,59.6a3,3,0,1,0-1.37,5.84,2.71,2.71,0,0,0,.69.08,3,3,0,0,0,.68-5.92Z"/><path d="M43.93,91.07a3,3,0,0,0-.46,6h.23a3,3,0,0,0,.23-6Z"/><path d="M54.13,91.52a3,3,0,1,0-.27,6H54a3,3,0,0,0,.13-6Z"/><path d="M23.57,88A3,3,0,1,0,22,93.83a2.74,2.74,0,0,0,.79.11,3,3,0,0,0,.79-5.9Z"/><path d="M34,90a3,3,0,0,0-.78,6l.4,0A3,3,0,0,0,34,90Z"/><path d="M25.75,67.66a3,3,0,1,0,4.17.76A3,3,0,0,0,25.75,67.66Z"/></g></g></svg>