<?xml version="1.0" encoding="utf-8"?>
<!-- Generator: Adobe Illustrator 25.2.3, SVG Export Plug-In . SVG Version: 6.00 Build 0)  -->
<svg version="1.1" id="Layer_1" xmlns="http://www.w3.org/2000/svg" xmlns:xlink="http://www.w3.org/1999/xlink" x="0px" y="0px"
	 viewBox="0 0 93.6 98.3" style="enable-background:new 0 0 93.6 98.3;" xml:space="preserve">
<style type="text/css">
	.st0{fill:#101B51;}
</style>
<g id="Layer_2_1_">
	<g id="Layer_1-2">
		<path class="st0" d="M32.3,25.3c2.3-1.5,3-4.6,1.4-6.9c-0.4-0.6-0.9-1.1-1.4-1.4L7.8,0.9l0,0l0,0C7.5,0.7,7.3,0.6,7,0.4L6.8,0.3
			C6.6,0.3,6.4,0.2,6.2,0.1L6,0.1C5.7,0,5.4,0,5.1,0H4.9C4.6,0,4.4,0,4.1,0.1c0,0-0.1,0-0.1,0C3.7,0.2,3.5,0.3,3.2,0.4L3,0.5
			L2.6,0.6C2.5,0.7,2.4,0.7,2.3,0.8L2.1,0.9C1.9,1.1,1.7,1.2,1.5,1.4L1.4,1.6C1.2,1.7,1.1,1.9,0.9,2.1L0.8,2.3
			C0.6,2.5,0.5,2.8,0.4,3v0.1C0.3,3.3,0.2,3.6,0.2,3.8c0,0.1,0,0.2,0,0.2C0.1,4.4,0,4.7,0,5v51.3c0,2.8,2.2,5,5,5s5-2.2,5-5V40
			L32.3,25.3z M10,28V14.3l10.5,6.9L10,28z"/>
		<path class="st0" d="M91.3,54L66.8,37.9l0,0l0,0c-0.2-0.1-0.5-0.3-0.7-0.4l-0.2-0.1c-0.2-0.1-0.4-0.2-0.7-0.2H65
			c-0.3-0.1-0.6-0.1-0.9-0.1h-0.2c-0.2,0-0.5,0-0.7,0.1H63c-0.3,0.1-0.5,0.1-0.8,0.2l-0.2,0.1l-0.3,0.1c-0.1,0-0.2,0.1-0.3,0.2
			L61.2,38c-0.2,0.2-0.4,0.3-0.7,0.5l-0.1,0.1c-0.2,0.2-0.3,0.4-0.5,0.5l-0.1,0.2c-0.2,0.2-0.3,0.5-0.4,0.7c0,0,0,0.1,0,0.1
			c-0.1,0.2-0.2,0.5-0.2,0.7c0,0.1,0,0.2,0,0.2C59.1,41.5,59,41.7,59,42v51.3c0,2.8,2.2,5,5,5c2.8,0,5-2.2,5-5V77l22.3-14.6
			c2.3-1.5,3-4.6,1.4-6.9C92.4,54.9,91.9,54.4,91.3,54L91.3,54z M69,65.1V51.3l10.5,6.9L69,65.1z"/>
		<path class="st0" d="M12.5,82.7c-1.5,0.7-2.2,2.4-1.6,3.9c0.5,1.1,1.6,1.8,2.7,1.8c0.4,0,0.8-0.1,1.2-0.2c1.5-0.7,2.2-2.4,1.6-4
			C15.8,82.7,14,82,12.5,82.7z"/>
		<path class="st0" d="M20.3,78.8c1.3-1,1.5-2.9,0.5-4.2c-1-1.3-2.9-1.5-4.2-0.5l0,0l0,0c-1.3,1-1.5,2.9-0.5,4.2
			c0.6,0.7,1.4,1.1,2.4,1.1C19.1,79.5,19.8,79.2,20.3,78.8L20.3,78.8z"/>
		<path class="st0" d="M14,56.1c0,1.7,1.3,3,2.9,3.1c0,0,0,0,0,0H17c1.7,0,3-1.3,3-3c0-1.7-1.3-3-3-3C15.4,53.1,14,54.4,14,56.1z"/>
		<path class="st0" d="M24,56.5c-0.3,1.6,0.8,3.2,2.4,3.5c0,0,0,0,0,0c0.2,0,0.4,0,0.5,0c1.7,0,3-1.4,3-3c0-1.7-1.4-3-3-3
			C25.5,54,24.2,55.1,24,56.5z"/>
		<path class="st0" d="M35.8,59.6c-1.6-0.4-3.2,0.6-3.7,2.2c-0.4,1.6,0.6,3.2,2.2,3.7c0,0,0.1,0,0.1,0c0.2,0.1,0.5,0.1,0.7,0.1
			c1.7,0,3-1.4,3-3C38.1,61.1,37.2,59.9,35.8,59.6z"/>
		<path class="st0" d="M43.9,91.1c-1.7-0.1-3.1,1.1-3.2,2.8c-0.1,1.7,1.1,3.1,2.8,3.2h0.2c1.7,0.1,3.1-1.2,3.1-2.9
			C46.9,92.5,45.6,91.1,43.9,91.1z"/>
		<path class="st0" d="M54.1,91.5c-1.7-0.1-3.1,1.2-3.1,2.9c-0.1,1.7,1.2,3.1,2.9,3.1H54c1.7,0,3-1.3,3.1-2.9
			C57.1,92.9,55.8,91.6,54.1,91.5z"/>
		<path class="st0" d="M23.6,88c-1.6-0.4-3.3,0.5-3.7,2.1c-0.4,1.6,0.5,3.3,2.1,3.7c0.3,0.1,0.5,0.1,0.8,0.1c1.7,0,3-1.3,3-3
			C25.8,89.6,24.9,88.4,23.6,88L23.6,88z"/>
		<path class="st0" d="M34,90c-1.7-0.2-3.2,1-3.4,2.6s1,3.2,2.6,3.4h0.4c1.7,0.1,3.1-1.2,3.2-2.8C36.9,91.5,35.7,90.1,34,90z"/>
		<path class="st0" d="M25.8,67.7c-1.4,0.9-1.7,2.8-0.8,4.2c0.9,1.4,2.8,1.7,4.2,0.8s1.7-2.8,0.8-4.2c0,0,0,0,0,0
			C29,67.1,27.1,66.7,25.8,67.7z"/>
	</g>
</g>
</svg>
