<svg xmlns="http://www.w3.org/2000/svg" viewBox="0 0 89.21 95.53"><g id="Layer_2" data-name="Layer 2"><g id="Layer_1-2" data-name="Layer 1"><path d="M89.21,56.9,59,37V92a2,2,0,0,0,4,0V74.13ZM63,69.34V44.45L81.93,56.9Z"/><path d="M13.38,74.29a2,2,0,0,0,1.29,3.53A2.05,2.05,0,0,0,16,77.35a2,2,0,0,0-2.58-3.06Z"/><path d="M19.18,70a2,2,0,0,0-.52,2.78,2,2,0,0,0,1.65.88,2.06,2.06,0,0,0,1.13-.35A2,2,0,0,0,19.18,70Z"/><path d="M20.3,87.72a2,2,0,0,0-1.05,3.86,1.93,1.93,0,0,0,.53.07,2,2,0,0,0,.52-3.93Z"/><path d="M16.09,53a2,2,0,0,0-.19,4H16a2,2,0,0,0,.1-4Z"/><path d="M12.33,81.76a2,2,0,0,0-1.4-2.45,2,2,0,1,0-1,3.86,1.93,1.93,0,0,0,.53.07A2,2,0,0,0,12.33,81.76Z"/><path d="M3.7,56a1.26,1.26,0,0,0,.16-.33h0A1.87,1.87,0,0,0,4,55V37.09L30.23,19.86,0,0V55s0,.09,0,.13l0,.24a.58.58,0,0,0,.05.14,1.42,1.42,0,0,0,.07.22l.08.13a2.12,2.12,0,0,0,.11.21l.08.09c.06.07.11.14.17.2l.06.05A2,2,0,0,0,2,57h.14l.32,0,.07,0,.3-.1.07,0,.26-.15.06-.05a2.29,2.29,0,0,0,.23-.21l0,0a1.89,1.89,0,0,0,.2-.27ZM4,32.3V7.41L22.94,19.86Z"/><path d="M9,56.82a2,2,0,1,0-2-2,2,2,0,0,0,2,2Z"/><path d="M14.41,85.36a2,2,0,1,0-2.17,3.36,1.94,1.94,0,0,0,1.08.32A2,2,0,0,0,15,88.13,2,2,0,0,0,14.41,85.36Z"/><path d="M33.77,90.05a2,2,0,0,0-.45,4l.22,0a2,2,0,0,0,.23-4Z"/><path d="M47.61,91.18a2,2,0,0,0-.24,4h.12a2,2,0,0,0,.12-4Z"/><path d="M25,55.84a2,2,0,1,0-2.26,1.7l.28,0A2,2,0,0,0,25,55.84Z"/><path d="M54.56,91.53a2,2,0,0,0-.17,4h.09a2,2,0,0,0,.08-4Z"/><path d="M40.67,90.71a2,2,0,1,0-.32,4h.16a2,2,0,0,0,.16-4Z"/><path d="M26.94,89.12a2,2,0,0,0-.65,3.95,1.83,1.83,0,0,0,.33,0,2,2,0,0,0,.32-4Z"/><path d="M32.9,64.18a2,2,0,1,0-2.79.45,2,2,0,0,0,1.17.38A2,2,0,0,0,32.9,64.18Z"/><path d="M26.09,69.68a2,2,0,0,0,1.17-.38,2,2,0,1,0-1.17.38Z"/><path d="M31.49,58.27a2,2,0,1,0-2.69.88,2,2,0,0,0,.9.22A2,2,0,0,0,31.49,58.27Z"/></g></g></svg>