<?xml version="1.0" encoding="utf-8"?>
<!-- Generator: Adobe Illustrator 23.0.1, SVG Export Plug-In . SVG Version: 6.00 Build 0)  -->
<svg version="1.1" id="Layer_1" xmlns="http://www.w3.org/2000/svg" xmlns:xlink="http://www.w3.org/1999/xlink" x="0px" y="0px"
	 viewBox="0 0 144 143" style="enable-background:new 0 0 144 143;" xml:space="preserve">
<style type="text/css">
	.st0{fill:#231F20;}
	.st1{fill:#EBEBEC;}
	.st2{fill:#FFFFFF;}
	.st3{fill:none;stroke:#000000;stroke-width:4;stroke-linecap:round;stroke-miterlimit:10;}
	.st4{fill:#F37A7B;}
	.st5{fill:none;stroke:#000000;stroke-width:5;stroke-linecap:round;stroke-miterlimit:10;}
	.st6{fill:none;}
</style>
<g>
	<path d="M82.5,65C74.49,65,68,58.51,68,50.5C68,42.49,74.49,36,82.5,36C90.51,36,97,42.49,97,50.5C97,58.51,90.51,65,82.5,65
		 M82.5,41c-5.25,0-9.5,4.25-9.5,9.5c0,5.25,4.25,9.5,9.5,9.5c5.25,0,9.5-4.25,9.5-9.5C91.99,45.26,87.74,41.01,82.5,41"/>
	<path d="M65.5,91C57.49,91,51,84.51,51,76.5C51,68.49,57.49,62,65.5,62C73.51,62,80,68.49,80,76.5C80,84.51,73.51,91,65.5,91
		 M65.5,67c-5.25,0-9.5,4.25-9.5,9.5c0,5.25,4.25,9.5,9.5,9.5c5.25,0,9.5-4.25,9.5-9.5C74.99,71.26,70.74,67.01,65.5,67"/>
	<path d="M112.5,65C104.49,65,98,58.51,98,50.5c0-8.01,6.49-14.5,14.5-14.5c8.01,0,14.5,6.49,14.5,14.5
		C127,58.51,120.51,65,112.5,65 M112.5,41c-5.25,0-9.5,4.25-9.5,9.5c0,5.25,4.25,9.5,9.5,9.5c5.25,0,9.5-4.25,9.5-9.5
		C121.99,45.26,117.74,41.01,112.5,41"/>
	<path d="M129.5,91c-8.01,0-14.5-6.49-14.5-14.5c0-8.01,6.49-14.5,14.5-14.5c8.01,0,14.5,6.49,14.5,14.5
		C144,84.51,137.51,91,129.5,91 M129.5,67c-5.25,0-9.5,4.25-9.5,9.5c0,5.25,4.25,9.5,9.5,9.5c5.25,0,9.5-4.25,9.5-9.5
		C138.99,71.26,134.74,67.01,129.5,67"/>
	<path d="M110,116.26c-2.62,0-5.2-0.69-7.47-2c-3.11-1.79-6.95-1.79-10.06,0c-7.18,4.14-16.36,1.68-20.5-5.5
		c-4.14-7.18-1.68-16.36,5.5-20.5c3.13-1.78,5.06-5.1,5.06-8.69c-0.02-8.28,6.68-15.01,14.97-15.03
		c8.28-0.02,15.02,6.68,15.03,14.96c-0.01,3.6,1.89,6.92,5,8.73l-1.19,2.19l1.25-2.16c7.18,4.13,9.65,13.3,5.52,20.48
		c-2.69,4.67-7.68,7.54-13.08,7.52H110z M97.5,69.5c-5.52,0-10,4.48-10,10c0.01,5.38-2.85,10.36-7.5,13.06
		c-4.85,2.65-6.64,8.72-3.99,13.57c2.65,4.85,8.72,6.64,13.57,3.99l0.36-0.21c4.66-2.68,10.4-2.68,15.06,0
		c4.77,2.78,10.9,1.16,13.67-3.61c2.78-4.77,1.16-10.9-3.61-13.67H115c-4.64-2.68-7.5-7.64-7.49-13c0.07-5.52-4.36-10.05-9.88-10.12
		h0H97.5z"/>
	<path d="M71.5,143c-13.81,0-25-11.19-25-25V96.5H25c-13.81,0-25-11.19-25-25c0-13.81,11.19-25,25-25h21.5V25
		c0-13.81,11.19-25,25-25c13.81,0,25,11.19,25,25v2.26c0,1.38-1.12,2.5-2.5,2.5c-1.38,0-2.5-1.12-2.5-2.5V25c0-11.04-8.95-20-20-20
		c-11.05,0-20,8.96-20,20v24c0,1.38-1.12,2.5-2.5,2.5H25c-11.05,0-20,8.96-20,20c0,11.05,8.95,20,20,20h24c1.38,0,2.5,1.12,2.5,2.5
		v24c-0.01,11.05,8.95,20,19.99,20.01c8.04,0,15.3-4.81,18.43-12.21c0.55-1.27,2.03-1.86,3.31-1.31c1.27,0.55,1.86,2.03,1.3,3.31
		C90.6,137.03,81.53,143.01,71.5,143"/>
	<path d="M105.92,97.27c-0.7,0-1.38-0.3-1.85-0.82c-0.71-0.77-1.38-1.58-2-2.43c-0.8-1.13-0.53-2.69,0.6-3.49
		c1.13-0.8,2.69-0.53,3.49,0.6c0.48,0.7,1,1.37,1.57,2c0.93,1.02,0.85,2.6-0.17,3.53C107.11,97.06,106.52,97.28,105.92,97.27"/>
	<path d="M101.42,89.88c-1.05,0-1.98-0.65-2.35-1.63c-1.04-2.8-1.57-5.76-1.57-8.75c0-1.38,1.12-2.5,2.5-2.5s2.5,1.12,2.5,2.5
		c0,2.39,0.43,4.76,1.26,7c0.48,1.29-0.18,2.73-1.47,3.22C102.01,89.82,101.72,89.88,101.42,89.88"/>
	<path d="M84,32.92c-1.38,0-2.5-1.12-2.5-2.5V27.5c0-1.38,1.12-2.5,2.5-2.5c1.38,0,2.5,1.12,2.5,2.5v2.92
		C86.5,31.8,85.38,32.92,84,32.92"/>
	<path d="M83,22.64c-1.01,0-1.92-0.6-2.31-1.53c-1.56-3.7-5.18-6.1-9.19-6.11c-1.38,0-2.5-1.12-2.5-2.5c0-1.38,1.12-2.5,2.5-2.5
		c6.03,0,11.47,3.61,13.82,9.16c0.54,1.27-0.05,2.74-1.32,3.28C83.69,22.58,83.34,22.65,83,22.64"/>
</g>
<rect x="-1386.29" y="-2201.2" class="st6" width="3000" height="3000"/>
</svg>
