<?xml version="1.0" encoding="utf-8"?>
<!-- Generator: Adobe Illustrator 25.3.1, SVG Export Plug-In . SVG Version: 6.00 Build 0)  -->
<svg version="1.1" id="Layer_1" xmlns="http://www.w3.org/2000/svg" xmlns:xlink="http://www.w3.org/1999/xlink" x="0px" y="0px"
	 viewBox="0 0 310 312" style="enable-background:new 0 0 310 312;" xml:space="preserve">
<style type="text/css">
	.st0{fill:#101B51;}
</style>
<g id="Layer_2_1_">
	<g id="Layer_1-2">
		<path class="st0" d="M150.3,35.8c7.8-2.2,16.2,0.3,21.5,6.4c2.3,2.4,6.1,2.4,8.5,0.1c2.2-2.1,2.4-5.6,0.5-8
			c-8.4-9.6-21.5-13.5-33.8-10c-3.2,0.9-5,4.2-4.1,7.4S147.1,36.7,150.3,35.8L150.3,35.8z"/>
		<path class="st0" d="M205.9,262.7c-3.2-0.8-6.5,1.1-7.3,4.3c0,0,0,0,0,0c-6.1,23.5-30,37.7-53.6,31.6c-19.5-5-33-22.6-33-42.6v-56
			H56c-24.3,0-44-19.7-44-44s19.7-44,44-44h56V56c0-24.3,19.7-44,44-44s44,19.7,44,44v8.8c0,3.3,2.7,6,6,6s6-2.7,6-6V56
			c0-30.9-25.1-56-56-56s-56,25.1-56,56v44H56c-30.9,0-56,25.1-56,56s25.1,56,56,56h44v44c0,30.9,25,56,55.9,56.1
			c25.6,0,47.9-17.3,54.3-42.1C211.1,266.8,209.1,263.5,205.9,262.7C205.9,262.7,205.9,262.7,205.9,262.7z"/>
		<path class="st0" d="M111.2,166.5c0,15.9,12.9,28.8,28.8,28.8s28.8-12.9,28.8-28.8c0-15.9-12.9-28.8-28.8-28.8
			C124.1,137.8,111.2,150.6,111.2,166.5z M156.8,166.5c0,9.3-7.5,16.8-16.8,16.8c-9.3,0-16.8-7.5-16.8-16.8
			c0-9.3,7.5-16.8,16.8-16.8c0,0,0,0,0,0C149.3,149.8,156.7,157.3,156.8,166.5z"/>
		<path class="st0" d="M281.3,137.8c-15.9,0-28.8,12.8-28.8,28.7s12.8,28.8,28.7,28.8s28.8-12.8,28.8-28.7c0,0,0,0,0,0
			C310,150.6,297.1,137.8,281.3,137.8z M281.3,183.3c-9.3,0-16.8-7.5-16.8-16.7c0-9.3,7.5-16.8,16.7-16.8s16.8,7.5,16.8,16.7
			c0,0,0,0,0,0C298,175.8,290.5,183.3,281.3,183.3z"/>
		<path class="st0" d="M231.6,130.3c13.8,8,31.4,3.2,39.3-10.5s3.2-31.4-10.5-39.3c-13.8-8-31.4-3.2-39.3,10.5c0,0,0,0,0,0
			c-8,13.6-3.4,31.2,10.3,39.1C231.4,130.2,231.5,130.2,231.6,130.3z M231.4,97c4.6-8,14.9-10.8,22.9-6.2c8,4.6,10.8,14.9,6.2,22.9
			c-4.6,8-14.9,10.8-22.9,6.2c0,0,0,0,0,0c-8-4.6-10.8-14.7-6.2-22.8C231.3,97.1,231.4,97.1,231.4,97z"/>
		<path class="st0" d="M189.7,130.3c13.8-7.9,18.5-25.5,10.6-39.3c-7.9-13.8-25.5-18.5-39.3-10.6c-13.8,7.9-18.5,25.5-10.6,39.3
			c5.1,8.9,14.7,14.4,25,14.4C180.4,134.1,185.3,132.8,189.7,130.3z M160.8,113.7c-4.6-8-1.9-18.3,6.1-22.9c8-4.6,18.3-1.9,22.9,6.1
			c4.6,8,1.9,18.3-6.1,22.9c-7.9,4.7-18.1,2-22.8-5.9C160.8,113.9,160.8,113.8,160.8,113.7z"/>
		<path class="st0" d="M253.1,195.5l-5.8-3.4c-5.1-2.9-8.2-8.3-8.2-14.2v-6.8c0.3-15.7-12.2-28.6-27.9-28.9s-28.6,12.2-28.9,27.9
			c0,0.4,0,0.7,0,1.1v6.7c0,5.9-3.2,11.3-8.2,14.2l-5.9,3.4c-13.6,7.8-18.2,25.2-10.4,38.8c7.8,13.6,25.2,18.2,38.8,10.4l5.8-3.4
			c5.1-2.9,11.3-2.9,16.4,0l5.9,3.4c13.6,7.8,31,3.2,38.8-10.4C271.3,220.6,266.6,203.3,253.1,195.5L253.1,195.5z M253.1,228.3
			c-4.5,7.8-14.6,10.5-22.4,6l-5.9-3.4c-8.8-5.1-19.6-5.1-28.4,0l-5.8,3.4c-7.8,4.5-17.9,1.8-22.4-6c-4.5-7.8-1.8-17.9,6-22.4
			l5.9-3.4c8.8-5.1,14.2-14.5,14.2-24.6v-6.7c-0.2-9.1,6.9-16.6,16-16.8c9.1-0.2,16.6,6.9,16.8,16c0,0.3,0,0.5,0,0.8v6.8
			c0,10.1,5.4,19.5,14.2,24.6l5.8,3.4C254.9,210.4,257.6,220.4,253.1,228.3L253.1,228.3z"/>
	</g>
</g>
</svg>
