<?xml version="1.0" encoding="utf-8"?>
<!-- Generator: Adobe Illustrator 23.0.1, SVG Export Plug-In . SVG Version: 6.00 Build 0)  -->
<svg version="1.1" id="Layer_1" xmlns="http://www.w3.org/2000/svg" xmlns:xlink="http://www.w3.org/1999/xlink" x="0px" y="0px"
	 viewBox="0 0 89.8 89.8" style="enable-background:new 0 0 89.8 89.8;" xml:space="preserve">
<style type="text/css">
	.st0{clip-path:url(#SVGID_2_);}
	.st1{clip-path:url(#SVGID_2_);fill:#231F20;}
	.st2{clip-path:url(#SVGID_2_);fill:#EBEBEC;}
	.st3{clip-path:url(#SVGID_2_);fill:#FFFFFF;}
	.st4{clip-path:url(#SVGID_2_);fill:#F37A7B;}
	.st5{clip-path:url(#SVGID_2_);fill:none;stroke:#000000;stroke-width:5;stroke-linecap:round;stroke-miterlimit:10;}
	.st6{clip-path:url(#SVGID_2_);fill:#0F1D5B;}
	.st7{clip-path:url(#SVGID_2_);fill:#FFA35F;}
	.st8{fill:none;stroke:#231F20;stroke-width:3;stroke-miterlimit:10;}
	.st9{fill:#FFA35F;}
	.st10{fill:#0F1D5B;}
	.st11{fill:#FFFFFF;}
	.st12{fill:#0F1D5B;}
	.st13{fill:none;}
</style>
<g>
	<defs>
		<rect id="SVGID_1_" x="-1010.72" y="-3023.23" width="3792.92" height="5746.56"/>
	</defs>
	<clipPath id="SVGID_2_">
		<use xlink:href="#SVGID_1_"  style="overflow:visible;"/>
	</clipPath>
</g>
<path class="st12" d="M44.9,0C20.1,0,0,20.1,0,44.9c0,24.8,20.1,44.9,44.9,44.9c24.8,0,44.9-20.1,44.9-44.9C89.8,20.1,69.7,0,44.9,0
	 M71.9,44.9c0,0,0,8.8-1.1,13c-0.6,2.3-2.5,4.1-4.8,4.8c-4.2,1.1-21.2,1.1-21.2,1.1s-16.9,0-21.2-1.2c-2.3-0.6-4.1-2.5-4.8-4.8
	c-1.1-4.2-1.1-13-1.1-13s0-8.8,1.1-13c0.6-2.3,2.5-4.2,4.8-4.8c4.2-1.1,21.2-1.1,21.2-1.1s16.9,0,21.2,1.2c2.3,0.6,4.1,2.5,4.8,4.8
	C72,36.1,71.9,44.9,71.9,44.9"/>
<polygon class="st12" points="53.6,44.9 39.5,53 39.5,36.8 "/>
<rect x="-1010.72" y="-3023.23" class="st13" width="3792.92" height="5746.56"/>
</svg>
