<?xml version="1.0" encoding="utf-8"?>
<!-- Generator: Adobe Illustrator 25.0.0, SVG Export Plug-In . SVG Version: 6.00 Build 0)  -->
<svg version="1.1" id="Layer_1" xmlns="http://www.w3.org/2000/svg" xmlns:xlink="http://www.w3.org/1999/xlink" x="0px" y="0px"
	 viewBox="0 0 1821.2 1370.4" style="enable-background:new 0 0 1821.2 1370.4;" xml:space="preserve">
<style type="text/css">
	.st0{fill:#F4EFEB;}
	.st1{fill:none;stroke:#FFFFFF;stroke-linecap:round;stroke-miterlimit:10;}
	.st2{fill:#FBCDBD;}
	.st3{fill:#2D3885;}
	.st4{fill:#D9D5D5;}
	.st5{fill:#C0B9B9;}
	.st6{fill:#FFFFFF;}
	.st7{fill:#DCA797;}
	.st8{fill:#FF4800;}
	.st9{fill:none;stroke:#FFFFFF;stroke-width:1;stroke-linecap:round;stroke-miterlimit:10.0003;}
	.st10{fill:#FFFFFF;stroke:#FFFFFF;stroke-miterlimit:10;}
</style>
<g id="Layer_2_1_">
	<g id="Layer_1-2">
		<path class="st0" d="M871.9,600c-15.5,17.5-35,21.3-56.6,15.6c-15.6-4.1-31-8.7-46.2-14c-32.8-11.6-69.2-5.2-96,17
			c-28.1,23.5-59.8,37.5-97.2,39.4c-19.2,1-37.9,3.8-57.1,0c-79.3-15.7-112.6-102-91.8-159.5c12.3-34,37.4-51.6,72.3-55.9
			c18.1-2.2,36.3-1.6,53.8,5.4c20.2,8.1,41.2,14,61.7,21.2c5.7,2,11.3,4.5,17.1,6.3c40.8,13.1,74.7-7.9,80.8-49.9
			c3.7-25,7.6-49.9,15.2-74.2c10.1-31.9,29.3-55.2,60.4-68.2c2.8-1.2,5.5-2.7,8.3-4c44.6-20.8,84.4-14.6,120.8,19.2
			c25.3,23.4,47.1,48.1,54.3,83.2c1.2,6,2,12,2.2,18.1c0.5,10.1-4.5,20.2-13.5,24.8c-5.1,2.6-8.8,7.6-12,14.1
			c-6.7,13.5-11.4,13.9-22.3,3.6c-15.1-14.3-26.7-31.5-39-48.1c-3.8-5.1-6.2-12.6-16.8-11.6c-9,37.2-32.7,64.6-62.7,87.3
			c-4.2,3.2-7.5,7.9-11.9,10.8c-11.4,7.6-13,18.2-10.2,30.2c1.3,5.2,2.9,10.3,5,15.2c12.7,31.5,38,49.2,68.3,60.9
			C865.7,589.7,872.5,590.8,871.9,600z"/>
		<path class="st0" d="M847.4,478.9c-11.1,13.2-24.7,25-41.1,30.2c-16.4,5.2-36.1,2.4-48-10.1c-5.9-6.3-9.5-14.4-12-22.7
			c-10.2-34.2-4.9-71.1,14.7-100.9c19.1-28.7,80.2-75.4,110.6-37.7C903.1,376.6,874.5,446.7,847.4,478.9z"/>
		<path class="st0" d="M747,392.2c-1.9,37.9-7.8,97-55.8,103.3c-23.2,3-45.4-9.5-65.1-20.2c-20.9-11.3-41.7-22.7-62.6-34
			c-34.9-19-72.5-38.9-113.6-35.9c-32.3,2.3-61.6,19.2-73.3,50.3c-11.5,30.7-4.2,68.1,21,89.8c5.8,5,14.3-3.4,8.5-8.5
			c-23.6-20.3-29.2-56.3-15.3-83.8c18.1-36,63.4-41.1,98.6-31.8c42.5,11.3,81.6,37.7,119.9,58.5c31.3,17.1,70.1,40.5,105.5,20.1
			c37.7-21.8,42.2-68.8,44.2-107.8C759.4,384.5,747.4,384.5,747,392.2L747,392.2z"/>
		<path class="st0" d="M848.4,608.7c-24.2,9.2-48.3-5.3-70.9-12.8c-22.4-7.4-44.7-8-64.9,5.6c-21.7,14.6-34.2,37.6-50.3,57.4
			c-16.7,20.5-46.2,41.4-71.9,22.6c-6.2-4.6-12.2,5.8-6.1,10.4c19.9,14.6,47.1,9.3,66-4.5c23-16.9,35-43.8,54.7-63.9
			c10.4-10.6,23.3-19.9,38.6-21.2c13.1-1.1,25.9,3.2,38,7.6c22.4,8.2,46,19.3,70,10.2C858.8,617.5,855.7,605.9,848.4,608.7
			L848.4,608.7z"/>
		<path class="st1" d="M78.1,963.7c0,0-39.4,44.6-25.2,118.4c11.2,58,44.8,114.7-6.7,219.9c0,0,118.1,12.8,219.7-44.9
			c0,0,36.4-126.7-4.9-219c-26.5-59.2,10.4-111.9,10.4-111.9L78.1,963.7z"/>
		<path class="st2" d="M290.4,697.7c-0.1,0-0.3,0-0.4,0.1h-0.2c-0.9,0.2-1.6,1-1.6,2v0.5c0.8,5.8,1.7,12.2,2.8,18.8
			c-1.1-2.3-2.3-4.6-3.4-7c-0.3-1.2-1.5-1.9-2.7-1.6l0,0c-0.2,0-0.4,0.1-0.5,0.2c-1.2,0.2-1.9,1.3-1.7,2.5c0,0.2,0.1,0.4,0.2,0.5
			c5.9,19.5,5,42.3,17.1,59.6c0.7,1,1.5,1.9,2.2,2.8c4.2,16.9,17.2,28.6,34.8,27.2c0.4,1.1,1.6,1.6,2.7,1.2l0,0
			c0.3-0.1,0.5-0.2,0.7-0.4c12.9-11.2,20.3-26.8,17.2-44.1c-4-22.3-24.6-31.4-35.8-49.4c-0.2-0.6-0.8-1.1-1.5-1.2
			c-1.4-0.2-2.8,0.7-3,2.2l0,0v1.1c1.6,7.5,4.2,14.8,7.7,21.7c-11-8.5-20.3-17.7-19.4-32.3c0.3-1.2-0.4-2.4-1.6-2.7h-0.1
			c-0.2,0-0.3-0.1-0.5-0.1c-1-0.4-2.2,0.2-2.6,1.2c-0.1,0.2-0.1,0.5-0.1,0.7c-1.1,4.8-1.4,9.8-1.1,14.7c-2.5-5.6-4.7-11.2-6.7-16.9
			c-0.1-0.1-0.1-0.2-0.2-0.3l0,0C292.2,697.9,291.3,697.5,290.4,697.7z"/>
		<path class="st2" d="M1431.4,700.9c3.6-5.9,10.7,5.1,15.5,12.5c2.2-3.9,6.7-11.3,10.1-14.9c13.7-14.4,52.8-28.9,53.4-28.7
			c2.6-0.7,3.7,3.4,1,4.3c-0.4,0.1-15.5,11.8-22.4,17.8c-2.4,2.1-4.6,4.4-6.6,6.8l0,0c5.4-2.6,11.7-1.5,14.9,3.8v0.1
			c7.4-0.5,11.4,8.5,10.1,14.4c1.7,0.3,3.3,1.1,4.6,2.3c3.1,3.2,2.6,8.6,1.1,12.4c-4.6,16.4-17.7,29.1-34.2,33.3
			c-0.3,0.2-0.7,0.2-1.1,0.2c-13-1-25.8-3-36.9-10.3c-0.7,0-1.4-0.4-1.7-1.1c-1-0.1-1.7-1-1.7-2v-0.1c1.1-11.5-0.5-22.1-3.7-33.1
			C1432.8,714.7,1428.6,705.5,1431.4,700.9z"/>
		<path class="st3" d="M659.7,1347.8c-5.6-6.7-10.4-13.9-14.5-21.6c-28.9-54.7-92.6-335.1-88.6-414.6S550.3,742,750,724.5
			c198.6-17.5,309.3,23.5,339.1,50.7c33.9,30.9,45.3,77.3,31.4,201.8c-12.1,107.6-33.1,294.5-98.8,370.8H659.7z"/>
		<path class="st3" d="M1096.4,1100.9c0,0,70.2,245.5,134.7,246.6s87.1,0,87.1,0s137.2-92.9,170.4-579.4l-60.7-20.6
			c0,0-127.5,225.9-167.2,377.6c0,0-21.6-319.5-233.9-379L1096.4,1100.9z"/>
		<path class="st3" d="M619.5,1087.6c-10.2,76.2-57,227.2-88,245.8c-30.5,18.2-52.9,18.2-75.6,5.5
			c-115.2-64.6-154.2-424.3-151.8-537.2c20.4-5.3,41-11.3,61.5-16.7c55.9,123.1,91.6,230.2,124.8,354.6
			c-7.5-144.9-48.6-295.2,128.4-380.6C622.8,851.7,629.7,1011.5,619.5,1087.6z"/>
		<polygon class="st2" points="768.4,395.5 917.4,387.4 927.6,574.7 778.6,582.8 		"/>
		<path class="st2" d="M917.4,387.4c0,0,56.8,125.3,47.3,183.9c-6.6,40.7-59.1,54.7-97.3,32c-14.8-8.9-26.2-22.5-32.5-38.5
			L917.4,387.4z"/>
		<path class="st2" d="M919.7,722.8c0,0,19.1,30.9-6.3,52.1s-88.8,10.2-104.6-53.3C808.8,721.6,900.5,707.6,919.7,722.8"/>
		<path class="st2" d="M967.4,730.7c0,0-39.9-78.7-37.6-222.8l-148-5.1c0,0,2.4,118.2-27.9,225.6C754,728.3,910.1,759,967.4,730.7"
			/>
		<polygon class="st4" points="766,1327.3 1267.4,1327.3 1291.9,973.5 790.6,973.5 		"/>
		<polygon class="st4" points="667.1,1347.8 1267.4,1347.8 1267.4,1327.3 766,1327.3 667.1,1334.1 		"/>
		<rect x="766" y="1327.3" class="st5" width="501.4" height="6.8"/>
		<polygon class="st5" points="766,1334.1 667.1,1341 667.1,1347.8 766,1348.1 		"/>
		<path class="st0" d="M1015.7,1137.6c-0.2,18,13.3,32.8,30.2,33.1s30.9-14.2,31.1-32.2s-13.3-32.8-30.2-33.1
			S1015.9,1119.6,1015.7,1137.6z"/>
		<polygon class="st5" points="790.6,973.5 784.9,975.1 759.6,1327.8 766,1327.3 		"/>
		<path class="st2" d="M797.1,446.7c0,0-20-17.5-35.5,0.5c-12.8,14.8-2.6,52.7,41.4,50.1C803,497.3,813,472.9,797.1,446.7"/>
		<rect x="0.5" y="1348.1" class="st6" width="1538.8" height="21.8"/>
		<circle class="st0" cx="887" cy="811.8" r="5.1"/>
		<circle class="st0" cx="887" cy="840.8" r="5.1"/>
		<circle class="st0" cx="887" cy="869.9" r="5.1"/>
		<circle class="st0" cx="887" cy="898.9" r="5.1"/>
		<circle class="st0" cx="887" cy="928" r="5.1"/>
		<circle class="st0" cx="887" cy="953.3" r="5.1"/>
		<path class="st7" d="M941.7,646.6c-90.6-3-84.6-47.6-84.1-50.2c3.1,2.6,6.4,4.9,9.9,7c21.7,12.9,48,13.9,68,4.8
			C937.2,622.1,939.4,634.9,941.7,646.6z"/>
		<path class="st8" d="M939,454.7c-12.8,0-23.7,9.3-25.7,21.9h-20.7c-2.3-14.2-15.7-23.9-29.9-21.6c-8.9,1.4-16.4,7.3-19.9,15.6
			c-10-9.4-22.3-16-35.7-19.2l-2,8.2c13.6,3.4,26,10.6,35.7,20.8c0,0.2-0.1,0.3-0.1,0.5c0,14.4,11.7,26.1,26.1,26.1
			c12.8,0,23.7-9.3,25.7-21.9h20.7c2.2,14.2,15.5,24,29.8,21.8s24-15.5,21.8-29.8c0-0.2-0.1-0.4-0.1-0.6
			C962.8,463.9,951.8,454.6,939,454.7z M866.9,498.5c-9.8,0-17.7-7.9-17.7-17.7s7.9-17.7,17.7-17.7s17.7,7.9,17.7,17.7
			C884.6,490.6,876.7,498.5,866.9,498.5L866.9,498.5z M939,498.5c-9.8,0-17.7-7.9-17.7-17.7s7.9-17.7,17.7-17.7s17.7,7.9,17.7,17.7
			S948.8,498.5,939,498.5L939,498.5z"/>
		<ellipse class="st0" cx="917.1" cy="372.8" rx="51.4" ry="32.5"/>
		<ellipse class="st0" cx="818.7" cy="397.2" rx="68.4" ry="32.5"/>
		<path class="st1" d="M1508.9,209h-315.2c-20.5,0-37,19.6-37,43.8v193.7l51.6-69.6l300.6,2.4c20.5,0,37.1-19.6,37.1-43.8v-82.7
			C1546,228.6,1529.4,209,1508.9,209z"/>
		<line class="st1" x1="1502.6" y1="258.9" x2="1258.8" y2="258.9"/>
		<line class="st1" x1="1258.8" y1="285.8" x2="1502.6" y2="285.8"/>
		<line class="st1" x1="1395.8" y1="312.6" x2="1258.8" y2="312.6"/>
		
			<rect x="1537" y="832.8" transform="matrix(0.9989 -4.762780e-02 4.762780e-02 0.9989 -47.356 80.9101)" class="st9" width="274.4" height="402.7"/>
		<line class="st1" x1="1563.9" y1="876.2" x2="1683.7" y2="870.5"/>
		<line class="st1" x1="1564.9" y1="898.3" x2="1684.7" y2="892.6"/>
		<line class="st1" x1="1565.8" y1="963.3" x2="1779.6" y2="953.1"/>
		<line class="st1" x1="1566.9" y1="985.4" x2="1780.6" y2="975.3"/>
		<line class="st1" x1="1568" y1="1007.6" x2="1781.7" y2="997.5"/>
		<line class="st1" x1="1569" y1="1029.8" x2="1782.7" y2="1019.6"/>
		<line class="st1" x1="1570.1" y1="1052" x2="1783.8" y2="1041.8"/>
		<line class="st1" x1="1571.1" y1="1074.2" x2="1784.9" y2="1064"/>
		<line class="st1" x1="1724.7" y1="1191.8" x2="1788.4" y2="1188.7"/>
		<path class="st6" d="M1231.8,760.3c-2.5,1.4-5,2.7-7.5,3.9c-5,2.4-10.2,4.5-15.7,4.8c-14.2,0.8-28.6-9.3-41.1-14.9
			c-9.2-4.1-13.3-15-9.2-24.2l0,0l20-44.5c4.2-9.2,15-13.3,24.2-9.2l33.5,15c14.7-18.4,27.5-36.9,39.8-64.1
			c10.7-23.8,15.3-41.8,19.1-61.6l-35.5-15.9c-9.2-4.1-13.4-14.9-9.3-24.1l20-44.5c4.1-9.2,14.9-13.3,24.1-9.2l0,0l0,0
			c12.6,5.6,27.2,9.6,37,20c4.1,4.6,7.4,9.9,9.6,15.6c15.9,38.8,2.2,90.1-12.6,127.3c-1.8,4.4-3.7,8.9-5.8,13.6
			C1303.5,690.7,1273.6,736.7,1231.8,760.3z"/>
		<circle class="st1" cx="1552.4" cy="468.2" r="13"/>
		<circle class="st1" cx="1494.6" cy="468.2" r="13"/>
		<circle class="st1" cx="1436.8" cy="468.2" r="13"/>
		<path class="st1" d="M225.3,307.4V100.1c0-55,56.1-99.6,125.3-99.6l615.8,0.3c44.1,0,79.9,35.8,79.9,79.9v120.9
			c0,44.1,35.8,79.9,79.9,79.9l0,0"/>
		<path class="st1" d="M1383.6,566.9h219.6c69.2,0,125.3,44.6,125.3,99.6V792"/>
		<line class="st1" x1="225.3" y1="308.4" x2="201" y2="284.1"/>
		<line class="st1" x1="225.3" y1="308.4" x2="249.6" y2="284.1"/>
		<path class="st1" d="M375.7,315.3l-2,3.5c-0.5,0.9-1.4,1.4-2.4,1.4c-0.5,0-1-0.2-1.5-0.4c-1.4-0.8-3.1-0.3-3.9,1c0,0,0,0,0,0.1
			l-12.4,21.2l4.4,20.1c0.3,1.5-0.7,3.1-2.2,3.4c-0.7,0.1-1.5,0-2.1-0.3l-22.5-13.1l-7.6-4.4L301,334.7c-1.4-0.8-1.9-2.6-1.1-4
			c0.4-0.6,0.9-1.1,1.6-1.3l19.6-6.1l12.4-21.1c0.2-0.5,0.3-1,0.3-1.5c0-1-0.5-2-1.4-2.6c-1.4-0.7-1.9-2.5-1.1-3.8c0,0,0,0,0-0.1
			s0-0.1,0.1-0.1l0,0l2-3.5c0.8-1.3,2.4-1.8,3.8-1.1l0.1,0.1l37.5,21.8c1.3,0.8,1.8,2.4,1.1,3.8
			C375.8,315.2,375.8,315.3,375.7,315.3z"/>
		<polygon class="st1" points="331,352.1 318.8,373 305.3,396.2 295.8,403.8 297.7,391.9 308.7,373 323.4,347.8 		"/>
		<polygon class="st1" points="368.8,373 368.8,622.8 119.1,622.8 119.1,373 308.7,373 297.7,391.9 295.8,403.8 305.3,396.2 
			318.8,373 		"/>
		<path class="st6" d="M153,443.2l-2.1-21.4v-9.9h8.8v9.9l-2.1,21.4H153z M151.2,454.1V446h8.1v8.1H151.2z"/>
		<path class="st6" d="M172.6,443.2l-2.1-21.4v-9.9h8.8v9.9l-2.1,21.4H172.6z M170.9,454.1V446h8.1v8.1H170.9z"/>
		<path class="st6" d="M192.3,443.2l-2.2-21.4v-9.9h8.8v9.9l-2.1,21.4H192.3z M190.5,454.1V446h8.1v8.1H190.5z"/>
		<line class="st1" x1="317.2" y1="509.4" x2="170.6" y2="509.4"/>
		<line class="st1" x1="317.2" y1="536.1" x2="170.6" y2="536.1"/>
		<line class="st1" x1="257.2" y1="562.9" x2="170.5" y2="562.9"/>
		<polyline class="st1" points="337.5,622.8 126.6,715.7 25.9,487.1 119.1,446 		"/>
		<path class="st1" d="M1568.3,1300.1l-48.5-73.8c-2.7-3.9-6.9-6.4-11.6-6.9l0,0c-10.2-1-19.7,5.1-23.2,14.7l-0.6,1.9
			c-1.7,4.7-1.2,9.9,1.5,14.1l53.4,81.2c2.5,3.6,6.5,5.9,10.9,6.2h0.2c8.6,0.6,16.6-4.6,19.7-12.6l0,0c1.7-4.2,1.3-9-1.1-12.8
			l-35.2-54.6c-1.9-2.8-4.9-4.7-8.2-5.1l-1.3-0.2c-7.5-1-14.7,3.3-17.5,10.3l0,0c-1.5,3.6-1.2,7.7,0.9,11l30.5,46.7"/>
		<line class="st1" x1="1728.5" y1="792.1" x2="1704.2" y2="767.8"/>
		<line class="st1" x1="1728.5" y1="792.1" x2="1752.8" y2="767.8"/>
		<path class="st10" d="M482.8,55.6c-5.4-5.5-14.3-5.6-19.8-0.2l0,0l-60.2,58.9l-23.4-22.9c-5.2-5.7-14.1-6-19.8-0.8
			c-5.7,5.2-6,14.1-0.8,19.8l0,0c0.3,0.4,0.7,0.7,1.1,1l33.2,32.5c5.5,5.3,14.1,5.3,19.6,0l70-68.5
			C488.1,69.9,488.2,61.1,482.8,55.6L482.8,55.6z"/>
	</g>
</g>
</svg>
