<svg xmlns="http://www.w3.org/2000/svg" viewBox="0 0 1370.11 1827.31"><defs><style>.cls-1,.cls-17,.cls-19,.cls-20,.cls-22,.cls-6,.cls-7{fill:none;}.cls-1,.cls-17{stroke:#000;}.cls-1,.cls-17,.cls-20,.cls-22,.cls-6{stroke-linecap:round;}.cls-1,.cls-18,.cls-19,.cls-20{stroke-miterlimit:10;}.cls-2{fill:#1b2251;}.cls-3{fill:#0f1d5b;}.cls-4{fill:#fff;}.cls-18,.cls-5{fill:#0f122b;}.cls-18,.cls-6{stroke:#fff;}.cls-17,.cls-22,.cls-6{stroke-linejoin:round;}.cls-8{fill:#242e6c;}.cls-9{fill:#faccbc;}.cls-10{fill:#dca797;}.cls-11{fill:#cfd7e8;}.cls-12{fill:#ffb7a4;}.cls-13{fill:#9f6013;}.cls-14{fill:#86c4ae;}.cls-15{fill:#ffa35f;}.cls-16{fill:#fbebec;}.cls-19,.cls-20,.cls-22{stroke:#231f20;stroke-width:2px;}.cls-21{fill:#231f20;}</style></defs><g id="Layer_2" data-name="Layer 2"><g id="Layer_1-2" data-name="Layer 1"><path class="cls-1" d="M237,1826.81V233.59a71.06,71.06,0,0,1,20.9-50.39,72.38,72.38,0,0,1,13.43-10.58,70.49,70.49,0,0,1,36.93-10.35h615A64.7,64.7,0,0,1,945.56,142c15.39-8.26,38.92-12,59.1-9.76,7.86.88,22.08,3.4,34.86-4.46a37.42,37.42,0,0,0,6.52-5.14c-.59,0-1.18,0-1.77,0h-736c-1,0-1.91,0-2.86,0-.48,0-1,0-1.43,0h0l-1.4.07A110.91,110.91,0,0,0,197.38,233.56V1826.81"/><polyline class="cls-2" points="469.5 1804.46 485.16 1772.8 552.38 1769.74 566.65 1803.78"/><path class="cls-2" d="M333.26,1782.26l-76.53-11.69,0-5c-16.92,17.92-47.32,27.75-65.51,31.75-16.69,3.71-22.09,13-23.86,19l164.2-9.07C334.87,1803.43,333.88,1792.44,333.26,1782.26Zm-7.94-.74.17-.1v.11Z"/><path class="cls-3" d="M325.5,1781.53h-.18l.17-.1Z"/><path class="cls-4" d="M164.67,1825.81a11.12,11.12,0,0,1,3.17-8.53l54.45-3.08h1.61l37.69-2.14h1.62l68.07-3.82a13.09,13.09,0,0,1,4.8,9.74,11.1,11.1,0,0,1-4.15,7.83Z"/><path class="cls-5" d="M330.94,1809.27a12.07,12.07,0,0,1,4.14,8.69,10.13,10.13,0,0,1-3.51,6.85H165.65a10.14,10.14,0,0,1,2.64-6.56l54-3H224l37.58-2.14h1.73l67.62-3.79m.67-2-68.4,3.83h-1.67l-37.64,2.14h-1.67l-54.82,3.1a12.14,12.14,0,0,0-3.64,10.51H332.28a12.15,12.15,0,0,0,4.8-8.81,14.14,14.14,0,0,0-5.47-10.77Z"/><line class="cls-6" x1="225.46" y1="1788.76" x2="253.75" y2="1795"/><line class="cls-6" x1="239.61" y1="1781.49" x2="267.9" y2="1787.73"/><path class="cls-1" d="M1266.33,522.18c.13-.65.22-1.34.32-2,3.51-23.26,3.67-44.46,1.44-59.89a12.21,12.21,0,0,1,5.71-12.48,11.58,11.58,0,0,1,1.6-.85l7.08-3.05v-.1l-.23.1v0l.23-.07c26.47-11.5,35.22-35.61,32.82-62.7-2.29-26.93-15.72-48.88-43.21-56.13l-.2-.06,0,0a96,96,0,0,0-29.55-1.61c-25.52,2.23-57.86,15.92-87.18,31.39-6,3.14-11.89,6.39-17.56,9.6l-22.08,1.93-35.19,3.08,5.61,64.31v0l29.58-2.59,27.68-2.39c3.9,1.38,7.9,2.75,12,4.13,21.92,7.34,45.48,13.79,67,16.61a12,12,0,0,1,9.66,16.12,236.91,236.91,0,0,0-11.89,47.8c-.46,2.88-.82,5.73-1.15,8.55m22.48-96.84c-18.19,1.54-44.23-5.74-65.39-13.5l-3.15-36.27c19.53-11,43.9-23,62-24.57a48.4,48.4,0,0,1,17.26,1.21l6.06,69.19A56.45,56.45,0,0,1,1241.2,425.05Z"/><path class="cls-1" d="M1258.72,555.91c-7.88,26.09-18.54,43.21-27.69,41.8a7.26,7.26,0,0,1-3.56-1.55"/><path class="cls-1" d="M1155.06,1313.09c18.24,7.32,37,23.46,41.73,26,7.76,4.16,9.89-3.82,8.93-9s-12.07-63.23-18.1-89.47-2.67-44.93,13-51.35c15.13-6.19,30.46,17.24,40.63,25s17.29-6.6,17.29-6.6,8.27-38.21,33.79-105.7,54.82-52.25,54.82-52.25"/><path class="cls-1" d="M1346.55,1049.5s31.37,7.36,7.08,75.3-42.73,102.4-42.73,102.4-3.86,15.54,8.89,16.23,39.61-7.23,47.13,7.3c7.8,15.06-1.76,31.46-23.35,47.55s-67.6,53.07-71.74,56.43-7.62,10.76,1,12.62,71.13.33,70.08,30S1274.34,1462,1267,1466s-8.72,7.46-7.55,11.6,22.14,1.64,39.94,1.94,38.39,3.75,36.34,20.84-39.51,57.28-140.12,80.43l-29,4.51"/><path class="cls-1" d="M1323.11,1113.53c-53.87,139.61-119.56,319.78-173.07,461.94"/><polyline class="cls-1" points="1155.23 1517 1166.38 1532.33 1275.99 1515.44"/><polyline class="cls-1" points="1155.18 1357.65 1195.93 1451.9 1304.8 1398.4"/><polyline class="cls-1" points="1214.03 1222.55 1251.57 1303.54 1332.77 1273.85"/><path class="cls-1" d="M197.39,1064.51c-8,7.86-15.23,16.73-21.21,21.5-13.79,11-24.06-8.6-24.06-8.6s-12.56-52.47-49.79-144.82-77.21-70.46-77.21-70.46"/><path class="cls-1" d="M26,861.84S-17.08,872.94,18.46,966s62,140,62,140,5.79,21.33-11.79,22.67-54.87-8.79-64.81,11.48c-10.31,21,3.37,43.35,33.64,64.91s94.87,71.2,100.69,75.71,10.83,14.62-1,17.45-98.14,2.58-95.8,43.54,96.54,87.15,106.74,92.4,12.26,10,10.77,15.78-30.5,2.93-55,3.87S51,1460.1,54.37,1483.62c2.87,20.29,42.63,63.5,143,93.56"/><path class="cls-1" d="M60.24,949.49c46,111.93,91.59,227.42,137.16,343"/><polyline class="cls-1" points="197.37 1134.71 164.65 1209.53 51.71 1170.99"/><path class="cls-7" d="M1155.13,233.55V354.71c-6,3.14-11.89,6.39-17.56,9.6l-22.08,1.93V233.59a71.36,71.36,0,0,0-71.26-71.33H960.17c6.88-3.73,16.54-5.17,32.07-7.4,19.4-2.78,22.34-.79,36.83-3.64,14.25-2.78,26.79-5.24,35.41-12.81a34.55,34.55,0,0,0,8.62-12A111,111,0,0,1,1155.13,233.55Z"/><path class="cls-7" d="M1143.17,428.68c3.9,1.38,7.9,2.75,12,4.13v855.54h-39.64V431.07Z"/><path class="cls-1" d="M1155.13,233.55V354.71c-6,3.14-11.89,6.39-17.56,9.6l-22.08,1.93V233.59a71.36,71.36,0,0,0-71.26-71.33H960.17c6.88-3.73,16.54-5.17,32.07-7.4,19.4-2.78,22.34-.79,36.83-3.64,14.25-2.78,26.79-5.24,35.41-12.81a34.55,34.55,0,0,0,8.62-12A111,111,0,0,1,1155.13,233.55Z"/><path class="cls-1" d="M1115.49,1826.81V431.08l27.68-2.4c3.9,1.38,7.9,2.76,12,4.13v1394"/><path class="cls-4" d="M345.74,484.72s-64.86,15.19-77.49,54.69-61.08,668.74-61.08,668.74,43.28,30.49,131.55,13.69S345.74,484.72,345.74,484.72Z"/><path class="cls-3" d="M456.68,1047.93c-9,57.86-23.29,131.34-34.95,195.19-.5,2.72-1,5.44-1.48,8.13-2.33,12.91-4.52,25.32-6.52,37.12l-73,495-7.47-1.14-76.53-11.69,0-5,4.71-477.16c.23-21.49.33-42.59.33-63,0-50.2-.72-96.49-1.58-135.9-.36-15.59-.19-30.24.23-43.7.76-23.17,2.39-42.79,4.07-57.7,2.16-19.85,4.32-31.25,4.32-31.25a717.85,717.85,0,0,1,85.51-21.4c8.09-1.44,16.28-2.71,24.37-3.7,23.85-2.85,46.75-3.14,63,2h0a40.8,40.8,0,0,1,14,7.21,25.58,25.58,0,0,1,9.44,18.61C466.45,976.58,462.78,1008.65,456.68,1047.93Z"/><path class="cls-8" d="M568,1288.37l-6.78,487-83.75,3.06-74.3-490.05-7.63-38.86-22-112.5v0l-15.66-79.81-2.2-11.2v0l-12.84-65.62-2.66-13.53s5.51-1.44,14.71-3.77c6.49-1.64,14.88-3.67,24.44-6,18.48-4.36,41.45-9.53,64.48-13.92,4-.79,7.93-1.51,11.89-2.23,39.55-7.11,76.8-11.24,88.49-4.52,10.09,5.8,14.61,30.37,16.61,63.88l.36,6.42c.07,1.12.1,2.23.17,3.38,2.65,59.43-1,141.89,3.8,199.94.36,4.36.68,9.37,1,14.94C567,1241.62,567.65,1263.37,568,1288.37Z"/><path class="cls-3" d="M533.11,508.38s-111.93-63.74-187.37-23.66c-12,6.38-25.21,23.06-34.66,34.73-26.26,32.43-53.34,525.61-53.34,525.61s158.27,43.85,303.65-35Z"/><path class="cls-4" d="M339.49,483.29s-106.8,51-119.66,86.23S170.75,818.91,172.15,843.7s84.11.81,95.34-39.93c9.33-33.83,41.36-138,57.65-203.6Z"/><path class="cls-9" d="M364.12,516.15c24.13,3.34,58.91-3.63,83.63-22-13.15-27-19.14-48.62-21.63-62.66-.14-.75-.25-1.48-.36-2.17-1.18-7.29-1.35-12.27-1.12-14.57l-61.71,3.47s-16.43,8.67-16.13,14q.24,4.27.39,8.19c.27,7.1.34,13.31.27,18.65-.2,17.38-1.72,25.65-1.72,25.65S339.76,512.79,364.12,516.15Z"/><path class="cls-10" d="M347.46,459.07c47.26,6.4,73-20.68,78.66-27.57.82-1,1.23-1.57,1.23-1.57-.51-.22-1-.41-1.59-.6-17.8-6.07-57,1.76-78.57,11.09C347.46,447.52,347.53,453.73,347.46,459.07Z"/><path class="cls-9" d="M439.88,403.72C434.06,449.15,376,451,350.74,449.53c-7.1-.38-11.59-1-11.59-1-8.08-1.68-13.22-14-16.21-30.26C317,386,319.5,338,324.3,325.52,331.52,306.7,346,286,405.18,297S447.35,345.51,439.88,403.72Z"/><path class="cls-3" d="M320.71,300.56c7.36-11.5,23.53-26,38.44-35.15,32-19.73,75.34-3.68,75.52-3.62,48.9,18.29,63.42,54.1,41.33,112.39-23.37,61.65-49.22,56.32-49.22,56.32s5.22-3.67,3.67-22.39c-.09-1.06-.18-1.95-.27-2.71a12.63,12.63,0,0,1,3.4-10.48c5.63-5.62,7.62-21.79,2.4-26-6.29-5-14.33,2-16.74,7.14A7.35,7.35,0,0,1,408.9,379c-15.38-8.55-6.79-27.88-21.63-38.56s-43.09.58-64.9-7.38C293.92,324.25,315.16,309.23,320.71,300.56Z"/><path class="cls-4" d="M367.3,1245.16c9.54,1.88,18.95,3.35,28.3,4.35q12.38,1.41,24.65,1.75c46.45,1.41,92.5-7.71,145.89-26.33q18-6.29,37.28-14c1.36-.55-11.69-143.75-25.76-291.43-1.44-15.24-2.91-30.55-4.36-45.75q-.93-9.65-1.85-19.23C558.87,723.9,547.06,606,545.62,599.67c-3.29-14.26-6.31-26.41-9.44-36.9-9.14-30.6-19.28-47.09-40.12-60.58-2-1.37-18.49-8.54-33-14.76-12-5.16-22.71-9.64-22.71-9.64h0c-4.52,2.54-9.51,13.52-14.52,28.82-9.19,28.2-18.41,71.11-24.7,103.12l0,.16h0c-4,20.67-6.88,36.75-7.68,41.36-1.37,7.79-2.91,22.81-4.58,43.14-2.25,27.68-4.69,65.2-7.1,107.76-.25,4.37-.5,8.81-.74,13.28-.28,5.1-.57,10.27-.85,15.48-.09,1.68-.18,3.36-.26,5-.91,16.85-1.8,34.25-2.66,51.92-.72,14.61-22.16,26.36-22.84,41.22-.39,8.72,2.29,88.86,1.38,114.54C355.1,1062,366.15,1236.62,367.3,1245.16Z"/><path class="cls-4" d="M400.37,864.33s10.38,2,26.85,4.35l.17,0c30.38,4.34,81.36,10,126.43,7,6.65-.44,13.18-1.08,19.48-1.93a191.47,191.47,0,0,0,24.43-4.79C614,864.53,627.5,857.86,636,848.15,699.25,776,581.71,536.59,558.56,514c-27-26.43-74-33.59-99.88-35.5l-3.12-.22c-9.09-.56-14.89-.46-15.21-.45h0s2.38,6.35,6.36,17.13c1.55,4.17,3.35,9,5.32,14.41,18.67,50.72,54.8,150.43,71.42,206.87,6.1,20.65,9.57,35.51,8.63,40.06-4.14,19.83-57.78,32.93-91.87,39.31-14.23,2.66-25.05,4.15-27.47,4.47l-.51.07-1.52,8.25-3.65,19.81-3.6,19.45Z"/><polygon class="cls-4" points="219.87 992.46 449.75 969.76 386.81 685.22 156.92 707.92 219.87 992.46"/><polygon class="cls-1" points="219.87 992.46 449.75 969.76 386.81 685.22 156.92 707.92 219.87 992.46"/><path class="cls-9" d="M412.22,800.11s-45-.6-46.69,10c-3.87,24.67,41.07,42.21,55.18,40S422.46,797.9,412.22,800.11Z"/><path class="cls-9" d="M172.81,765.52s42.16-15.84,47.31-6.44c12,21.89-24.31,53.64-38.33,56.38S162.44,766.92,172.81,765.52Z"/><path class="cls-11" d="M434.87,463.63s21.5,2.49,31.73,15.53c0,0-65.76,131.89-65.51,130.72S417.71,480.33,434.87,463.63Z"/><path class="cls-11" d="M347.11,470.31C341,473,329.8,485.88,327.5,492.78l-2.36,107.39s13.48-79.47,20.6-115.45A59.94,59.94,0,0,0,347.11,470.31Z"/><path class="cls-4" d="M310.6,692.74s-2.27-7.86-12.71-6.35-69.2,7.74-69.2,7.74-11.37.46-9.9,7.68Z"/><path class="cls-1" d="M310.6,692.74s-2.27-7.86-12.71-6.35-69.2,7.74-69.2,7.74-11.37.46-9.9,7.68Z"/><polygon class="cls-12" points="752.74 255.94 752.74 256.02 752.42 256.1 752.42 256.02 752.74 255.94"/><path class="cls-13" d="M756.52,255.05c-1.21.33-2.5.65-3.78,1l-.32.08V256l.32-.08C754,255.7,755.23,255.38,756.52,255.05Z"/><polygon class="cls-14" points="789.55 243.92 790.19 243.76 789.95 243.76 789.55 243.92"/><path class="cls-3" d="M1174.68,1629.05l-63.26-.68-82.81-.88-44-.47c-.89-4.49-66.09-346.87-66.68-349.69-2.82-13.21-5.24-26.54-7.8-39.84-.36-2-.16-4.23-2.49-5.57-2.05,1.55-2.19,4.06-1.9,6.09,1,7.15,4,367.54,5.12,392.34l-44.52,3.05-80.49,5.5-61.38,4.2c-6.19-146.87-14.61-652.8-11-685.17a324.79,324.79,0,0,0,14.84,30.67c11-19.53,20.45-39.48,26.31-61.2.13-1.31.2-2.59.3-3.87-5-10.25-13.17-23.75-22.41-37.87,3.44-11.33,7.14-22.6,10.68-32.43a60.62,60.62,0,0,0,45,20.08H997.9a60,60,0,0,0,25.56-5.7c9.34,26.47,16.67,53.66,24.27,80.76,9.6,34.14,45.81,240.08,49.08,260.55C1098.52,1219.41,1168.45,1590,1174.68,1629.05Z"/><path class="cls-3" d="M932.34,361.28l-.09.41a3,3,0,0,1-4.37,1.86c-3.78,2.33-8.15,3.24-12.53,4.1-13.43,2.69-27.05,3.6-40.61,4.69-9.84.78-9.62.5-8.61,10,1.23,11.7,1,23.32-3.51,34.43-4.28,10.65-5,11-16.16,6.78a29.28,29.28,0,0,0-3.42-1c-12-3.06-18.63,2.59-17.85,15a20.88,20.88,0,0,0,2.82,9.06,25.91,25.91,0,0,0,11.62,10.93,32.38,32.38,0,0,0,3.59,1.55c.87.32,1.82.64,2.73,1l.23.09c.59.18,1.18.36,1.78.5l.41.14.5.13c.59.19,1.27.37,1.91.51l3.87.95a12.69,12.69,0,0,0,1.41.36l-1.73,2C850.6,469,842,478.9,840.4,480a45,45,0,0,1-23,8.56c-18.81,1.41-37.07-12.93-50.77-24.41-11.25-9.33-55-25.62-68.58-26.67s-27.33-.82-40.89,2.46a32.56,32.56,0,0,1-4.33.73V269.12c30.6,0,70.94,27.22,94.85,41.24,13,7.65,29.33,6.11,44,2.51,39-9.57,82.65-17.21,119.63,4.05a39.85,39.85,0,0,1,9.06,7.11,61.82,61.82,0,0,0-12.61-15.12c-14.53-12.71-34.48-17.26-53.33-17.72-19.54-.45-38.39,4.19-57.74,5.88-9.7.82-19.63.63-29.06-2.1-8.47-2.46-16-7.06-23.08-12.16-14.89-10.74-32.11-26.32-52-19.9-3.87,1.28-5.51-4.83-1.68-6.1,22.91-7.38,41.8,10.11,59.11,22.18,9.24,6.42,19,11,30.37,11.93,11.75,1,23.5-.87,35.07-2.64,20.17-3.14,40.57-5.15,60.79-1,17.94,3.73,34.34,12.66,45.49,27.37C931.75,328,936.53,344.93,932.34,361.28Z"/><path class="cls-9" d="M961,419.76c-2.42-23.1-11.53-42.72-28.63-58.48l-.1.39a2.94,2.94,0,0,1-4.36,1.87c-3.8,2.32-8.16,3.24-12.54,4.13-13.44,2.68-27,3.57-40.63,4.68-9.83.76-9.6.49-8.58,10,1.21,11.73,1,23.33-3.51,34.44-4.29,10.68-5.08,11-16.18,6.78a33.77,33.77,0,0,0-3.41-1.05c-12-3.05-18.64,2.62-17.85,15a20.82,20.82,0,0,0,2.81,9.07,26.09,26.09,0,0,0,11.63,10.91,33.08,33.08,0,0,0,3.61,1.57l2.72.95.23.1c.58.17,1.17.36,1.76.49l.43.14.49.13c.59.19,1.28.36,1.9.52,1.28.3,2.56.62,3.87.95.46.13,1,.26,1.44.36,1.18-.1,2.29-.26,3.44-.36.1,2.39.2,4.85.23,7.27.36,10.52.42,21,.26,31.55-1.47,1.58-3.64,2.3-6.78,2.23-6-.06-12.06.43-18.05.66,9.6,19,21.65,39.11,30.43,58.51,13.6,29.91,35.58,92.55,37.19,95.73l0,.1c2.36,3.14,5.83,2.58,7.37-1.12l.1-.26c1.21-4.55,12.42-56.15,14-90.68,1.18-26.54,1.18-36.83,1.67-55-3.24-.56-6.52-.79-9.66-1.51a18.51,18.51,0,0,1-3-1c-1-13.24-1.8-27.88-2.36-37.29,2.65-.26,5.34-.19,7.93-.65C944.08,466.8,963.93,448.36,961,419.76Zm-55.73,6.06,41.45,2c-1.84,10.65-11,18.58-21.69,18S906,436.56,905.25,425.82Z"/><path class="cls-4" d="M946.7,427.85c-1.84,10.65-11,18.58-21.69,18s-19-9.34-19.76-20.08Z"/><path class="cls-9" d="M754.83,923.54c-.09,1.28-.14,2.55-.27,3.87-5.88,21.72-15.35,41.67-26.32,61.2a328.94,328.94,0,0,1-14.85-30.69c-3.37-8.1-6-15.94-6.28-21.36L570.17,826.09a34.66,34.66,0,0,1-7.42-45.68l45.9-71.9,82.61,68.58L676.78,806a6.32,6.32,0,0,0,1.46,7.55c9.15,8.16,34.19,41.49,54.19,72.09C741.67,899.77,749.82,913.29,754.83,923.54Z"/><path class="cls-15" d="M1114.4,733.28A108,108,0,0,1,1084.12,780a95.46,95.46,0,0,1-23.5,15.57l-.18.09-.27.46a10.71,10.71,0,0,0-1.05,2,9,9,0,0,0-.68,3.37v11.29a60.67,60.67,0,0,1-35,54.83,60,60,0,0,1-25.55,5.69H788.07a60.67,60.67,0,0,1-60.52-60.52V769a58.56,58.56,0,0,1,.92-9.84c-7.75,6.88-20.13,25.37-25.42,24.87-4-2.33-7.87-4.7-11.79-7l-82.61-68.58c-4-3.56-7.87-7.11-11.84-10.7,14.21-20.68,88.44-125.24,110.8-145.5,15.89-14.39,55.55-30.06,86.8-39.53a71.7,71.7,0,0,0,37.2-8.7,15.91,15.91,0,0,1,3.55,0c9.61,19,21.68,39.12,30.47,58.52,13.57,29.92,35.56,92.54,37.15,95.72l.05.09c2.37,3.15,5.83,2.6,7.38-1.09l.09-.27c1.23-4.55,12.43-56.15,14-90.67,1.19-26.55,1.19-36.84,1.68-55.05l.46.09-.46-.6c17.9,4.88,35.89,9.75,53.79,14.62l.41.14,1.59.41c29.74,8.1,61.93,17.17,85.66,37.75,18.08,15.67,30.28,37.11,39,59.34,7.65,19.53,12.89,40.39,13.94,61.29A135.55,135.55,0,0,1,1114.4,733.28Z"/><polygon class="cls-16" points="926.42 511.42 925.96 511.33 925.96 510.82 926.42 511.42"/><path class="cls-9" d="M1220.74,520c-.69.91-1.42,1.78-2.1,2.64l.09-.77Z"/><path class="cls-3" d="M859.75,469.66c-3.73,15.21-14.53,27-28.14,34.42a71.7,71.7,0,0,1-37.2,8.7,51.31,51.31,0,0,1-6-.5,65.1,65.1,0,0,1-22.91-8c-9.51-5.46-18-12.57-28.37-16.48-15.8-5.92-50.46-9-50.86,16.07-.09,4.1-6.38,4.1-6.33,0,.31-18.17,18.17-27,34.29-26.82a73.15,73.15,0,0,1,27.14,5.69c9.56,4,17.62,10.34,26.46,15.58a60.91,60.91,0,0,0,51.73,4.51c16.62-6,32-20.13,34.74-38.17l1.73-2c1.19-.08,2.33-.27,3.46-.36C859.62,464.78,859.7,467.24,859.75,469.66Z"/><path class="cls-9" d="M1272.51,530.82c.46,8.56-5.87,17.39-13.79,25.09-9.43,9.1-21.14,16.53-26.69,19.81l-4.56,20.44-.27,1.14-.14.5-4,18c-4.87,18.94-11.61,37.38-17.26,56.14-11.52,38.3-27.23,75-40.57,112.62-4.74,13.3-11.66,25.68-22.27,35.57-21.81,20.26-50.82,19.17-70.9-2.87-4.65-5.06-9.06-10.29-13.57-15.44v-.36a9,9,0,0,1,.68-3.37,10.71,10.71,0,0,1,1.05-2l.27-.46.18-.09a95.46,95.46,0,0,0,23.5-15.57,108,108,0,0,0,30.28-46.68,135.55,135.55,0,0,0,6-48.91c7.74-17.3,25.27-49,42-76.5l.23-.41,0-.05L1197.42,544a32.86,32.86,0,0,1,6.51-8.38l14.8-13.71-.09.77c.68-.86,1.41-1.73,2.1-2.64a60.32,60.32,0,0,0,5.69-8.65c3.5-6.88,8.1-9.38,11.88-10.15a13.66,13.66,0,0,1,6.88.18l21.13,20.76,5.78,5.65A13.46,13.46,0,0,1,1272.51,530.82Z"/><path class="cls-7" d="M1085.91,433.63l-59.37,22.15s-13.95-22.18-16.18-48.1c-2.39-27,7.63-50.16,7.63-50.16l62.31,11.54v.26Z"/><path class="cls-1" d="M1085.91,433.63l-59.37,22.15s-13.95-22.18-16.18-48.1c-2.39-27,7.63-50.16,7.63-50.16l62.31,11.54v.26Z"/><path class="cls-1" d="M1271.86,324.93l0,0,.2.06V325A.58.58,0,0,0,1271.86,324.93Z"/><path class="cls-1" d="M493.94,655.52A354.79,354.79,0,0,1,517,695.16C536.53,734.4,533.69,747,532.08,752c-3,9.35-9,15-13.29,19.1-10.45,9.9-22.27,14.16-70.67,22.9-8.94,1.61-21,3.72-35.39,6"/><path class="cls-1" d="M427.39,868.7c11.92,1.74,26.7,3.61,43.75,5.11s34.49,3,57.33,2.69c12.24-.15,27.42-.83,44.83-2.77"/><path class="cls-1" d="M1073.1,126.42a34.55,34.55,0,0,1-8.62,12c-8.62,7.57-21.16,10-35.41,12.81-14.49,2.85-17.43.86-36.83,3.64-15.53,2.23-25.19,3.67-32.07,7.4,0,0,0,0-.07,0a23.63,23.63,0,0,0-5.47,4c-8.39,8.1-13.23,21.56-10.32,33.45,2.07,8.46,7.67,14.45,10,17,6,6.45,9.1,6,16.74,13.66,5.57,5.63,9.92,10,10,16.18.1,5.64-3.4,10.88-7,13.67C963,269,939.69,262.52,926.19,250.2c-19.36-17.6-19.52-47.8-13.1-67.75a77.21,77.21,0,0,1,10.16-20.15s0,0,0,0A64.77,64.77,0,0,1,945.56,142c15.39-8.26,38.92-12,59.1-9.76,7.86.88,22.08,3.4,34.86-4.46a37.42,37.42,0,0,0,6.52-5.14l0,0H767.76a5,5,0,0,1-4.78-5c0-3.77,2-8.52,11.1-10a18.93,18.93,0,0,1,5.11-.39c1.18,0,2.43,0,3.8.06a21,21,0,0,0,7.21-2.55l.85-.46.17-.1c-7.51-1.21-14.42-3.77-19-8.49l-7.89-22.54s-16.12-17.26-16.12-28.89l26.63,4.88s19.17-18.41,27-18.41L805.21,3s19.91,12.77,19.52,23.65c0,0,18.41,8.65,19.92,12.42a39.92,39.92,0,0,1,2.36,14l.42-.1.63-.16.59-.17.65-.19.62-.17.73-.23.62-.22.75-.27.66-.23.82-.29a68.92,68.92,0,0,0,26.63-18.81c9.47-10.58,55-36.53,101.92-31,3.31.4,64.15,8.59,86.72,58C1077.81,79.08,1081.62,107.49,1073.1,126.42Z"/><path class="cls-1" d="M767.76,122.62H873.05l-105,0A.93.93,0,0,1,767.76,122.62Z"/><path class="cls-1" d="M1044.23,122.62q-51.54,0-103.13,0v0Z"/><line class="cls-1" x1="1272.09" y1="325.02" x2="1282.48" y2="443.85"/><path class="cls-17" d="M937.38,122.66q-2.75-3.16-2.2-5.59,1.89-8.58,44.56-8.14c-3.08-.8-21.35-5.82-30.34-23.53-8.52-16.79-5.25-38.19,8.42-53.69"/><path class="cls-1" d="M874.82,81.13l22.73,11.3c11.55,5.75,15.52,7.72,18.25,12.43,3.64,6.26,2.77,13.4,1.76,17.8"/><path class="cls-4" d="M831.22,1825.81H712.28c-3.92,0-6.7-1.07-8-3.09-1.48-2.22-1.33-5.62.43-9.83a33.62,33.62,0,0,1,3.71-6.44l155.79-3.78c-.21,1.91-.47,3.91-.78,6.1-1.47,10.39-4,16.14-13.44,16.7-5.13.31-10.35.32-15.41.33h-3.31Z"/><path class="cls-5" d="M863,1803.7c-.18,1.55-.39,3.18-.64,4.93-1.43,10.09-3.76,15.32-12.51,15.84-5.1.31-10.31.32-15.35.33H712.28c-2.49,0-5.76-.46-7.22-2.64-1.26-1.91-1.08-5.06.51-8.86a32,32,0,0,1,3.32-5.87L863,1803.7m2.24-2-157.41,3.81a34.36,34.36,0,0,0-4.13,7c-3.57,8.54-.84,14.3,8.55,14.3H831.22c6.26,0,12.52,0,18.78-.34,10.42-.63,12.93-7.39,14.37-17.56.34-2.41.65-4.85.9-7.26Z"/><path class="cls-5" d="M865.27,1801.65l-157.41,3.81c12.34-17,41.57-36.74,43.76-38.87,13.15-12.18,58.63-30.67,55.4-42.85-1.06-3.94-3.13-7.73-1.78-12,20.09.85,40.19.75,60.28,0C866.62,1741.77,868.62,1771.79,865.27,1801.65Z"/><path class="cls-9" d="M865.65,1711.82h-.13c-20.06.68-40.1.78-60.16,0a.14.14,0,0,1,0-.07c-3.87-11-12.82-46-19.52-72.85l80.49-5.5C866.55,1660,866.45,1699.73,865.65,1711.82Z"/><path class="cls-18" d="M867.15,1772.1a28.53,28.53,0,0,0-20.78,5.07c-10,7.36-11.52,23.51-11.65,25.2"/><path class="cls-4" d="M997.06,1825.48a6.67,6.67,0,0,1-5.37-2.1c-1.61-1.87-2.12-5-1.48-9.12a34.9,34.9,0,0,1,2.09-7.11l150.57-40.45c.26,2,.49,4.07.7,6.13.93,9.44-.85,12-10.6,15-3.75,1.15-7.63,2.1-11.38,3-2.23.54-4.53,1.11-6.8,1.71-7.23,1.83-24.65,6.94-44.82,12.86-26.65,7.82-56.87,16.69-69.27,19.59A16,16,0,0,1,997.06,1825.48Z"/><path class="cls-5" d="M1142,1768c.2,1.63.39,3.29.56,5,.88,9-.6,11.06-9.9,13.95-3.73,1.15-7.6,2.1-11.34,3-2.23.54-4.53,1.11-6.78,1.71-7.27,1.83-24.7,7-44.88,12.87-26.64,7.82-56.83,16.68-69.2,19.58a15.29,15.29,0,0,1-3.42.43,5.72,5.72,0,0,1-4.61-1.75c-1.42-1.65-1.85-4.52-1.26-8.27A33.9,33.9,0,0,1,993,1808l149-40m1.7-2.53-152.15,40.88a35.89,35.89,0,0,0-2.35,7.79c-1.21,7.74,1.52,12.38,7.84,12.38a17,17,0,0,0,3.87-.48c21.63-5.07,97.12-28.17,114.12-32.46,6.1-1.63,12.21-2.91,18.22-4.76,10-3.1,12.3-5.85,11.3-16-.25-2.45-.54-4.89-.85-7.3Z"/><path class="cls-5" d="M1143.72,1765.43l-152.15,40.85c7.95-19.47,31.8-45.42,33.55-48,9.9-14.93,49.71-43.82,43.67-54.74-1.94-3.57-4.73-6.79-4.57-11.21,19.75-3.94,39.25-8.79,58.59-14.21C1130.86,1707.06,1139.9,1735.63,1143.72,1765.43Z"/><path class="cls-9" d="M1122.72,1678.07c-19.38,5.42-38.88,10.27-58.6,14.21-6.2-9.55-22.7-40.45-35.51-64.79l82.81.88C1116.51,1649,1121.36,1670,1122.72,1678.07Z"/><path class="cls-18" d="M1138.53,1736.29a28.58,28.58,0,0,0-19,9.86c-8,9.39-5.64,25.54-5.39,27.23"/><line class="cls-7" x1="346.24" y1="1819.1" x2="345.9" y2="1819.1"/><line class="cls-7" x1="174.22" y1="1819.1" x2="174.02" y2="1819.1"/><path class="cls-5" d="M325.5,1781.53h-.18l.17-.1Z"/><path class="cls-4" d="M461.19,1825.81c-3.87-4.39-4.44-9.71-1.46-14,2.77-4,7.76-5.76,9.91-6.38,8.23-.06,16.58-.55,24.66-1s16.49-1,24.71-1h1.61c7.38,0,14.89.35,22.16.69s14.81.69,22.24.69h1.33c1.48,1.06,7.56,5.82,6.23,12.42-.9,4.51-4.8,7.44-6.67,8.61Z"/><path class="cls-5" d="M520.62,1804.41c7.36,0,14.86.35,22.12.69s14.84.69,22.29.69h1c1.62,1.22,6.71,5.57,5.58,11.22-.79,4-4.16,6.62-6,7.8h-104c-3.28-4-3.72-8.64-1.1-12.39s7.13-5.34,9.24-6c8.21-.07,16.53-.55,24.58-1s16.45-1,24.65-1h1.6m0-2H519c-16.48.12-33,1.93-49.5,2-1.7.48-7.41,2.26-10.59,6.81-3.35,4.79-2.59,10.76,1.84,15.54H566.19c1.34-.8,6.28-4,7.37-9.41,1.56-7.79-6.23-13.17-6.91-13.62H565c-14.81,0-29.59-1.38-44.41-1.38Z"/><path class="cls-6" d="M495,1786.42a107.2,107.2,0,0,1,39.83-.34"/><path class="cls-6" d="M495.81,1796.38a106.64,106.64,0,0,1,39.83-.34"/><path d="M126.34,1619.59a30.75,30.75,0,0,1,30.72,30.72v20.4a41.88,41.88,0,0,0,8.8,25.34,86.46,86.46,0,0,1-21.48,125.31,27.92,27.92,0,0,1-15.26,4.42H65.65a28,28,0,0,1-15.27-4.42A86.46,86.46,0,0,1,28.9,1696.05a41.8,41.8,0,0,0,8.82-25.34v-20.4a30.74,30.74,0,0,1,30.7-30.72h57.92m-29.59,14.84a106.3,106.3,0,0,1-13-.8l-11.7-1.45a17.17,17.17,0,0,0-19.28,17v8.1a17.17,17.17,0,0,0,17.13,17.16,17.89,17.89,0,0,0,2.19-.14L82.94,1673a106.34,106.34,0,0,1,24.83-.18l16.63,1.86a17.84,17.84,0,0,0,1.93.11,17.18,17.18,0,0,0,17.14-17.18V1649a17.17,17.17,0,0,0-17.15-17.17h0a18.21,18.21,0,0,0-1.95.11l-15.83,1.81a105.48,105.48,0,0,1-11.79.66m29.59-15.84H68.42a31.71,31.71,0,0,0-31.7,31.72v20.4a40.47,40.47,0,0,1-8.61,24.72,87.45,87.45,0,0,0,21.73,126.76,28.9,28.9,0,0,0,15.81,4.59h63.47a28.92,28.92,0,0,0,15.81-4.59,87.46,87.46,0,0,0,21.72-126.76,40.51,40.51,0,0,1-8.59-24.72v-20.4a31.72,31.72,0,0,0-31.72-31.72Zm-29.59,16.84a105.35,105.35,0,0,0,11.9-.67l15.83-1.8a16.5,16.5,0,0,1,1.84-.11A16.17,16.17,0,0,1,142.47,1649v8.56a16.17,16.17,0,0,1-16.14,16.18c-.6,0-1.21,0-1.82-.1l-16.63-1.86a106.85,106.85,0,0,0-25.06.18L72,1673.35a15.94,15.94,0,0,1-2.06.13,16.15,16.15,0,0,1-16.13-16.16v-8.1a16.16,16.16,0,0,1,16.14-16.17,17.36,17.36,0,0,1,2,.12l11.69,1.45a106.44,106.44,0,0,0,13.11.81Z"/><path class="cls-19" d="M284.31,628.12c0,15.74-8.93,28.93-20.42,31.48a13.23,13.23,0,0,1-4.25.43C246,660,235,645.56,235,628.12s11.06-31.9,24.67-31.9a16,16,0,0,1,4.25.42C275.38,598.77,284.31,612,284.31,628.12Z"/><path class="cls-19" d="M292.4,628.12c0,17.44-11.06,31.91-24.68,31.91h-8.08a16,16,0,0,0,4.25-.43c11.49-2.55,20.42-15.74,20.42-31.48s-8.93-28.93-20.42-31.48a13.23,13.23,0,0,0-4.25-.42h8.08C281.76,596.22,292.4,610.25,292.4,628.12Z"/><ellipse class="cls-19" cx="251.56" cy="626.42" rx="8.93" ry="11.49"/><path class="cls-20" d="M265,606a11.79,11.79,0,0,1-1.28,5.53,12.09,12.09,0,0,1-8.08,3.83"/><path class="cls-21" d="M421.64,736a16.24,16.24,0,0,0,8.6,5.1l.39,0a8.86,8.86,0,0,0,9.3-7,8.35,8.35,0,0,0-2.2-6.11,9.29,9.29,0,0,0-6-3.29h0a17.71,17.71,0,0,0-8.88,2.35,40.14,40.14,0,0,1-6.11,2.21,46.09,46.09,0,0,1-7-5c-12.05-10.53-7.7-28.27-5.86-35.59a8.65,8.65,0,0,1,.67-3.09c1.34-6.18,17.67-56.33,29.93-87.53a37.18,37.18,0,0,1,8.34-5.16,39.21,39.21,0,0,1,27-1.91,38.38,38.38,0,0,1,21.37,16.49,21.88,21.88,0,0,1,2.92,7c-.85,31.45-3.13,91.92-3.84,95.4l0,.39c-1.73,10.48-5.95,18-11.8,21.79a21.84,21.84,0,0,1-11.3,2.92l-.39,0a26,26,0,0,1-7.6-3,18.28,18.28,0,0,0-8.78-3.15A8.32,8.32,0,0,0,442,737h0l0,.39a9.21,9.21,0,0,0,8.36,7.84l1.17.11a14.11,14.11,0,0,0,8.66-4.34,18.25,18.25,0,0,1,5-3.1h0a23.51,23.51,0,0,0,14.49-3.43c6.67-4.12,11.35-12.37,13.15-23.64l0-.39c.81-4.65,4.16-94.57,4.33-109.53a34.41,34.41,0,0,0-26.37-35.46h0a29,29,0,0,0-16.3,1.68,40.73,40.73,0,0,0-21,23.72c-12.12,29.64-31.07,87-32.06,93.65-.07.78-.56,1.92-.67,3.09-1.91,8.1-6.33,26.62,7.18,38.47a34.18,34.18,0,0,0,5.9,4.47l2.24,1.38m77.07-125.45a42.7,42.7,0,0,0-8.53-10.22,38.83,38.83,0,0,0-14.29-7.59,47.19,47.19,0,0,0-7.36-1.45,58.67,58.67,0,0,0-8.28,0,30.88,30.88,0,0,0-12.14,3.64,38.71,38.71,0,0,0-6.29,4.16,7.16,7.16,0,0,0,1-2.66c11.09-27,30.17-24.48,34.05-23.74a30.77,30.77,0,0,1,23.9,32.1h0c-.17,2-.06,5.11-.41,9A13.69,13.69,0,0,1,493.16,606.48Z"/><path class="cls-22" d="M263.43,596.29c3.07-12,10.89-34.71,19.19-50.72,10.85-20.93,37.08-47,47.23-57.58"/><path class="cls-22" d="M466.6,479.16c2.45,8.22,7.19,21.58,8.61,32.37,2.41,18.15-.63,42.9-2.12,55.32"/><line class="cls-1" x1="99.13" y1="1350.5" x2="197.51" y2="1393.06"/><line class="cls-1" x1="96.07" y1="1479.95" x2="195.64" y2="1525.91"/><circle class="cls-1" cx="308.49" cy="221.61" r="33.7"/><rect class="cls-1" x="525.77" y="195.57" width="327.25" height="28.09" rx="12.12"/></g></g></svg>