<?xml version="1.0" encoding="utf-8"?>
<!-- Generator: Adobe Illustrator 25.0.0, SVG Export Plug-In . SVG Version: 6.00 Build 0)  -->
<svg version="1.1" id="Layer_1" xmlns="http://www.w3.org/2000/svg" xmlns:xlink="http://www.w3.org/1999/xlink" x="0px" y="0px"
	 viewBox="0 0 1287.7 1374.6" style="enable-background:new 0 0 1287.7 1374.6;" xml:space="preserve">
<style type="text/css">
	.st0{fill:none;stroke:#000000;stroke-linecap:round;stroke-miterlimit:10;}
	.st1{fill:#F8C844;}
	.st2{fill:#FFA35F;}
	.st3{fill:#F4EFEB;stroke:#000000;stroke-linecap:round;stroke-miterlimit:10;}
	.st4{fill:#0F1D5B;}
	.st5{fill:none;stroke:#000000;stroke-miterlimit:10;}
	.st6{fill:none;stroke:#FFFFFF;stroke-linecap:round;stroke-miterlimit:10;}
	.st7{fill:#000233;}
	.st8{fill:#FACCBC;}
	.st9{fill:#DCA797;}
</style>
<g>
	<polygon class="st0" points="1067.6,1217.4 1158.9,1217.4 1183,1082.9 1043.5,1082.9 	"/>
	
		<rect x="1155.3" y="1112.2" transform="matrix(0.7071 -0.7071 0.7071 0.7071 -451.6226 1151.2532)" class="st0" width="17.2" height="17.2"/>
	
		<rect x="1130.3" y="1112.2" transform="matrix(0.7071 -0.7071 0.7071 0.7071 -458.9326 1133.604)" class="st0" width="17.2" height="17.2"/>
	
		<rect x="1105.4" y="1112.2" transform="matrix(0.7071 -0.7071 0.7071 0.7071 -466.2426 1115.955)" class="st0" width="17.2" height="17.2"/>
	
		<rect x="1080.4" y="1112.2" transform="matrix(0.7071 -0.7071 0.7071 0.7071 -473.5526 1098.3058)" class="st0" width="17.2" height="17.2"/>
	
		<rect x="1055.4" y="1112.2" transform="matrix(0.7071 -0.7071 0.7071 0.7071 -480.8655 1080.6495)" class="st0" width="17.2" height="17.2"/>
	<path class="st1" d="M1054.2,335.2c0,0-91.6-19.4-112.8-88.7c-0.5-1.6,0.4-3.4,2-3.9c0.6-0.2,1.3-0.2,1.9,0
		C959.6,247.5,1000.5,266.6,1054.2,335.2z"/>
	<path d="M962.6,262.7c6.4,7.5,13.1,14.6,20.2,21.3c7.1,6.8,14.5,13.2,22.3,19.1c3.9,3,7.8,5.9,11.9,8.7c4,2.8,8,5.6,12.2,8.2
		c8.2,5.3,16.5,10.5,25.2,15.1c-4.2-2.5-8.4-5.1-12.5-7.7c-4.1-2.6-8.2-5.3-12.3-8c-8.1-5.5-16.1-11.1-23.8-17s-15.2-12.3-22.4-18.9
		c-3.6-3.3-7.1-6.7-10.5-10.2C969.3,269.9,965.9,266.3,962.6,262.7z"/>
	<path class="st1" d="M1122.6,1017.8c0,0,88.2-31.4,99.9-102.9c0.3-1.7-0.8-3.3-2.5-3.6c-0.7-0.1-1.3,0-1.9,0.3
		C1204.7,918.3,1166.8,942.6,1122.6,1017.8z"/>
	<path d="M1203.8,933.8c-2.8,4-5.7,8-8.7,11.8s-6,7.7-9.1,11.5c-6.2,7.5-12.7,14.8-19.6,21.7c-6.9,6.9-14.1,13.6-21.4,20.1
		c-3.6,3.3-7.3,6.5-11.1,9.6c-3.7,3.2-7.5,6.2-11.4,9.3c7.9-5.7,15.5-11.9,22.9-18.3c3.7-3.2,7.3-6.5,10.9-9.8s7.1-6.7,10.6-10.2
		c6.9-7,13.4-14.3,19.5-21.9C1192.8,949.9,1198.5,942,1203.8,933.8z"/>
	<path class="st1" d="M1154.6,765.7c0,0,80.5-47.8,78.3-120.2c0-1.7-1.4-3.1-3.1-3.1c-0.7,0-1.3,0.2-1.9,0.7
		C1216,652.2,1183.5,683.4,1154.6,765.7z"/>
	<path d="M1218.1,667.6c-2,4.5-4,8.9-6.2,13.3c-2.2,4.4-4.4,8.7-6.7,13c-4.7,8.6-9.6,17-15.1,25.1s-11.2,16-17.1,23.8
		c-2.9,3.9-5.9,7.7-9,11.5c-3,3.8-6.2,7.6-9.4,11.3c6.7-7.2,12.9-14.7,19-22.4c3-3.8,6-7.8,8.9-11.7s5.7-8,8.4-12
		c5.4-8.2,10.4-16.6,14.9-25.3C1210.4,685.6,1214.5,676.7,1218.1,667.6z"/>
	<path class="st2" d="M1150.8,814.8c0,0,91.3-20.6,111.5-90.2c0.5-1.6-0.4-3.4-2.1-3.9c-0.6-0.2-1.3-0.2-1.9,0
		C1244.2,725.8,1203.7,745.4,1150.8,814.8z"/>
	<path d="M1241.5,741c-3.3,3.6-6.6,7.2-10,10.7c-3.4,3.5-6.9,7-10.4,10.3c-7.1,6.7-14.4,13.2-22.1,19.2c-7.7,6-15.6,11.8-23.6,17.4
		c-4,2.8-8,5.5-12.1,8.2c-4.1,2.7-8.2,5.3-12.4,7.9c8.6-4.8,16.8-10,25-15.4c4.1-2.7,8.1-5.5,12-8.4c3.9-2.9,7.9-5.8,11.7-8.8
		c7.7-6.1,15-12.6,22-19.5C1228.6,755.7,1235.2,748.5,1241.5,741z"/>
	<path class="st1" d="M1152.3,789.8c0,0-73.3-58.3-61.2-129.8c0.3-1.7,1.8-2.8,3.5-2.6c0.7,0.1,1.3,0.4,1.7,0.9
		C1106.8,669.1,1134.8,704.4,1152.3,789.8z"/>
	<path d="M1102.7,684c2.3,9.5,5.2,18.9,8.5,28.1c3.3,9.2,7.1,18.3,11.4,27.1c2.2,4.4,4.4,8.8,6.7,13.1c2.3,4.3,4.7,8.6,7.2,12.8
		c5,8.4,10.1,16.8,15.8,24.8c-2.6-4.1-5.2-8.3-7.7-12.5s-5-8.4-7.4-12.7c-4.8-8.5-9.5-17.1-13.7-25.9s-8.1-17.8-11.5-26.9
		c-1.7-4.6-3.4-9.2-4.9-13.8C1105.5,693.4,1104.1,688.7,1102.7,684z"/>
	<path class="st1" d="M1151.7,914.6c0,0-87.3-33.9-96.9-105.8c-0.3-1.7,0.9-3.3,2.6-3.5c0.7-0.1,1.3,0,1.9,0.3
		C1072.5,812.7,1109.8,838.2,1151.7,914.6z"/>
	<path d="M1073,828.2c5.1,8.4,10.5,16.5,16.5,24.3c5.9,7.8,12.2,15.3,18.9,22.5c3.3,3.6,6.8,7.1,10.3,10.5c3.5,3.4,7,6.8,10.7,10.1
		c7.2,6.6,14.6,13,22.4,19c-3.7-3.1-7.4-6.3-11.1-9.6c-3.6-3.3-7.2-6.6-10.8-9.9c-7.1-6.7-14.1-13.5-20.8-20.7s-13-14.6-19-22.3
		c-3-3.8-5.9-7.8-8.8-11.8C1078.5,836.4,1075.7,832.3,1073,828.2z"/>
	<path class="st2" d="M1200.8,583.8c0,0-61.6-70.6-36.8-138.7c0.6-1.6,2.3-2.5,3.9-1.9c0.6,0.2,1.2,0.6,1.5,1.2
		C1177.9,456.8,1199.1,496.6,1200.8,583.8z"/>
	<path d="M1171.1,470.8c0.6,9.8,1.7,19.5,3.3,29.2c1.6,9.7,3.7,19.2,6.3,28.7c1.3,4.7,2.8,9.4,4.3,14.1c1.5,4.7,3.1,9.3,4.8,13.9
		c3.3,9.2,6.9,18.3,11,27.2c-1.8-4.5-3.7-9.1-5.3-13.7c-1.7-4.6-3.4-9.2-5-13.8c-3.2-9.2-6.2-18.5-8.8-28c-2.6-9.5-4.7-19-6.5-28.5
		c-0.9-4.8-1.6-9.6-2.3-14.5C1172.2,480.5,1171.7,475.6,1171.1,470.8z"/>
	<path class="st1" d="M1232.3,423.8c0,0,69.2-63.2,52.2-133.6c-0.4-1.7-2-2.7-3.7-2.4c-0.7,0.1-1.2,0.5-1.7,1
		C1269.4,300.3,1243.8,337.4,1232.3,423.8z"/>
	<path d="M1274.5,314.9c-1,4.8-2.1,9.5-3.4,14.3s-2.5,9.5-3.9,14.1c-2.8,9.4-5.9,18.6-9.7,27.6s-7.7,18-11.9,26.8
		c-2.1,4.4-4.3,8.8-6.5,13.1s-4.5,8.7-6.8,13c5.1-8.4,9.7-17,14-25.8c2.2-4.4,4.3-8.8,6.3-13.3c2-4.4,4-9,5.8-13.5
		c3.7-9.1,6.8-18.4,9.5-27.8C1270.6,334.1,1272.8,324.5,1274.5,314.9z"/>
	<path class="st1" d="M1061.4,397.8c0,0,69.1-63.2,52.2-133.6c-0.4-1.7-2.1-2.7-3.7-2.3c-0.6,0.1-1.2,0.5-1.6,1
		C1098.4,274.2,1072.9,311.4,1061.4,397.8z"/>
	<path d="M1103.6,288.8c-1,4.8-2.1,9.5-3.4,14.3s-2.5,9.5-3.9,14.1c-2.8,9.4-5.9,18.6-9.7,27.6c-3.7,9-7.7,18-11.9,26.8
		c-2.1,4.4-4.3,8.8-6.5,13.1c-2.2,4.4-4.5,8.7-6.9,13c5.1-8.4,9.7-17,14-25.8c2.2-4.4,4.3-8.8,6.3-13.3s4-9,5.8-13.5
		C1094.7,327.1,1100.1,308.2,1103.6,288.8L1103.6,288.8z"/>
	<path class="st1" d="M1197.9,273.1c0,0,59.9-72,33.5-139.5c-0.6-1.6-2.4-2.4-4-1.8c-0.6,0.2-1.1,0.7-1.5,1.2
		C1217.8,145.6,1197.5,185.9,1197.9,273.1z"/>
	<path d="M1224.8,159.4c-0.4,4.9-0.8,9.8-1.4,14.6c-0.6,4.9-1.2,9.7-2,14.5c-1.5,9.6-3.3,19.3-5.8,28.7c-2.5,9.4-5.2,18.8-8.1,28.2
		c-1.5,4.7-3,9.3-4.6,13.9c-1.6,4.6-3.3,9.2-5,13.8c3.9-9,7.2-18.2,10.4-27.4c1.6-4.6,3-9.3,4.4-14s2.7-9.4,3.9-14.2
		c2.4-9.5,4.2-19.1,5.6-28.8C1223.6,178.9,1224.5,169.2,1224.8,159.4z"/>
	<path class="st1" d="M1197.9,273.1c0,0-86.4-36.2-94.1-108.3c-0.2-1.7,1-3.2,2.7-3.4c0.7-0.1,1.3,0.1,1.9,0.4
		C1121.4,169.2,1158,195.6,1197.9,273.1z"/>
	<path d="M1121.5,184.7c4.8,8.5,10.1,16.8,15.8,24.7c5.7,8,11.8,15.7,18.3,23c3.3,3.6,6.6,7.2,10,10.7c3.4,3.5,6.8,7,10.4,10.4
		c7.1,6.8,14.3,13.4,21.9,19.6c-3.7-3.2-7.3-6.5-10.8-9.9s-7.1-6.8-10.5-10.2c-6.9-6.9-13.8-13.9-20.2-21.2s-12.6-14.9-18.4-22.7
		c-2.9-3.9-5.7-7.9-8.4-12C1126.7,192.9,1124.1,188.8,1121.5,184.7z"/>
	<path class="st0" d="M1119.6,1082.6c-14.1-81.2,36.1-111.4,32-178.3c-6-97.2-69.1-132.1-98.8-235.1c-30.6-106,10.1-160,11-250.5
		c1.1-98.4-44.9-240.1-266.6-418.3"/>
	<path class="st0" d="M1147.5,873.1c-0.2-39.3,2.6-78.5,8.4-117.4c20.8-141.2,67.9-191.9,74.9-295.1c2.9-42.7-0.2-106.7-33.4-187.4"
		/>
	<path class="st0" d="M8.6,766.7c0,0-23.1,10.7,6.5,59.4s49.4,72.5,49.4,72.5s5.5,11.4-4.3,14s-31.8,0.7-35.3,13.1
		c-3.6,12.9,6.4,24.1,25.6,33.1s60.8,30.4,64.5,32.3s7.6,7.1,1.2,9.9s-55,11.5-49.5,34.4c5.5,22.9,63.4,39.2,69.7,41.1
		s8,4.4,7.7,7.8s-16.9,4.8-30.6,7.8s-29.1,9-24.8,21.9s39.7,38.1,121.3,40l37.9-1.6l18.2-33.4c34.6-73.9,27.8-116.8,18.2-126.4
		s-21.8,1.5-30.7,12.5c-8.9,10.9-17.5,25.2-20.7,23.9s-4.6-3.9-3.6-10.4s12.2-65.5-5.8-80.7s-47.5,24.6-52.8,29s-8.3-1.4-8.3-5.5
		s-0.7-50.9-0.2-72.2s-5.1-35.2-18.2-37.7c-12.7-2.4-20.9,18.2-27.5,25.8s-14.4-2.4-14.4-2.4s-12.5-28.3-43-76.5
		S8.1,766.9,8.1,766.9"/>
	<path class="st0" d="M36.9,812.5c77,120,154.5,248.7,231.5,368.7"/>
	<polyline class="st0" points="264,1039.5 223.9,1111 137.2,1116.3 	"/>
	<polyline class="st0" points="206.2,974.2 173.9,1030.9 96.3,1030.3 	"/>
	<polyline class="st0" points="138.7,879.6 122.5,948.3 54.9,938.2 	"/>
	<path class="st0" d="M299.1,750.8c0,0-16.8-0.5-13.7,37.2s7.9,57.5,7.9,57.5s-0.1,8.4-6.7,7s-19.1-9-24.8-2.6
		c-6,6.6-3.3,16.2,5.5,27.2s27.1,35.9,28.7,38.2s2.4,6.5-2.2,6.2s-36-9.3-39.5,5.8c-3.5,15.2,26.1,41.9,29.2,44.8s3.4,4.9,2.3,6.9
		s-11.4-2.1-20.5-4.4c-9-2.2-19.9-3.2-21.2,5.7s12.3,34.3,60.1,59.4l22.9,10.2l20.6-14.5c42.2-33.7,50.9-61.1,48-69.6
		s-13.4-5.5-21.9-1.6s-17.8,9.8-19.3,8.1s-1.6-3.7,0.9-7.2s26.5-35.3,20.3-49.5s-35.4,0.6-39.9,1.7s-4.5-3.3-3.3-5.7
		s14.5-30.4,21.1-42.8s7.3-22.4,0.3-27.7c-6.8-5.2-17.7,4.7-23.9,7.2s-7.9-5.7-7.9-5.7s0.9-20.4-3-58s-20.8-33.8-20.8-33.8"/>
	<path class="st0" d="M302.5,786.3c10.4,93.8,18.5,192.9,28.8,286.6"/>
	<polyline class="st0" points="370.3,987.6 325.5,1018.3 272.6,995.9 	"/>
	<polyline class="st0" points="355.3,931.9 319.4,956 273.6,932.8 	"/>
	<polyline class="st0" points="343.1,856 313.3,892 276.1,866.1 	"/>
	<path class="st3" d="M982,1263c0.6-0.7,1.3-1.3,1.9-2c1.6-1.7,3.2-3.3,4.8-5.1l1.4-1.5c2-2.2,4-4.5,6-6.7l1-1.2
		c1.6-1.9,3.2-3.8,4.8-5.7l1.7-2.1c1.4-1.7,2.8-3.4,4.1-5.1l1.7-2.1c1.7-2.2,3.4-4.4,5-6.6l0.4-0.6c1.8-2.4,3.6-4.9,5.3-7.3
		c0.5-0.7,1-1.4,1.4-2c1.3-1.8,2.5-3.6,3.8-5.5c0.5-0.8,1.1-1.6,1.6-2.4c1.2-1.9,2.5-3.8,3.7-5.7c0.4-0.7,0.9-1.3,1.3-2
		c1.6-2.5,3.2-5.1,4.8-7.7l0.9-1.5c1.3-2.1,2.5-4.2,3.7-6.4c0.5-0.9,1-1.8,1.5-2.6c1.1-1.9,2.1-3.7,3.1-5.6c0.5-0.9,1-1.8,1.5-2.7
		c1.2-2.2,2.4-4.5,3.6-6.8c0.2-0.5,0.5-0.9,0.7-1.4c1.4-2.7,2.7-5.4,4-8.1c0.4-0.9,0.9-1.8,1.3-2.7c0.9-1.9,1.8-3.8,2.7-5.7l1.4-3.1
		c0.9-1.9,1.7-3.8,2.6-5.7c0.4-0.9,0.8-1.9,1.2-2.8c1.2-2.7,2.4-5.5,3.5-8.3c0.3-0.8,0.7-1.7,1-2.5c0.8-2,1.7-4.1,2.5-6.1
		c0.5-1.2,0.9-2.3,1.4-3.5c0.7-1.8,1.3-3.5,2-5.3c0.4-1.2,0.9-2.4,1.3-3.6c0.7-2,1.4-4,2.1-6c0.3-1,0.7-1.9,1-2.9
		c1-2.8,1.9-5.5,2.8-8.3c0.4-1.3,0.8-2.6,1.2-3.8c0.6-1.7,1.1-3.4,1.6-5.1c0.4-1.4,0.9-2.8,1.3-4.2c0.5-1.7,1-3.3,1.5-5
		c0.4-1.4,0.8-2.8,1.2-4.2c0.7-2.3,1.3-4.5,1.9-6.8c0.5-1.9,1-3.8,1.5-5.7c0.4-1.6,0.8-3.2,1.3-4.8c0.4-1.6,0.8-3.2,1.2-4.8
		c0.4-1.4,0.7-2.9,1.1-4.3c0.4-1.7,0.8-3.3,1.2-5c0.3-1.4,0.6-2.8,0.9-4.2c0.7-3.3,1.5-6.6,2.1-9.9c0.2-1.1,0.5-2.2,0.7-3.3
		c0.4-1.9,0.7-3.7,1.1-5.6c0.2-1.2,0.5-2.4,0.7-3.6c0.4-1.9,0.7-3.8,1.1-5.7c0.2-1.1,0.4-2.2,0.6-3.4c0.4-2,0.7-4,1-6
		c0.1-0.3,0.1-0.5,0.1-0.8c0.8-4.7,1.5-9.4,2.2-14.2l0.3-2c0.3-2.2,0.6-4.4,0.9-6.6c0.1-0.8,0.2-1.7,0.3-2.5
		c0.3-2.3,0.6-4.5,0.8-6.8c0.1-0.5,0.1-1,0.2-1.4c0.9-7.7,1.7-15.5,2.4-23.2c0-0.4,0.1-0.8,0.1-1.2c0.2-2.5,0.4-5.1,0.6-7.6
		c0-0.3,0-0.7,0.1-1c0.8-11,1.4-22,1.7-33l0,0c7.3-240.1-94.5-483-252.2-487.6c-64.6-1.9-115.2,16.1-156.2,46l-0.1,0.1
		c-1.3,1-2.7,2-4,3l-0.3,0.2c-1.3,1-2.5,2-3.8,3l-0.4,0.4c-1.2,1-2.4,1.9-3.6,2.9l-0.6,0.5c-1.1,0.9-2.2,1.9-3.3,2.8l-0.8,0.7
		c-1,0.9-2,1.8-3,2.7l-1.1,1l-2.8,2.5c-0.5,0.4-0.9,0.9-1.4,1.3c-0.8,0.8-1.6,1.5-2.4,2.3c-0.6,0.5-1.2,1.1-1.7,1.7l-2,2
		c-0.7,0.7-1.5,1.5-2.2,2.2c-0.5,0.5-1,1-1.5,1.5c-1,1-1.9,2-2.8,3l-0.7,0.8C561.9,600.8,531.8,801.2,453.5,860.9
		c0,0.1-0.1,0.2-0.1,0.3c-2.7,2.1-5.5,4-8.4,5.7c-61.7,37.2-67.2,25.7-156,80c-65.1,39.8-93.6,154.4-47.6,253.3l0.4,0.8
		c0.8,1.6,1.6,3.2,2.3,4.9l0.5,1.1c2.5,4.9,5.1,9.8,8,14.7l0.8,1.3c0.9,1.4,1.8,2.9,2.7,4.3c0.3,0.6,0.7,1.1,1,1.6
		c2.9,4.5,5.9,8.9,9.1,13.2c0.5,0.7,1,1.3,1.5,2c0.9,1.2,1.9,2.5,2.8,3.7c0.6,0.8,1.2,1.5,1.8,2.3c0.9,1.2,1.9,2.4,2.9,3.5
		c0.7,0.8,1.3,1.6,2,2.4c1.6,1.9,3.3,3.8,5,5.7c0.8,0.9,1.6,1.8,2.5,2.7s1.9,2,2.8,3s1.8,1.9,2.8,2.8s1.8,1.9,2.8,2.8
		c1.4,1.4,2.9,2.7,4.3,4.1c1.1,1,2.2,2,3.3,3s2.5,2.2,3.7,3.3c0.9,0.8,1.9,1.6,2.8,2.4c1.2,1,2.5,2.1,3.8,3.1l2.7,2.2
		c2,1.6,4.1,3.2,6.2,4.7c0.7,0.5,1.3,0.9,2,1.4c1.7,1.2,3.4,2.5,5.2,3.7l2.7,1.8c1.6,1.1,3.2,2.1,4.8,3.2l2.6,1.7
		c2.4,1.5,4.9,3,7.4,4.5l1.2,0.7c2.2,1.3,4.4,2.6,6.7,3.8c0.9,0.5,1.8,1,2.7,1.4c1.9,1,3.9,2,5.8,3.1l2.6,1.3
		c2.8,1.4,5.6,2.8,8.5,4.1l0.6,0.3c2.7,1.2,5.5,2.5,8.3,3.7l2.8,1.2c2.2,0.9,4.5,1.8,6.7,2.7l2.8,1.1c3.1,1.2,6.3,2.4,9.5,3.5
		c35.5,12.5,72.1,21.6,109.3,27.4c8.8,1.4,17.4,2.5,26,3.5c4.3,0.5,8.5,0.9,12.8,1.3c12.7,1.2,25.1,2.1,37.3,2.6
		c4.1,0.2,8.1,0.3,12.1,0.4c68,1.7,127.1-6.1,173.1-11.2l0.4-0.1c3.3-0.4,6.6-0.8,9.9-1.2l3.3-0.5c2.4-0.3,4.7-0.7,7-1.1l3.5-0.6
		c2.5-0.4,5-0.9,7.4-1.4l2.6-0.5c3.2-0.7,6.5-1.4,9.6-2.1l2.4-0.6c2.4-0.6,4.8-1.2,7.2-1.8l3.2-0.9c2.2-0.6,4.4-1.2,6.5-1.8
		c1-0.3,2-0.6,3-0.9c2.9-0.9,5.8-1.8,8.7-2.7l0.4-0.1c3-1,6-2,9-3.1l2.7-1c2.1-0.8,4.2-1.6,6.3-2.4l2.9-1.2c2.2-0.9,4.4-1.8,6.6-2.8
		c0.7-0.3,1.4-0.6,2.1-0.9c2.8-1.2,5.6-2.5,8.4-3.8l1.8-0.9c2.2-1.1,4.3-2.1,6.5-3.2c0.9-0.4,1.8-0.9,2.6-1.4c2-1,3.9-2,5.8-3.1
		c0.8-0.4,1.6-0.9,2.4-1.3c2.5-1.4,5.1-2.9,7.6-4.3l0.3-0.2c2.6-1.6,5.2-3.1,7.8-4.8l2.2-1.4c1.9-1.2,3.7-2.4,5.5-3.6l2.4-1.6
		c1.9-1.3,3.8-2.7,5.7-4c0.6-0.4,1.1-0.8,1.7-1.2c2.4-1.8,4.9-3.6,7.2-5.4l1.3-1c2-1.5,3.9-3,5.8-4.6l2.1-1.8c1.7-1.4,3.3-2.8,5-4.2
		l2-1.7c2.1-1.9,4.3-3.8,6.4-5.7l0.3-0.2c2.2-2,4.4-4.1,6.5-6.2c0.6-0.6,1.1-1.1,1.7-1.7C978.9,1266.1,980.4,1264.6,982,1263z"/>
	<path class="st2" d="M296.6,360c0.2,6.6-4.9,12.2-11.6,12.4s-12.2-4.9-12.4-11.6c0-0.3,0-0.6,0-0.9c0-6.6,5.4-12,12-12
		S296.6,353.4,296.6,360z"/>
	<path class="st4" d="M343.9,298.2c-18.9-5.4-32.2-7.3-38.2-16.9s-6.1-24.5,6.5-33.1s37.3-9.1,56.5,8.9l10.8-13.7
		c-10-8.1-23-17.3-44.9-17.3c-12.9-0.1-25.5,4-35.9,11.7c0,0-15.6,12-15.6,32.1c-0.2,11.7,5,22.9,13.9,30.4
		c7.4,4.9,15.6,8.7,24.2,11.1c14.6,4.2,33,8,38.3,17.7s5.8,27.1-4.6,34.8s-15.5,8.6-23.6,8.6c-11-0.2-21.7-4-30.5-10.6l0,0
		c-0.6,6.7-5.3,12.3-11.7,14.1c3,2.5,17.3,13.7,42.2,13.7c20,0.2,38.4-11.2,46.9-29.4c4.3-9.6,5.9-25.1,0.3-36.6
		S362.7,303.6,343.9,298.2z"/>
	<path class="st2" d="M907,99.3c0,0-93,11.2-135.3-47.6c-1-1.4-0.7-3.3,0.7-4.3c0.5-0.4,1.1-0.6,1.8-0.6
		C789.1,46.8,834,51.7,907,99.3z"/>
	<path d="M796.9,60.2c8.4,5,17.1,9.6,26,13.7c8.9,4.1,18,7.8,27.2,11c4.7,1.6,9.3,3,14,4.4c4.7,1.4,9.4,2.7,14.2,3.9
		c9.5,2.4,19,4.6,28.7,6.2c-4.8-1-9.5-2.1-14.3-3.3s-9.5-2.4-14.2-3.7c-9.4-2.6-18.8-5.3-28.1-8.5s-18.3-6.8-27.3-10.7
		c-4.5-2-8.9-4.1-13.3-6.2C805.6,64.8,801.2,62.5,796.9,60.2z"/>
	<path class="st2" d="M978.9,185.1c0,0,17.9-91.9-37.8-138.4c-1.3-1.1-3.2-1-4.4,0.3c-0.4,0.5-0.7,1.1-0.8,1.8
		C935,63.8,936.7,108.9,978.9,185.1z"/>
	<path d="M947.9,72.5c2,4.5,4,8.9,5.8,13.5s3.6,9.1,5.3,13.7c3.3,9.2,6.3,18.5,8.7,28s4.5,19,6.4,28.6c0.9,4.8,1.8,9.6,2.6,14.4
		c0.8,4.8,1.6,9.6,2.2,14.5c-0.9-9.7-2.4-19.4-4.1-29.1c-0.8-4.8-1.8-9.6-2.8-14.4s-2.1-9.6-3.4-14.3c-2.5-9.5-5.5-18.8-9-28
		C956.2,90.2,952.3,81.3,947.9,72.5z"/>
	<path class="st0" d="M437.2,74.1H217.5c-7.7,0-14,6.3-14,14v439.5c0,7.7,6.3,14,14,14h219.7c7.7,0,14-6.3,14-14V88.1
		C451.2,80.4,445,74.1,437.2,74.1z"/>
	<path class="st0" d="M213.8,93.3v429c0,5,4,9,9,9H432c5,0,9-4,9-9v-429c0-5-4-9-9-9H222.8C217.8,84.4,213.8,88.4,213.8,93.3z"/>
	<path class="st0" d="M362.9,95.3h-71c-1.1,0-1.9,0.9-1.9,1.9v4c0,1.1,0.9,1.9,1.9,1.9h71c1.1,0,1.9-0.9,1.9-1.9v-4
		C364.8,96.1,364,95.3,362.9,95.3z"/>
	<circle class="st0" cx="424.2" cy="99.2" r="6.8"/>
	<path class="st2" d="M896.4,951.7c-61.3-5.1-160.7,64.9-160.7,64.9l-37.8-10.3l-158.3-0.1l11.1,35c2,15.6,27.3,17.7-2.3,38
		l-37.9-15.9c0,0-214.6-77.3-229.9-85.5s-93.7-26.2-119.6,38.4c-21.8,54.3,21.5,108.6,90.5,139.1s203.1,43.7,203.1,43.7l88.2,15.3
		l36.2,0.5c10.8,3.4,23.4,7,30.1,7.3c3.6,0.1,13.8-0.2,27-0.8c0.4,0.3,0.6,0.5,0.7,0.4s0-0.2-0.2-0.4c27.1-1.3,66.3-3.6,85.5-4.5
		l15.8,0.2c57.6,0.7,112.6-24.1,150.2-67.9c30.8-35.8,62.6-76.5,68.6-97.6C968.4,1010.2,957.7,956.9,896.4,951.7z"/>
	<path class="st5" d="M874.7,965.3c-14,1.9-27.6,5.8-40.5,11.6c-28.9,13.2-36.4,28.6-74.6,65.2c-37.5,35.9-56.3,53.9-77.2,58.1
		c-21.6,4.3-37.4-1.3-57,11.2c-13.4,8.6-17.4,26.2-21.9,35.4"/>
	<path class="st4" d="M587.6,1143c0,0,145.3,36.7,151.1,38.6c8.8,2.9,8,34.8-5.5,34.6c-6.4-0.1-110.8,6.4-124,5.9
		s-47.8-7.5-47.8-7.5l20.6-58.2L587.6,1143z"/>
	<path class="st5" d="M231.5,991c7.8-1.2,15.7-1.8,23.6-1.7c58,1,144.3,62.4,161.4,70.3c31.5,14.6,63.1,32.3,171.1,83.3"/>
	<path class="st6" d="M629.5,1157.9c-3.1,2.5-5.6,5.7-7.4,9.3c-2.7,5.7-3.4,12-2.1,18.2"/>
	<path class="st6" d="M646,1162.9c-6,7.5-9.9,16.4-11.4,25.9"/>
	<path class="st6" d="M664.5,1168.3c-9,5.9-14.5,15.9-14.8,26.6"/>
	<path class="st6" d="M679.8,1173.3c-5.6,6.6-8.8,14.9-9.1,23.5"/>
	<path class="st6" d="M715.9,1175.6c-4.4,4.3-7.4,9.8-8.7,15.8c-1.9,8.9,3.7,23.2,4.8,25.7"/>
	<path class="st6" d="M562.4,1211.6c3.1-2.3,20.4-13.7,38.1-12.2c22.1,1.9,34.5,19.3,36.2,21.7"/>
	<path class="st6" d="M621.2,1169.2c-3.5,3.8-7.8,6.8-12.6,8.8c-1.1,0.5-2.1,0.9-3.2,1.3c-2.4,0.8-5.2,1.4-7.5,0.5
		c-1.3-0.6-2.5-1.6-3.3-2.8c-0.9-1.3-1.4-3.1-0.6-4.5c0.6-0.8,1.4-1.4,2.3-1.8c1.7-0.8,3.5-1.5,5.3-2.1c2.6-1,5.3-1.7,8-2.2
		c2.5-0.5,5-0.5,7.5,0c1.6,0.4,3.1,1.2,4.7,1.5"/>
	<path class="st6" d="M622.3,1166.8c-0.9-7.5-1.2-14.6-1.6-18.1c-0.3-3.2-0.9-9-4.2-11.8c-0.7-0.7-1.8-1.1-2.8-1.1
		c-1.5,0.3-2.3,2.3-2.6,3c-1,2.6-1.1,6.5,2.3,15.2c1.2,3,5.8,8.5,8.4,13"/>
	<path class="st7" d="M472.7,606.1c0.2-1.7-0.9-3.3-2.7-3.5c-1.7-0.2-3.3,0.9-3.5,2.7l0,0l-18.4,130.1l6.3,0.9L472.7,606.1
		L472.7,606.1z"/>
	<path class="st8" d="M428.4,747.8c0,0-1.5-42,15.6-47.2l27.4,7.3c0,0,7,5.9,0.8,16s-10.6,32.2-10.6,32.2l-19.9-4.2L428.4,747.8z"/>
	<path class="st4" d="M667.6,1120.4c0,0,32.7,5.8,56.7-20.1c21.6-23.3,87.3-187.8,95.9-227.7s25.6-83.2-71-118.3
		c-96.1-34.9-156.4-29.3-174.7-19.8c-20.9,10.8-32.7,32.3-42.2,95.8s-24.4,215.4,16.2,248.8S667.6,1120.4,667.6,1120.4"/>
	<path class="st4" d="M530,905.9c-16.3,46.6-58.1,109.6-84.7,124.2c-25.5,14-39.1,5.8-46.8-1.6c-57.7-55,3.3-232.7,29.9-280.7
		c10.9,3.1,22.1,5.8,33.2,8.4c-1.5,51.2-5.1,113.8-17.6,162.5c10.2-76.5,57.3-157.6,131.4-184.7C568.8,791.4,546.3,859.3,530,905.9z
		"/>
	<polygon class="st8" points="686,606.3 634.8,602.2 629.5,666.5 680.7,670.7 	"/>
	<path class="st8" d="M634.8,602.2c0,0-20.8,42.6-18,62.8c1.9,14.1,19.8,19.4,33.2,11.9c5.2-2.9,9.2-7.5,11.5-13L634.8,602.2z"/>
	<path class="st8" d="M645.8,726c0,0-17.5,16.5-4.9,34.4s55.1,21.7,76.1-16.2C717,744.2,660.7,719.6,645.8,726"/>
	<path class="st7" d="M631.4,609.4c0,0-5.2-10.2,4.9-16.3s26.5-1.6,37.8-9.4s29.4,0.3,25.9,19.4s-4.2,41.7-17.1,40.5
		c0,0-12.2-15.2-12.5-28.8c0,0-28.9,1.8-37.6-7.7L631.4,609.4z"/>
	<path class="st7" d="M707.9,578.3c5.3,8.4,2.8,19.6-5.6,25c-2.3,1.5-5,2.4-7.7,2.7c-6,0.7-14-3.1-17.2-8.3
		c-5.3-8.5-2.8-19.6,5.6-25c2.3-1.5,5-2.4,7.7-2.7C697.5,569.3,704.2,572.5,707.9,578.3z"/>
	<path class="st7" d="M685.5,643.6c0,0,8.1,21.3,19.8,28.3s6.5,20.5,1.7,21c0,0-19.7-25.9-24.1-49.1L685.5,643.6z"/>
	<path class="st8" d="M644.4,727.8c0,0,4-30.1-13.1-76.7l47.5-18.5c0,0,16.1,80.1,38.1,111.6C717,744.2,666.2,730.5,644.4,727.8"/>
	<path class="st8" d="M671.6,619.8c0,0,7-5.8,12.2,0.5c4.3,5.2,1.1,19.1-14,17.8C669.8,638.1,665.9,628.7,671.6,619.8"/>
	<path class="st9" d="M651.1,676.2c7.9-4.9,14.3-12.1,18.2-20.5C669.4,655.7,668.4,672.3,651.1,676.2z"/>
	<path class="st4" d="M822.9,808.4c33.1,74.8,52.8,122.6,59.3,208.1c4.4,57.5-94.7,103.5-136.1,134c-8.2,6-27.1-13.5-24.1-18.9
		c19.6-34.6,74.1-73.9,77.6-111.9c3.5-38-32.1-72.6-31.7-113.3S801.1,843.6,822.9,808.4z"/>
	<path class="st2" d="M716.6,742.7l0.4,1.5c-21,38-63.5,34.1-76.1,16.2c-10.3-14.6-0.5-28.3,3.4-32.8l0,0l-4.7-0.6
		c-14.5,2.9-23.1,46.9,23.7,52.8s59.9-35.4,59.9-35.4L716.6,742.7z"/>
	<path class="st8" d="M439.6,703.3c5.3-5.3,13-7.5,20.3-5.9c12.5,2.7-5.5,2.7-9.7,12.2S439.6,703.3,439.6,703.3z"/>
	<circle class="st7" cx="635.6" cy="596.1" r="14.1"/>
	<circle class="st7" cx="784.9" cy="608.2" r="13.7"/>
	<circle class="st7" cx="737.6" cy="604.7" r="6.4"/>
	<circle class="st7" cx="692.9" cy="644.3" r="7.9"/>
	<circle class="st7" cx="668.3" cy="577.4" r="23.9"/>
	<circle class="st7" cx="715.4" cy="619.6" r="23.9"/>
	<circle class="st7" cx="756.4" cy="592.1" r="23.9"/>
	<circle class="st7" cx="699.6" cy="649.5" r="23.9"/>
	<circle class="st7" cx="702.5" cy="584.6" r="39.8"/>
	<circle class="st7" cx="754.3" cy="668.2" r="63.2"/>
	<circle class="st7" cx="730.3" cy="554.6" r="67.7"/>
	<path class="st8" d="M722,1131.7c0,0-18.3,17.8-24.1,30.4s-13.8,33.6-5.2,41.1l52.2-52.4L722,1131.7z"/>
	<path class="st8" d="M745.7,1150.9c0,0-5.4,13.1-9.5,19.5s-10.9,16.3-14.1,14.6l14.8-39.7L745.7,1150.9z"/>
</g>
</svg>
