<svg xmlns="http://www.w3.org/2000/svg" xmlns:xlink="http://www.w3.org/1999/xlink" viewBox="0 0 1687.4 1780.74"><defs><style>.cls-1{fill:url(#linear-gradient);}.cls-2{fill:url(#linear-gradient-2);}.cls-3{fill:#8d92a3;}.cls-4{fill:#e54651;}.cls-5{fill:#fff;}.cls-11,.cls-6,.cls-7{fill:none;}.cls-7{stroke:#ed1c24;}.cls-11,.cls-7{stroke-miterlimit:10;}.cls-8{fill:#faccbc;}.cls-9{fill:#0f1d5b;}.cls-10{fill:#ffa35f;}.cls-11{stroke:#f3f3f3;stroke-linecap:round;stroke-width:4px;}.cls-12{fill:#e5bab1;}.cls-13{fill:#e28f56;}</style><linearGradient id="linear-gradient" x1="483.8" y1="521.77" x2="1479.54" y2="1401.09" gradientUnits="userSpaceOnUse"><stop offset="0" stop-color="#f3f3f3"/><stop offset="1" stop-color="#fff"/></linearGradient><linearGradient id="linear-gradient-2" x1="483.5" y1="522.11" x2="1479.24" y2="1401.43" xlink:href="#linear-gradient"/></defs><g id="Layer_2" data-name="Layer 2"><g id="Layer_1-2" data-name="Layer 1"><path class="cls-1" d="M1670.28,1004.17l17.12-163-113.48-26.53a733,733,0,0,0-11.54-107.4l103.28-53.74L1615,497.69l-114.29,21.9a731.71,731.71,0,0,0-54.41-93.31l72.49-91.18L1409.18,213.35l-95.67,66.59A728.35,728.35,0,0,0,1226,216.69L1255.14,104,1105.45,37.29l-60.16,99.57a728.52,728.52,0,0,0-105.82-22L920.24,0H756.41L741.9,115.56a726.6,726.6,0,0,0-105.64,22.73L572,41.25,422.34,107.89l33.77,111.47A732.94,732.94,0,0,0,369,283.2l-98.28-62.62L161.06,342.36l76.15,88.07a729.39,729.39,0,0,0-53.76,93.74L68.35,507,17.72,662.79,123.1,712.28a733.87,733.87,0,0,0-10.83,107.48L0,850.88l17.13,163,116.36,2.36a722.67,722.67,0,0,0,33.74,102.68l-89.81,74,81.93,141.89,107.37-45.24a732.13,732.13,0,0,0,72.53,80l-52,104.29,132.56,96.31,79.62-84.91a732.05,732.05,0,0,0,98.85,43.66l-5.08,116.24,160.29,34.07,38.21-110.07c17,1.17,34.18,1.81,51.46,1.81q28.58,0,56.54-2.15l42.7,108.39,160.26-34.07-9.82-115.9a731.17,731.17,0,0,0,98.59-44.36l83,81.57L1407,1468.1,1350.77,1366a737.47,737.47,0,0,0,72-80.45l109.16,40.78,81.93-141.89-92.76-70.27a727.9,727.9,0,0,0,33-102.91Zm-827.1,328.52c-271.8,0-492.92-221.12-492.92-492.95S571.38,346.81,843.18,346.81s493,221.12,493,492.93S1115,1332.69,843.18,1332.69Z"/><path class="cls-2" d="M843.18,372.72c-257.5,0-467,209.52-467,467s209.51,467,467,467,467-209.52,467-467S1100.71,372.72,843.18,372.72Zm0,597.48A130.45,130.45,0,1,1,973.64,839.74,130.45,130.45,0,0,1,843.18,970.2Z"/><path class="cls-3" d="M744.51,203.47l-42.24,57.26-38.11-5.11L648,220.71l42.25-57.26A77.93,77.93,0,0,0,613.55,287L534.89,393.62l-4.33,5.87-10.08,13.66L437.07,526.21a64.86,64.86,0,1,0,35.55,26.24l65.87-89.28,14.57-19.75,9.21-12.48a50.46,50.46,0,0,0-2.3-5.88,16.22,16.22,0,0,1-1.52-4.51c-.39-3.1,1.08-6,2.85-8.45,1-1.44,3.41-4.05,5.23-2.44,1,.89,1.69,2.82,2.3,4,.75,1.41,1.44,2.86,2,4.33.11.28.23.56.33.84l77.9-105.59a77.92,77.92,0,0,0,95.4-109.76ZM448,608.73l-31.34,13.68-27.52-20.3,3.82-34,31.34-13.67,27.52,20.3Z"/><path class="cls-4" d="M1416.78,1776.13l-66-102.89-72.06-62.79a87.19,87.19,0,0,0,47-32.81l48.94,55.8,15.85-7.48a22.76,22.76,0,0,1,32.35,18.37l12.26,125.45C1436.1,1780.19,1422.44,1784.93,1416.78,1776.13Z"/><path class="cls-4" d="M856,1481.89l-12.6-17.06c-23.44-31.75-47.94-62.38-68-96.49-8.56-14.58-16.19-29.67-24.57-44.35-3.93-7-7.73-14-11.78-20.87a74,74,0,0,0,38.65-7.65,71,71,0,0,0,13.68-9.09l21,51.57,7.54-4.18A22.75,22.75,0,0,1,853.39,1350l20.43,124.38C875.52,1484.68,862.19,1490.31,856,1481.89Z"/><path class="cls-5" d="M1325.67,1577.64a86.91,86.91,0,0,1-16.92,17.57,87.87,87.87,0,0,1-30.08,15.24l-5.7-5a86.76,86.76,0,0,0,29.91-16.15,85.82,85.82,0,0,0,16.67-18.68Z"/><line class="cls-6" x1="1381.63" y1="1641.43" x2="1374.62" y2="1633.44"/><line class="cls-6" x1="818.78" y1="1353.68" x2="812.37" y2="1337.95"/><line class="cls-7" x1="779.93" y1="1375.6" x2="779.27" y2="1374.43"/><line class="cls-7" x1="733.28" y1="1143.73" x2="730.1" y2="1142.79"/><path class="cls-5" d="M791.37,1286.38a71.28,71.28,0,0,1-13.68,9.09,74.08,74.08,0,0,1-38.65,7.65l-3.79-6.7a91.62,91.62,0,0,0,52.83-18.13Z"/><line class="cls-7" x1="1102.92" y1="1456.42" x2="1100.03" y2="1453.12"/><line class="cls-7" x1="1052.02" y1="1193.68" x2="1050.88" y2="1191.84"/><line class="cls-7" x1="1168.82" y1="1399.99" x2="1166.89" y2="1396.78"/><path class="cls-4" d="M588.24,492.91a26,26,0,0,1-9.19,12.6,27.06,27.06,0,0,1-20.2,4.47c-2.55-5.61-5-11.25-7.43-16.91,6.19,5.09,14.64,6.32,21.36,3a19.33,19.33,0,0,0,9.87-12.5C584.41,486.73,586.33,489.81,588.24,492.91Z"/><path class="cls-8" d="M582.65,483.56a19.33,19.33,0,0,1-9.87,12.5c-6.72,3.33-15.17,2.1-21.36-3-3.88-9.05-7.69-18.14-11.7-27.13l-1.23-2.77,14.57-19.75c2.54,1.42,5.57,2.34,7.87,0a8,8,0,0,0,2-3.88,16.58,16.58,0,0,0-.64-8.62,50.46,50.46,0,0,0-2.3-5.88,16.22,16.22,0,0,1-1.52-4.51c-.39-3.1,1.08-6,2.85-8.45,1-1.44,3.41-4.05,5.23-2.44,1,.89,1.69,2.82,2.3,4,.75,1.41,1.44,2.86,2,4.33.11.28.23.56.33.84a83.78,83.78,0,0,1,3.88,15.09c1.25,6.68,2.7,13,2.19,19.87-.35,4.73-1,9.48-.41,14.18a36.91,36.91,0,0,0,3.42,11c.35.74.71,1.48,1.08,2.2S582.22,482.77,582.65,483.56Z"/><path class="cls-8" d="M530.56,399.49l-10.08,13.66c-.15-.86-.29-1.73-.42-2.62a131.11,131.11,0,0,1-1.4-22.22q.11-4.62.52-9.23c.16-1.86-.12-6.57,2.5-6.86a3.53,3.53,0,0,1,2.6,1.25,20.13,20.13,0,0,1,3.78,4.26l0,.16,1.36,3.11a31.25,31.25,0,0,1,.38,7.12A69.91,69.91,0,0,0,530.56,399.49Z"/><path class="cls-8" d="M529.37,381,528,377.89l0-.16a9.75,9.75,0,0,1,.71,1.36A10.07,10.07,0,0,1,529.37,381Z"/><path class="cls-8" d="M536.76,381.59a16.67,16.67,0,0,1-.41,3.71,82.36,82.36,0,0,0-1.46,8.32l-4.33,5.87a69.91,69.91,0,0,1-.81-11.37,31.25,31.25,0,0,0-.38-7.12,10.07,10.07,0,0,0-.6-1.91,9.75,9.75,0,0,0-.71-1.36l1.9-6.23a1.77,1.77,0,0,1,3-.5A16.72,16.72,0,0,1,536.76,381.59Z"/><path class="cls-8" d="M529.37,381,528,377.89l0-.16a9.75,9.75,0,0,1,.71,1.36A10.07,10.07,0,0,1,529.37,381Z"/><path class="cls-7" d="M1169.93,1226c-.07.21-.12.42-.17.63"/><line class="cls-7" x1="1159.44" y1="1133.84" x2="1159.26" y2="1133.26"/><line class="cls-7" x1="747.88" y1="632.43" x2="747.87" y2="632.54"/><path class="cls-8" d="M843,715.3a77.66,77.66,0,0,0-2.42,26.92c0-.16.09-.33.13-.5l-7.25,34.16-9.94,10.76a78.71,78.71,0,0,1-25.23,18.21l-25.06,11.38-4.65,2.11a6,6,0,0,1-8.5-5.51l.06-10.75,2.17-27A102.86,102.86,0,0,0,805,747a100.81,100.81,0,0,0,18-28.13l7.81-11.18a69.18,69.18,0,0,0,17.09-5.31A94.37,94.37,0,0,0,843,715.3Z"/><line class="cls-7" x1="833.44" y1="775.88" x2="833.2" y2="777"/><path class="cls-9" d="M891.16,670.41c-10.35,17.19-21.07,16.2-35.64,38.35a115.67,115.67,0,0,0-14.82,33c-.05.17-.1.34-.14.5A77.37,77.37,0,0,1,843,715.3a93.05,93.05,0,0,1,4.9-12.88c2.45-5.51,5.76-12.4,10.2-21.59,4.75-9.85,7.58-15.3,6.4-22.69-.15-1-1.9-11.27-8-12.69-4.93-1.15-9.78,4.11-12.43,7a34.6,34.6,0,0,0-8.13,16.08,42.38,42.38,0,0,0-.4-11.76c-.23-1.29-2.54-13.67-10.75-21.63-11.22-10.88-29-9.1-49.41-7-12.38,1.24-19.33,3.37-27.47,4.45h0a80.9,80.9,0,0,1-16.66.46c-15-1-20.35-4.33-22.59-5.94-13-9.37-13.83-27.2-13.92-31.57a65.63,65.63,0,0,0,8.26,9.84c2.49,2.45,6.06,5,8.6,7.38-1.89-3.06-4-5.64-5.16-9.07a36.38,36.38,0,0,1,3.54-30.54c4.12-6.5,10.23-11.48,16.54-15.88,12.83-8.94,27.29-16.56,42.39-20.74a99.73,99.73,0,0,1,17.32-3.22c29.55-2.76,57.11,10.27,74.57,34.09a21.34,21.34,0,0,1,9,0c9.46,2.06,15.49,11.21,19.63,19.33C902,611.43,906,645.8,891.16,670.41Z"/><path class="cls-8" d="M858.08,680.83c-4.43,9.19-7.75,16.08-10.2,21.59a69.18,69.18,0,0,1-17.09,5.31L823,718.91l-1.94,2.8A107.68,107.68,0,0,1,787.21,753l-9.15,4.46-.6.3a29.45,29.45,0,0,1-14,3,29.06,29.06,0,0,1-8.32-1.51A29.66,29.66,0,0,1,734.77,732h0a30.38,30.38,0,0,1,.27-4.91l5-37.16a17.74,17.74,0,0,1-14.5-3.84,1.28,1.28,0,0,1,.13-2.09,40.75,40.75,0,0,0,16.77-19.9,65.08,65.08,0,0,0,3.29-15.56c.31-2.66.59-5.32.94-8s1.15-5.34,1.15-8c0,0,0-.07,0-.07,8.13-1.08,15.09-3.21,27.46-4.45,20.46-2.05,38.19-3.83,49.42,7,8.21,8,10.52,20.34,10.75,21.63a42.77,42.77,0,0,1,.4,11.76A34.57,34.57,0,0,1,844,652.45c2.65-2.89,7.5-8.15,12.44-7,6.12,1.42,7.87,11.72,8,12.69C865.67,665.53,862.83,671,858.08,680.83Z"/><path class="cls-10" d="M860.83,784.28a39.44,39.44,0,0,0-23.27,19.19l-11-4.34a36.89,36.89,0,0,1,18.08-21A85.12,85.12,0,0,1,860.83,784.28Z"/><path class="cls-9" d="M1319.55,1570.66a85.82,85.82,0,0,1-16.67,18.68,86.76,86.76,0,0,1-29.91,16.15l-166.31-144.91a43.88,43.88,0,0,1-6.63-7.46h0l-3.3-3.78-182.05-234-18.3-23.52-23.3-6.87-10.9-3.22-128.87-38,54.79,134.56a91.62,91.62,0,0,1-52.83,18.13L620.54,1093.06a42.8,42.8,0,0,1,44.84-62.76c9.25,1.62,18.5,3.35,27.81,4.63l108.31,14.89,74,10.18a167.19,167.19,0,0,0-11.66-20.84q-2.19-3.33-4.51-6.54a127.06,127.06,0,0,0-26.83-25.56l-.31-.23c-14.29-10.63-30.07-19.28-45.65-28-2.23-1.24-4.46-2.48-6.66-3.73q-3.37-2.13-6.63-4.42c-.88-.63-1.77-1.26-2.63-1.92-1.37-.94-2.7-1.91-4-2.91a104.22,104.22,0,0,1-8.07-6.76q-2.37-2.33-4.75-4.71a.32.32,0,0,1-.1-.1A118.9,118.9,0,0,1,740.33,940l-.08-.12c-.27-.29-.52-.59-.75-.88q-3-3.57-5.6-7.31a71.91,71.91,0,0,1-11-19.41c-1.11-2.44-2.09-4.92-3-7.42-.07-.18-.13-.37-.19-.55-10.31-33.11-12.31-68.11-33.25-96.86q-1.94-3.54-3.85-7.1c-7.05-13.18-13.75-26.55-19.92-40.17S651.81,732.3,645.15,719c-6.34-12.63-14.48-24.29-20.42-37.25-6.86-15-11.75-30.79-16.83-46.46-5.19-15.95-11-31.68-16.82-47.42q-4.65-12.64-9.54-25.21-4-10.27-8.23-20.46c-2.23-5.34-4.5-10.65-6.89-15.92q-1.7-3.76-3.48-7.5c-1.4-2.92-2.75-5.86-4.1-8.81a27.05,27.05,0,0,0,20.2-4.47,25.91,25.91,0,0,0,9.19-12.6c1.08,1.75,2.17,3.52,3.19,5.3,3.42,5.9,6.62,11.92,10,17.87q14.67,26,29.25,52.08t29.24,52.06q10.08,17.85,20.26,35.65a31.3,31.3,0,0,1,3,7L734.77,732a29.66,29.66,0,0,0,20.35,27.23l7.61,10.2-.19,2.3-.25,3.29-2.17,27-.06,10.75a6,6,0,0,0,8.5,5.51l4.65-2.11,25.06-11.38a78.71,78.71,0,0,0,25.23-18.21l9.94-10.76a83.72,83.72,0,0,1,11.22,2.23,36.89,36.89,0,0,0-18.08,21l11,4.34a39.44,39.44,0,0,1,23.27-19.19,84.49,84.49,0,0,1,20,14,44.5,44.5,0,0,1,21.25,5.49c2.27,1.24,4.56,2.44,6.92,3.46,25.49,9.88,54,14.1,76.61,29.71a85,85,0,0,1,7.32,5.64c26.4,18.62,44.4,46.62,71.85,64.53q3.78,2.58,7.7,5t8,4.54A33.39,33.39,0,0,1,1093,928a34.17,34.17,0,0,1,3.78,8c12.22,29.16,20.1,60.05,28.92,90.91l-.16-.16,2.08,6.55,1.73,5.45,1,3.17,1.46,4.6.75,2.36.42,1.32.8,2.54.41,1.29.83,2.62.84,2.65.79,2.49,9.2,29,.56,1.75,3.46,10.92a34.49,34.49,0,0,0-12.92.93,36.93,36.93,0,0,0-19,12.62L1105.71,1094l-1.21-2.28L1080,1045.6l-1.83-3.44-1-1.8-1.9-3.6-1.91-3.59-1.91-3.57-.93-1.78-2.82-5.3-.93-1.75-2.77-5.19-2.69-5.08-.89-1.66-2.6-4.9-1.69-3.17-1.64-3.09-3.13-5.91-2.94-5.51-1.36-2.58-1.94-3.64-.92-1.71-.85-1.63-1.1-2.05-1-1.9-1.34-2.54-1.49-2.81-.6-1.13-.5-.94-.21-.39-.18-.31-.13-.24-.26-.52-.13-.26h0l-89.56-33.23,4,8.37a89.43,89.43,0,0,1,7.23,21.58l2.28,11.61c.2,1,.4,2,.61,3l.63,2.82,0,.16c.19.79.37,1.58.57,2.36,0,.23.12.46.17.69.17.71.35,1.41.55,2.12.11.45.22.9.36,1.35s.22.86.35,1.29c.17.65.36,1.29.54,1.93.12.43.25.86.4,1.29.27.92.55,1.84.84,2.75.19.65.41,1.3.63,2l.51,1.58c0,.09.07.19.11.28.6,1.8,1.25,3.59,1.92,5.37a.91.91,0,0,0,.12.31c.39,1.06.8,2.11,1.22,3.15s.83,2.09,1.28,3.13.85,2.05,1.31,3.06a.6.6,0,0,0,.06.11c.4,1,.85,1.92,1.28,2.87l.11.23c.46,1,.93,2,1.42,3,.63,1.31,1.29,2.61,2,3.91.24.44.45.87.69,1.31.14.27.27.53.42.8l.15.3c.11.19.22.38.32.57.41.76.82,1.52,1.24,2.27.58,1,1.18,2.08,1.77,3.11s1.21,2.06,1.85,3.08,1.25,2,1.89,3,1.29,2,2,3,1.12,1.68,1.7,2.52a184.26,184.26,0,0,0,12.93,16.63l15.28,17.48q7.26,7.42,15.05,14.32a70.36,70.36,0,0,1,25.63,31.88c.13.3.25.6.37.9s.33.88.5,1.31.29.81.43,1.22a70.87,70.87,0,0,1,3.69,19.19c0,.65,0,1.3.07,2s0,1.3,0,2,0,1.08,0,1.62,0,1.07,0,1.61-.07,1.19-.11,1.78-.08,1.18-.13,1.77c-6.66,30-7.66,62,10.75,88,1,1.71,2.1,3.49,3.21,5.31,24.66,41,64.93,107.83,81.92,136l1,1.66,2.65,4.38c.21.36.42.7.6,1,.11.16.2.31.28.45s.3.48.43.71c.37.62.71,1.19,1,1.7s.51.87.73,1.23.28.47.41.67.23.37.32.53l.51.84h0l0,0c.74.74,1.47,1.51,2.17,2.32l45.08,51.39Z"/><polygon class="cls-9" points="1036.41 963.61 1036.54 963.87 1036.47 963.76 1036.41 963.61"/><path class="cls-9" d="M1126.57,1030.11l1,3.25-2.08-6.55.16.16Z"/><path class="cls-9" d="M1129.32,1038.81c.32,1,.66,2.07,1,3.17Z"/><path class="cls-9" d="M1130.32,1042c.47,1.47,1,3,1.46,4.6Z"/><path class="cls-9" d="M1036.54,963.87l-.07-.11a1.21,1.21,0,0,1-.08-.15h0Z"/><path class="cls-9" d="M1063.21,1142.94a70.77,70.77,0,0,0-3.65-18.61,63.37,63.37,0,0,1,3.19,13.25C1063,1139.35,1063.12,1141.15,1063.21,1142.94Z"/><path class="cls-9" d="M1063.32,1145.47c0-.85-.07-1.69-.11-2.53,0,.2,0,.38,0,.58C1063.28,1144.17,1063.29,1144.82,1063.32,1145.47Z"/><path class="cls-10" d="M875.5,1060l-74-10.18q-2.49-5.4-5-11t-5-11.41c-5.1-10.2-8.1-20.2-14-29.62q-1.93-3.45-4-6.83a292.43,292.43,0,0,0-18.25-26.29c-1.9-2.48-3.87-5-6-7.43-4.83-6.76-10-13.52-14.48-20.54-1.5-2.34-2.94-4.7-4.31-7.1-3.81-7-8.15-14.43-10.06-22.32-.19-.8-.36-1.6-.52-2.41.91,2.5,1.89,5,3,7.42a71.91,71.91,0,0,0,11,19.41q2.63,3.74,5.6,7.31c.23.29.48.59.75.88l.08.12a118.9,118.9,0,0,0,13.34,14.29.32.32,0,0,0,.1.1q2.38,2.39,4.75,4.71a104.22,104.22,0,0,0,8.07,6.76c1.33,1,2.66,2,4,2.91.86.66,1.75,1.29,2.63,1.92q3.25,2.29,6.63,4.42c2.2,1.25,4.43,2.49,6.66,3.73,15.58,8.7,31.36,17.35,45.65,28l.31.23a127.06,127.06,0,0,1,26.83,25.56q2.32,3.21,4.51,6.54A167.19,167.19,0,0,1,875.5,1060Z"/><path class="cls-10" d="M1423.13,1478.79c-35.63-32.06-81.21-41.69-114.38-24.51a73,73,0,0,0-18.5,13.7A468.29,468.29,0,0,1,1092.88,1137a509.08,509.08,0,0,0,177,344.77,196.92,196.92,0,0,0-55.77-31.29l-45.08-51.39c-.7-.81-1.43-1.58-2.17-2.32l0,0h0l-.51-.84c-.09-.16-.2-.34-.32-.53s-.26-.43-.41-.67-.46-.77-.73-1.23-.66-1.08-1-1.7c-.13-.23-.27-.47-.43-.71s-.17-.29-.28-.45c-.18-.33-.39-.67-.6-1l-2.65-4.38c-.31-.54-.66-1.09-1-1.66-17-28.2-57.26-95.08-81.92-136-1.11-1.82-2.17-3.6-3.21-5.31-18.41-26-17.41-58-10.75-88,0-.59.09-1.18.13-1.77s.08-1.19.11-1.78,0-1.07,0-1.61,0-1.08,0-1.62,0-1.31,0-2c0-.85-.07-1.69-.11-2.53a70.77,70.77,0,0,0-3.65-18.61c-.14-.41-.28-.82-.43-1.22s-.34-.87-.5-1.31-.24-.6-.37-.9a70.36,70.36,0,0,0-25.63-31.88q-7.77-6.9-15.05-14.32l-15.28-17.48a184.26,184.26,0,0,1-12.93-16.63c-.58-.84-1.15-1.68-1.7-2.52s-1.31-2-2-3-1.28-2-1.89-3-1.24-2-1.85-3.08-1.19-2.07-1.77-3.11c-.42-.75-.83-1.51-1.24-2.27-.1-.19-.21-.38-.32-.57l-.15-.3c-.15-.27-.28-.53-.42-.8-.24-.44-.45-.87-.69-1.31-.67-1.3-1.33-2.6-2-3.91-.49-1-1-2-1.42-3l-.11-.23c-.43-1-.86-1.91-1.28-2.87a.6.6,0,0,1-.06-.11c-.44-1-.88-2-1.31-3.06s-.86-2.08-1.28-3.13-.83-2.09-1.22-3.15a.91.91,0,0,1-.12-.31c-.67-1.78-1.32-3.57-1.92-5.37,0-.09-.07-.19-.11-.28l-.51-1.58c-.22-.65-.44-1.3-.63-2-.29-.91-.57-1.83-.84-2.75-.15-.43-.28-.86-.4-1.29-.18-.64-.37-1.28-.54-1.93-.13-.43-.25-.86-.35-1.29s-.25-.9-.36-1.35c-.2-.71-.38-1.41-.55-2.12,0-.23-.12-.46-.17-.69-.2-.78-.38-1.57-.57-2.36l0-.16L961,974.9c-.21-1-.41-2-.61-3l-2.28-11.61a89.43,89.43,0,0,0-7.23-21.58l-4-8.37,89.56,33.23h0l.06.15.07.11.26.52.13.24.18.31.21.39.5.94.6,1.13,1.49,2.81,1.34,2.54,1,1.9,1.1,2.05.85,1.63.92,1.71,1.94,3.64,1.36,2.58,2.94,5.51,3.13,5.91,1.64,3.09,1.69,3.17,2.6,4.9.89,1.66,2.69,5.08,2.77,5.19.93,1.75,2.82,5.3.93,1.78,1.91,3.57,1.91,3.59,1.9,3.6,1,1.8,1.83,3.44,24.53,46.16,1.21,2.28,12.26,23.07,10.4,19.55c.5,1.64,1.24,3.22,1.79,4.86,3,8.93,2.87,19.08.51,28.15-.75,2.85-1.72,5.72-1.5,8.65s1.74,5.84,3.45,8.37c2.34,3.49,4.52,7,6.77,10.57,1,1.6,4.45,7,6.85,4.71a4.48,4.48,0,0,0,1.18-1.82c.78-2.36.21-5.1-.14-7.54-.32-2.23-.7-4.45-1.06-6.67-.88-5.49-1.3-7-.76-9.58.21-1,1.71-7.55,6.76-9.19,5.27-1.7,10.81,3.12,13.28,6.64,1.33,1.91,2.71,4.88,2.93,10.72a54.66,54.66,0,0,1-4.15,21.71,77.2,77.2,0,0,1-4.92,10.25c-2.72,4.7-5.81,9.27-5.68,14.94a6.82,6.82,0,0,0,.73,3.15,4.4,4.4,0,0,0,3.87,2.21,6.7,6.7,0,0,0,4.17-2,56.63,56.63,0,0,0,7.3-8.23,14.52,14.52,0,0,0,1.38,10.13,5.47,5.47,0,0,0,2.25,2.41,3.33,3.33,0,0,0,3.21,0c1.54-.95,2.12-3.34,2.91-4.87,1.25-2.37,2.29-4.89,3.32-7.36a149.55,149.55,0,0,0,5.46-15.2c.26-.84.5-1.68.72-2.53,1.58-5.77,2.22-11.5,1-17.39a76.15,76.15,0,0,0-5.13-14.64c-3.21-7.37-6.38-13.17-15.32-27.7-4.16-6.78-7.48-12-10.24-16.14l0,0-9.41-29.7-3.46-10.92-.56-1.75-9.2-29-.79-2.49-.84-2.65-.83-2.62-.41-1.29-.8-2.54-.42-1.32-.75-2.36-1.46-4.6-1-3.17-1.73-5.45-2.08-6.55.16.16A1291.34,1291.34,0,0,1,1321,1272.49,1285.65,1285.65,0,0,1,1423.13,1478.79Z"/><path class="cls-10" d="M1005.57,1379.59a547.44,547.44,0,0,1-40.35-80.68,579.51,579.51,0,0,0,88.2,171.71,127,127,0,0,0-55.14-16.34C958,1452,928.63,1470,918.62,1476.75c9.26-35.75,31.55-95.85,14-158.56-15.84-56.68-52.13-102.08-70.51-136.44l10.9,3.22,23.3,6.87,18.3,23.52,182.05,234a186.41,186.41,0,0,0-29.53,13A548.84,548.84,0,0,1,1005.57,1379.59Z"/><polyline class="cls-11" points="597.17 346.71 547.92 413.47 543.59 419.34 533.51 433 479.81 505.79"/><path class="cls-8" d="M1189,1209.16c-.23.85-.47,1.69-.73,2.53a149.55,149.55,0,0,1-5.46,15.2c-1,2.47-2.07,5-3.31,7.36-.8,1.53-1.38,3.92-2.91,4.87a3.33,3.33,0,0,1-3.21,0,5.47,5.47,0,0,1-2.25-2.41,14.52,14.52,0,0,1-1.38-10.13,56.08,56.08,0,0,1-7.31,8.23,6.68,6.68,0,0,1-4.17,2,4.41,4.41,0,0,1-3.87-2.21,6.81,6.81,0,0,1-.72-3.15c-.13-5.67,3-10.24,5.67-14.94a74.79,74.79,0,0,0,4.92-10.25,54.67,54.67,0,0,0,4.16-21.71c-.22-5.84-1.6-8.81-2.94-10.72-2.47-3.52-8-8.34-13.27-6.64-5.06,1.64-6.56,8.22-6.77,9.19-.54,2.55-.11,4.09.77,9.58.35,2.22.74,4.44,1,6.67.35,2.44.92,5.18.14,7.54a4.38,4.38,0,0,1-1.18,1.82c-2.39,2.25-5.83-3.11-6.84-4.71-2.25-3.55-4.43-7.08-6.78-10.57-1.71-2.53-3.22-5.33-3.45-8.37s.76-5.8,1.5-8.65c2.36-9.07,2.52-19.22-.51-28.15-.55-1.64-1.29-3.22-1.79-4.86a10.13,10.13,0,0,1-.46-4.66c.81-5.25,5.41-8.51,6.63-9.32a17,17,0,0,1,10-2.74c4.38.29,7.78,3,14.76,13.32,2.76,4.09,6.09,9.37,10.26,16.17,8.93,14.53,12.1,20.33,15.32,27.7a77.53,77.53,0,0,1,5.13,14.64C1191.23,1197.66,1190.58,1203.39,1189,1209.16Z"/><path class="cls-4" d="M1159.25,1133.26c-7-10.32-10.37-13-14.75-13.32a16.91,16.91,0,0,0-10,2.74c-1.22.81-5.83,4.07-6.63,9.32a10,10,0,0,0,.46,4.66l-10.4-19.55a36.93,36.93,0,0,1,19-12.62,34.49,34.49,0,0,1,12.92-.93Z"/><path class="cls-6" d="M1179.23,1189.83c1.66,6.13,1,14.89-.8,20.62a58.6,58.6,0,0,1-8.67,16.15"/><path class="cls-12" d="M823,718.91A100.81,100.81,0,0,1,805,747a102.86,102.86,0,0,1-42.73,28l.25-3.29.19-2.3.71-8.69a29.45,29.45,0,0,0,14-3l.6-.3,9.15-4.46A107.68,107.68,0,0,0,821,721.71Z"/><path class="cls-13" d="M1067.19,1462.3c-5.59,3.06-10.2,6-13.76,8.32a579.51,579.51,0,0,1-88.2-171.71,548,548,0,0,0,102,163.39Z"/><path class="cls-13" d="M1290.26,1468c-.44.44-.86.88-1.28,1.32a90.17,90.17,0,0,0-12.91,17.66c-1.41-1.25-3.41-3-6-5l-.16-.13a509.08,509.08,0,0,1-177-344.77A468.2,468.2,0,0,0,1290.26,1468Z"/><path class="cls-10" d="M1270.1,1481.94c2.56,2,4.56,3.77,6,5Q1273.15,1484.54,1270.1,1481.94Z"/><path d="M1012,1193.15a135.89,135.89,0,0,1-59.23,22.72,134.3,134.3,0,0,1-38.06-.51l-18.3-23.52a282.18,282.18,0,0,0,115.59,1.31Z"/><path class="cls-10" d="M760.75,911.26c1,3.58-.84,5.44-4.08,4.15A14.79,14.79,0,0,1,749,906.6c0-.15-.08-.31-.11-.46-.89-3.55,1-5.29,4.34-3.89A14.94,14.94,0,0,1,760.75,911.26Z"/><path class="cls-5" d="M775.94,888.43c-10.05-6.91-16.87-10.75-21.09-17.12s-6.22-14.31-1.14-16.2,17.25,3.11,29.11,16.79l3.52-5c-6-6.44-13.67-14.12-24.45-18.77-6.39-2.78-12.08-3.29-16.22-1.44,0,0-6.11,3-3.47,13.73,1.46,6.18,5.46,13.2,10.88,19.11a101.14,101.14,0,0,0,13.4,11c7.77,5.35,17.35,11.28,21.24,17.58s6.42,15.65,2.32,17.53-6.56,1.26-10.53-.46A55.45,55.45,0,0,1,763,913.05h0c.56,3.4-1,5.39-3.93,5a70.51,70.51,0,0,0,22.67,16.28c9.92,4.38,17.47,2.19,19.32-5.6.84-4.21-.38-12.08-4.65-19.37S786,895.33,775.94,888.43Z"/></g></g></svg>