<svg id="Layer_1" data-name="Layer 1" xmlns="http://www.w3.org/2000/svg" xmlns:xlink="http://www.w3.org/1999/xlink" viewBox="0 0 1064.23 163.12"><defs><style>.cls-1{fill:none;}.cls-2{clip-path:url(#clip-path);}.cls-3{fill:#ffa35f;}.cls-4{fill:#fff;}</style><clipPath id="clip-path" transform="translate(0)"><rect class="cls-1" width="1064.22" height="163.12"/></clipPath></defs><title>Векторный смарт-объект</title><g class="cls-2"><path class="cls-3" d="M17.62,141.46A8.81,8.81,0,0,1,0,142.1c0-.21,0-.42,0-.63a8.86,8.86,0,0,1,8.81-8.9,8.86,8.86,0,0,1,8.8,8.9" transform="translate(0)"/><path class="cls-4" d="M150.42,43C118,43,91.77,69.44,91.77,102.11s26.22,59.16,58.64,59.16a58.15,58.15,0,0,0,39.83-15.79v-19.1a46.34,46.34,0,0,1-80.78-1.87L193.7,70.44,198,67.67A58.4,58.4,0,0,0,150.42,43m-46.53,59.19a46.75,46.75,0,0,1,46.52-47h0a46.1,46.1,0,0,1,28.75,10L105,112.75a47.94,47.94,0,0,1-1.16-10.6" transform="translate(0)"/><path class="cls-4" d="M467.12,70.44l4.33-2.77A58.42,58.42,0,0,0,423.78,43c-32.38,0-58.63,26.49-58.63,59.16s26.23,59.16,58.63,59.16a58.08,58.08,0,0,0,39.83-15.79v-19.1a46.34,46.34,0,0,1-80.73-1.87Zm-89.86,31.71A46.75,46.75,0,0,1,423.78,55.2a46.07,46.07,0,0,1,28.75,10l-74.12,47.54a47.3,47.3,0,0,1-1.15-10.64" transform="translate(0)"/><path class="cls-4" d="M220.79,64V45.78H208.25v114h12.54V94.06a46.75,46.75,0,0,1,37.74-39.65l2.85-12.7A58.41,58.41,0,0,0,220.79,64" transform="translate(0)"/><polygon class="cls-4" points="357.65 43.99 317.41 132.44 277.43 43.99 265.69 49.97 317.2 161.27 368.66 49.44 357.65 43.99"/><path class="cls-4" d="M52.23,96.1c-13.84-4-23.59-5.36-28-12.38S19.79,65.77,29,59.47,56.38,52.79,70.46,66l7.89-10.06C71,50,61.45,43.25,45.46,43.25a44.21,44.21,0,0,0-26.34,8.56S7.71,60.6,7.71,75.32a28.59,28.59,0,0,0,10.2,22.27,62.61,62.61,0,0,0,17.72,8.11c10.71,3.09,24.18,5.86,28,13s4.24,19.89-3.35,25.52-11.4,6.31-17.3,6.31a38.3,38.3,0,0,1-22.36-7.81,12,12,0,0,1-8.57,10.35c2.17,1.87,12.7,10.06,30.95,10.06a37.63,37.63,0,0,0,34.4-21.52c3.13-7.06,4.32-18.39.23-26.8S66.07,100.08,52.23,96.1" transform="translate(0)"/><path class="cls-4" d="M532.2,102.11a66.43,66.43,0,0,1,6.24-29.2,48,48,0,0,1,17.61-20.18,46.93,46.93,0,0,1,25.74-7.23A46.68,46.68,0,0,1,625,72.44a65.9,65.9,0,0,1,6.45,29v5q0,16.35-6.18,29.25a47.7,47.7,0,0,1-17.56,20.13A46.94,46.94,0,0,1,582,163.12,46.94,46.94,0,0,1,538.6,136a65.77,65.77,0,0,1-6.39-28.88Zm5.66,4.4a59.63,59.63,0,0,0,5.61,25.95,44.18,44.18,0,0,0,15.62,18.4,40.64,40.64,0,0,0,22.91,6.6q19.39,0,31.61-14.57t12.21-37.53v-3.25a59.05,59.05,0,0,0-5.66-25.79,44.88,44.88,0,0,0-15.67-18.5,40.06,40.06,0,0,0-22.7-6.66q-19.4,0-31.66,14.78t-12.27,37.22Z" transform="translate(0)"/><path class="cls-4" d="M664.61,74A47.43,47.43,0,0,1,681,53.15a40.41,40.41,0,0,1,23.9-7.65q18.24,0,27.1,10.33t9,31.19v74h-5.66V86.87q-.11-18.22-7.44-27t-23.27-8.75a35.29,35.29,0,0,0-25.42,10.42Q668.38,72,664.61,88.44V161h-5.66V47.59h5.66Z" transform="translate(0)"/><rect class="cls-4" x="777.83" width="5.66" height="161.02"/><path class="cls-4" d="M819.13,12.16A5.74,5.74,0,0,1,820.81,8a5.48,5.48,0,0,1,4.09-1.73A5.65,5.65,0,0,1,829,8a5.65,5.65,0,0,1,1.73,4.14A5.48,5.48,0,0,1,829,16.25a5.74,5.74,0,0,1-4.14,1.68,5.73,5.73,0,0,1-5.77-5.77M827.72,161h-5.66V47.59h5.66Z" transform="translate(0)"/><path class="cls-4" d="M870.6,74A47.43,47.43,0,0,1,887,53.15a40.41,40.41,0,0,1,23.9-7.65q18.24,0,27.1,10.33t9,31.19v74h-5.66V86.87q-.11-18.22-7.44-27t-23.27-8.75a35.29,35.29,0,0,0-25.42,10.42Q874.37,72,870.6,88.44V161h-5.66V47.59h5.66Z" transform="translate(0)"/><path class="cls-4" d="M1023.24,163.12A45.63,45.63,0,0,1,998,155.73a50.68,50.68,0,0,1-18-20.29,62.65,62.65,0,0,1-6.5-28.62v-4.72a65.76,65.76,0,0,1,6.29-28.83,49.84,49.84,0,0,1,17.3-20.44,42.42,42.42,0,0,1,24-7.34q19,0,31,13.52t12.06,35.54v6h-85v6.17A57,57,0,0,0,985,132.29a45.78,45.78,0,0,0,16,18.47,39.67,39.67,0,0,0,22.17,6.7q11.42,0,19.45-3.8a39.55,39.55,0,0,0,14.2-11.72l4,2.83q-12.69,18.35-37.63,18.35m-2.1-112A37,37,0,0,0,993,63.48q-11.53,12.32-13.52,31.4h79V93.51a47.9,47.9,0,0,0-4.87-21.44,37.6,37.6,0,0,0-13.42-15.41,34.58,34.58,0,0,0-19.13-5.5" transform="translate(0)"/></g></svg>