<svg xmlns="http://www.w3.org/2000/svg" width="126" height="45" viewBox="0 0 126 45">
  <defs>
    <style>
      .cls-1 {
        fill: #101b51;
      }

      .cls-1, .cls-2 {
        fill-rule: evenodd;
      }

      .cls-2 {
        fill: #ff9954;
      }
    </style>
  </defs>
  <path class="cls-1" d="M328.2,2650.34a15.69,15.69,0,1,0,10.644,27.2v-5.07a12.43,12.43,0,0,1-21.573-.5l22.51-14.34h0l1.157-.74A15.632,15.632,0,0,0,328.2,2650.34Zm-12.433,15.69a12.431,12.431,0,0,1,20.116-9.79l-19.795,12.61A12.5,12.5,0,0,1,315.767,2666.03Zm97.063-8.4,1.158-.74a15.693,15.693,0,1,0-2.094,20.65v-5.07a12.43,12.43,0,0,1-21.573-.5l22.509-14.34h0Zm-24.013,8.4a12.431,12.431,0,0,1,20.116-9.79l-19.8,12.61A12.56,12.56,0,0,1,388.817,2666.03Zm-41.811-10.1v-4.83H343.65v30.24h3.356v-17.45a12.448,12.448,0,0,1,10.087-10.51l0.761-3.37A15.633,15.633,0,0,0,347.006,2655.93Zm36.57-5.31-10.752,23.45-10.682-23.45-3.151,1.58,13.765,29.52,13.765-29.66Zm-81.612,13.82c-3.7-1.06-6.3-1.44-7.477-3.29a4.639,4.639,0,0,1,1.273-6.43c2.466-1.67,7.3-1.77,11.076,1.73l2.108-2.67a13.124,13.124,0,0,0-8.79-3.36,11.875,11.875,0,0,0-7.039,2.27,8.44,8.44,0,0,0-3.043,6.23,7.563,7.563,0,0,0,2.725,5.89,16.639,16.639,0,0,0,4.733,2.15c2.863,0.82,6.463,1.56,7.5,3.45s1.134,5.28-.894,6.77a6.563,6.563,0,0,1-4.623,1.67,10.32,10.32,0,0,1-5.977-2.07h0a3.18,3.18,0,0,1-2.29,2.75,12.876,12.876,0,0,0,8.269,2.67,10.053,10.053,0,0,0,9.2-5.7,9.074,9.074,0,0,0,.06-7.11C307.671,2667.16,305.662,2665.49,301.964,2664.44Zm8.042,23.31c-2,0-3.252,1.4-3.252,3.63s1.252,3.61,3.252,3.61,3.253-1.39,3.253-3.61S312.007,2687.75,310.006,2687.75Zm0,0.81c1.443,0,2.348,1.09,2.348,2.82s-0.9,2.81-2.348,2.81-2.347-1.09-2.347-2.81S308.564,2688.56,310.006,2688.56Zm16.254,6.32v-5.49H326.3l3.864,5.49h0.856v-7.01h-0.871v5.5h-0.044l-3.864-5.5h-0.856v7.01h0.871Zm21.453-.79h-3.405v-6.22h-0.88v7.01h4.285v-0.79Zm12.881,0.79v-7.01h-0.88v7.01h0.88Zm13.271,0v-5.49h0.044l3.864,5.49h0.856v-7.01h-0.871v5.5h-0.044l-3.864-5.5h-0.856v7.01h0.871Zm21.54-.79h-3.492v-2.41h3.311v-0.77h-3.311v-2.25h3.492v-0.79h-4.373v7.01h4.373v-0.79Z" transform="translate(-288 -2650)"/>
  <path class="cls-2" d="M292.718,2676.47a2.355,2.355,0,1,1-2.355-2.36A2.352,2.352,0,0,1,292.718,2676.47Z" transform="translate(-288 -2650)"/>
</svg>
