<svg id="Layer_1" data-name="Layer 1" xmlns="http://www.w3.org/2000/svg" xmlns:xlink="http://www.w3.org/1999/xlink" viewBox="0 0 1064.23 163.12"><defs><style>.cls-1{fill:none;}.cls-2{clip-path:url(#clip-path);}.cls-3{fill:#ffa35f;}.cls-4{fill:#0f1d5b;}</style><clipPath id="clip-path"><rect class="cls-1" width="1064.22" height="163.12"/></clipPath></defs><title>Artboard 1</title><g class="cls-2"><path class="cls-3" d="M17.62,141.46A8.81,8.81,0,1,1,0,142.1c0-.21,0-.43,0-.64a8.85,8.85,0,0,1,8.81-8.89,8.86,8.86,0,0,1,8.8,8.89"/><path class="cls-4" d="M150.42,43C118,43,91.77,69.44,91.77,102.11s26.23,59.16,58.65,59.16a58.12,58.12,0,0,0,39.82-15.79v-19.1a46.34,46.34,0,0,1-80.77-1.87L193.7,70.44,198,67.67A58.36,58.36,0,0,0,150.42,43m-46.54,59.19a46.75,46.75,0,0,1,46.52-47h0a46.1,46.1,0,0,1,28.74,10l-74.11,47.54a47.31,47.31,0,0,1-1.17-10.6"/><path class="cls-4" d="M467.12,70.44l4.33-2.77A58.39,58.39,0,0,0,423.78,43c-32.38,0-58.63,26.48-58.63,59.15s26.22,59.16,58.63,59.16a58.14,58.14,0,0,0,39.83-15.79v-19.1a46.35,46.35,0,0,1-80.73-1.87Zm-89.86,31.71A46.75,46.75,0,0,1,423.78,55.2a46.14,46.14,0,0,1,28.75,10l-74.12,47.54a47.06,47.06,0,0,1-1.15-10.64"/><path class="cls-4" d="M220.79,64V45.78H208.25v114h12.54V94.06a46.73,46.73,0,0,1,37.75-39.64l2.85-12.71A58.43,58.43,0,0,0,220.79,64"/><polygon class="cls-4" points="357.65 43.99 317.41 132.44 277.43 43.99 265.69 49.97 317.2 161.27 368.66 49.45 357.65 43.99"/><path class="cls-4" d="M52.23,96.1c-13.84-4-23.59-5.36-28-12.38s-4.46-18,4.76-24.25S56.38,52.79,70.46,66l7.89-10.06C71,50,61.45,43.25,45.46,43.25a44.15,44.15,0,0,0-26.34,8.57S7.71,60.6,7.71,75.32A28.61,28.61,0,0,0,17.92,97.59a62.53,62.53,0,0,0,17.72,8.1c10.71,3.09,24.18,5.86,28.05,13s4.24,19.89-3.35,25.52-11.41,6.31-17.3,6.31a38.33,38.33,0,0,1-22.36-7.81,12,12,0,0,1-8.58,10.35c2.17,1.87,12.71,10.06,30.95,10.06a37.63,37.63,0,0,0,34.4-21.52c3.13-7.06,4.32-18.39.23-26.8S66.07,100.08,52.23,96.1"/><path class="cls-4" d="M532.2,102.11a66.39,66.39,0,0,1,6.24-29.2,48,48,0,0,1,17.61-20.18,47,47,0,0,1,25.74-7.23A46.65,46.65,0,0,1,625,72.44a65.88,65.88,0,0,1,6.45,29v5q0,16.35-6.18,29.25a47.75,47.75,0,0,1-17.56,20.12A46.92,46.92,0,0,1,582,163.12,46.93,46.93,0,0,1,538.6,136a65.84,65.84,0,0,1-6.4-28.88Zm5.67,4.4a59.6,59.6,0,0,0,5.6,25.94,44.17,44.17,0,0,0,15.62,18.4A40.62,40.62,0,0,0,582,157.46q19.39,0,31.61-14.57t12.21-37.53v-3.25a59.08,59.08,0,0,0-5.66-25.79,45,45,0,0,0-15.67-18.51,40.13,40.13,0,0,0-22.7-6.65q-19.39,0-31.66,14.78t-12.26,37.21Z"/><path class="cls-4" d="M664.61,74A47.35,47.35,0,0,1,681,53.15a40.43,40.43,0,0,1,23.9-7.65q18.24,0,27.1,10.32t9,31.19v74h-5.66V86.87q-.1-18.23-7.44-27t-23.27-8.74a35.26,35.26,0,0,0-25.42,10.42Q668.38,72,664.61,88.44V161H659V47.59h5.66Z"/><rect class="cls-4" x="777.83" width="5.66" height="161.02"/><path class="cls-4" d="M819.13,12.16A5.72,5.72,0,0,1,820.81,8a5.48,5.48,0,0,1,4.09-1.73A5.64,5.64,0,0,1,829,8a5.62,5.62,0,0,1,1.74,4.14A5.47,5.47,0,0,1,829,16.25a5.72,5.72,0,0,1-4.13,1.68,5.74,5.74,0,0,1-5.77-5.77M827.72,161h-5.65V47.59h5.65Z"/><path class="cls-4" d="M870.6,74A47.42,47.42,0,0,1,887,53.15a40.44,40.44,0,0,1,23.91-7.65q18.24,0,27.09,10.32t9,31.19v74h-5.66V86.87q-.1-18.23-7.45-27t-23.27-8.74a35.28,35.28,0,0,0-25.42,10.42Q874.37,72,870.6,88.44V161h-5.66V47.59h5.66Z"/><path class="cls-4" d="M1023.24,163.12A45.73,45.73,0,0,1,998,155.73a50.7,50.7,0,0,1-18-20.29,62.55,62.55,0,0,1-6.5-28.62v-4.71a65.62,65.62,0,0,1,6.29-28.83,49.73,49.73,0,0,1,17.29-20.44,42.36,42.36,0,0,1,24-7.34q19,0,31,13.52t12.06,35.54v6h-85v6.18A56.88,56.88,0,0,0,985,132.29a45.7,45.7,0,0,0,16,18.47,39.67,39.67,0,0,0,22.18,6.7q11.41,0,19.44-3.8a39.63,39.63,0,0,0,14.21-11.72l4,2.83q-12.69,18.35-37.63,18.35m-2.1-112A37,37,0,0,0,993,63.48Q981.52,75.8,979.52,94.87h79V93.51a47.91,47.91,0,0,0-4.87-21.44,37.59,37.59,0,0,0-13.42-15.41,34.57,34.57,0,0,0-19.13-5.5"/></g></svg>