<?xml version="1.0" encoding="utf-8"?>
<!-- Generator: Adobe Illustrator 24.1.0, SVG Export Plug-In . SVG Version: 6.00 Build 0)  -->
<svg version="1.1" id="Layer_1" xmlns="http://www.w3.org/2000/svg" xmlns:xlink="http://www.w3.org/1999/xlink" x="0px" y="0px"
	 viewBox="0 0 1064.2 163.1" style="enable-background:new 0 0 1064.2 163.1;" xml:space="preserve">
<style type="text/css">
	.st0{fill:#FFA35F;}
	.st1{fill:#FFFFFF;}
</style>
<path class="st0" d="M17.6,141.5c0.2,4.9-3.6,9-8.5,9.1c-4.9,0.2-9-3.6-9.1-8.5c0,0,0,0,0,0c0-0.2,0-0.4,0-0.6
	c0-4.9,3.9-8.9,8.8-8.9c0,0,0,0,0,0C13.7,132.6,17.6,136.6,17.6,141.5z"/>
<path class="st1" d="M150.4,43c-32.4,0-58.7,26.4-58.7,59.1s26.2,59.2,58.7,59.2c14.8,0,29-5.6,39.8-15.8v-19.1
	c-13,22-41.5,29.3-63.5,16.2c-7.3-4.3-13.3-10.6-17.3-18.1l84.2-54.1l0,0l4.3-2.8C187.1,52.2,169.3,43,150.4,43z M103.9,102.2
	c-0.1-25.8,20.7-46.9,46.5-47c0,0,0,0,0,0l0,0c10.4,0,20.6,3.5,28.7,10L105,112.7C104.3,109.3,103.9,105.7,103.9,102.2L103.9,102.2z
	"/>
<path class="st1" d="M467.1,70.4l4.3-2.8C460.5,52.2,442.7,43,423.8,43c-32.4,0-58.6,26.5-58.6,59.2s26.2,59.2,58.6,59.2
	c14.8,0,29-5.6,39.8-15.8v-19.1c-13.1,22-41.5,29.2-63.5,16.1c-7.3-4.3-13.2-10.6-17.2-18L467.1,70.4L467.1,70.4z M377.3,102.2
	c-0.1-25.8,20.7-46.8,46.5-47c10.4,0,20.6,3.5,28.8,10l-74.1,47.5C377.6,109.3,377.2,105.7,377.3,102.2z"/>
<path class="st1" d="M220.8,64V45.8h-12.5v114h12.5V94.1c2.7-20,17.9-36,37.7-39.6l2.9-12.7C245.4,43.2,230.7,51.3,220.8,64z"/>
<path class="st1" d="M357.6,44l-40.2,88.4l-40-88.4l-11.8,6l51.5,111.3l51.5-111.9L357.6,44z"/>
<path class="st1" d="M52.2,96.1c-13.8-4-23.6-5.4-28-12.4s-4.5-18,4.8-24.3s27.4-6.7,41.5,6.5l7.9-10.1C71,50,61.5,43.3,45.5,43.3
	c-9.5,0-18.7,3-26.3,8.6c0,0-11.4,8.8-11.4,23.5c-0.1,8.6,3.6,16.8,10.2,22.3c5.4,3.6,11.4,6.3,17.7,8.1c10.7,3.1,24.2,5.9,28,13
	s4.2,19.9-3.3,25.5s-11.4,6.3-17.3,6.3c-8.1-0.2-15.9-2.9-22.4-7.8l0,0c-0.5,4.9-3.9,9-8.6,10.4c2.2,1.9,12.7,10.1,31,10.1
	c14.7,0.2,28.1-8.2,34.4-21.5c3.1-7.1,4.3-18.4,0.2-26.8S66.1,100.1,52.2,96.1z"/>
<path class="st1" d="M532.2,102.1c-0.2-10.1,2-20.1,6.2-29.2c3.8-8.3,9.9-15.3,17.6-20.2c7.7-4.9,16.6-7.4,25.7-7.2
	c18.5-0.4,35.4,10.2,43.2,26.9c4.3,9,6.5,19,6.5,29v5c0,10.9-2.1,20.7-6.2,29.3c-3.8,8.2-9.9,15.2-17.5,20.1
	c-7.7,4.9-16.6,7.4-25.7,7.3c-18.6,0.3-35.6-10.3-43.4-27.1c-4.3-9-6.5-18.9-6.4-28.9L532.2,102.1z M537.9,106.5
	c-0.1,9,1.8,17.9,5.6,26c3.4,7.5,8.8,13.8,15.6,18.4c6.8,4.4,14.8,6.7,22.9,6.6c12.9,0,23.5-4.9,31.6-14.6s12.2-22.2,12.2-37.5v-3.3
	c0.1-8.9-1.9-17.7-5.7-25.8c-3.4-7.5-8.9-13.9-15.7-18.5c-6.7-4.4-14.6-6.8-22.7-6.7c-12.9,0-23.5,4.9-31.7,14.8
	c-8.2,9.9-12.3,22.3-12.3,37.2L537.9,106.5z"/>
<path class="st1" d="M664.6,74c3.4-8.4,9.1-15.6,16.4-20.8c7-5,15.3-7.7,23.9-7.7c12.2,0,21.2,3.4,27.1,10.3s8.9,17.3,9,31.2v74
	h-5.7V86.9c-0.1-12.2-2.5-21.2-7.4-27s-12.7-8.8-23.3-8.7c-9.5-0.1-18.7,3.7-25.4,10.4c-7.2,7-12.1,15.9-14.6,26.9V161H659V47.6h5.7
	L664.6,74z"/>
<path class="st1" d="M783.5,161h-5.7V0h5.7V161z"/>
<path class="st1" d="M819.1,12.2c0-1.6,0.6-3.1,1.7-4.2c1.1-1.1,2.5-1.8,4.1-1.7c3.2,0,5.9,2.6,5.9,5.9c0,1.6-0.6,3.1-1.8,4.1
	c-1.1,1.1-2.6,1.7-4.2,1.7c-1.5,0-3-0.6-4.1-1.7C819.7,15.2,819.1,13.7,819.1,12.2z M827.7,161h-5.7V47.6h5.7V161z"/>
<path class="st1" d="M870.6,74c3.4-8.4,9.1-15.6,16.4-20.8c7-5,15.3-7.7,23.9-7.7c12.2,0,21.2,3.4,27.1,10.3
	c5.9,6.9,8.9,17.3,9,31.2v74h-5.7V86.9c-0.1-12.2-2.5-21.2-7.5-27s-12.7-8.8-23.3-8.7c-9.5-0.1-18.7,3.7-25.4,10.4
	c-7.2,7-12.1,15.9-14.6,26.9V161h-5.7V47.6h5.7V74z"/>
<path class="st1" d="M1023.2,163.1c-9,0.1-17.7-2.5-25.2-7.4c-7.7-5-14-12-18-20.3c-4.4-8.9-6.6-18.7-6.5-28.6v-4.7
	c-0.1-10,2-19.8,6.3-28.8c3.8-8.3,9.8-15.3,17.3-20.5c7.1-4.8,15.4-7.4,24-7.3c12.7,0,23,4.5,31,13.5s12,20.9,12.1,35.5v6h-85v6.2
	c-0.1,8.9,1.9,17.6,5.9,25.5c3.6,7.5,9.1,13.9,16,18.5c6.6,4.4,14.3,6.7,22.2,6.7c7.6,0,14.1-1.3,19.4-3.8
	c5.6-2.7,10.5-6.8,14.2-11.7l4,2.8C1052.4,157,1039.9,163.1,1023.2,163.1z M1021.1,51.1c-10.7-0.2-21,4.4-28.1,12.4
	c-7.7,8.2-12.1,18.7-13.5,31.4h79v-1.4c0.1-7.4-1.6-14.8-4.9-21.4c-3-6.3-7.6-11.6-13.4-15.4C1034.5,53,1027.9,51.1,1021.1,51.1
	L1021.1,51.1z"/>
</svg>
